<?xml version="1.0" encoding="UTF-8" standalone="no"?>
<svg
   viewBox="0 0 199.99999 200.00001"
   version="1.1"
   id="svg30"
   sodipodi:docname="logo_KHL.svg"
   width="200"
   height="200"
   inkscape:version="1.4.2 (f4327f4, 2025-05-13)"
   xmlns:inkscape="http://www.inkscape.org/namespaces/inkscape"
   xmlns:sodipodi="http://sodipodi.sourceforge.net/DTD/sodipodi-0.dtd"
   xmlns="http://www.w3.org/2000/svg"
   xmlns:svg="http://www.w3.org/2000/svg"
   xmlns:rdf="http://www.w3.org/1999/02/22-rdf-syntax-ns#"
   xmlns:cc="http://creativecommons.org/ns#"
   xmlns:dc="http://purl.org/dc/elements/1.1/">
  <sodipodi:namedview
     id="namedview30"
     pagecolor="#ffffff"
     bordercolor="#000000"
     borderopacity="0.25"
     inkscape:showpageshadow="2"
     inkscape:pageopacity="0.0"
     inkscape:pagecheckerboard="0"
     inkscape:deskcolor="#d1d1d1"
     inkscape:zoom="1.1614229"
     inkscape:cx="32.287981"
     inkscape:cy="230.75144"
     inkscape:window-width="1920"
     inkscape:window-height="1009"
     inkscape:window-x="-8"
     inkscape:window-y="-8"
     inkscape:window-maximized="1"
     inkscape:current-layer="svg30" />
  <defs
     id="defs12">
    <linearGradient
       id="a"
       x1="455.26999"
       y1="488.16"
       x2="575.84003"
       y2="589.32001"
       gradientTransform="matrix(1,0,0,-1,-434.9,597.61)"
       gradientUnits="userSpaceOnUse">
      <stop
         offset="0.18"
         stop-color="#070e16"
         id="stop1" />
      <stop
         offset="0.49"
         stop-color="#1e2328"
         id="stop2" />
      <stop
         offset="0.79"
         stop-color="#272c30"
         id="stop3" />
    </linearGradient>
    <linearGradient
       id="b"
       x1="553.62"
       y1="527.25"
       x2="404.31"
       y2="401.97"
       gradientTransform="matrix(1,0,0,-1,-434.9,597.61)"
       gradientUnits="userSpaceOnUse">
      <stop
         offset="0.03"
         stop-color="#e4e9eb"
         id="stop4" />
      <stop
         offset="0.47"
         stop-color="#899194"
         id="stop5" />
    </linearGradient>
    <linearGradient
       id="c"
       x1="497.20001"
       y1="593.91998"
       x2="467.85001"
       y2="513.28003"
       gradientTransform="matrix(1,0,0,-1,-434.9,597.61)"
       gradientUnits="userSpaceOnUse">
      <stop
         offset="0"
         stop-color="#e4e9eb"
         id="stop6" />
      <stop
         offset="0.77"
         stop-color="#899194"
         id="stop7" />
      <stop
         offset="1"
         stop-color="#899194"
         id="stop8" />
    </linearGradient>
    <linearGradient
       id="d"
       x1="425.22"
       y1="529.29999"
       x2="526.29999"
       y2="511.48001"
       gradientTransform="matrix(1,0,0,-1,-434.9,597.61)"
       gradientUnits="userSpaceOnUse">
      <stop
         offset="0.24"
         stop-color="#c9cdcf"
         id="stop9" />
      <stop
         offset="1"
         stop-color="#899194"
         id="stop10" />
    </linearGradient>
    <linearGradient
       id="e"
       x1="470.54001"
       y1="514"
       x2="589.09998"
       y2="514"
       gradientTransform="matrix(1,0,0,-1,-434.9,597.61)"
       gradientUnits="userSpaceOnUse">
      <stop
         offset="0.45"
         stop-color="#d7d8d9"
         id="stop11" />
      <stop
         offset="0.94"
         stop-color="#899194"
         id="stop12" />
    </linearGradient>
  </defs>
  <title
     id="title12">Kontinental Hockey League logo - Brandlogos.net</title>
  <g
     id="g30"
     transform="matrix(1.1958862,0,0,1.1958862,7.7876944,0.02391368)">
    <path
       d="m 148.25,17 -0.53,-0.28 C 146.92,16.3 127.4,6.48 77.32,6.48 27.24,6.48 7.73,16.31 6.92,16.72 L 6.39,17 v 0.6 c 0,0.51 -0.69,51.29 11.5,79.73 11.09,25.89 26.55,41.52 37.56,50.07 12,9.3 21.18,12.41 21.57,12.54 l 0.32,0.1 0.32,-0.1 c 0.39,-0.13 9.6,-3.24 21.57,-12.54 11,-8.55 26.46,-24.19 37.56,-50.07 12.18,-28.44 11.5,-79.22 11.49,-79.73 z"
       style="fill:url(#a)"
       id="path12" />
    <path
       d="M 102.1,98.09 H 97.31 L 77.1,64.97 56.72,98.03 H 28.1 a 109.11,109.11 0 0 0 13.68,23.36 c 11.74,14.47 24,22 30.52,25.38 h 0.08 c 3,1.5 4.7,2.19 4.7,2.19 v 0 c 0,0 0.35,-0.13 1,-0.39 a 92.15,92.15 0 0 0 11.8,-6.47 100,100 0 0 0 18.62,-16.11 106.37,106.37 0 0 0 17.47,-27.94 z M 90.82,131.61 H 82.1 v -11.39 h -9.77 v 11.39 h -8.72 v -28.35 h 8.77 v 10.21 h 9.72 v -10.21 h 8.75 z"
       style="fill:url(#b)"
       id="path13" />
    <path
       d="m 77.1,8.29 a 308.72,308.72 0 0 1 31.84,1.53 190,190 0 0 1 21.47,3.39 c 9.6,2.14 14.61,4.32 15.95,5 0,4.93 0.1,51.85 -11.36,78.61 -11,25.55 -26.19,41 -37,49.4 -10.81,8.4 -19.43,11.63 -20.9,12.15 -1.48,-0.52 -10,-3.74 -20.85,-12.19 C 45.4,137.73 30.16,122.33 19.25,96.78 7.78,70.02 7.84,23.1 7.89,18.17 c 1.34,-0.63 6.35,-2.81 15.95,-5 A 189.91,189.91 0 0 1 45.31,9.78 308.66,308.66 0 0 1 77.1,8.29 m 0,-1.69 C 27.03,6.6 7.51,16.43 6.7,16.85 l -0.53,0.28 v 0.6 c 0,0.51 -0.69,51.29 11.5,79.73 11.1,25.89 26.55,41.52 37.56,50.07 12,9.3 21.18,12.41 21.57,12.54 l 0.32,0.11 0.32,-0.11 c 0.39,-0.13 9.6,-3.24 21.57,-12.54 11,-8.55 26.46,-24.18 37.56,-50.07 12.18,-28.44 11.5,-79.22 11.5,-79.73 v -0.6 l -0.53,-0.28 C 146.73,16.43 127.22,6.6 77.14,6.6 Z"
       style="fill:#1e2328"
       id="path14" />
    <path
       d="m 138.34,23.15 v 0.52 a 180.29,180.29 0 0 1 -6.12,56.65 H 96.1 L 81.83,56.9 106.22,17.03 c 20.65,1.89 30.25,5.37 32.12,6.12 z"
       style="fill:none"
       id="path15" />
    <path
       d="M 58.03,80.31 72.24,56.89 47.79,17.03 c -20.53,1.89 -30.1,5.36 -32,6.11 v 0.52 a 180.05,180.05 0 0 0 6.12,56.65 z M 26.88,35.82 h 8.92 v 10.25 l 9.21,-10.25 h 9.54 l -10,11.37 11.3,16.79 h -9.42 l -7.21,-10.71 -3.45,3.94 v 6.77 h -8.92 z m 50.22,13.3 v 0 l -20,-32.77 c 5.93,-0.34 12.57,-0.55 20,-0.55 7.43,0 14.06,0.21 20,0.55 z"
       style="fill:url(#c)"
       id="path16" />
    <path
       d="M 76.78,160.05 C 76.39,159.92 67.18,156.81 55.21,147.51 44.21,138.96 28.75,123.33 17.65,97.44 5.46,69 6.14,18.22 6.15,17.71 v -0.6 L 6.68,16.83 C 7.49,16.41 27,6.58 77.08,6.58 v -6.6 0 c -53.5,0 -74.61,11.59 -75.49,12.08 l -0.53,0.3 -1,0.56 v 1.14 0.61 c 0,0.54 -1.34,54.53 11.73,85.15 11.91,27.9 28.69,44.62 40.67,53.73 13.08,10 23.3,13.23 23.73,13.37 l 0.32,0.1 0.6,0.19 v 0 -7.06 z"
       style="fill:url(#d)"
       id="path17" />
    <path
       d="M 138.39,23.66 V 23.14 C 136.52,22.39 126.91,18.91 106.3,17.02 L 81.91,56.89 96.1,80.31 h 36.14 a 180.29,180.29 0 0 0 6.15,-56.65 z M 104.67,63.98 V 35.9 h 8.74 v 21.29 h 12.3 c 0,0 4.07,6.75 4.07,6.79 z m 37.76,35.85 c -11.91,27.9 -28.69,44.62 -40.67,53.73 -13.08,10 -23.31,13.23 -23.73,13.37 l -0.32,0.1 -0.6,0.19 v -5.24 l -0.29,-0.1 c -0.37,-0.13 -14.4,-6.29 -21.59,-14.21 -0.15,-0.16 -0.31,-0.3 -0.46,-0.44 l 0.47,0.37 c 12,9.25 21.18,12.35 21.57,12.47 l 0.29,0.1 v 0 l 0.32,-0.11 c 0.39,-0.13 9.6,-3.24 21.57,-12.54 11,-8.55 26.47,-24.18 37.56,-50.07 12.19,-28.44 11.5,-79.22 11.5,-79.73 v -0.6 l -0.54,-0.28 C 146.71,16.42 127.22,6.61 77.24,6.59 A 286.08,286.08 0 0 0 35.66,9.32 c 0,0 10.6,-3.11 41.46,-4.48 v -4.85 c 53.51,0 74.61,11.59 75.49,12.08 l 0.53,0.3 1,0.56 v 1.14 0.61 c 0.04,0.55 1.36,54.53 -11.71,85.15 z"
       style="fill:url(#e)"
       id="path18" />
    <path
       d="m 137.73,97.47 c 12.9,-33.39 10.24,-79.82 10.23,-80.33 v 0.6 c 0,0.51 0.69,51.29 -11.49,79.72 -11.1,25.89 -26.55,41.52 -37.56,50.07 a 97.49,97.49 0 0 1 -13.33,8.76 100.07,100.07 0 0 0 13.66,-8.76 c 11.28,-8.54 28.3,-23.68 38.49,-50.06 z"
       style="fill:#e4e9eb"
       id="path19" />
    <polygon
       points="35.81,35.77 29.71,35.77 36.45,35.24 35.81,46.01 "
       style="fill:#e4e9eb"
       id="polygon19" />
    <polygon
       points="35.81,57.15 35.81,63.92 36.4,57.46 38.59,53.97 "
       style="fill:#e4e9eb"
       id="polygon20" />
    <polygon
       points="44.56,47.17 50.34,40.56 45.38,47.17 51.05,56.76 "
       style="fill:#e4e9eb"
       id="polygon21" />
    <polygon
       points="77.17,111.51 72.5,112.68 72.5,113.48 81.93,113.48 81.93,112.68 "
       style="fill:#899194"
       id="polygon22" />
    <polygon
       points="77.25,122.2 81.93,121.03 81.93,120.23 72.48,120.23 72.48,121.03 "
       style="fill:#e4e9eb"
       id="polygon23" />
    <polygon
       points="114.18,56.35 121,57.18 113.41,57.18 113.41,38.95 "
       style="fill:#e4e9eb"
       id="polygon24" />
    <polygon
       points="72.24,56.9 58.05,80.31 69.94,56.9 47.81,17.15 "
       style="fill:#e4e9eb"
       id="polygon25" />
    <polygon
       points="57.16,16.39 77.13,49.17 77.13,45.23 "
       style="fill:#899194"
       id="polygon26" />
    <path
       d="M 97.1,16.39"
       style="fill:#e4e9eb"
       id="path26" />
    <polygon
       points="56.97,97.62 77.13,64.87 77.13,68.81 "
       style="fill:#899194"
       id="polygon27" />
    <polygon
       points="97.12,97.62 77.14,64.87 77.14,68.81 "
       style="fill:#e4e9eb"
       id="polygon28" />
    <polygon
       points="81.83,56.9 96.13,80.31 84.13,56.9 106.21,17.12 "
       style="fill:#899194"
       id="polygon29" />
    <polygon
       points="97.11,16.42 77.13,49.17 77.13,45.23 "
       style="fill:#e4e9eb"
       id="polygon30" />
  </g>
  <metadata
     id="metadata30">
    <rdf:RDF>
      <cc:Work
         rdf:about="">
        <dc:title>Kontinental Hockey League logo - Brandlogos.net</dc:title>
      </cc:Work>
    </rdf:RDF>
  </metadata>
</svg>
