<?xml version="1.0" encoding="UTF-8" standalone="no"?>
<svg
   height="200"
   width="200"
   version="1.1"
   id="svg7"
   sodipodi:docname="logo_OG.svg"
   inkscape:version="1.4.2 (f4327f4, 2025-05-13)"
   xmlns:inkscape="http://www.inkscape.org/namespaces/inkscape"
   xmlns:sodipodi="http://sodipodi.sourceforge.net/DTD/sodipodi-0.dtd"
   xmlns="http://www.w3.org/2000/svg"
   xmlns:svg="http://www.w3.org/2000/svg">
  <defs
     id="defs7" />
  <sodipodi:namedview
     id="namedview7"
     pagecolor="#ffffff"
     bordercolor="#000000"
     borderopacity="0.25"
     inkscape:showpageshadow="2"
     inkscape:pageopacity="0.0"
     inkscape:pagecheckerboard="0"
     inkscape:deskcolor="#d1d1d1"
     showgrid="false"
     inkscape:zoom="3.248538"
     inkscape:cx="171"
     inkscape:cy="78.958596"
     inkscape:window-width="1920"
     inkscape:window-height="1009"
     inkscape:window-x="-8"
     inkscape:window-y="-8"
     inkscape:window-maximized="1"
     inkscape:current-layer="svg7" />
  <g
     stroke-width="9.5"
     stroke="#000000"
     fill="none"
     id="g7"
     transform="matrix(0.58479532,0,0,0.58479532,2.7999999e-7,53.80117)">
    <circle
       cx="54"
       cy="54"
       r="49.25"
       stroke="#0078d0"
       id="circle1" />
    <circle
       cx="171"
       cy="54"
       r="49.25"
       id="circle2" />
    <circle
       cx="288"
       cy="54"
       r="49.25"
       stroke="#f0282d"
       id="circle3" />
    <circle
       cx="112.5"
       cy="104"
       r="49.25"
       stroke="#ffb114"
       id="circle4" />
    <circle
       cx="229.5"
       cy="104"
       r="49.25"
       stroke="#00a651"
       id="circle5" />
    <path
       d="m 93.4,24.45 a 49.25,49.25 0 0 1 0,59.1"
       stroke="#0078d0"
       id="path5" />
    <path
       d="m 210.4,24.45 a 49.25,49.25 0 0 1 0,59.1 M 171,103.25 A 49.25,49.25 0 0 1 141.45,93.4"
       id="path6" />
    <path
       d="M 288,103.25 A 49.25,49.25 0 0 1 258.45,93.4"
       stroke="#f0282d"
       id="path7" />
  </g>
</svg>
