<?xml version="1.0" encoding="UTF-8" standalone="no"?>
<svg
   width="200"
   height="200"
   viewBox="0 0 200 200"
   version="1.1"
   id="svg26"
   sodipodi:docname="logo_ING.svg"
   inkscape:version="1.4.2 (f4327f4, 2025-05-13)"
   xmlns:inkscape="http://www.inkscape.org/namespaces/inkscape"
   xmlns:sodipodi="http://sodipodi.sourceforge.net/DTD/sodipodi-0.dtd"
   xmlns="http://www.w3.org/2000/svg"
   xmlns:svg="http://www.w3.org/2000/svg">
  <sodipodi:namedview
     id="namedview26"
     pagecolor="#ffffff"
     bordercolor="#000000"
     borderopacity="0.25"
     inkscape:showpageshadow="2"
     inkscape:pageopacity="0.0"
     inkscape:pagecheckerboard="0"
     inkscape:deskcolor="#d1d1d1"
     showgrid="false"
     inkscape:zoom="1.130809"
     inkscape:cx="290.5"
     inkscape:cy="300.22755"
     inkscape:window-width="1920"
     inkscape:window-height="1009"
     inkscape:window-x="-8"
     inkscape:window-y="-8"
     inkscape:window-maximized="1"
     inkscape:current-layer="svg26" />
  <defs
     id="defs7">
    <clipPath
       id="clip1">
      <path
         d="M 75,183 H 522 V 573 H 75 Z m 0,0"
         id="path1" />
    </clipPath>
    <clipPath
       id="clip2">
      <path
         d="m 231.97656,183.37891 -156.128904,83.875 222.890624,304.85937 223.10547,-304.85937 -156.12891,-83.875 c -29.57812,0 -104.16015,0 -133.73828,0"
         id="path2" />
    </clipPath>
    <linearGradient
       id="linear0"
       gradientUnits="userSpaceOnUse"
       x1="-603.52948"
       y1="1010.1805"
       x2="-603.02032"
       y2="1010.1805"
       gradientTransform="matrix(-912.27651,538.10387,538.11692,912.2544,-1093642.8,-596543.46)">
      <stop
         offset="0"
         style="stop-color:rgb(17.254902%,72.941176%,83.921569%);stop-opacity:1;"
         id="stop2" />
      <stop
         offset="0.00500757"
         style="stop-color:rgb(17.254902%,72.941176%,83.921569%);stop-opacity:1;"
         id="stop3" />
      <stop
         offset="1"
         style="stop-color:rgb(15.294118%,21.568627%,47.058824%);stop-opacity:1;"
         id="stop4" />
    </linearGradient>
    <clipPath
       id="clip3">
      <path
         d="M 139,201 H 422 V 450 H 139 Z m 0,0"
         id="path4" />
    </clipPath>
    <clipPath
       id="clip4">
      <path
         d="M 230.07422,216.55078 161.625,233.875 139.44141,305.49219 251.41406,426.55078 372.05078,450 l 20.28125,-69.08594 -22.81641,9.71875 0.63282,-10.14062 -19.64844,6.97265 6.76172,-51.55078 8.23828,3.80469 0.42578,21.97266 11.82813,-8.66407 5.91796,20.70313 38.23829,-59.57422 -0.42188,-16.05859 -19.4375,-35.91407 -91.05859,-53.23828 -46.69141,3.58985 -25.5625,-11.19532 z m 0,0"
         id="path5" />
    </clipPath>
    <linearGradient
       id="linear1"
       gradientUnits="userSpaceOnUse"
       x1="-604.04639"
       y1="1010.8085"
       x2="-603.53717"
       y2="1010.8085"
       gradientTransform="matrix(-590.02854,329.20245,329.21043,590.01424,-688763.55,-397284.31)">
      <stop
         offset="0"
         style="stop-color:rgb(15.294118%,21.568627%,47.058824%);stop-opacity:1;"
         id="stop5" />
      <stop
         offset="0.00166919"
         style="stop-color:rgb(15.294118%,21.568627%,47.058824%);stop-opacity:1;"
         id="stop6" />
      <stop
         offset="1"
         style="stop-color:rgb(13.333333%,10.196078%,23.921569%);stop-opacity:1;"
         id="stop7" />
    </linearGradient>
  </defs>
  <g
     id="surface1"
     transform="matrix(0.37655642,0,0,0.37655642,-12.532268,-15.432929)">
    <g
       clip-path="url(#clip1)"
       clip-rule="nonzero"
       id="g8">
      <g
         clip-path="url(#clip2)"
         clip-rule="nonzero"
         id="g7">
        <path
           style="fill:url(#linear0);fill-rule:nonzero;stroke:none"
           d="M 691.91797,471.76172 190.99219,767.11328 -94.226562,283.73047 406.69922,-11.832031 Z m 0,0"
           id="path7" />
      </g>
    </g>
    <g
       clip-path="url(#clip3)"
       clip-rule="nonzero"
       id="g10">
      <g
         clip-path="url(#clip4)"
         clip-rule="nonzero"
         id="g9">
        <path
           style="fill:url(#linear1);fill-rule:nonzero;stroke:none"
           d="M 527.75781,390.84375 206.41406,570.21094 33.59375,260.28125 354.72656,81.125 Z m 0,0"
           id="path8" />
      </g>
    </g>
    <path
       style="fill:#ffffff;fill-opacity:1;fill-rule:nonzero;stroke:none"
       d="m 167.96094,244.4375 71.19922,-20.49219 3.59375,-9.50781 9.08203,6.97266 53.875,-3.17188 80.49609,46.26953 5.28125,5.70313 16.48047,22.39453 4.01172,10.14062 -3.80078,12.04297 -23.875,44.57813 -2.95703,-21.33985 -9.71875,10.14063 1.6914,-24.92969 -26.41015,3.38281 -7.81641,67.1836 8.66016,7.8164 14.15625,-6.33984 v 9.29687 l 17.95703,-10.35156 -14.57813,46.47656 C 297.68359,423.37891 242.11719,390.42187 242.11719,390.42187 l -53.44922,-96.97265 13.9414,12.89062 c 0,0 30,66.33594 87.04688,101.40625 30,17.95703 72.46484,27.67578 71.83203,27.67578 0.63281,0 8.23828,-28.09765 8.23828,-28.09765 l -9.08594,5.28125 -27.2539,-13.94531 7.60937,-81.96875 34.4336,2.53515 12.2539,18.37891 13.94532,-27.25391 -0.21094,-3.80078 -6.97266,-4.64844 4.4375,-12.46484 -10.5625,-12.67578 -30.21484,-5.07031 9.29687,19.85937 -51.55078,-29.78906 66.33985,8.87109 -76.48047,-43.73047 -44.36719,2.53516 35.49609,24.08203 c 0,0 -59.15625,-26.19531 -47.75,-8.66016 4.4375,6.76172 16.48047,13.3086 16.48047,13.3086 l 28.94531,5.28125 1.47657,3.80469 -31.05469,3.80078 -40.56641,-35.91407 z m 0,0"
       id="path10" />
    <path
       style="fill:#ffffff;fill-opacity:1;fill-rule:nonzero;stroke:none"
       d="m 366.76953,299.57812 -62.75,-9.50781 54.93359,12.25391 z m 0,0"
       id="path11" />
    <path
       style="fill:#ffffff;fill-opacity:1;fill-rule:nonzero;stroke:none"
       d="m 366.34766,305.07031 -72.25782,-5.91406 65.28516,9.08203 z m 0,0"
       id="path12" />
    <path
       style="fill:#ffffff;fill-opacity:1;fill-rule:nonzero;stroke:none"
       d="m 365.92578,310.98437 -72.25781,-3.16796 65.28515,5.91406 z m 0,0"
       id="path13" />
    <path
       style="fill:#231e4a;fill-opacity:1;fill-rule:nonzero;stroke:none"
       d="m 139.65234,41.621094 h 85.35157 V 59.789062 H 163.52344 V 72.253906 H 221.625 v 16.054688 h -58.10156 v 12.464846 h 62.75 v 18.80469 h -86.6211 z m 0,0"
       id="path14" />
    <path
       style="fill:#231e4a;fill-opacity:1;fill-rule:nonzero;stroke:none"
       d="m 240.85156,41.621094 h 72.04297 c 18.38281,0 23.45313,9.082031 23.45313,23.238281 v 4.859375 c 0,10.351562 -2.32422,16.476562 -13.3125,19.226562 v 0.210938 c 7.18359,1.265625 13.10156,4.433594 13.10156,17.32422 v 13.30859 h -23.875 v -9.29687 c 0,-8.23828 -2.32422,-10.77344 -9.71875,-10.77344 H 264.9375 V 120 h -24.08594 z m 23.875,38.238281 h 39.50781 c 6.54688,0 8.8711,-2.535156 8.8711,-8.238281 v -2.535156 c 0,-6.972657 -3.37891,-8.242188 -10.98438,-8.242188 h -37.39453 z m 0,0"
       id="path15" />
    <path
       style="fill:#231e4a;fill-opacity:1;fill-rule:nonzero;stroke:none"
       d="m 350.71094,69.085938 c 0,-22.816407 12.89062,-28.101563 34.22656,-28.101563 h 28.10156 c 34.01563,0 38.44922,7.394531 38.23828,29.367187 h -23.87109 v -2.113281 c 0,-5.492187 -4.01563,-7.183593 -11.19922,-7.183593 h -25.98437 c -12.67969,0 -15.00391,5.917968 -15.00391,15.636718 v 8.449219 c 0,11.199219 2.32422,15.632815 13.73437,15.632815 h 25.5625 c 10.77735,0 13.94532,-1.05469 13.94532,-10.77344 h 23.875 v 7.394531 c 0,13.097659 -4.64844,23.449219 -28.73438,23.449219 h -38.45312 c -21.54688,0 -34.22266,-5.28125 -34.22266,-28.097656 V 69.085938 Z m 0,0"
       id="path16" />
    <path
       style="fill:#231e4a;fill-opacity:1;fill-rule:nonzero;stroke:none"
       d="m 140.07422,132.88672 h 7.39453 v 24.08594 h -7.39453 z m 0,0"
       id="path17" />
    <path
       style="fill:#231e4a;fill-opacity:1;fill-rule:nonzero;stroke:none"
       d="m 152.96094,132.88672 h 11.41015 l 13.94141,17.53515 v -17.53515 h 7.39453 v 24.29687 h -11.40625 l -13.94531,-17.53515 v 17.53515 h -7.39453 z m 0,0"
       id="path18" />
    <path
       style="fill:#231e4a;fill-opacity:1;fill-rule:nonzero;stroke:none"
       d="m 190.14453,141.33984 c 0,-6.97265 4.01563,-8.66406 10.56641,-8.66406 h 11.19531 c 8.45312,0 9.50781,2.95703 9.50781,7.81641 v 0.84765 h -7.18359 c 0,-2.32422 -1.26563,-2.75 -3.80469,-2.75 h -8.02734 c -3.80078,0 -4.64844,0.84766 -4.64844,5.07032 v 2.96093 c 0,4.22266 1.05859,5.07032 4.64844,5.07032 h 7.8164 c 1.90235,0 3.80469,-0.21094 3.80469,-2.53516 v -0.63672 h -9.29687 v -5.07031 h 16.6914 v 6.97265 c 0,6.97266 -3.59375,7.1836 -11.83203,7.1836 h -8.87109 c -6.76172,0 -10.56641,-1.69141 -10.56641,-8.66016 z m 0,0"
       id="path19" />
    <path
       style="fill:#231e4a;fill-opacity:1;fill-rule:nonzero;stroke:none"
       d="m 225.64062,141.33984 c 0,-6.97265 4.01172,-8.66406 10.5625,-8.66406 h 11.83204 c 6.75781,0 10.5625,1.69141 10.5625,8.66406 v 7.17969 c 0,6.97266 -4.01563,8.66406 -10.5625,8.66406 h -11.83204 c -6.76171,0 -10.5625,-1.6914 -10.5625,-8.66406 z m 7.60547,5.07032 c 0,3.58984 0.63282,4.85937 4.22266,4.85937 h 9.50781 c 3.59375,0 4.22656,-1.26953 4.22656,-4.85937 v -2.75 c 0,-2.95704 -0.63281,-4.85547 -4.64843,-4.85547 h -8.66016 c -3.80469,0 -4.64844,1.89843 -4.64844,4.85547 z m 0,0"
       id="path20" />
    <path
       style="fill:#231e4a;fill-opacity:1;fill-rule:nonzero;stroke:none"
       d="m 263.24609,132.88672 h 7.39453 v 17.95703 h 16.69141 v 6.33984 h -24.08594 z m 0,0"
       id="path21" />
    <path
       style="fill:#231e4a;fill-opacity:1;fill-rule:nonzero;stroke:none"
       d="m 290.07812,149.15625 h 7.39454 c 0,2.53516 1.05468,2.74609 3.16796,2.74609 h 9.08594 c 1.47656,0 3.16797,-0.21093 3.16797,-2.11328 0,-2.11328 -0.84375,-2.32422 -10.35156,-2.32422 -11.19922,0 -12.46485,-1.26953 -12.46485,-7.18359 0,-4.4375 0.42188,-7.81641 9.71875,-7.81641 h 10.35157 c 8.44922,0 9.29687,2.95703 9.29687,7.1836 v 0.84375 h -7.39453 c 0,-1.6875 -0.21094,-2.53516 -3.59375,-2.53516 h -8.23828 c -1.69141,0 -2.74609,0.63281 -2.74609,1.90234 0,2.11329 0.84375,2.11329 8.87109,2.11329 11.41016,0 14.15625,0.63281 14.15625,7.60546 0,6.54688 -2.11328,7.60547 -12.04297,7.60547 h -8.87109 c -6.76172,0 -9.50782,-1.26953 -9.50782,-6.55078 z m 0,0"
       id="path22" />
    <path
       style="fill:#231e4a;fill-opacity:1;fill-rule:nonzero;stroke:none"
       d="m 323.24609,132.88672 h 28.10157 v 6.1289 h -10.35157 v 18.16797 h -7.39453 v -18.16797 h -10.35547 z m 0,0"
       id="path23" />
    <path
       style="fill:#231e4a;fill-opacity:1;fill-rule:nonzero;stroke:none"
       d="m 362.96484,132.88672 h 9.71875 l 13.3125,24.08594 h -8.24218 l -2.32422,-4.22657 h -15 l -2.10938,4.22657 h -8.24219 z m 0,14.78906 h 9.50782 l -4.85938,-9.08594 z m 0,0"
       id="path24" />
    <path
       style="fill:#231e4a;fill-opacity:1;fill-rule:nonzero;stroke:none"
       d="m 388.74219,132.88672 h 22.39453 c 7.39453,0 9.92969,2.53515 9.92969,8.45312 v 7.39063 c 0,5.91797 -2.53516,8.45312 -9.92969,8.45312 h -22.39453 z m 7.39453,17.95703 h 13.09765 c 3.17188,0 4.4375,-0.84375 4.4375,-4.22266 v -3.17187 c 0,-3.37891 -1.26562,-4.4336 -4.4375,-4.4336 h -13.09765 z m 0,0"
       id="path25" />
    <path
       style="fill:#231e4a;fill-opacity:1;fill-rule:nonzero;stroke:none"
       d="m 423.8125,132.88672 h 28.10156 v 6.1289 h -10.35547 v 18.16797 h -7.39453 V 139.01562 H 423.8125 Z m 0,0"
       id="path26" />
  </g>
</svg>
