<?xml version="1.0" encoding="UTF-8" standalone="no"?>
<!-- Created with Inkscape (http://www.inkscape.org/) -->

<svg
   version="1.0"
   width="200"
   height="200"
   id="svg3330"
   sodipodi:docname="logo_ESV.svg"
   inkscape:version="1.4.2 (f4327f4, 2025-05-13)"
   xmlns:inkscape="http://www.inkscape.org/namespaces/inkscape"
   xmlns:sodipodi="http://sodipodi.sourceforge.net/DTD/sodipodi-0.dtd"
   xmlns="http://www.w3.org/2000/svg"
   xmlns:svg="http://www.w3.org/2000/svg">
  <sodipodi:namedview
     id="namedview1"
     pagecolor="#ffffff"
     bordercolor="#000000"
     borderopacity="0.25"
     inkscape:showpageshadow="2"
     inkscape:pageopacity="0.0"
     inkscape:pagecheckerboard="0"
     inkscape:deskcolor="#d1d1d1"
     showgrid="false"
     inkscape:zoom="1.4542592"
     inkscape:cx="314.93697"
     inkscape:cy="277.46085"
     inkscape:window-width="1920"
     inkscape:window-height="1009"
     inkscape:window-x="-8"
     inkscape:window-y="-8"
     inkscape:window-maximized="1"
     inkscape:current-layer="svg3330" />
  <defs
     id="defs3332" />
  <g
     id="g1"
     transform="matrix(0.33155265,0,0,0.33155265,-4.2838721,7.5334723)">
    <g
       transform="translate(223.17515,-26.329898)"
       id="layer1">
      <path
         d="M 258.38389,445.91046 234.68457,425.58924 C 287.05822,328.30006 288.58495,221.52589 288.58495,221.52589 173.8876,187.7186 232.6928,70.432852 232.6928,70.432852 c 0,0 -70.00995,-27.814457 -165.395106,-27.814457 -95.38516,0 -165.421434,27.814457 -165.421434,27.814457 0,0 20.55813,41.002198 13.679097,81.504258 l -96.122197,-82.416783 -27.41084,32.298113 105.30886,89.366 c -10.95029,12.53845 -27.32309,23.26939 -51.32074,30.34145 0,0 3.97475,279.84677 221.287254,346.29437 C 134.41213,547.28845 181.13516,506.42665 213.74037,459.72117 l 49.3904,41.90595 h 91.50693 l 36.0535,-55.71666 H 258.38389"
         id="path355"
         style="fill:#fff200;fill-opacity:1;fill-rule:nonzero;stroke:none" />
      <path
         d="M 258.38389,445.91046 234.68457,425.58924 C 287.05822,328.30006 288.58495,221.52589 288.58495,221.52589 173.8876,187.7186 232.6928,70.432852 232.6928,70.432852 c 0,0 -70.00995,-27.814457 -165.395106,-27.814457 -95.38516,0 -165.421434,27.814457 -165.421434,27.814457 0,0 20.55813,41.002198 13.679097,81.504258 l -96.122197,-82.416783 -27.41084,32.298113 105.30886,89.366 c -10.95029,12.53845 -27.32309,23.26939 -51.32074,30.34145 0,0 3.97475,279.84677 221.287254,346.29437 C 134.41213,547.28845 181.13516,506.42665 213.74037,459.72117 l 49.3904,41.90595 h 91.50693 l 36.0535,-55.71666 z"
         id="path357"
         style="fill:none;stroke:#231f20;stroke-width:4.55385;stroke-linecap:butt;stroke-linejoin:round;stroke-miterlimit:4;stroke-dasharray:none;stroke-opacity:1" />
      <path
         d="m -74.854359,160.79035 c 24.199454,-5.44883 103.61543,-14.91627 142.152053,-14.91627 38.545396,0 117.970146,9.46744 142.160826,14.91627 -2.15847,-8.79182 -3.02712,-17.62752 -3.02712,-26.20876 0,-23.49752 6.50173,-44.915524 11.28371,-57.515385 -22.74292,-7.423038 -79.63533,-23.251833 -150.417416,-23.251833 -70.7908628,0 -127.648174,15.820021 -150.399873,23.251833 4.773207,12.582312 11.274945,33.965225 11.274945,57.436415 0,8.61634 -0.886202,17.46958 -3.027125,26.28773"
         id="path359"
         style="fill:#1b62b7;fill-opacity:1;fill-rule:nonzero;stroke:none" />
      <path
         d="m -65.834403,79.014094 54.698839,-7.019421 1.7373072,13.503611 -38.6155902,4.975015 2.018083,15.662081 35.439303,-4.54507 1.596918,12.49457 -35.430528,4.54507 2.281312,17.9434 39.4579208,-5.07153 1.746081,13.51238 -55.5236218,7.15104 -9.406024,-73.151146"
         id="path361"
         style="fill:#ffffff;fill-opacity:1;fill-rule:nonzero;stroke:none" />
      <path
         d="m 20.179829,118.62118 c 0.675619,9.79209 8.563694,13.07367 17.232679,12.47702 5.668183,-0.40362 14.188005,-2.64983 13.661548,-10.16939 -0.53523,-7.94949 -11.669787,-8.50227 -22.690278,-10.65197 C 17.266769,108.16224 5.9479527,104.71395 4.974008,90.912013 3.9210948,75.864129 17.635289,67.651406 30.937092,66.730107 46.283301,65.66842 60.866149,71.371699 62.050676,88.367473 L 46.388593,89.473032 C 45.247937,80.637335 38.816392,78.812286 31.086255,79.347517 c -5.150501,0.359745 -10.97662,2.948157 -10.529132,9.125247 0.394842,5.676957 3.93965,6.141994 22.716602,9.599059 5.4576,0.956396 22.172596,3.202607 23.348349,19.900057 0.938848,13.49484 -8.976085,24.33984 -28.955112,25.73495 -16.276283,1.14066 -32.0875289,-5.84366 -33.1492164,-23.98009 l 15.6620834,-1.10556"
         id="path363"
         style="fill:#ffffff;fill-opacity:1;fill-rule:nonzero;stroke:none" />
      <path
         d="M 105.52722,142.20643 87.285495,141.02191 68.043507,65.931648 84.740955,66.984561 97.832176,119.77938 h 0.210582 l 19.864962,-50.671444 16.715,1.044139 -29.0955,72.054355"
         id="path365"
         style="fill:#ffffff;fill-opacity:1;fill-rule:nonzero;stroke:none" />
      <path
         d="m 144.10771,71.336602 16.08325,2.00931 -3.78171,30.332678 32.38585,-26.761548 20.09309,2.500669 -32.21037,25.331339 25.84902,48.17955 -20.21593,-2.51822 -17.9083,-35.64111 -10.41507,8.17763 -2.92183,23.57648 -16.08325,-2.00931 9.12525,-73.177468"
         id="path367"
         style="fill:#ffffff;fill-opacity:1;fill-rule:nonzero;stroke:none" />
      <path
         d="m 248.68831,366.55591 c 21.93569,-60.66535 27.13884,-116.86459 28.33214,-137.14194 -30.631,-10.84501 -51.73313,-28.74453 -62.49917,-53.51432 -0.79846,-1.8075 -1.5355,-3.64132 -2.16725,-5.48392 C 139.6767,153.01634 75.905259,157.89484 75.905259,157.89484 V 553.08825 C 156.10215,524.56308 214.2405,461.92352 248.68831,366.55591"
         id="path369"
         style="fill:#ed1c24;fill-opacity:1;fill-rule:nonzero;stroke:none" />
      <path
         d="m -184.53281,93.86017 c 0,0 -4.10637,4.825852 -5.5278,6.48419 1.92157,1.63202 13.84581,11.75753 14.79343,12.56476 1.41266,-0.60542 13.75807,-5.95773 17.12739,-7.41426 -3.01835,-2.57964 -19.69825,-16.881707 -21.00562,-18.013589 -1.40388,1.684661 -5.3874,6.378899 -5.3874,6.378899"
         id="path371"
         style="fill:#231f20;fill-opacity:1;fill-rule:nonzero;stroke:none" />
      <path
         d="m -184.53281,93.86017 c 0,0 -4.10637,4.825852 -5.5278,6.48419 1.92157,1.63202 13.84581,11.75753 14.79343,12.56476 1.41266,-0.60542 13.75807,-5.95773 17.12739,-7.41426 -3.01835,-2.57964 -19.69825,-16.881707 -21.00562,-18.013589 -1.40388,1.684661 -5.3874,6.378899 -5.3874,6.378899 z"
         id="path373"
         style="fill:none;stroke:#231f20;stroke-width:3.0359;stroke-linecap:butt;stroke-linejoin:round;stroke-miterlimit:4;stroke-dasharray:none;stroke-opacity:1" />
      <path
         d="m -117.4447,161.97488 c 2.58841,2.20234 15.00402,12.7578 17.04842,14.47755 1.544275,-2.57086 2.965708,-5.08908 4.088815,-7.66871 0,0 2.026858,-5.66819 2.825317,-7.85298 -1.307367,-1.10556 -7.168582,-6.13322 -7.256322,-6.20341 -1.40389,0.61419 -13.372,5.79102 -16.70623,7.24755"
         id="path375"
         style="fill:#231f20;fill-opacity:1;fill-rule:nonzero;stroke:none" />
      <path
         d="m -117.4447,161.97488 c 2.58841,2.20234 15.00402,12.7578 17.04842,14.47755 1.544275,-2.57086 2.965708,-5.08908 4.088815,-7.66871 0,0 2.026858,-5.66819 2.825317,-7.85298 -1.307367,-1.10556 -7.168582,-6.13322 -7.256322,-6.20341 -1.40389,0.61419 -13.372,5.79102 -16.70623,7.24755 z"
         id="path377"
         style="fill:none;stroke:#231f20;stroke-width:3.0359;stroke-linecap:butt;stroke-linejoin:round;stroke-miterlimit:4;stroke-dasharray:none;stroke-opacity:1" />
      <path
         d="m -143.49552,139.8637 c 2.57963,2.19357 12.6525,10.74849 13.71419,11.64347 1.40388,-0.58788 13.46851,-5.82612 16.82906,-7.25633 -2.23744,-1.92157 -12.45947,-10.67829 -13.65277,-11.69611 -1.39511,0.60542 -13.52994,5.86122 -16.89048,7.30897"
         id="path379"
         style="fill:#231f20;fill-opacity:1;fill-rule:nonzero;stroke:none" />
      <path
         d="m -143.49552,139.8637 c 2.57963,2.19357 12.6525,10.74849 13.71419,11.64347 1.40388,-0.58788 13.46851,-5.82612 16.82906,-7.25633 -2.23744,-1.92157 -12.45947,-10.67829 -13.65277,-11.69611 -1.39511,0.60542 -13.52994,5.86122 -16.89048,7.30897 z"
         id="path381"
         style="fill:none;stroke:#231f20;stroke-width:3.0359;stroke-linecap:butt;stroke-linejoin:round;stroke-miterlimit:4;stroke-dasharray:none;stroke-opacity:1" />
      <path
         d="m -162.94809,123.35929 c 2.20234,1.87769 6.16831,5.24701 7.14226,6.06302 1.42143,-0.60542 13.644,-5.89631 16.97822,-7.35284 -1.34246,-1.16698 -6.01915,-5.1856 -7.10716,-6.08935 -1.38634,0.60543 -13.63523,5.91386 -17.01332,7.37917"
         id="path383"
         style="fill:#231f20;fill-opacity:1;fill-rule:nonzero;stroke:none" />
      <path
         d="m -162.94809,123.35929 c 2.20234,1.87769 6.16831,5.24701 7.14226,6.06302 1.42143,-0.60542 13.644,-5.89631 16.97822,-7.35284 -1.34246,-1.16698 -6.01915,-5.1856 -7.10716,-6.08935 -1.38634,0.60543 -13.63523,5.91386 -17.01332,7.37917 z"
         id="path385"
         style="fill:none;stroke:#231f20;stroke-width:3.0359;stroke-linecap:butt;stroke-linejoin:round;stroke-miterlimit:4;stroke-dasharray:none;stroke-opacity:1" />
      <path
         d="m 225.88397,453.35982 c 1.88647,1.61447 41.17768,34.95672 41.89717,35.5446 1.07046,0 82.43432,0 85.34738,0 0,-2.62351 0,-27.63897 0,-30.28003 -2.93061,0 -99.45642,0 -99.45642,0 0,0 -17.9083,-15.36376 -20.28613,-17.39062 -1.40388,2.26377 -6.43154,10.4063 -7.502,12.12605"
         id="path387"
         style="fill:#231f20;fill-opacity:1;fill-rule:nonzero;stroke:none" />
      <path
         d="m 225.88397,453.35982 c 1.88647,1.61447 41.17768,34.95672 41.89717,35.5446 1.07046,0 82.43432,0 85.34738,0 0,-2.62351 0,-27.63897 0,-30.28003 -2.93061,0 -99.45642,0 -99.45642,0 0,0 -17.9083,-15.36376 -20.28613,-17.39062 -1.40388,2.26377 -6.43154,10.4063 -7.502,12.12605 z"
         id="path389"
         style="fill:none;stroke:#231f20;stroke-width:3.0359;stroke-linecap:butt;stroke-linejoin:round;stroke-miterlimit:4;stroke-dasharray:none;stroke-opacity:1" />
      <path
         d="m 58.698903,239.26748 c -2.474346,-4.08004 -2.79022,-8.53737 1.939115,-12.38051 -0.737039,-0.8862 -0.868654,-1.8075 -1.281045,-2.86041 -0.96517,-0.21936 -1.763629,-0.0965 -2.702477,-0.31587 -8.862019,-14.95137 2.228666,-30.00803 9.002408,-44.0381 -3.781713,5.41373 -12.43315,16.78519 -18.434755,19.55787 -6.642127,3.05344 -21.014392,0.0877 -28.235622,-0.65808 -12.6612804,-1.29859 -13.696645,4.84341 -16.3377022,14.97769 -0.1052914,0.40362 -21.4618798,-1.95666 -25.3752078,1.56183 -5.062757,4.57139 -7.51078,16.62725 -6.29993,23.05879 7.159809,-1.72853 27.2792253,-9.16034 30.00802523,2.73758 2.81654277,0.22813 5.55411697,1.91279 8.78305067,1.32491 1.9742121,6.686 -2.4655716,10.39752 -8.87956771,9.18667 2.78144561,2.20235 6.93167841,3.09732 10.92397381,2.99203 -1.324915,2.82532 -2.0795032,6.24728 -2.0795032,9.76577 -4.5275266,1.86015 -9.90615806,-0.43871 -11.8452731,4.03617 4.5187523,1.24594 9.7306725,1.26349 9.8447381,6.08934 -5.1855974,2.75513 -10.2308063,9.11648 -9.8184153,15.20583 9.3797015,0.51768 36.9923495,0.58787 18.4961745,12.90696 -7.9494942,5.29089 -21.5057513,5.98405 -30.79771,6.49296 -16.18854,0.89498 -29.227115,-7.01065 -38.475202,-18.4523 -20.400193,-25.19095 -5.027661,-59.56856 16.425445,-78.521 2.079504,-1.83383 3.571131,-2.56209 5.027661,-5.12418 6.966775,-0.53523 9.678027,-4.56262 4.588946,-9.00241 -3.860681,-3.36055 -12.494569,-1.56182 -16.916805,-1.26349 -7.44936,0.50891 -13.170189,1.74608 -20.733615,-0.69317 -6.159542,-1.96544 -10.257129,-7.54588 -13.45974,-12.84554 -1.781178,5.72083 -0.587877,14.60917 0.938848,20.38264 1.974212,7.58975 8.53737,12.96838 9.432347,20.82136 0.816007,7.19491 -4.729335,7.72136 -10.643198,6.26483 -11.722433,-2.89551 -18.741854,-13.28425 -25.849017,-21.90936 -6.3789,7.36161 -3.04467,22.19892 1.1582,29.92028 8.502277,15.74105 19.7509,19.36483 20.523036,20.95297 5.948959,12.05586 -14.381039,9.3797 -21.110906,7.94949 -11.21353,-2.36905 -15.06544,-9.26563 -23.12022,-15.0391 -2.07073,9.46744 7.40549,30.91177 13.72297,37.62409 10.31855,10.9503 33.473862,4.2643 41.37071,13.57381 6.256059,7.33529 -1.421432,12.93328 -7.896848,14.5653 -15.065433,3.80803 -37.439842,-4.24675 -51.329522,-10.04655 5.58044,14.36349 15.84635,33.702 32.315664,37.07132 8.414532,1.71976 53.207213,-7.8793 50.45209,5.1154 -1.974212,9.25686 -36.483441,9.19544 -42.353432,8.26537 -7.712589,-1.1933 -13.994972,-4.74688 -21.962012,-7.18613 5.97528,5.01888 7.58975,15.03033 12.02953,21.35659 6.677225,9.46744 12.354182,12.16992 24.111712,13.17896 19.873736,1.70221 41.019743,-15.82879 59.60366,-9.16912 -1.368787,15.4164 -47.591675,25.7525 -60.472313,28.54272 0.02632,0.59665 0.08774,2.19357 0.01755,2.7288 0.552779,0.12284 1.140655,0.22813 1.702209,0.33342 0.3071,0.84234 -0.24568,2.01809 0.3071,2.71126 9.370927,6.8878 17.58365,15.03033 32.026109,12.08217 12.573538,-2.56208 23.286929,-11.24862 36.4922155,-12.09095 2.8779627,-4.35204 8.9673106,-4.99256 14.2143279,-5.77347 4.4485586,-0.66685 -6.0805736,9.98512 -5.1592746,8.82692 -1.93911507,2.43925 -5.1943716,6.08935 -8.0372372,9.09892 -10.0728696,2.34274 -26.7966406,4.34327 -34.1670326,12.11728 5.440052,-0.18426 21.242523,2.03563 16.3728,10.59933 -4.352041,7.69504 -14.67059,-1.17576 -19.338505,-2.13215 -0.07019,1.21962 -0.210583,2.50944 -0.315874,3.72029 -3.930876,1.47408 -7.194907,3.17629 -10.827457,5.48392 3.430742,6.3438 11.599593,3.46584 14.073939,10.89765 2.570863,7.70382 -5.194372,10.61688 -5.966508,17.04842 3.597453,-3.48338 10.213258,-6.21218 14.968916,-7.21245 2.965705,-0.62298 7.054518,-1.52673 10.186935,-0.72827 2.448023,0.6142 4.422235,4.69424 6.29993,4.83463 16.407897,1.1582 -5.062757,-16.42545 -5.115403,-24.91895 4.703012,-2.53576 8.984859,-0.55277 12.8279921,0.9915 0.2105826,3.40442 2.0795035,8.03724 3.1938366,9.09892 0.2018084,-7.14226 -1.4740784,-24.31352 5.9226366,-27.66529 1.7373067,-8.27414 13.9160027,-25.77883 24.4539087,-21.07581 13.143866,5.86999 -3.93965,21.58472 -6.940453,29.19201 6.229736,1.00905 10.994168,-2.0444 16.916805,-1.70221 -0.289551,12.99471 -10.959071,20.11942 -12.889412,31.05217 3.737842,0.22813 12.827992,-1.65834 14.863624,2.4217 2.579638,5.1856 -7.344069,10.35365 -3.913327,16.00428 2.553314,4.2292 14.372265,2.51822 23.541384,0.47381 V 239.26748"
         id="path391"
         style="fill:#231f20;fill-opacity:1;fill-rule:nonzero;stroke:none" />
      <path
         d="m 174.73871,194.27299 13.50361,23.40099 h 27.04232 l -13.52116,23.39223 13.52116,23.40977 H 188.24232 L 174.73871,287.8682 161.24387,264.47598 H 134.2191 l 13.50361,-23.40977 -13.50361,-23.39223 h 27.02477 l 13.49484,-23.40099"
         id="path393"
         style="fill:#fff200;fill-opacity:1;fill-rule:nonzero;stroke:none" />
      <path
         d="m 129.48099,408.10211 13.49484,23.40099 h 27.03354 l -13.50361,23.401 13.50361,23.40099 h -27.03354 l -13.49484,23.39222 -13.52993,-23.39222 H 88.935059 L 102.47377,454.9041 88.935059,431.5031 h 27.016001 l 13.52993,-23.40099"
         id="path395"
         style="fill:#fff200;fill-opacity:1;fill-rule:nonzero;stroke:none" />
      <path
         d="m 75.905259,332.88901 133.641001,113.3812 c 13.63523,-20.78626 25.47173,-44.14339 35.49195,-69.98363 L 75.905259,232.80084 v 100.08817"
         id="path397"
         style="fill:#fff200;fill-opacity:1;fill-rule:nonzero;stroke:none" />
      <path
         d="M 240.16849,388.26347 75.905259,248.85776 m 0,60.84084 143.020701,121.36579"
         id="path399"
         style="fill:none;stroke:#231f20;stroke-width:4.55385;stroke-linecap:butt;stroke-linejoin:miter;stroke-miterlimit:4;stroke-dasharray:none;stroke-opacity:1" />
      <path
         d="m 143.43209,316.67415 c -3.04467,-2.57087 -7.59852,-2.21112 -10.15184,0.83355 -2.59718,3.05345 -2.24621,7.6073 0.79846,10.18694 2.29009,1.94789 5.46638,2.21111 7.97582,0.9213 0.0351,0.11406 0.079,0.21935 0.0877,0.35097 0.0702,0.95639 -0.40362,2.1146 -1.2284,2.95693 -0.544,0.55278 -1.49162,1.20207 -2.83409,1.11433 -3.86068,-0.272 -12.36295,-0.87743 -13.5738,-15.58311 -0.85111,-10.25713 -5.31722,-22.7517 -21.81286,-23.91868 -3.887,-0.28955 -7.51955,1.09678 -10.169382,3.77294 -2.684928,2.72002 -4.12391,6.51051 -3.81681,10.13429 0.315874,3.99229 2.693703,7.35284 6.089348,9.42357 0.429939,0.78968 0.973945,1.5004 1.693435,2.10583 3.0359,2.57086 7.607299,2.20234 10.151839,-0.84233 2.59718,-3.0359 2.22867,-7.59853 -0.79846,-10.16939 -2.30763,-1.95666 -5.44883,-2.21112 -7.993366,-0.93007 -0.01755,-0.11407 -0.06142,-0.22814 -0.06142,-0.35098 -0.08774,-0.96517 0.394843,-2.13214 1.202076,-2.95693 0.570328,-0.544 1.5004,-1.22839 2.84287,-1.11433 3.86068,0.26323 12.3805,0.87743 13.56503,15.59189 0.85988,10.25713 5.31721,22.7517 21.82162,23.9099 3.87823,0.28078 7.51956,-1.08801 10.16939,-3.78171 2.6937,-2.70248 4.13268,-6.49296 3.83436,-10.11674 -0.3422,-4.00107 -2.7288,-7.37917 -6.09812,-9.43235 -0.42117,-0.77213 -1.00027,-1.5004 -1.69344,-2.10582"
         id="path401"
         style="fill:#231f20;fill-opacity:1;fill-rule:nonzero;stroke:none" />
      <path
         d="m 209.47607,372.72422 c -3.04467,-2.57963 -7.58975,-2.20234 -10.17816,0.84233 -2.57086,3.04468 -2.20235,7.58975 0.83355,10.17816 2.28132,1.93912 5.44883,2.21112 7.97582,0.91253 0.0175,0.12284 0.0526,0.22813 0.0702,0.3422 0.0877,0.99149 -0.39485,2.14969 -1.21085,2.9657 -0.56156,0.58788 -1.50918,1.21963 -2.84287,1.12311 -3.86946,-0.26323 -12.36296,-0.87743 -13.59135,-15.56557 -0.81601,-10.29222 -5.28212,-22.76924 -21.81286,-23.93622 -3.86945,-0.28078 -7.502,1.09678 -10.16938,3.76416 -2.66738,2.73758 -4.11514,6.51051 -3.80804,10.13429 0.31588,3.9923 2.71125,7.36162 6.1069,9.4499 0.41239,0.78091 0.96517,1.49162 1.68466,2.09705 3.02713,2.57086 7.58975,2.20234 10.18693,-0.85111 2.55332,-3.04467 2.20235,-7.58975 -0.84233,-10.16938 -2.30763,-1.94789 -5.43127,-2.21989 -7.97581,-0.9213 -0.0175,-0.11407 -0.0614,-0.22813 -0.0877,-0.35097 -0.0702,-0.97395 0.38607,-2.14093 1.2284,-2.94816 0.54401,-0.57033 1.50918,-1.2284 2.82532,-1.13188 3.86068,0.272 12.39805,0.87743 13.58258,15.59189 0.85988,10.2659 5.31721,22.7517 21.7953,23.9099 3.90456,0.28955 7.54588,-1.07923 10.16939,-3.76416 2.70248,-2.72003 4.14146,-6.50174 3.84313,-10.12552 -0.33342,-4.01862 -2.70247,-7.37039 -6.09812,-9.45867 -0.42117,-0.76336 -0.97394,-1.48285 -1.68466,-2.08828"
         id="path403"
         style="fill:#231f20;fill-opacity:1;fill-rule:nonzero;stroke:none" />
      <path
         d="m 248.68831,366.55591 c 21.93569,-60.66535 27.13884,-116.86459 28.33214,-137.14194 -30.631,-10.84501 -51.73313,-28.74453 -62.49917,-53.51432 -0.79846,-1.8075 -1.5355,-3.64132 -2.16725,-5.48392 C 139.6767,153.01634 75.905259,157.89484 75.905259,157.89484 V 553.08825 C 156.10215,524.56308 214.2405,461.92352 248.68831,366.55591 Z"
         id="path405"
         style="fill:none;stroke:#231f20;stroke-width:4.55385;stroke-linecap:butt;stroke-linejoin:round;stroke-miterlimit:4;stroke-dasharray:none;stroke-opacity:1" />
    </g>
  </g>
</svg>
