<?xml version="1.0" encoding="UTF-8" standalone="no"?>
<!-- Created with Inkscape (http://www.inkscape.org/) -->

<svg
   version="1.0"
   width="200"
   height="200"
   id="svg5322"
   sodipodi:docname="logo_HHF.svg"
   inkscape:version="1.4.2 (f4327f4, 2025-05-13)"
   xmlns:inkscape="http://www.inkscape.org/namespaces/inkscape"
   xmlns:sodipodi="http://sodipodi.sourceforge.net/DTD/sodipodi-0.dtd"
   xmlns="http://www.w3.org/2000/svg"
   xmlns:svg="http://www.w3.org/2000/svg">
  <sodipodi:namedview
     id="namedview1"
     pagecolor="#ffffff"
     bordercolor="#000000"
     borderopacity="0.25"
     inkscape:showpageshadow="2"
     inkscape:pageopacity="0.0"
     inkscape:pagecheckerboard="0"
     inkscape:deskcolor="#d1d1d1"
     inkscape:zoom="1.5531357"
     inkscape:cx="269.45489"
     inkscape:cy="218.59005"
     inkscape:window-width="1920"
     inkscape:window-height="1009"
     inkscape:window-x="-8"
     inkscape:window-y="-8"
     inkscape:window-maximized="1"
     inkscape:current-layer="svg5322" />
  <defs
     id="defs5324">
    <clipPath
       id="clipPath2053">
      <path
         d="M 11.065,330.8856 H 117.8466 V 370.536 H 11.065 Z"
         id="path2055" />
    </clipPath>
    <clipPath
       id="clipPath2045">
      <path
         d="m 11.065,323.3376 h 109.99 v 53.446 H 11.065 Z"
         id="path2047" />
    </clipPath>
  </defs>
  <g
     id="g1"
     transform="matrix(0.17779281,0,0,0.17779281,-1.9064279,61.044777)">
    <g
       transform="translate(-39.682,-32.044183)"
       id="layer1">
      <path
         d="m 943.68497,306.28706 c -0.99764,0.12642 -1.98263,-0.0306 -2.89704,-0.41612 -42.93941,-4.39507 -69.04332,-91.08293 -70.14735,-94.82591 -0.1517,-0.5162 -0.23071,-1.04609 -0.23071,-1.57704 0,-0.68265 0.12958,-1.37057 0.38135,-2.0174 0.27285,-0.70055 0.394,-1.98368 0.394,-3.55229 0,-2.81171 -0.38346,-6.54626 -0.94391,-9.5023 -0.0685,-0.34237 -0.10324,-0.69318 -0.10324,-1.04082 0,-0.30762 0.0316,-0.61207 0.0822,-0.91652 0,-0.0158 0.0116,-0.0306 0.0148,-0.0506 -0.68581,-0.50777 -1.26943,-1.14617 -1.64236,-1.88676 -7.71244,-15.17944 -9.05667,-38.30624 -9.05667,-52.64185 0,-7.26156 0.34659,-12.26765 0.38557,-12.84916 0.11588,-1.57599 0.89334,-3.02978 2.14486,-3.99897 0,0 1.44642,-1.11773 2.81487,-2.18174 1.55387,-42.481139 19.2669,-50.27365 21.32327,-51.024774 1.19358,-0.432975 2.47039,-0.414013 3.64711,-0.03055 16.41726,-15.817839 34.64333,-19.410168 41.58885,-20.206591 4.24232,-4.832263 10.25026,-5.27472 12.21182,-5.271559 0,0 0.059,0 0.0643,0"
         id="path2057"
         style="fill:#9c9a9b;fill-opacity:1;fill-rule:nonzero;stroke:none" />
      <path
         d="m 943.62597,306.28706 c 0.99974,0.12642 1.98263,-0.0306 2.89704,-0.41612 42.94151,-4.39507 69.04229,-91.08293 70.14839,-94.82591 0.1496,-0.5162 0.2318,-1.04609 0.2318,-1.57704 0,-0.68265 -0.1307,-1.37057 -0.3845,-2.0174 -0.2729,-0.70055 -0.394,-1.98579 -0.394,-3.55229 0,-2.81487 0.3824,-6.54626 0.9439,-9.49597 0.062,-0.34554 0.096,-0.69951 0.096,-1.04715 0,-0.30762 -0.024,-0.61207 -0.069,-0.91652 -0.01,-0.0158 -0.017,-0.0306 -0.017,-0.0506 0.6815,-0.50777 1.2662,-1.14617 1.6391,-1.88676 4.9408,-9.72141 7.8916,-23.7473 8.7786,-41.68472 0.1991,-4.04954 0.2665,-7.82938 0.2665,-11.04773 0,-2.22809 -0.033,-4.18649 -0.071,-5.77933 -0.2055,-7.99267 -0.2171,-8.64477 -1.7341,-10.31452 -0.2201,-0.2423 -0.4593,-0.46352 -0.7142,-0.66368 0,0 -1.4412,-1.11773 -2.8117,-2.18174 -1.5539,-42.481139 -19.2669,-50.27365 -21.3328,-51.024774 -1.17775,-0.432975 -2.45982,-0.414013 -3.64076,-0.0295 -16.4141,-15.818892 -34.6486,-19.411221 -41.59728,-20.207644 -4.23494,-4.832263 -10.2492,-5.27472 -12.20338,-5.271559 -0.005,0 -0.0643,0 -0.0643,0"
         id="path2059"
         style="fill:#80d6f7;fill-opacity:1;fill-rule:nonzero;stroke:none" />
      <path
         d="m 944.87117,327.52395 c -0.0463,-1.73085 -0.75639,-3.41324 -2.07428,-4.64475 -1.07454,-0.99763 -2.43667,-1.49592 -3.83357,-1.64025 4.60366,-1.57494 8.31398,-3.58285 11.1004,-6.15015 z m -41.7869,0.10113 c -4.1433,0 -7.36059,-0.23387 -9.99743,-0.56677 3.45644,-0.18857 7.86415,-0.42454 7.86415,-0.42454 12.11911,-0.58995 22.42204,-1.57705 30.76867,-3.40903 -4.92813,1.72453 -14.74224,4.40034 -28.63539,4.40034 z m -84.61886,-8.06747 c 0,3.3553 0.53306,6.54521 1.5328,9.56024 -0.90071,-0.44457 -1.90256,-0.70793 -2.95077,-0.70793 0,0 -18.98245,0 -35.3323,0 14.02589,-10.19864 37.67627,-27.39652 50.88572,-36.99889 -8.93552,7.92314 -14.13545,17.59293 -14.13545,28.14658 z m -133.81164,19.20791 c 1.76772,-4.22441 3.58706,-8.58156 3.58706,-8.58156 0.34133,-0.80696 0.50883,-1.66238 0.50883,-2.49988 0,-1.78563 -0.73427,-3.53545 -2.0943,-4.80488 -1.07138,-0.99763 -2.43351,-1.49592 -3.82725,-1.64025 10.52099,-3.59654 16.46151,-9.44119 17.00088,-19.14575 5.3,0 21.40017,0 35.33441,0 -13.79307,10.01639 -36.99257,26.85925 -50.50963,36.67232 z M 646.948,327.62508 c -4.14013,0 -7.35848,-0.23387 -10.00269,-0.56677 3.46486,-0.18857 7.87363,-0.42454 7.87363,-0.42454 12.11806,-0.58995 22.41466,-1.57705 30.75709,-3.40903 -4.92708,1.72453 -14.7412,4.40034 -28.62803,4.40034 z m -128.33044,0 c -4.14224,0 -7.3648,-0.23387 -10.00164,-0.56677 3.45538,-0.18857 7.86626,-0.42454 7.86626,-0.42454 12.12226,-0.58995 22.42309,-1.57915 30.76972,-3.40903 -4.92497,1.72453 -14.73592,4.40034 -28.63434,4.40034 z m 651.93934,-50.76351 c -0.6005,-0.26232 -15.0204,-6.42406 -38.6455,-6.42406 -30.934,0 -52.7766,7.36902 -61.0538,19.87475 0,-4.24548 0,-8.10118 0,-8.45198 0,-0.0147 0,-0.006 -0.01,-0.0232 l -2.1996,-5.8752 c -1.4296,-1.51067 -5.2136,-5.52439 -26.0987,-5.52439 -15.2763,0 -68.31954,2.00475 -70.57502,2.09219 -2.56309,0.0917 -4.83648,1.6708 -5.82147,4.03057 l -10.14386,24.28984 c 0,-0.0748 0.007,-0.14854 0.007,-0.22439 0,-15.02563 -17.66352,-30.18821 -57.12226,-30.18821 -22.28824,0 -42.17879,5.27051 -56.61659,13.93108 1.72453,-1.25679 2.69478,-3.24047 2.69478,-5.28842 0,-0.67738 -0.10535,-1.36003 -0.32447,-2.03003 -0.87965,-2.70004 -3.40692,-4.52676 -6.25655,-4.52676 h -8.05694 c 25.80578,-1.43693 31.27856,-14.20919 35.71787,-24.5985 l 11.44173,-27.0257 c 0.84067,-1.9742 0.65421,-4.236 -0.49618,-6.05113 -1.14723,-1.81302 -3.11722,-2.95182 -5.26629,-3.04979 -0.20438,-0.008 -20.37515,-0.89756 -40.16246,-0.89756 -8.44461,0 -17.1726,2.35662 -24.22452,6.62316 l -1.10088,-2.99079 c -1.74349,-1.85832 -4.91338,-3.75562 -15.15942,-3.75562 -7.49122,0 -33.35494,0.97762 -34.44844,1.0187 -1.37161,0.0527 -2.64842,0.53517 -3.69557,1.32105 -1.11773,-0.82486 -2.45985,-1.32526 -3.8873,-1.32526 h -24.70912 c -2.42297,0 -4.58048,1.37688 -5.72665,3.48593 -0.0948,-0.18014 -0.14222,-0.38241 -0.26442,-0.55623 -1.21887,-1.82988 -3.27524,-2.9297 -5.47804,-2.9297 h -25.02622 c -2.64526,0 -5.0282,1.57494 -6.05744,3.99791 l -2.11958,4.98291 c -3.08772,-5.50016 -10.00164,-9.93948 -24.36358,-9.93948 -0.83435,0 -1.68977,0.0348 -2.54624,0.0906 0.26653,-0.65947 0.93338,-2.28392 0.93338,-2.28392 0.32763,-0.79748 0.49091,-1.64025 0.49091,-2.47881 0,-1.28418 -0.38451,-2.55993 -1.123,-3.65765 -1.22097,-1.81091 -3.26364,-2.9002 -5.45907,-2.9002 h -24.97038 c -2.6579,0 -5.04928,1.59179 -6.06798,4.0369 l -6.31871,15.11833 c -2.7643,-4.53202 -8.32873,-7.98108 -17.85841,-7.98108 -12.92922,0 -20.84183,1.60549 -24.95668,2.78221 -3.95262,-1.8541 -9.12726,-2.78221 -15.73988,-2.78221 -18.61691,0 -38.23356,1.01449 -38.42845,1.02397 -1.21886,0.0632 -2.35977,0.46563 -3.33528,1.12089 -0.93443,-0.62365 -2.01318,-1.02924 -3.16884,-1.11246 -0.51093,-0.0358 -12.84284,-0.90915 -40.27833,-0.90915 -12.00428,0 -22.55899,4.06745 -29.66885,10.56314 -0.3487,-0.83962 -0.74797,-1.65711 -1.25995,-2.42614 -4.89442,-7.35216 -15.14889,-8.20442 -22.441,-8.20442 -0.89756,0 -1.86675,0.0579 -2.84542,0.13379 0.27074,-0.64683 0.95128,-2.26179 0.95128,-2.26179 0.34554,-0.81855 0.5162,-1.6824 0.5162,-2.54413 0,-1.27259 -0.37187,-2.53676 -1.09666,-3.6292 -1.21887,-1.82883 -3.27524,-2.92865 -5.47804,-2.92865 h -24.07388 -0.8965 c -0.14959,0 -0.33079,0.059 -0.48038,0.0695 l -83.8751,5.8004 c -3.41219,0.23598 -6.07115,3.03715 -6.12171,6.44407 0,0.0348 0,0.0664 0,0.099 0,3.36478 2.56098,6.1944 5.93314,6.52413 0,0 14.85286,1.46432 27.18582,2.68003 -1.00185,1.13774 -1.65079,2.59785 -1.67186,4.21493 0,0.0379 0,0.0695 0,0.10113 0,3.36583 2.55888,6.19124 5.92682,6.52414 0,0 22.61798,2.23124 33.72471,3.3258 -2.97816,7.10249 -6.62106,15.80098 -6.62106,15.80098 -0.33921,0.81222 -0.50671,1.6708 -0.50671,2.52622 0,1.27259 0.37082,2.54413 1.10087,3.63552 1.21886,1.82988 3.27734,2.92548 5.47488,2.92548 h 24.71122 c 2.42509,0 4.57417,-1.39268 5.71929,-3.50067 0.099,0.18646 0.14854,0.38978 0.26653,0.57308 1.21991,1.82567 3.27312,2.92759 5.47593,2.92759 h 25.02832 c 2.63683,0 5.02083,-1.57388 6.05428,-3.9937 l 2.29235,-5.37901 c 3.07192,5.53071 9.35902,9.94686 20.24346,9.94686 4.94815,0 9.16835,-1.09983 12.79333,-2.5789 1.21887,1.21992 2.76852,2.06586 4.53203,2.06586 h 24.13603 c 1.35476,0 2.6421,-0.41823 3.71664,-1.15355 1.04504,0.68159 2.2618,1.09244 3.54387,1.09244 h 24.71122 c 2.41455,0 4.57206,-1.37267 5.72455,-3.47118 0.0938,0.17699 0.13906,0.37188 0.25284,0.54359 1.21886,1.83199 3.27628,2.92759 5.4833,2.92759 h 25.02937 c 2.21545,0 4.14857,-1.22834 5.35689,-3.04031 0.0232,0.0337 0.0274,0.0759 0.0495,0.11272 1.21886,1.83199 3.28155,2.92759 5.4833,2.92759 h 25.02832 c 1.25152,0 2.43984,-0.36555 3.46381,-0.99236 1.01344,0.61733 2.18384,0.99236 3.41113,0.99236 h 24.70912 c 1.30314,0 2.52517,-0.41612 3.57337,-1.0956 2.95709,1.12405 6.91708,1.98157 12.29082,1.98157 10.70851,0 21.62351,-3.73455 29.09366,-10.51994 0.28127,0.71847 0.6089,1.4127 1.0029,2.08165 1.8973,3.18991 6.00056,7.18677 14.82442,8.08959 6.92024,0.70688 12.68903,-0.58256 17.32008,-2.51463 1.2136,1.20412 2.75061,2.03847 4.49621,2.03847 h 24.20134 c 1.47591,0 2.86123,-0.50462 3.98633,-1.35793 1.1072,0.8038 2.43352,1.29682 3.84411,1.29682 h 24.70806 c 2.51148,0 4.80277,-1.42323 5.9047,-3.67134 l 1.71821,-3.48592 c 0.0421,-0.0853 0.45404,-0.97657 0.45404,-0.97657 6.97818,-15.19629 13.29689,-18.35986 17.36644,-18.3409 0.55096,0 1.03661,0.019 1.48855,0.0464 -0.66052,2.19542 -1.04083,4.51727 -1.04083,6.97501 0,4.98923 1.24204,8.97556 3.62499,12.01377 -0.24335,0.67527 -2.02793,5.64764 -2.02793,5.64764 -0.0685,0.18647 -0.12431,0.37504 -0.17382,0.56361 -0.18752,0.70266 -0.29286,1.458 -0.29286,2.23019 0,2.78116 1.33474,5.81726 5.11986,7.70297 3.99791,1.99527 10.71694,3.17305 19.93901,3.54387 H 712.42111 c -1.8973,0 -3.69979,0.81855 -4.9492,2.246 l -11.87892,13.56236 c -7.35216,-10.01323 -24.40782,-17.89423 -52.83358,-17.89423 -31.62304,0 -58.41697,10.60843 -71.62852,26.44102 -2.72428,-13.69931 -20.53422,-26.44102 -56.70614,-26.44102 -26.61063,0 -49.80907,7.51545 -64.3638,19.32905 0,-4.01688 0,-7.55548 0,-7.89891 -0.0105,-0.0137 -0.0105,-0.007 -0.0137,-0.0221 l -2.19964,-5.88363 c -1.42218,-1.50856 -5.20624,-5.52439 -26.10602,-5.52439 -15.26687,0 -68.3259,2.00475 -70.574,2.09219 -1.35897,0.0474 -2.6284,0.52252 -3.6745,1.30525 v -19.43019 c 0,-3.62498 -2.94655,-6.561 -6.57575,-6.561 H 192.94496 c -2.17015,0 -4.19913,1.07138 -5.42326,2.85595 -0.76271,1.09983 -1.15144,2.39981 -1.15144,3.70505 0,0.79959 0.14538,1.60022 0.44456,2.36926 1.90784,4.91338 4.41825,10.13964 9.82887,15.02668 5.08404,4.56257 11.60502,7.65977 18.61164,9.18625 -1.48645,3.58074 -2.25126,5.42642 -3.39007,8.15701 -6.93288,0.47828 -49.3329,3.40587 -49.3329,3.40587 -3.41113,0.23913 -6.0722,3.04136 -6.12276,6.44723 0,0.0337 0,0.0653 0,0.098 0,3.36373 2.55782,6.19124 5.92892,6.52835 0,0 29.03888,2.86438 40.98943,4.04427 -1.47696,3.54176 -2.05742,4.94287 -3.01819,7.24576 -7.30581,0.39399 -64.72303,3.47961 -64.72303,3.47961 -3.45749,0.18541 -6.18176,3.01818 -6.22074,6.47672 0,0.02 0,0.0495 0,0.0738 0,3.42272 2.6421,6.27551 6.07115,6.53677 0,0 3.11826,0.23914 3.46696,0.26442 -9.53073,0.66158 -23.55662,1.62867 -23.55662,1.62867 -3.40692,0.23387 -6.06693,3.03504 -6.12276,6.44091 0,0.0369 0,0.0706 0,0.10218 0,3.36689 2.56098,6.18808 5.93314,6.52519 0,0 55.31028,5.46224 69.19079,6.83385 -4.25496,10.22498 -12.98822,31.2301 -15.18997,36.51956 -7.47331,0.40348 -79.877186,4.29289 -79.877186,4.29289 -3.463807,0.18646 -6.184918,3.01819 -6.222842,6.47462 0,0.0232 0,0.0506 0,0.0769 0,3.42272 2.6421,6.2713 6.067982,6.53677 0,0 19.993786,1.53491 39.988636,3.07086 -30.905626,2.13222 -67.963508,4.69321 -67.963508,4.69321 -3.411133,0.23598 -6.070089,3.03926 -6.122763,6.44512 0,0.0358 0,0.0674 0,0.10114 0,3.36372 2.55993,6.19334 5.932085,6.52308 0,0 74.058876,7.30159 88.656796,8.74379 -2.29867,5.53071 -4.72691,11.36798 -4.72691,11.36798 -0.33501,0.80802 -0.50356,1.66343 -0.50356,2.51042 0,1.27891 0.37609,2.55045 1.11036,3.645 1.21991,1.81829 3.27207,2.91285 5.46961,2.91285 h 61.15282 c 2.6558,0 5.04717,-1.59074 6.07325,-4.03058 0,0 53.21073,-127.05574 56.39642,-134.65547 7.23206,0 43.54093,0 43.54093,0 2.63789,0 5.01662,-1.57599 6.05113,-3.99792 l 9.68875,-22.71174 c 0.35186,-0.82802 0.52358,-1.69924 0.52358,-2.56941 0,-1.26732 -0.3645,-2.52727 -1.09034,-3.6155 -1.21887,-1.83831 -3.27735,-2.94234 -5.48331,-2.94234 0,0 -25.71729,0 -38.1851,0 0.059,-0.14433 0.0822,-0.19173 0.14012,-0.3329 7.43222,0 51.14171,0 51.14171,0 0.42138,0 0.83329,-0.0442 1.23361,-0.12009 l -27.18266,65.08016 c -0.8491,2.02476 -0.6205,4.33292 0.59731,6.15858 1.21992,1.82671 3.27208,2.91705 5.47488,2.91705 h 50.81092 c 2.50621,0 4.79961,-1.42007 5.9047,-3.66396 l 3.53544,-7.18782 c 0.0442,-0.0864 0.84804,-1.82356 0.84804,-1.82356 12.75014,-27.79051 26.89928,-41.84274 42.05765,-41.76583 7.0003,0 10.93501,1.04504 12.91026,1.8383 -2.01634,4.36558 -3.113,8.98082 -3.113,13.79096 0,24.60799 27.66199,40.508 70.47919,40.508 20.16024,0 32.92723,-3.47856 38.74554,-5.55178 0.17698,-0.0643 1.17357,-0.41296 1.17357,-0.41296 2.65158,-0.91125 6.65792,-2.29025 8.66162,-7.5302 -0.079,0.18225 6.86019,-16.38671 6.86019,-16.38671 0.335,-0.80696 0.50356,-1.66238 0.50356,-2.49988 0,-1.78563 -0.73532,-3.53545 -2.09535,-4.80488 -1.07349,-0.99763 -2.43352,-1.49592 -3.83358,-1.64025 3.02873,-1.03556 5.6624,-2.26601 7.91366,-3.7061 -0.0442,0.67211 -0.0822,1.34738 -0.0822,2.02476 0,24.60799 27.66726,40.508 70.48657,40.508 20.15813,0 32.92512,-3.47856 38.74448,-5.55178 0.0464,-0.0169 0.15381,-0.0558 0.28023,-0.10219 1.0324,2.37768 3.38269,3.95788 6.02057,3.95788 h 125.19322 c 1.9584,0 3.81461,-0.86595 5.06086,-2.3703 l 14.00377,-16.84181 c 0.70266,-0.84699 1.15039,-1.83199 1.36213,-2.86439 9.79937,14.83706 33.37917,23.77259 65.471,23.77259 20.18342,0 32.94303,-3.48488 38.75291,-5.55705 0.15803,-0.059 1.15145,-0.40243 1.15145,-0.40243 1.95945,-0.67211 4.66265,-1.61496 6.75063,-4.17173 -0.5615,1.86253 -0.31604,3.88414 0.77851,5.51807 1.22097,1.82671 3.27102,2.91705 5.47277,2.91705 h 50.8046 c 2.5041,0 4.79855,-1.42007 5.9047,-3.66396 l 3.53651,-7.18782 c 0.039,-0.0801 0.8554,-1.84989 0.8554,-1.84989 12.7586,-27.77577 26.9046,-41.81641 42.0535,-41.7395 11.2068,0 14.5536,2.68213 14.5863,2.71163 l -0.4235,-0.46248 c 1.8351,1.98895 4.8449,2.81487 7.3669,1.83199 0.4909,-0.19174 0.9439,-0.44562 1.3758,-0.72374 2.2007,7.28474 9.142,11.95477 14.9309,15.83259 2.779,1.86569 5.9352,4.03057 7.6597,5.96053 -10.9202,-0.57941 -19.3322,-7.80726 -19.4228,-7.88732 -1.5728,-1.39269 -3.7335,-1.95419 -5.7909,-1.50225 -2.0595,0.45615 -3.7798,1.85094 -4.6226,3.77458 l -7.073,16.19603 c -0.059,0.14117 -0.1159,0.27917 -0.1633,0.42771 -2.6432,7.43012 3.5902,11.2363 5.6413,12.48782 3.5608,2.09009 18.1071,7.36375 43.5041,7.36375 30.6686,0 63.679,-9.73721 63.679,-31.11315 0,-13.02826 -13.8141,-19.97272 -23.8958,-25.04834 -1.4527,-0.72479 -3.2205,-1.6255 -4.8407,-2.50831 1.0377,-0.12958 2.1944,-0.22123 3.5512,-0.22123 14.5822,0 22.5675,5.74878 22.8951,5.99319 2.0005,1.46748 4.6827,1.71294 6.8992,0.59626 2.2154,-1.11457 3.6397,-3.36162 3.6397,-5.83938 V 282.8695 c 0,-2.60523 -1.5486,-4.96289 -3.9442,-6.00793"
         id="path2061"
         style="fill:#231f20;fill-opacity:1;fill-rule:nonzero;stroke:none" />
      <path
         d="m 944.86925,327.52497 c -0.0464,-1.73147 -0.75644,-3.41351 -2.07414,-4.64427 -1.074,-0.99828 -2.43601,-1.4969 -3.83284,-1.64101 4.60299,-1.57474 8.31345,-3.58288 11.09973,-6.14959 z m -41.78672,0.10099 c -4.14407,0 -7.35973,-0.23353 -9.99725,-0.56699 3.4562,-0.1883 7.86402,-0.42393 7.86402,-0.42393 12.11887,-0.59118 22.42102,-1.57684 30.76823,-3.40931 -4.92794,1.72412 -14.74161,4.40023 -28.635,4.40023 z m -84.61897,-8.06831 c 0,3.35566 0.53278,6.54617 1.53293,9.561 -0.89992,-0.44497 -1.90218,-0.70795 -2.95086,-0.70795 0,0 -18.98274,0 -35.33219,0 14.02527,-10.19952 37.67642,-27.39649 50.88617,-36.99957 -8.93592,7.92315 -14.13605,17.59355 -14.13605,28.14652 z m -133.81183,19.20826 c 1.76819,-4.2235 3.58808,-8.58165 3.58808,-8.58165 0.34076,-0.80578 0.50851,-1.66205 0.50851,-2.49939 0,-1.78618 -0.73429,-3.53554 -2.09419,-4.80417 -1.07189,-0.99828 -2.4339,-1.4969 -3.82757,-1.64101 10.52159,-3.59656 16.46234,-9.44108 17.00039,-19.1462 5.30141,0 21.40082,0 35.33536,0 -13.79317,10.01649 -36.99278,26.86001 -50.51058,36.67242 z m -37.70491,-11.13995 c -4.1409,0 -7.35867,-0.23353 -10.00357,-0.56699 3.46569,-0.1883 7.87457,-0.42393 7.87457,-0.42393 12.11781,-0.59118 22.41468,-1.57684 30.75662,-3.40931 -4.92688,1.72412 -14.74056,4.40023 -28.62762,4.40023 z m -128.33002,0 c -4.14301,0 -7.365,-0.23353 -10.00252,-0.56699 3.4562,-0.1883 7.86719,-0.42393 7.86719,-0.42393 12.12203,-0.59118 22.42312,-1.58 30.76928,-3.40931 -4.92477,1.72412 -14.73634,4.40023 -28.63395,4.40023 z m 651.9375,-50.76409 c -0.6003,-0.26193 -15.0202,-6.42414 -38.6449,-6.42414 -30.9339,0 -52.7768,7.36878 -61.0533,19.87519 0,-4.2456 0,-8.10093 0,-8.45227 0,-0.0147 0,-0.006 -0.01,-0.0231 l -2.1997,-5.87504 c -1.4306,-1.51057 -5.2139,-5.52474 -26.0988,-5.52474 -15.2765,0 -68.32015,2.00498 -70.5747,2.09229 -2.56367,0.0926 -4.83721,1.67047 -5.82153,4.031 l -10.1439,24.29014 c 0,-0.0768 0.007,-0.14832 0.007,-0.22511 0,-15.02579 -17.66399,-30.18832 -57.12231,-30.18832 -22.28808,0 -42.17919,5.27018 -56.61696,13.93178 1.72493,-1.25706 2.69554,-3.23995 2.69554,-5.28806 0,-0.6785 -0.1055,-1.3612 -0.32494,-2.03023 -0.87988,-2.70031 -3.40768,-4.52646 -6.25725,-4.52646 h -8.05603 c 25.80547,-1.43799 31.27779,-14.20948 35.71726,-24.5994 l 11.44261,-27.02516 c 0.83979,-1.97448 0.65411,-4.23718 -0.49691,-6.05071 -1.14679,-1.81353 -3.11754,-2.95277 -5.26659,-3.0506 -0.20362,-0.008 -20.3743,-0.8973 -40.16096,-0.8973 -8.44533,0 -17.17341,2.35528 -24.22613,6.62296 l -1.10037,-2.99064 c -1.74288,-1.85771 -4.91317,-3.75645 -15.1594,-3.75645 -7.49161,0 -33.35511,0.9783 -34.4481,1.02038 -1.37151,0.0515 -2.64912,0.53333 -3.69569,1.32017 -1.11831,-0.82576 -2.46027,-1.32438 -3.88664,-1.32438 h -24.70933 c -2.42335,0 -4.58084,1.37593 -5.72658,3.48505 -0.0949,-0.18094 -0.14348,-0.38185 -0.2648,-0.55647 -1.21854,-1.83036 -3.2758,-2.92858 -5.4776,-2.92858 H 687.8484 c -2.64491,0 -5.02817,1.57369 -6.05785,3.99734 l -2.11846,4.98299 c -3.088,-5.50054 -10.00147,-9.94074 -24.36433,-9.94074 -0.83451,0 -1.69013,0.0358 -2.54574,0.0915 0.26692,-0.65956 0.93263,-2.28479 0.93263,-2.28479 0.32811,-0.79736 0.49163,-1.63996 0.49163,-2.47835 0,-1.28441 -0.38507,-2.55935 -1.12252,-3.65651 -1.2217,-1.81248 -3.2642,-2.90123 -5.45967,-2.90123 h -24.97096 c -2.65757,0 -5.04927,1.59157 -6.06735,4.03731 l -6.31844,15.1173 c -2.76412,-4.53171 -8.32928,-7.981 -17.85916,-7.981 -12.92911,0 -20.84061,1.60525 -24.95619,2.78236 -3.95312,-1.8535 -9.12793,-2.78236 -15.73966,-2.78236 -18.61665,0 -38.23346,1.01617 -38.42863,1.02459 -1.21854,0.0631 -2.36005,0.466 -3.33488,1.12135 -0.93474,-0.62379 -2.01296,-1.02984 -3.16924,-1.11294 -0.51063,-0.0358 -12.84261,-0.90887 -40.27807,-0.90887 -12.00387,0 -22.55922,4.06677 -29.66891,10.56349 -0.34815,-0.83944 -0.748,-1.65784 -1.25968,-2.4268 -4.89418,-7.35195 -15.14885,-8.20506 -22.44211,-8.20506 -0.89676,0 -1.86525,0.0589 -2.8443,0.13464 0.27114,-0.64693 0.95161,-2.2627 0.95161,-2.2627 0.34499,-0.81735 0.51485,-1.68204 0.51485,-2.54357 0,-1.27284 -0.37031,-2.5362 -1.09615,-3.62811 -1.21854,-1.82931 -3.27475,-2.92963 -5.4776,-2.92963 h -24.07421 -0.89676 c -0.14875,0 -0.33021,0.0589 -0.47897,0.0694 l -83.87518,5.80035 c -3.41295,0.23668 -6.07157,3.03692 -6.12221,6.44413 0,0.0358 0,0.0673 0,0.0999 0,3.36408 2.5605,6.19377 5.93231,6.52303 0,0 14.85344,1.46534 27.18648,2.68032 -1.00226,1.13818 -1.65109,2.59826 -1.67219,4.21508 0,0.0379 0,0.0694 0,0.10099 0,3.36618 2.55945,6.19061 5.92703,6.52407 0,0 22.6183,2.2322 33.72436,3.32621 -2.97828,7.10264 -6.62017,15.80106 -6.62017,15.80106 -0.33971,0.81209 -0.50746,1.67046 -0.50746,2.52568 0,1.27284 0.37136,2.54462 1.10143,3.63653 1.21853,1.82825 3.27685,2.92437 5.47443,2.92437 h 24.71144 c 2.4244,0 4.57345,-1.39276 5.71919,-3.50083 0.0992,0.18724 0.14876,0.39027 0.26692,0.5733 1.21958,1.82615 3.27263,2.92753 5.47548,2.92753 h 25.02794 c 2.63752,0 5.02078,-1.57369 6.05469,-3.99313 l 2.29253,-5.37853 c 3.07218,5.53 9.35897,9.94601 20.24347,9.94601 4.94799,0 9.16802,-1.09927 12.79302,-2.57933 1.21959,1.22024 2.7694,2.06704 4.53231,2.06704 h 24.1354 c 1.35569,0 2.64174,-0.41867 3.71679,-1.15397 1.04552,0.68165 2.26194,1.09191 3.54377,1.09191 h 24.71144 c 2.41491,0 4.5724,-1.37277 5.72447,-3.47032 0.0939,0.17672 0.13926,0.37133 0.2532,0.54279 1.21853,1.83141 3.27579,2.92753 5.48287,2.92753 h 25.02899 c 2.21552,0 4.14829,-1.22761 5.35733,-3.04008 0.0232,0.0337 0.0274,0.0768 0.0496,0.11255 1.21854,1.83141 3.28107,2.92753 5.48393,2.92753 h 25.02794 c 1.25123,0 2.43917,-0.36502 3.46358,-0.99198 1.01387,0.61749 2.18387,0.99198 3.41084,0.99198 h 24.70933 c 1.30293,0 2.52463,-0.41657 3.57331,-1.09612 2.95718,1.12452 6.91662,1.98184 12.29083,1.98184 10.70832,0 21.62343,-3.73435 29.09288,-10.52036 0.28168,0.71952 0.60979,1.41379 1.00436,2.08282 1.89585,3.18946 5.99878,7.1868 14.82391,8.08935 6.91979,0.7069 12.68857,-0.58172 17.32005,-2.51411 1.21326,1.20341 2.75041,2.03864 4.49644,2.03864 h 24.20081 c 1.47596,0 2.86118,-0.50598 3.98582,-1.35804 1.10776,0.80367 2.4339,1.29598 3.84445,1.29598 h 24.70827 c 2.51091,0 4.80239,-1.42222 5.90382,-3.67019 l 1.7186,-3.48715 c 0.0422,-0.0852 0.45366,-0.97619 0.45366,-0.97619 6.97887,-15.1962 13.29836,-18.35936 17.36647,-18.34042 0.55177,0 1.03707,0.0179 1.48967,0.0452 -0.66043,2.19643 -1.04235,4.51804 -1.04235,6.97641 0,4.98825 1.2428,8.97402 3.62606,12.01305 -0.24265,0.67534 -2.02772,5.64782 -2.02772,5.64782 -0.0686,0.18619 -0.12449,0.37448 -0.17408,0.56383 -0.18779,0.70269 -0.29329,1.45798 -0.29329,2.2301 0,2.78025 1.33459,5.81612 5.11995,7.70329 3.99848,1.99446 10.71676,3.17262 19.93964,3.54395 H 712.42057 c -1.89796,0 -3.70096,0.8184 -4.95009,2.24482 l -11.87938,13.56255 c -7.35129,-10.01333 -24.4076,-17.8944 -52.83265,-17.8944 -31.62279,0 -58.41786,10.60978 -71.62866,26.44134 -2.72403,-13.6993 -20.53361,-26.44134 -56.70664,-26.44134 -26.60939,0 -49.80795,7.51605 -64.36388,19.32923 0,-4.01627 0,-7.55497 0,-7.89895 -0.01,-0.0137 -0.01,-0.007 -0.0127,-0.0221 l -2.19969,-5.88345 c -1.42215,-1.50847 -5.20646,-5.52474 -26.10615,-5.52474 -15.26701,0 -68.32543,2.00498 -70.57365,2.09229 -1.35991,0.0473 -2.62908,0.52281 -3.67459,1.30545 v -19.43022 c 0,-3.62495 -2.94664,-6.56089 -6.57586,-6.56089 H 192.94452 c -2.17015,0 -4.19998,1.07086 -5.42274,2.85599 -0.76277,1.10032 -1.15206,2.40051 -1.15206,3.7049 0,0.79947 0.14559,1.59999 0.44415,2.36895 1.90851,4.91357 4.41943,10.13956 9.82951,15.02789 5.08408,4.56117 11.60507,7.66016 18.61138,9.18546 -1.48651,3.58077 -2.25139,5.42691 -3.38974,8.15772 -6.93245,0.47758 -49.33319,3.4051 -49.33319,3.4051 -3.4119,0.23879 -6.07262,3.04114 -6.12221,6.44729 0,0.0337 0,0.0652 0,0.0978 0,3.36407 2.55734,6.19061 5.92809,6.52828 0,0 29.03907,2.86441 40.99019,4.04468 -1.47806,3.54185 -2.05832,4.94302 -3.01837,7.2457 -7.30593,0.39447 -64.72364,3.47873 -64.72364,3.47873 -3.4562,0.18619 -6.18129,3.01904 -6.22032,6.47779 0,0.02 0,0.0494 0,0.0736 0,3.42298 2.64173,6.27582 6.07156,6.5367 0,0 3.1186,0.23879 3.46676,0.26508 -9.53094,0.66062 -23.5562,1.62839 -23.5562,1.62839 -3.40662,0.23353 -6.06735,3.03482 -6.12327,6.43993 0,0.0379 0,0.0705 0,0.10308 0,3.36618 2.56156,6.18746 5.93336,6.52408 0,0 55.30981,5.46268 69.18949,6.8344 -4.25379,10.22582 -12.98714,31.23078 -15.18894,36.51988 -7.47262,0.40289 -79.877762,4.29294 -79.877762,4.29294 -3.463589,0.18619 -6.184452,3.01904 -6.222433,6.47463 0,0.0231 0,0.0505 0,0.0768 0,3.42298 2.641738,6.27161 6.068402,6.53565 0,0 19.994493,1.53582 39.988993,3.07164 -30.906436,2.13226 -67.963564,4.69371 -67.963564,4.69371 -3.411893,0.23669 -6.070512,3.03903 -6.123262,6.44413 0,0.0368 0,0.0673 0,0.10099 0,3.36407 2.560503,6.19377 5.932306,6.52407 0,0 74.0594,7.30146 88.65647,8.74365 -2.29886,5.53001 -4.72748,11.36822 -4.72748,11.36822 -0.33444,0.80789 -0.50219,1.66311 -0.50219,2.50991 0,1.27915 0.37559,2.55093 1.10987,3.64494 1.21959,1.81879 3.27158,2.91385 5.46916,2.91385 h 61.15244 c 2.6565,0 5.04821,-1.59157 6.07367,-4.031 0,0 53.21035,-127.05643 56.39647,-134.65558 7.23207,0 43.54014,0 43.54014,0 2.63858,0 5.01762,-1.5758 6.05153,-3.99839 l 9.68813,-22.71119 c 0.35237,-0.82787 0.52434,-1.69992 0.52434,-2.56882 0,-1.26758 -0.36504,-2.52779 -1.08983,-3.61654 -1.21959,-1.83772 -3.2779,-2.94225 -5.48392,-2.94225 0,0 -25.71791,0 -38.18493,0 0.0591,-0.14306 0.0823,-0.19145 0.14031,-0.33241 7.43253,0 51.14148,0 51.14148,0 0.42094,0 0.83345,-0.0452 1.2333,-0.12097 l -27.18226,65.08087 c -0.84928,2.02496 -0.62035,4.3329 0.59713,6.15905 1.22065,1.82615 3.27263,2.91596 5.47549,2.91596 h 50.8102 c 2.50564,0 4.79923,-1.42011 5.90382,-3.66283 l 3.53639,-7.18784 c 0.0443,-0.0863 0.84717,-1.82405 0.84717,-1.82405 12.75081,-27.78991 26.90057,-41.84266 42.05891,-41.76587 6.99998,0 10.9341,1.04457 12.91013,1.83878 -2.01612,4.36446 -3.11333,8.98033 -3.11333,13.78976 0,24.60887 27.66229,40.50881 70.4787,40.50881 20.16119,0 32.92678,-3.47979 38.7462,-5.55104 0.17618,-0.0652 1.17316,-0.41446 1.17316,-0.41446 2.65124,-0.91097 6.65815,-2.289 8.66161,-7.52972 -0.0781,0.18303 6.85966,-16.38698 6.85966,-16.38698 0.33549,-0.80578 0.50429,-1.66205 0.50429,-2.49939 0,-1.78618 -0.73534,-3.53554 -2.09524,-4.80417 -1.074,-0.99828 -2.4339,-1.4969 -3.8339,-1.64101 3.02893,-1.0351 5.66223,-2.26691 7.91361,-3.70596 -0.0443,0.67219 -0.0823,1.34753 -0.0823,2.02392 0,24.60887 27.66756,40.50881 70.48609,40.50881 20.15802,0 32.92572,-3.47979 38.74514,-5.55104 0.0464,-0.0179 0.15297,-0.0568 0.28063,-0.10309 1.0318,2.37736 3.38235,3.95737 6.01987,3.95737 h 125.19348 c 1.9581,0 3.81386,-0.86574 5.06087,-2.37001 l 14.00417,-16.84141 c 0.70158,-0.84786 1.1489,-1.83246 1.36201,-2.86546 9.79891,14.83749 33.37832,23.77364 65.46953,23.77364 20.1844,0 32.94366,-3.48505 38.75358,-5.55735 0.1572,-0.0589 1.15101,-0.40184 1.15101,-0.40184 1.96021,-0.67218 4.66208,-1.61577 6.75099,-4.17196 -0.56232,1.86192 -0.3165,3.88373 0.7786,5.51843 1.22064,1.82615 3.27158,2.91596 5.47232,2.91596 h 50.80493 c 2.50459,0 4.79817,-1.42011 5.90382,-3.66283 l 3.53745,-7.18784 c 0.039,-0.081 0.8556,-1.85035 0.8556,-1.85035 12.7582,-27.77519 26.9037,-41.81636 42.0537,-41.73957 11.2062,0 14.5527,2.68242 14.5854,2.71083 l -0.423,-0.4618 c 1.8346,1.98815 4.8446,2.81497 7.366,1.83141 0.4906,-0.19145 0.9443,-0.44497 1.3768,-0.72268 2.2008,7.28357 9.1416,11.95415 14.9305,15.83262 2.7789,1.86507 5.9354,4.02995 7.6593,5.96024 -10.9204,-0.57962 -19.3319,-7.80743 -19.4227,-7.88738 -1.573,-1.39276 -3.7336,-1.95449 -5.7898,-1.50216 -2.0605,0.45549 -3.7801,1.85035 -4.6241,3.77538 l -7.0728,16.19448 c -0.059,0.14096 -0.115,0.27981 -0.1625,0.42814 -2.6438,7.43084 3.5902,11.23672 5.6412,12.48852 3.5606,2.08914 18.107,7.36247 43.5042,7.36247 30.668,0 63.6792,-9.73668 63.6792,-31.11297 0,-13.02816 -13.8153,-19.97196 -23.8959,-25.04753 -1.4538,-0.72583 -3.2209,-1.62523 -4.8414,-2.50885 1.0381,-0.12939 2.1954,-0.22091 3.5511,-0.22091 14.5823,0 22.5677,5.74881 22.8947,5.99285 2.0014,1.46745 4.6832,1.71255 6.8998,0.59645 2.2155,-1.114 3.6398,-3.36092 3.6398,-5.83927 V 282.8705 c 0,-2.60563 -1.5488,-4.96301 -3.9447,-6.00863 z"
         id="path2065"
         style="fill:none;stroke:#231f20;stroke-width:1.62129;stroke-linecap:butt;stroke-linejoin:miter;stroke-miterlimit:4;stroke-dasharray:none;stroke-opacity:1" />
      <path
         d="m 941.77386,322.12436 c -0.039,-1.72517 -0.75538,-3.41352 -2.0752,-4.64217 -1.06978,-0.99618 -2.43496,-1.499 -3.83495,-1.63996 4.60511,-1.57474 8.3219,-3.58498 11.10395,-6.15275 z m -41.78356,0.0978 c -4.1409,0 -7.36184,-0.22722 -9.99936,-0.56068 3.46148,-0.18198 7.86508,-0.42182 7.86508,-0.42182 12.12309,-0.59329 22.42207,-1.58211 30.76823,-3.41142 -4.92688,1.71781 -14.74267,4.39392 -28.63395,4.39392 z m -84.62002,-8.05884 c 0,3.35881 0.53278,6.54827 1.53082,9.561 -0.89676,-0.45338 -1.89796,-0.709 -2.94453,-0.709 0,0 -18.98696,0 -35.34168,0 14.02948,-10.19847 37.67958,-27.39649 50.89671,-37.00168 -8.94119,7.92315 -14.14132,17.59355 -14.14132,28.14968 z m -133.81606,19.2051 c 1.76925,-4.22245 3.59652,-8.5785 3.59652,-8.5785 0.33866,-0.81209 0.50219,-1.66205 0.50219,-2.50885 0,-1.77671 -0.7364,-3.52713 -2.09314,-4.79891 -1.07188,-0.99618 -2.42862,-1.49269 -3.82862,-1.63996 10.52581,-3.59971 16.46339,-9.43687 17.00566,-19.1483 5.29719,0 21.39871,0 35.3343,0 -13.80054,10.01859 -36.99699,26.85895 -50.51691,36.67452 z m -37.69751,-11.14626 c -4.14302,0 -7.36395,-0.22722 -10.00358,-0.56068 3.4657,-0.18198 7.86719,-0.42182 7.86719,-0.42182 12.11887,-0.59329 22.42101,-1.58211 30.76506,-3.4051 -4.92583,1.7178 -14.7395,4.3876 -28.62867,4.3876 z m -128.33108,0 c -4.14829,0 -7.36606,-0.22722 -10.0078,-0.56068 3.46359,-0.18198 7.86825,-0.42182 7.86825,-0.42182 12.12414,-0.59329 22.42734,-1.58211 30.76928,-3.41142 -4.92055,1.71781 -14.73739,4.39392 -28.62973,4.39392 z M 1167.461,271.46757 c -0.6035,-0.26193 -15.0191,-6.43045 -38.6439,-6.43045 -30.9338,0 -52.7788,7.37509 -61.0501,19.8836 0,-4.25086 0,-8.10303 0,-8.45648 -0.01,-0.0126 -0.01,-0.006 -0.014,-0.021 l -2.2039,-5.8782 c -1.4211,-1.51162 -5.2064,-5.52789 -26.0988,-5.52789 -15.2659,0 -68.32011,2.01024 -70.56938,2.09334 -2.56262,0.0978 -4.83932,1.67047 -5.82153,4.0331 l -10.14601,24.28699 c 0,-0.0726 0.01,-0.14412 0.01,-0.22196 0,-15.02789 -17.65977,-30.19147 -57.11809,-30.19147 -22.29442,0 -42.18658,5.27964 -56.61591,13.93493 1.72388,-1.26022 2.68816,-3.23785 2.68816,-5.28596 0,-0.67744 -0.10339,-1.36435 -0.32494,-2.03338 -0.88199,-2.69715 -3.40662,-4.52856 -6.25092,-4.52856 h -8.0592 c 25.80126,-1.43168 31.27674,-14.20949 35.71621,-24.5931 l 11.44789,-27.02726 c 0.83451,-1.97658 0.64566,-4.23823 -0.49691,-6.05281 -1.15418,-1.81248 -3.11966,-2.95277 -5.27398,-3.0485 -0.19834,-0.009 -20.3743,-0.89835 -40.15358,-0.89835 -8.44639,0 -17.1829,2.35738 -24.23562,6.62296 l -1.09405,-2.99064 c -1.74814,-1.85771 -4.91738,-3.75644 -15.16467,-3.75644 -7.48422,0 -33.34878,0.97829 -34.44704,1.01932 -1.36412,0.0526 -2.64279,0.53648 -3.69569,1.32122 -1.11936,-0.82576 -2.46239,-1.32543 -3.88665,-1.32543 h -24.70721 c -2.42124,0 -4.58506,1.37698 -5.72447,3.48505 -0.10233,-0.17988 -0.14981,-0.38185 -0.2627,-0.55542 -1.21853,-1.83036 -3.27896,-2.92963 -5.48076,-2.92963 h -25.02688 c -2.64068,0 -5.025,1.57474 -6.0589,3.99839 l -2.11951,4.98405 c -3.08274,-5.5016 -10.00253,-9.94075 -24.36012,-9.94075 -0.83768,0 -1.69012,0.0337 -2.55101,0.0905 0.27114,-0.65956 0.93579,-2.28375 0.93579,-2.28375 0.32811,-0.79631 0.48847,-1.64101 0.48847,-2.47834 0,-1.28336 -0.37769,-2.56146 -1.1162,-3.65862 -1.22275,-1.81143 -3.27368,-2.90017 -5.4586,-2.90017 h -24.97308 c -2.6544,0 -5.05243,1.59157 -6.07156,4.03836 l -6.3195,15.11519 c -2.76306,-4.52961 -8.32928,-7.97994 -17.85388,-7.97994 -12.93439,0 -20.848,1.6063 -24.9562,2.78446 -3.95628,-1.85561 -9.13109,-2.78446 -15.74493,-2.78446 -18.61138,0 -38.22924,1.01511 -38.42441,1.02247 -1.21854,0.0652 -2.36533,0.46811 -3.3391,1.12347 -0.93474,-0.62275 -2.01296,-1.02984 -3.16291,-1.11295 -0.51168,-0.0358 -12.84366,-0.90887 -40.28018,-0.90887 -12.00387,0 -22.56238,4.06677 -29.6668,10.5635 -0.35026,-0.83839 -0.74906,-1.65785 -1.26179,-2.42576 -4.89734,-7.353 -15.15307,-8.20506 -22.44106,-8.20506 -0.90097,0 -1.86631,0.0568 -2.84957,0.1336 0.27324,-0.64694 0.95583,-2.26271 0.95583,-2.26271 0.34394,-0.81735 0.51168,-1.68309 0.51168,-2.54251 0,-1.27179 -0.36609,-2.53831 -1.09615,-3.62917 -1.21959,-1.83036 -3.27791,-2.92962 -5.47971,-2.92962 h -24.0721 -0.89253 c -0.15509,0 -0.33128,0.061 -0.48531,0.0694 l -83.87412,5.80035 c -3.40662,0.23668 -6.06841,3.03693 -6.11799,6.44623 0,0.0326 0,0.0652 0,0.0978 0,3.36408 2.55628,6.19167 5.92703,6.52513 0,0 14.85661,1.46429 27.1907,2.68032 -1.00542,1.13609 -1.64898,2.59301 -1.67535,4.21614 0,0.0316 0,0.0631 0,0.0999 0,3.36092 2.55945,6.19062 5.9323,6.52408 0,0 22.61725,2.22694 33.72014,3.32621 -2.97723,7.10369 -6.62122,15.79579 -6.62122,15.79579 -0.33971,0.81525 -0.50851,1.67257 -0.50851,2.5299 0,1.27599 0.37874,2.54041 1.1067,3.63231 1.21853,1.82931 3.27263,2.92227 5.47338,2.92227 h 24.70826 c 2.42441,0 4.57663,-1.38434 5.7192,-3.49241 0.0992,0.18409 0.14875,0.39342 0.27114,0.56699 1.22064,1.82615 3.27368,2.92542 5.47443,2.92542 h 25.03004 c 2.63647,0 5.01551,-1.56948 6.04836,-3.98682 l 2.29464,-5.38273 c 3.07218,5.53105 9.36213,9.95232 20.2477,9.95232 4.94376,0 9.16907,-1.10032 12.78774,-2.5846 1.22486,1.21919 2.7694,2.07441 4.53759,2.07441 h 24.13118 c 1.35885,0 2.64701,-0.42182 3.71573,-1.15817 1.05184,0.67428 2.26194,1.08559 3.54694,1.08559 h 24.70826 c 2.41597,0 4.57663,-1.3612 5.72342,-3.46191 0.0971,0.17673 0.14665,0.37133 0.2532,0.53649 1.22064,1.83351 3.28318,2.92542 5.48498,2.92542 h 25.02688 c 2.21868,0 4.14829,-1.2234 5.35733,-3.03167 0.0232,0.0326 0.0317,0.0757 0.0549,0.1094 1.21853,1.83036 3.27685,2.92227 5.48393,2.92227 h 25.02371 c 1.25652,0 2.44235,-0.35766 3.46359,-0.98987 1.01808,0.62064 2.18387,0.98987 3.41717,0.98987 h 24.70616 c 1.3061,0 2.52463,-0.41341 3.57542,-1.09296 2.9498,1.12452 6.91663,1.9871 12.28767,1.9871 10.7136,0 21.62448,-3.74277 29.09077,-10.52036 0.28168,0.71321 0.60979,1.41484 1.00753,2.08387 1.89057,3.18841 6.00088,7.17943 14.8239,8.0883 6.91347,0.70269 12.69069,-0.58172 17.31373,-2.51201 1.22275,1.19815 2.75146,2.03864 4.50066,2.03864 H 731.182 c 1.47912,0 2.86118,-0.50808 3.98371,-1.36646 1.11198,0.80683 2.44023,1.29388 3.84761,1.29388 h 24.7146 c 2.5067,0 4.79817,-1.42011 5.90382,-3.66703 l 1.71755,-3.48821 c 0.0359,-0.0799 0.44944,-0.97198 0.44944,-0.97198 6.97887,-15.19409 13.2952,-18.36251 17.36436,-18.34042 0.55388,0 1.04446,0.02 1.48967,0.0421 -0.66044,2.20169 -1.03707,4.52225 -1.03707,6.97956 0,4.98405 1.23752,8.97087 3.62078,12.01621 -0.23948,0.66798 -2.02456,5.64361 -2.02456,5.64361 -0.0686,0.18619 -0.12765,0.37449 -0.17513,0.56278 -0.18357,0.70269 -0.28801,1.45693 -0.28801,2.2322 0,2.7771 1.33247,5.81507 5.1115,7.70224 3.99637,1.99446 10.71993,3.17473 19.93753,3.5408 h -106.465 c -1.90006,0 -3.70835,0.82366 -4.95431,2.24797 l -11.87938,13.56255 c -7.34813,-10.01859 -24.41181,-17.89755 -52.83582,-17.89755 -31.62173,0 -58.41891,10.61293 -71.62443,26.44765 -2.72825,-13.7014 -20.53783,-26.44765 -56.70981,-26.44765 -26.60728,0 -49.81005,7.51289 -64.36599,19.33239 0,-4.01943 0,-7.55497 0,-7.90211 -0.003,-0.009 -0.003,-0.003 -0.0127,-0.0189 l -2.19652,-5.87819 c -1.42426,-1.51688 -5.20857,-5.53315 -26.10932,-5.53315 -15.26279,0 -68.32016,2.01024 -70.5726,2.09334 -1.35885,0.0526 -2.62696,0.52807 -3.67564,1.30439 v -19.42811 c 0,-3.62075 -2.93925,-6.55879 -6.57586,-6.55879 H 189.85018 c -2.16593,0 -4.19681,1.06771 -5.4259,2.85179 -0.7596,1.10768 -1.14996,2.40471 -1.14996,3.707 0,0.79947 0.14454,1.60209 0.44416,2.3679 1.90746,4.91567 4.42259,10.13851 9.83372,15.02683 5.08619,4.56538 11.60508,7.66437 18.61139,9.18862 -1.4844,3.57446 -2.25561,5.42376 -3.39396,8.15457 -6.93245,0.48389 -49.33214,3.41141 -49.33214,3.41141 -3.41295,0.23353 -6.07262,3.03798 -6.12221,6.44413 0,0.0337 0,0.0652 0,0.0978 0,3.36723 2.56051,6.19167 5.92809,6.52408 0,0 29.03907,2.87072 40.98914,4.04888 -1.47279,3.53869 -2.05621,4.93987 -3.01416,7.24254 -7.30381,0.39448 -64.72152,3.48505 -64.72152,3.48505 -3.46359,0.18619 -6.18656,3.01589 -6.22349,6.46938 0,0.0315 0,0.0515 0,0.0789 0,3.41983 2.64279,6.27582 6.07368,6.5367 0,0 3.11754,0.23879 3.46675,0.26719 -9.53515,0.65535 -23.55726,1.62313 -23.55726,1.62313 -3.41189,0.23668 -6.07156,3.03798 -6.12115,6.44939 0,0.0316 0,0.0621 0,0.0989 0,3.36092 2.55945,6.18956 5.92703,6.52197 0,0 55.30981,5.46584 69.19054,6.83545 -4.25062,10.22898 -12.98819,31.22657 -15.18577,36.51568 -7.47789,0.40394 -79.883038,4.29924 -79.883038,4.29924 -3.457259,0.18514 -6.180232,3.01273 -6.221378,6.46833 0,0.0274 0,0.0505 0,0.0799 0,3.41983 2.641738,6.27372 6.072622,6.53565 0,0 19.995554,1.53898 39.988994,3.06954 -30.906437,2.13752 -67.963565,4.69266 -67.963565,4.69266 -3.412949,0.23879 -6.071567,3.04218 -6.123262,6.45044 0,0.0305 0,0.0621 0,0.0978 0,3.36197 2.559447,6.19167 5.928085,6.52513 0,0 74.059392,7.3025 88.660692,8.73944 -2.30202,5.53316 -4.73065,11.36612 -4.73065,11.36612 -0.33549,0.81314 -0.49796,1.66625 -0.49796,2.51411 0,1.2802 0.37136,2.54883 1.10459,3.64284 1.22381,1.81984 3.27263,2.91911 5.46916,2.91911 h 61.15666 c 2.65228,0 5.0482,-1.58842 6.06734,-4.02995 0,0 53.21773,-127.06275 56.39858,-134.6619 7.23207,0 43.54225,0 43.54225,0 2.63647,0 5.01973,-1.57263 6.05258,-3.98892 l 9.69024,-22.72066 c 0.34921,-0.82155 0.52117,-1.69571 0.52117,-2.56881 0,-1.26232 -0.36819,-2.52464 -1.08771,-3.61339 -1.21853,-1.83772 -3.28107,-2.94225 -5.48815,-2.94225 0,0 -25.71685,0 -38.18493,0 0.0644,-0.14411 0.0812,-0.1946 0.14032,-0.32925 7.43253,0 51.14042,0 51.14042,0 0.42306,0 0.83451,-0.0484 1.23119,-0.12728 l -27.17804,65.08402 c -0.844,2.02181 -0.62245,4.33606 0.60136,6.1559 1.21958,1.82615 3.27157,2.92542 5.47021,2.92542 h 50.8102 c 2.51092,0 4.79817,-1.42326 5.90593,-3.67124 l 3.53744,-7.1889 c 0.0401,-0.0831 0.84717,-1.82194 0.84717,-1.82194 12.74871,-27.79202 26.90057,-41.84476 42.05997,-41.76797 6.99787,0 10.93093,1.04877 12.91013,1.84508 -2.01612,4.35815 -3.1165,8.98244 -3.1165,13.78977 0,24.60256 27.66757,40.5025 70.48187,40.5025 20.15802,0 32.92783,-3.47558 38.74197,-5.55104 0.17619,-0.0621 1.17423,-0.41131 1.17423,-0.41131 2.65229,-0.91413 6.65709,-2.2869 8.65844,-7.52657 -0.0717,0.17989 6.86071,-16.38698 6.86071,-16.38698 0.34077,-0.81209 0.5043,-1.66205 0.5043,-2.50885 0,-1.77671 -0.73429,-3.52713 -2.09314,-4.79891 -1.06977,-1.00039 -2.4339,-1.499 -3.82967,-1.63996 3.02787,-1.0351 5.66011,-2.2606 7.90833,-3.70701 -0.0411,0.67324 -0.0823,1.34542 -0.0823,2.02813 0,24.60256 27.67178,40.5025 70.4882,40.5025 20.15802,0 32.92994,-3.47558 38.74725,-5.55104 0.0454,-0.0147 0.15192,-0.0537 0.28168,-0.0999 1.03285,2.38368 3.37708,3.96368 6.01776,3.96368 H 799.9503 c 1.95493,0 3.81385,-0.87205 5.0672,-2.37631 l 13.99994,-16.84773 c 0.70475,-0.84049 1.14785,-1.82931 1.35885,-2.85915 9.79891,14.83749 33.3836,23.77049 65.47586,23.77049 20.17807,0 32.9426,-3.47558 38.75041,-5.55736 0.16247,-0.0536 1.15102,-0.39973 1.15102,-0.39973 1.96442,-0.67429 4.66418,-1.60945 6.74782,-4.16775 -0.55599,1.85666 -0.31333,3.87531 0.7786,5.51212 1.2217,1.82615 3.27263,2.92542 5.47549,2.92542 h 50.80176 c 2.51091,0 4.79817,-1.42326 5.90487,-3.67124 l 3.53955,-7.1889 c 0.038,-0.081 0.85772,-1.84193 0.85772,-1.84193 12.75401,-27.77518 26.90371,-41.82477 42.04841,-41.74798 11.2073,0 14.5559,2.68873 14.5875,2.71608 l -0.4262,-0.4618 c 1.8357,1.98921 4.8457,2.81076 7.3671,1.82931 0.4969,-0.19355 0.9495,-0.44181 1.3779,-0.72583 2.1997,7.28673 9.1479,11.96151 14.9273,15.83893 2.781,1.86191 5.9449,4.02468 7.6646,5.95392 -10.9246,-0.57751 -19.3351,-7.80532 -19.4248,-7.88106 -1.5741,-1.3896 -3.7347,-1.95449 -5.7888,-1.50532 -2.0594,0.45233 -3.7854,1.84825 -4.6231,3.78064 l -7.0696,16.19238 c -0.064,0.1378 -0.1181,0.28086 -0.1719,0.42498 -2.6428,7.42768 3.5954,11.23673 5.6411,12.48537 3.5638,2.09229 18.1134,7.36877 43.5106,7.36877 30.667,0 63.676,-9.73772 63.676,-31.11296 0,-13.02816 -13.81,-19.97827 -23.8991,-25.04753 -1.4485,-0.73425 -3.2209,-1.63154 -4.8308,-2.5057 1.0381,-0.1378 2.1849,-0.23353 3.5511,-0.23353 14.576,0 22.5592,5.75512 22.8937,5.99601 1.9982,1.4706 4.6779,1.71254 6.8955,0.59645 2.2145,-1.1161 3.6377,-3.36092 3.6377,-5.83296 v -18.92634 c 0,-2.6109 -1.5456,-4.96827 -3.9426,-6.01074"
         id="path2067"
         style="fill:#ffffff;fill-opacity:1;fill-rule:nonzero;stroke:none" />
      <path
         d="m 941.77386,322.12436 c -0.039,-1.72517 -0.75538,-3.41352 -2.0752,-4.64217 -1.06978,-0.99618 -2.43496,-1.499 -3.83495,-1.63996 4.60511,-1.57474 8.3219,-3.58498 11.10395,-6.15275 z m -41.78356,0.0978 c -4.1409,0 -7.36184,-0.22722 -9.99936,-0.56068 3.46148,-0.18198 7.86508,-0.42182 7.86508,-0.42182 12.12309,-0.59329 22.42207,-1.58211 30.76823,-3.41142 -4.92688,1.71781 -14.74267,4.39392 -28.63395,4.39392 z m -84.62002,-8.05884 c 0,3.35881 0.53278,6.54827 1.53082,9.561 -0.89676,-0.45338 -1.89796,-0.709 -2.94453,-0.709 0,0 -18.98696,0 -35.34168,0 14.02948,-10.19847 37.67958,-27.39649 50.89671,-37.00168 -8.94119,7.92315 -14.14132,17.59355 -14.14132,28.14968 z m -133.81606,19.2051 c 1.76925,-4.22245 3.59652,-8.5785 3.59652,-8.5785 0.33866,-0.81209 0.50219,-1.66205 0.50219,-2.50885 0,-1.77671 -0.7364,-3.52713 -2.09314,-4.79891 -1.07188,-0.99618 -2.42862,-1.49269 -3.82862,-1.63996 10.52581,-3.59971 16.46339,-9.43687 17.00566,-19.1483 5.29719,0 21.39871,0 35.3343,0 -13.80054,10.01859 -36.99699,26.85895 -50.51691,36.67452 z m -37.69751,-11.14626 c -4.14302,0 -7.36395,-0.22722 -10.00358,-0.56068 3.4657,-0.18198 7.86719,-0.42182 7.86719,-0.42182 12.11887,-0.59329 22.42101,-1.58211 30.76506,-3.4051 -4.92583,1.7178 -14.7395,4.3876 -28.62867,4.3876 z m -128.33108,0 c -4.14829,0 -7.36606,-0.22722 -10.0078,-0.56068 3.46359,-0.18198 7.86825,-0.42182 7.86825,-0.42182 12.12414,-0.59329 22.42734,-1.58211 30.76928,-3.41142 -4.92055,1.71781 -14.73739,4.39392 -28.62973,4.39392 z M 1167.461,271.46757 c -0.6035,-0.26193 -15.0191,-6.43045 -38.6439,-6.43045 -30.9338,0 -52.7788,7.37509 -61.0501,19.8836 0,-4.25086 0,-8.10303 0,-8.45648 -0.01,-0.0126 -0.01,-0.006 -0.014,-0.021 l -2.2039,-5.8782 c -1.4211,-1.51162 -5.2064,-5.52789 -26.0988,-5.52789 -15.2659,0 -68.32011,2.01024 -70.56938,2.09334 -2.56262,0.0978 -4.83932,1.67047 -5.82153,4.0331 l -10.14601,24.28699 c 0,-0.0726 0.01,-0.14412 0.01,-0.22196 0,-15.02789 -17.65977,-30.19147 -57.11809,-30.19147 -22.29442,0 -42.18658,5.27964 -56.61591,13.93493 1.72388,-1.26022 2.68816,-3.23785 2.68816,-5.28596 0,-0.67744 -0.10339,-1.36435 -0.32494,-2.03338 -0.88199,-2.69715 -3.40662,-4.52856 -6.25092,-4.52856 h -8.0592 c 25.80126,-1.43168 31.27674,-14.20949 35.71621,-24.5931 l 11.44789,-27.02726 c 0.83451,-1.97658 0.64566,-4.23823 -0.49691,-6.05281 -1.15418,-1.81248 -3.11966,-2.95277 -5.27398,-3.0485 -0.19834,-0.009 -20.3743,-0.89835 -40.15358,-0.89835 -8.44639,0 -17.1829,2.35738 -24.23562,6.62296 l -1.09405,-2.99064 c -1.74814,-1.85771 -4.91738,-3.75644 -15.16467,-3.75644 -7.48422,0 -33.34878,0.97829 -34.44704,1.01932 -1.36412,0.0526 -2.64279,0.53648 -3.69569,1.32122 -1.11936,-0.82576 -2.46239,-1.32543 -3.88665,-1.32543 h -24.70721 c -2.42124,0 -4.58506,1.37698 -5.72447,3.48505 -0.10233,-0.17988 -0.14981,-0.38185 -0.2627,-0.55542 -1.21853,-1.83036 -3.27896,-2.92963 -5.48076,-2.92963 h -25.02688 c -2.64068,0 -5.025,1.57474 -6.0589,3.99839 l -2.11951,4.98405 c -3.08274,-5.5016 -10.00253,-9.94075 -24.36012,-9.94075 -0.83768,0 -1.69012,0.0337 -2.55101,0.0905 0.27114,-0.65956 0.93579,-2.28375 0.93579,-2.28375 0.32811,-0.79631 0.48847,-1.64101 0.48847,-2.47834 0,-1.28336 -0.37769,-2.56146 -1.1162,-3.65862 -1.22275,-1.81143 -3.27368,-2.90017 -5.4586,-2.90017 h -24.97308 c -2.6544,0 -5.05243,1.59157 -6.07156,4.03836 l -6.3195,15.11519 c -2.76306,-4.52961 -8.32928,-7.97994 -17.85388,-7.97994 -12.93439,0 -20.848,1.6063 -24.9562,2.78446 -3.95628,-1.85561 -9.13109,-2.78446 -15.74493,-2.78446 -18.61138,0 -38.22924,1.01511 -38.42441,1.02247 -1.21854,0.0652 -2.36533,0.46811 -3.3391,1.12347 -0.93474,-0.62275 -2.01296,-1.02984 -3.16291,-1.11295 -0.51168,-0.0358 -12.84366,-0.90887 -40.28018,-0.90887 -12.00387,0 -22.56238,4.06677 -29.6668,10.5635 -0.35026,-0.83839 -0.74906,-1.65785 -1.26179,-2.42576 -4.89734,-7.353 -15.15307,-8.20506 -22.44106,-8.20506 -0.90097,0 -1.86631,0.0568 -2.84957,0.1336 0.27324,-0.64694 0.95583,-2.26271 0.95583,-2.26271 0.34394,-0.81735 0.51168,-1.68309 0.51168,-2.54251 0,-1.27179 -0.36609,-2.53831 -1.09615,-3.62917 -1.21959,-1.83036 -3.27791,-2.92962 -5.47971,-2.92962 h -24.0721 -0.89253 c -0.15509,0 -0.33128,0.061 -0.48531,0.0694 l -83.87412,5.80035 c -3.40662,0.23668 -6.06841,3.03693 -6.11799,6.44623 0,0.0326 0,0.0652 0,0.0978 0,3.36408 2.55628,6.19167 5.92703,6.52513 0,0 14.85661,1.46429 27.1907,2.68032 -1.00542,1.13609 -1.64898,2.59301 -1.67535,4.21614 0,0.0316 0,0.0631 0,0.0999 0,3.36092 2.55945,6.19062 5.9323,6.52408 0,0 22.61725,2.22694 33.72014,3.32621 -2.97723,7.10369 -6.62122,15.79579 -6.62122,15.79579 -0.33971,0.81525 -0.50851,1.67257 -0.50851,2.5299 0,1.27599 0.37874,2.54041 1.1067,3.63231 1.21853,1.82931 3.27263,2.92227 5.47338,2.92227 h 24.70826 c 2.42441,0 4.57663,-1.38434 5.7192,-3.49241 0.0992,0.18409 0.14875,0.39342 0.27114,0.56699 1.22064,1.82615 3.27368,2.92542 5.47443,2.92542 h 25.03004 c 2.63647,0 5.01551,-1.56948 6.04836,-3.98682 l 2.29464,-5.38273 c 3.07218,5.53105 9.36213,9.95232 20.2477,9.95232 4.94376,0 9.16907,-1.10032 12.78774,-2.5846 1.22486,1.21919 2.7694,2.07441 4.53759,2.07441 h 24.13118 c 1.35885,0 2.64701,-0.42182 3.71573,-1.15817 1.05184,0.67428 2.26194,1.08559 3.54694,1.08559 h 24.70826 c 2.41597,0 4.57663,-1.3612 5.72342,-3.46191 0.0971,0.17673 0.14665,0.37133 0.2532,0.53649 1.22064,1.83351 3.28318,2.92542 5.48498,2.92542 h 25.02688 c 2.21868,0 4.14829,-1.2234 5.35733,-3.03167 0.0232,0.0326 0.0317,0.0757 0.0549,0.1094 1.21853,1.83036 3.27685,2.92227 5.48393,2.92227 h 25.02371 c 1.25652,0 2.44235,-0.35766 3.46359,-0.98987 1.01808,0.62064 2.18387,0.98987 3.41717,0.98987 h 24.70616 c 1.3061,0 2.52463,-0.41341 3.57542,-1.09296 2.9498,1.12452 6.91663,1.9871 12.28767,1.9871 10.7136,0 21.62448,-3.74277 29.09077,-10.52036 0.28168,0.71321 0.60979,1.41484 1.00753,2.08387 1.89057,3.18841 6.00088,7.17943 14.8239,8.0883 6.91347,0.70269 12.69069,-0.58172 17.31373,-2.51201 1.22275,1.19815 2.75146,2.03864 4.50066,2.03864 H 731.182 c 1.47912,0 2.86118,-0.50808 3.98371,-1.36646 1.11198,0.80683 2.44023,1.29388 3.84761,1.29388 h 24.7146 c 2.5067,0 4.79817,-1.42011 5.90382,-3.66703 l 1.71755,-3.48821 c 0.0359,-0.0799 0.44944,-0.97198 0.44944,-0.97198 6.97887,-15.19409 13.2952,-18.36251 17.36436,-18.34042 0.55388,0 1.04446,0.02 1.48967,0.0421 -0.66044,2.20169 -1.03707,4.52225 -1.03707,6.97956 0,4.98405 1.23752,8.97087 3.62078,12.01621 -0.23948,0.66798 -2.02456,5.64361 -2.02456,5.64361 -0.0686,0.18619 -0.12765,0.37449 -0.17513,0.56278 -0.18357,0.70269 -0.28801,1.45693 -0.28801,2.2322 0,2.7771 1.33247,5.81507 5.1115,7.70224 3.99637,1.99446 10.71993,3.17473 19.93753,3.5408 h -106.465 c -1.90006,0 -3.70835,0.82366 -4.95431,2.24797 l -11.87938,13.56255 c -7.34813,-10.01859 -24.41181,-17.89755 -52.83582,-17.89755 -31.62173,0 -58.41891,10.61293 -71.62443,26.44765 -2.72825,-13.7014 -20.53783,-26.44765 -56.70981,-26.44765 -26.60728,0 -49.81005,7.51289 -64.36599,19.33239 0,-4.01943 0,-7.55497 0,-7.90211 -0.003,-0.009 -0.003,-0.003 -0.0127,-0.0189 l -2.19652,-5.87819 c -1.42426,-1.51688 -5.20857,-5.53315 -26.10932,-5.53315 -15.26279,0 -68.32016,2.01024 -70.5726,2.09334 -1.35885,0.0526 -2.62696,0.52807 -3.67564,1.30439 v -19.42811 c 0,-3.62075 -2.93925,-6.55879 -6.57586,-6.55879 H 189.85018 c -2.16593,0 -4.19681,1.06771 -5.4259,2.85179 -0.7596,1.10768 -1.14996,2.40471 -1.14996,3.707 0,0.79947 0.14454,1.60209 0.44416,2.3679 1.90746,4.91567 4.42259,10.13851 9.83372,15.02683 5.08619,4.56538 11.60508,7.66437 18.61139,9.18862 -1.4844,3.57446 -2.25561,5.42376 -3.39396,8.15457 -6.93245,0.48389 -49.33214,3.41141 -49.33214,3.41141 -3.41295,0.23353 -6.07262,3.03798 -6.12221,6.44413 0,0.0337 0,0.0652 0,0.0978 0,3.36723 2.56051,6.19167 5.92809,6.52408 0,0 29.03907,2.87072 40.98914,4.04888 -1.47279,3.53869 -2.05621,4.93987 -3.01416,7.24254 -7.30381,0.39448 -64.72152,3.48505 -64.72152,3.48505 -3.46359,0.18619 -6.18656,3.01589 -6.22349,6.46938 0,0.0315 0,0.0515 0,0.0789 0,3.41983 2.64279,6.27582 6.07368,6.5367 0,0 3.11754,0.23879 3.46675,0.26719 -9.53515,0.65535 -23.55726,1.62313 -23.55726,1.62313 -3.41189,0.23668 -6.07156,3.03798 -6.12115,6.44939 0,0.0316 0,0.0621 0,0.0989 0,3.36092 2.55945,6.18956 5.92703,6.52197 0,0 55.30981,5.46584 69.19054,6.83545 -4.25062,10.22898 -12.98819,31.22657 -15.18577,36.51568 -7.47789,0.40394 -79.883038,4.29924 -79.883038,4.29924 -3.457259,0.18514 -6.180232,3.01273 -6.221378,6.46833 0,0.0274 0,0.0505 0,0.0799 0,3.41983 2.641738,6.27372 6.072622,6.53565 0,0 19.995554,1.53898 39.988994,3.06954 -30.906437,2.13752 -67.963565,4.69266 -67.963565,4.69266 -3.412949,0.23879 -6.071567,3.04218 -6.123262,6.45044 0,0.0305 0,0.0621 0,0.0978 0,3.36197 2.559447,6.19167 5.928085,6.52513 0,0 74.059392,7.3025 88.660692,8.73944 -2.30202,5.53316 -4.73065,11.36612 -4.73065,11.36612 -0.33549,0.81314 -0.49796,1.66625 -0.49796,2.51411 0,1.2802 0.37136,2.54883 1.10459,3.64284 1.22381,1.81984 3.27263,2.91911 5.46916,2.91911 h 61.15666 c 2.65228,0 5.0482,-1.58842 6.06734,-4.02995 0,0 53.21773,-127.06275 56.39858,-134.6619 7.23207,0 43.54225,0 43.54225,0 2.63647,0 5.01973,-1.57263 6.05258,-3.98892 l 9.69024,-22.72066 c 0.34921,-0.82155 0.52117,-1.69571 0.52117,-2.56881 0,-1.26232 -0.36819,-2.52464 -1.08771,-3.61339 -1.21853,-1.83772 -3.28107,-2.94225 -5.48815,-2.94225 0,0 -25.71685,0 -38.18493,0 0.0644,-0.14411 0.0812,-0.1946 0.14032,-0.32925 7.43253,0 51.14042,0 51.14042,0 0.42306,0 0.83451,-0.0484 1.23119,-0.12728 l -27.17804,65.08402 c -0.844,2.02181 -0.62245,4.33606 0.60136,6.1559 1.21958,1.82615 3.27157,2.92542 5.47021,2.92542 h 50.8102 c 2.51092,0 4.79817,-1.42326 5.90593,-3.67124 l 3.53744,-7.1889 c 0.0401,-0.0831 0.84717,-1.82194 0.84717,-1.82194 12.74871,-27.79202 26.90057,-41.84476 42.05997,-41.76797 6.99787,0 10.93093,1.04877 12.91013,1.84508 -2.01612,4.35815 -3.1165,8.98244 -3.1165,13.78977 0,24.60256 27.66757,40.5025 70.48187,40.5025 20.15802,0 32.92783,-3.47558 38.74197,-5.55104 0.17619,-0.0621 1.17423,-0.41131 1.17423,-0.41131 2.65229,-0.91413 6.65709,-2.2869 8.65844,-7.52657 -0.0717,0.17989 6.86071,-16.38698 6.86071,-16.38698 0.34077,-0.81209 0.5043,-1.66205 0.5043,-2.50885 0,-1.77671 -0.73429,-3.52713 -2.09314,-4.79891 -1.06977,-1.00039 -2.4339,-1.499 -3.82967,-1.63996 3.02787,-1.0351 5.66011,-2.2606 7.90833,-3.70701 -0.0411,0.67324 -0.0823,1.34542 -0.0823,2.02813 0,24.60256 27.67178,40.5025 70.4882,40.5025 20.15802,0 32.92994,-3.47558 38.74725,-5.55104 0.0454,-0.0147 0.15192,-0.0537 0.28168,-0.0999 1.03285,2.38368 3.37708,3.96368 6.01776,3.96368 H 799.9503 c 1.95493,0 3.81385,-0.87205 5.0672,-2.37631 l 13.99994,-16.84773 c 0.70475,-0.84049 1.14785,-1.82931 1.35885,-2.85915 9.79891,14.83749 33.3836,23.77049 65.47586,23.77049 20.17807,0 32.9426,-3.47558 38.75041,-5.55736 0.16247,-0.0536 1.15102,-0.39973 1.15102,-0.39973 1.96442,-0.67429 4.66418,-1.60945 6.74782,-4.16775 -0.55599,1.85666 -0.31333,3.87531 0.7786,5.51212 1.2217,1.82615 3.27263,2.92542 5.47549,2.92542 h 50.80176 c 2.51091,0 4.79817,-1.42326 5.90487,-3.67124 l 3.53955,-7.1889 c 0.038,-0.081 0.85772,-1.84193 0.85772,-1.84193 12.75401,-27.77518 26.90371,-41.82477 42.04841,-41.74798 11.2073,0 14.5559,2.68873 14.5875,2.71608 l -0.4262,-0.4618 c 1.8357,1.98921 4.8457,2.81076 7.3671,1.82931 0.4969,-0.19355 0.9495,-0.44181 1.3779,-0.72583 2.1997,7.28673 9.1479,11.96151 14.9273,15.83893 2.781,1.86191 5.9449,4.02468 7.6646,5.95392 -10.9246,-0.57751 -19.3351,-7.80532 -19.4248,-7.88106 -1.5741,-1.3896 -3.7347,-1.95449 -5.7888,-1.50532 -2.0594,0.45233 -3.7854,1.84825 -4.6231,3.78064 l -7.0696,16.19238 c -0.064,0.1378 -0.1181,0.28086 -0.1719,0.42498 -2.6428,7.42768 3.5954,11.23673 5.6411,12.48537 3.5638,2.09229 18.1134,7.36877 43.5106,7.36877 30.667,0 63.676,-9.73772 63.676,-31.11296 0,-13.02816 -13.81,-19.97827 -23.8991,-25.04753 -1.4485,-0.73425 -3.2209,-1.63154 -4.8308,-2.5057 1.0381,-0.1378 2.1849,-0.23353 3.5511,-0.23353 14.576,0 22.5592,5.75512 22.8937,5.99601 1.9982,1.4706 4.6779,1.71254 6.8955,0.59645 2.2145,-1.1161 3.6377,-3.36092 3.6377,-5.83296 v -18.92634 c 0,-2.6109 -1.5456,-4.96827 -3.9426,-6.01074 z"
         id="path2069"
         style="fill:none;stroke:#231f20;stroke-width:3.06559;stroke-linecap:butt;stroke-linejoin:miter;stroke-miterlimit:4;stroke-dasharray:none;stroke-opacity:1" />
      <path
         d="m 469.18761,220.82341 h 5.98716 l -2.03933,4.18773 c -4.90473,10.03648 -10.44246,13.7824 -14.07696,13.7824 -1.27234,0 -2.60903,-0.57961 -2.60903,-2.98117 0,-2.91911 3.56592,-14.98896 12.73816,-14.98896 z m -22.22795,28.06972 c 13.63069,0 21.27105,-9.83766 21.27105,-9.83766 l -3.94572,9.32748 h 24.13118 l 14.77326,-35.42904 c 0,0 -12.2845,-0.89204 -39.79909,-0.89204 -19.35833,0 -32.48262,11.42713 -32.48262,24.1292 0,7.37298 5.35733,12.70206 16.05194,12.70206"
         id="path2071"
         style="fill:#80d6f7;fill-opacity:1;fill-rule:nonzero;stroke:none" />
      <path
         d="m 520.3871,248.31773 1.72283,-3.48716 c 5.09252,-10.54666 9.23448,-17.40104 13.11902,-20.1308 2.35266,-1.59052 4.26012,-2.0965 7.83026,-2.0965 0,0 -2.03405,3.93212 -3.11755,6.60613 -3.12176,7.30671 -8.09296,19.10833 -8.09296,19.10833 h 25.02688 l 1.78297,-3.48716 c 5.22545,-10.54666 8.60041,-17.40104 12.4839,-20.1308 2.35688,-1.59052 4.26856,-2.0965 7.84186,-2.0965 0,0 -2.0446,3.93212 -3.12915,6.60613 -3.12071,7.30671 -8.08346,19.10833 -8.08346,19.10833 h 25.02371 l 8.15732,-19.10833 c 1.26812,-2.92332 1.83993,-5.52579 1.83993,-7.74432 0,-6.10225 -4.64414,-9.52628 -13.49459,-9.52628 -18.278,0 -25.66833,3.36302 -25.66833,3.36302 -2.86856,-2.16382 -7.76802,-3.36302 -15.0328,-3.36302 -18.65569,0 -38.08048,1.01511 -38.08048,1.01511 l -14.83762,35.36382"
         id="path2073"
         style="fill:#80d6f7;fill-opacity:1;fill-rule:nonzero;stroke:none" />
      <path
         d="m 629.86942,236.32571 c 5.53457,-12.00779 8.5213,-13.78345 14.12971,-13.78345 h 5.09569 l -3.43933,7.17733 c -3.31694,6.85122 -6.7531,10.79176 -11.46159,10.79176 -3.56909,0 -4.64942,-1.20657 -5.47233,-1.58526 z m -5.48709,11.99202 1.65742,-3.36092 c 0,0 3.05952,4.24875 14.20567,4.24875 15.34613,0 31.97094,-8.82255 31.97094,-24.69514 0,-10.03437 -8.91798,-12.51482 -19.99872,-12.51482 -5.79515,0 -13.05571,1.84193 -13.05571,1.84193 l 5.35416,-13.07234 h -24.97308 l -19.86684,47.55254"
         id="path2075"
         style="fill:#80d6f7;fill-opacity:1;fill-rule:nonzero;stroke:none" />
      <path
         d="m 685.83861,248.89313 c 16.23972,1.65259 25.02793,-9.90603 25.02793,-9.96704 l -3.88453,9.45686 h 24.19975 l 14.77643,-35.42904 h -24.70721 l -1.72494,3.55132 c -1.65847,3.56394 -10.44246,22.86267 -16.81048,22.35564 -2.10158,-0.19882 -3.43405,-0.89415 -1.01808,-6.73657 l 8.08557,-19.17039 h -25.02688 l -8.15309,19.17039 c -4.19999,9.90919 -0.70264,15.74636 9.23553,16.76883"
         id="path2077"
         style="fill:#80d6f7;fill-opacity:1;fill-rule:nonzero;stroke:none" />
      <path
         d="m 763.72768,248.31773 1.71755,-3.48716 c 1.71861,-3.6239 9.74616,-23.05306 23.75454,-22.98574 7.50955,0 9.36003,2.28164 9.36003,2.28164 v -10.02911 c 0.0654,-1.01511 -3.11966,-2.15856 -10.57223,-2.15856 -7.44835,0 -34.19489,1.01511 -34.19489,1.01511 l -14.7796,35.36382"
         id="path2079"
         style="fill:#80d6f7;fill-opacity:1;fill-rule:nonzero;stroke:none" />
      <path
         d="m 834.33931,220.82341 h 5.98717 l -2.03933,4.18773 c -4.97119,10.03648 -9.80524,12.95558 -13.43657,12.95558 -1.97498,0 -3.19034,-0.50071 -3.19034,-2.97801 0,-1.96501 3.31166,-14.1653 12.67907,-14.1653 z m -21.6498,27.17874 c 12.73288,0 20.62645,-8.94668 20.62645,-8.94668 l -3.05531,6.02652 c -1.53081,3.16946 -4.64941,6.91539 -15.66158,6.91539 -9.62166,0 -15.03279,-2.72555 -15.03279,-2.72555 l -2.16382,6.02756 c -0.24793,0.95936 0,1.71675 1.39999,2.41944 2.28831,1.1424 8.46749,2.98644 23.50029,2.98644 26.17261,0 30.37049,-10.8633 34.83106,-21.27005 l 11.21156,-26.48131 c 0,0 -20.00188,-0.89204 -39.86345,-0.89204 -16.11734,0 -32.29166,9.64726 -32.29166,23.36444 0,8.06621 3.81702,12.57584 16.49926,12.57584"
         id="path2081"
         style="fill:#80d6f7;fill-opacity:1;fill-rule:nonzero;stroke:none" />
      <path
         d="m 371.40532,214.32984 -1.10987,2.65928 -45.65333,3.14737 42.57165,4.20247 -10.04788,23.97877 h 24.70826 l 1.6532,-3.48716 c 5.09885,-10.54666 9.29989,-17.40104 13.18443,-20.1308 2.3611,-1.59052 4.26434,-2.0965 7.83026,-2.0965 0,0 -2.03089,3.93212 -3.1819,6.60613 -3.05425,7.30671 -8.02122,19.10833 -8.02122,19.10833 h 25.03004 l 8.14888,-19.10833 c 5.4143,-12.82409 -2.10369,-17.2138 -16.49715,-17.2138 -5.22017,0 -13.49987,1.904 -13.49987,1.904 l 5.54195,-13.13441 h -24.0721 v -0.0116 l -0.0327,0.0116 h -0.85983 l -0.0274,0.0547 -83.87413,5.79719"
         id="path2083"
         style="fill:#80d6f7;fill-opacity:1;fill-rule:nonzero;stroke:none" />
      <path
         d="m 276.66989,285.82538 5.62847,-13.44368 h 55.52186 V 249.00674 H 189.85018 c 1.82517,4.70108 3.92885,8.75101 8.11617,12.54007 6.54421,5.87293 15.32082,8.61006 23.57414,8.61006 h 31.16491 l -1.6648,4.26452 h -31.03409 l -6.71934,15.58436 -53.39708,3.69228 49.81322,4.91672 -7.99906,19.2251 -68.85505,3.707 65.23426,5.00193 -1.74498,4.19616 -83.62726,5.77194 78.01779,7.7054 -20.17596,48.49927 -84.013391,4.5212 79.590801,6.10857 -3.12282,7.5192 -104.493192,7.21309 97.482662,9.61675 -8.12566,19.53331 h 61.15666 l 58.08447,-138.68658 h 47.9237 l 9.68813,-22.72171"
         id="path2085"
         style="fill:#80d6f7;fill-opacity:1;fill-rule:nonzero;stroke:none" />
      <path
         d="m 440.38802,296.66342 v -20.62205 c 0.13082,-2.09966 -6.42183,-4.44126 -21.7437,-4.44126 -15.31237,0 -70.32256,2.08598 -70.32256,2.08598 l -30.37682,72.73051 h 50.8102 l 3.53849,-7.18469 c 3.53111,-7.44661 20.03565,-47.40421 48.84367,-47.2601 15.44847,0 19.25072,4.69161 19.25072,4.69161"
         id="path2087"
         style="fill:#80d6f7;fill-opacity:1;fill-rule:nonzero;stroke:none" />
      <path
         d="m 519.71085,296.79281 c -1.83361,3.78906 -4.31709,5.22599 -18.3297,6.27161 l -9.82106,0.64694 c 0,0 4.58295,-14.48719 18.85298,-14.48719 8.64262,0 12.57674,0.65219 12.57674,0.65219 z m -8.38204,-25.1927 c -42.68559,0 -73.85367,20.10241 -73.85367,42.56324 0,19.32292 23.17957,33.94581 63.90601,33.94581 22.52757,0 34.83106,-4.56643 36.66678,-5.21758 2.877,-1.04772 4.71271,-1.30439 5.76455,-4.05204 l 6.93773,-16.57317 c 0,0 -12.83522,6.51882 -35.22458,6.51882 -24.09953,0 -26.84677,-7.04373 -26.84677,-10.70866 0,-1.30545 0.25848,-2.08703 0.25848,-2.08703 l 24.09531,-1.30019 c 37.58041,-1.83667 48.84367,-7.44662 48.84367,-19.46072 0,-11.36296 -15.4548,-23.62848 -50.54751,-23.62848"
         id="path2089"
         style="fill:#80d6f7;fill-opacity:1;fill-rule:nonzero;stroke:none" />
      <path
         d="m 638.74942,289.22417 c 8.64051,0 12.56513,0.65219 12.56513,0.65219 l -3.27263,6.91645 c -1.82833,3.78906 -4.32131,5.22599 -18.32969,6.27161 l -9.82001,0.64694 c 0,0 4.57873,-14.48719 18.8572,-14.48719 z m 5.10729,39.56102 c -24.09742,0 -26.84466,-7.04373 -26.84466,-10.70866 0,-1.30545 0.25848,-2.08703 0.25848,-2.08703 l 24.09742,-1.30019 c 37.58146,-1.83667 48.84366,-7.44662 48.84366,-19.46072 0,-11.36296 -15.45269,-23.62848 -50.54856,-23.62848 -42.69297,0 -73.85683,20.10241 -73.85683,42.56324 0,19.32292 23.17745,33.94581 63.90601,33.94581 22.52123,0 34.83211,-4.56643 36.66466,-5.21758 2.88334,-1.04772 4.71166,-1.30439 5.7614,-4.05204 l 6.94194,-16.57317 c 0,0 -12.8331,6.51882 -35.22352,6.51882"
         id="path2091"
         style="fill:#80d6f7;fill-opacity:1;fill-rule:nonzero;stroke:none" />
      <path
         d="M 835.30148,273.68609 H 709.33256 l -14.40717,16.4522 H 752.2798 L 674.75892,346.4166 H 799.9503 l 14.00627,-16.84562 h -55.51764"
         id="path2093"
         style="fill:#80d6f7;fill-opacity:1;fill-rule:nonzero;stroke:none" />
      <path
         d="m 894.87879,289.22417 c 8.65,0 12.57569,0.65219 12.57569,0.65219 l -3.27158,6.91645 c -1.83677,3.78906 -4.32659,5.22599 -18.33075,6.27161 l -9.82423,0.64694 c 0,0 4.58612,-14.48719 18.85087,-14.48719 z m -21.73526,28.85236 c 0,-1.30545 0.2627,-2.08703 0.2627,-2.08703 l 24.09742,-1.30019 c 37.58463,-1.83667 48.84261,-7.44662 48.84261,-19.46072 0,-11.36296 -15.45163,-23.62848 -50.54117,-23.62848 -42.68981,0 -73.86,20.10241 -73.86,42.56324 0,19.32292 23.17851,33.94581 63.90706,33.94581 22.51913,0 34.83106,-4.56643 36.66044,-5.21758 2.88545,-1.04772 4.71483,-1.30439 5.76562,-4.05204 l 6.93984,-16.57317 c 0,0 -12.83522,6.51882 -35.22775,6.51882 -24.09847,0 -26.84677,-7.04373 -26.84677,-10.70866"
         id="path2095"
         style="fill:#80d6f7;fill-opacity:1;fill-rule:nonzero;stroke:none" />
      <path
         d="m 1061.1922,296.66342 v -20.62205 c 0.1266,-2.09966 -6.4186,-4.44126 -21.7416,-4.44126 -15.3165,0 -70.3204,2.08598 -70.3204,2.08598 l -30.37471,72.73051 h 50.80176 l 3.53744,-7.18469 c 3.53744,-7.44661 20.03351,-47.40421 48.85101,-47.2601 15.4496,0 19.2465,4.69161 19.2465,4.69161"
         id="path2097"
         style="fill:#80d6f7;fill-opacity:1;fill-rule:nonzero;stroke:none" />
      <path
         d="m 1137.9767,289.08847 c 17.2842,0 26.8531,7.31618 26.8531,7.31618 v -18.92634 c 0,0 -13.4935,-5.8782 -36.0127,-5.8782 -34.7076,0 -58.1446,9.78927 -58.1446,25.46515 0,13.04605 24.6155,17.09809 24.6155,28.97334 0,3.53238 -3.6672,4.30871 -6.5443,4.30871 -14.4071,0 -25.145,-9.66199 -25.145,-9.66199 l -7.0707,16.19974 c -0.7902,2.21642 0.5244,3.26203 2.8771,4.70213 2.8812,1.69045 16.7661,6.39995 40.0744,6.39995 27.2361,0 57.1012,-8.62794 57.1012,-24.55523 0,-15.40658 -32.4805,-20.7546 -32.4805,-28.58938 0,-3.2673 5.7667,-5.75406 13.8765,-5.75406"
         id="path2099"
         style="fill:#80d6f7;fill-opacity:1;fill-rule:nonzero;stroke:none" />
      <path
         d="m 1012.2747,187.35306 c 11.0428,-21.75288 8.0814,-62.57516 8.0814,-62.57516 l -4.8488,-3.75855 C 1014.697,78.585503 997.7325,72.410668 997.7325,72.410668 l -2.77045,1.586312 c -18.70844,-22.353533 -44.8684,-22.535518 -44.8684,-22.535518 -2.6217,-4.732637 -6.60329,-4.65795 -7.95792,-4.655846 -0.0148,0 -6.60962,-0.07679 -9.23131,4.655846 0,0 -25.59553,0.815247 -43.52538,22.535518 l -2.76412,-1.586312 c 0,0 -16.97401,6.174835 -17.78109,48.608682 l -4.84565,3.75855 c 0,0 -2.96457,40.82228 8.07819,62.57516 0,0 5.11678,1.07508 9.69868,9.3969 0,0 -7.0063,-7.2499 -7.54541,-4.02679 0,0 2.15538,11.27986 0.27325,16.11453 0,0 26.34142,89.25425 66.94653,91.03096 v 0.27665 l 0.73218,-0.14411 0.73639,0.14411 v -0.27665 c 40.59879,-1.77671 66.94651,-91.03096 66.94651,-91.03096 -1.8821,-4.83467 0.3883,-15.70953 0.3883,-15.70953 -0.5412,-3.22207 -5.7424,4.61587 -5.7424,4.61587 4.5755,-8.32183 7.7743,-10.39098 7.7743,-10.39098"
         id="path2101"
         style="fill:#ffffff;fill-opacity:1;fill-rule:nonzero;stroke:none" />
      <path
         d="m 959.1646,143.19826 c 0,0 48.2518,-3.73856 61.1176,-12.29707 0,0 4.4574,17.95015 -7.2015,51.11543 0,0 7.2638,-38.60166 0.172,-38.12303 0,0 3.3064,-6.04229 -7.4146,-3.90161 0,0 -38.0868,4.80942 -46.6735,3.20628"
         id="path2103"
         style="fill:#9c9a9b;fill-opacity:1;fill-rule:nonzero;stroke:none" />
      <path
         d="m 915.00938,141.15751 2.47716,2.90649 c 0,0 5.04926,-2.22168 11.14404,0.85522 l 10.45829,0.68376 c 0,0 -8.13516,-6.32527 -5.12839,-7.75168 0,0 -45.03087,-4.56854 -65.94956,-13.12495 0,0 -9.42016,15.03525 -0.20361,33.74805 0,0 0.18568,-29.18161 6.62333,-25.43779 l 1.2217,5.04401 3.69147,-2.05127 2.30836,3.24836 c 0,0 17.79375,3.91319 31.205,4.44441"
         id="path2105"
         style="fill:#80d6f7;fill-opacity:1;fill-rule:nonzero;stroke:none" />
      <path
         d="m 952.04436,294.1167 c -0.12555,-0.35345 -0.48636,3.707 -0.48636,3.707 0,0 3.64399,-0.61433 16.34628,-10.3268 0,0 -14.6319,10.07224 -15.85992,6.6198"
         id="path2107"
         style="fill:#9c9a9b;fill-opacity:1;fill-rule:nonzero;stroke:none" />
      <path
         d="m 952.43471,284.39686 -3.15764,-29.73178 -1.69961,44.02015 c 0,0 4.05544,-0.66376 5.49447,-1.61681 1.42743,-0.95411 -0.63722,-12.67156 -0.63722,-12.67156"
         id="path2109"
         style="fill:#9c9a9b;fill-opacity:1;fill-rule:nonzero;stroke:none" />
      <path
         d="m 1008.5759,197.07712 c 0,0 -6.443,10.79701 -11.56608,17.75343 l -3.84128,18.60866 -4.25063,-5.89502 -5.48181,22.70699 -7.84504,-15.16885 -4.04806,19.83311 -9.11632,-9.43582 -5.13788,33.78486 -8.01173,-24.5994 2.71981,40.53195 c 0,0 20.9651,0.84681 42.7932,-46.25972 0,0 15.36302,-33.03694 14.77962,-39.34327 0,0 0.5412,-5.43638 -0.9938,-12.51692"
         id="path2111"
         style="fill:#9c9a9b;fill-opacity:1;fill-rule:nonzero;stroke:none" />
      <path
         d="m 947.60805,298.9945 -5.9207,-48.3236 -6.32688,29.8559 -4.64097,-26.97993 -4.63782,8.68685 -3.22937,-21.02179 -6.8892,11.98044 -2.95086,-17.01393 -6.53788,11.96993 -2.79365,-20.73041 -6.2773,5.38589 -6.35431,-18.52346 c 0,0 -6.01459,-3.83639 -6.77525,-9.63568 0,0 -10.92988,-22.30725 -6.87865,4.94933 0,0 7.95265,34.82102 29.6879,65.20289 0,0 17.16708,27.05251 40.52494,24.19757"
         id="path2113"
         style="fill:#80d6f7;fill-opacity:1;fill-rule:nonzero;stroke:none" />
      <path
         d="m 931.63841,125.25863 c 0,0 -36.54967,-2.19959 -49.32053,-45.980956 0,0 -15.63943,13.968592 -10.17238,41.878426 0,0 31.96671,9.9155 58.20158,12.3097 0,0 4.19998,0.42708 6.68558,1.70833 l -2.22923,-3.33357 c 0,0 -33.31713,-2.58985 -53.19874,-12.32337 0,0 -3.43616,-18.61497 3.67881,-25.050684 0,0 6.67398,26.222534 46.35491,30.792124"
         id="path2115"
         style="fill:#80d6f7;fill-opacity:1;fill-rule:nonzero;stroke:none" />
      <path
         d="m 936.60327,52.859479 c 0,0 -32.42881,4.722118 -6.60012,68.126211 0,0 -40.12615,-17.44628 -39.60603,-44.107471 0,0 14.48841,-28.292736 46.20615,-24.01874"
         id="path2117"
         style="fill:#80d6f7;fill-opacity:1;fill-rule:nonzero;stroke:none" />
      <path
         d="m 950.49033,52.859479 c 0,0 21.01047,-5.566819 46.22092,23.398101 0,0 6.74145,24.80979 -41.50398,44.89852 0,0 26.14624,-46.927695 -4.71694,-68.296621"
         id="path2119"
         style="fill:#9c9a9b;fill-opacity:1;fill-rule:nonzero;stroke:none" />
      <path
         d="m 989.1996,108.4351 c 0,0 13.7942,-12.240272 14.9452,-30.184111 0,0 15.0413,12.129817 10.9004,36.066511 0,0 -5.8321,5.29962 -17.25995,8.55956 0,0 -0.0528,-15.84313 -8.58565,-14.44196"
         id="path2121"
         style="fill:#9c9a9b;fill-opacity:1;fill-rule:nonzero;stroke:none" />
      <path
         d="m 1015.0452,120.64381 c 0,0 -28.02419,14.1895 -56.42815,16.62366 0,0 17.0869,4.06151 61.57025,-10.69603"
         id="path2123"
         style="fill:#9c9a9b;fill-opacity:1;fill-rule:nonzero;stroke:none" />
      <path
         d="m 943.48403,301.64747 c 0,0 -37.46542,4.65164 -68.54488,-92.33219 0,0 1.24069,-3.96368 0.3144,-12.47801 0,0 -4.98386,-9.90287 6.47247,-0.76159 0,0 -2.49721,-6.8649 -9.23976,-8.51644 0,0 -12.93966,-26.2299 -8.18052,-63.37358 l 4.90684,-3.80799 c 0,0 -2.60482,-33.718596 18.00053,-49.225111 l 2.80632,1.604195 c 0,0 16.63219,-20.799832 44.11829,-21.992722 0,0 3.08378,-5.083982 9.64276,-5.100813 v 1.826152 c 0,0 -5.44489,-0.552264 -7.79228,4.524355 0,0 -29.56763,0.625899 -45.77149,24.303814 l -3.55115,-1.631545 c 0,0 -18.53648,12.586355 -14.72474,46.237625 l -4.64097,4.62219 c 0,0 -7.1941,19.70266 6.27307,58.74614 0,0 7.06327,2.19327 9.94133,14.55662 0,0 -4.91422,-4.43705 -6.11904,-3.4009 0,0 1.20482,5.80771 0,14.14637 0,0 24.33796,89.46884 66.30826,89.40046 v 2.05127"
         id="path2125"
         style="fill:#231f20;fill-opacity:1;fill-rule:nonzero;stroke:none" />
      <path
         d="m 943.48403,301.64747 c 0,0 -37.46542,4.65164 -68.54488,-92.33219 0,0 1.24069,-3.96368 0.3144,-12.47801 0,0 -4.98386,-9.90287 6.47247,-0.76159 0,0 -2.49721,-6.8649 -9.23976,-8.51644 0,0 -12.93966,-26.2299 -8.18052,-63.37358 l 4.90684,-3.80799 c 0,0 -2.60482,-33.718596 18.00053,-49.225111 l 2.80632,1.604195 c 0,0 16.63219,-20.799832 44.11829,-21.992722 0,0 3.08378,-5.083982 9.64276,-5.100813 v 1.826152 c 0,0 -5.44489,-0.552264 -7.79228,4.524355 0,0 -29.56763,0.625899 -45.77149,24.303814 l -3.55115,-1.631545 c 0,0 -18.53648,12.586355 -14.72474,46.237625 l -4.64097,4.62219 c 0,0 -7.1941,19.70266 6.27307,58.74614 0,0 7.06327,2.19327 9.94133,14.55662 0,0 -4.91422,-4.43705 -6.11904,-3.4009 0,0 1.20482,5.80771 0,14.14637 0,0 24.33796,89.46884 66.30826,89.40046 v 2.05127"
         id="path2127"
         style="fill:none;stroke:#231f20;stroke-width:1.96156;stroke-linecap:butt;stroke-linejoin:miter;stroke-miterlimit:4;stroke-dasharray:none;stroke-opacity:1" />
      <path
         d="m 943.48403,301.64747 c 0,0 37.45803,4.65164 68.53647,-92.33219 0,0 -1.2365,-3.96368 -0.3049,-12.47801 0,0 4.9817,-9.90287 -6.4788,-0.76159 0,0 2.5077,-6.8649 9.2492,-8.51644 0,0 12.9312,-26.2299 8.1837,-63.37358 l -4.9121,-3.80799 c 0,0 2.6101,-33.718596 -18.00793,-49.225111 l -2.8021,1.604195 c 0,0 -16.6248,-20.799832 -44.11618,-21.992722 0,0 -3.9605,-6.089628 -9.64382,-5.005087 v 1.730426 c 0,0 5.44067,-0.552264 7.79967,4.524355 0,0 29.56341,0.625899 45.7641,24.303814 l 3.55226,-1.631545 c 0,0 18.5375,12.586355 14.7215,46.237625 l 4.6484,4.62219 c 0,0 7.193,19.70266 -6.2826,58.74614 0,0 -7.058,2.19327 -9.9382,14.55662 0,0 4.9122,-4.43705 6.117,-3.4009 0,0 -1.2048,5.80771 0,14.14637 0,0 -25.1208,89.35628 -66.30089,89.40046 v 2.05127"
         id="path2129"
         style="fill:#231f20;fill-opacity:1;fill-rule:nonzero;stroke:none" />
      <path
         d="m 943.48403,301.64747 c 0,0 37.45803,4.65164 68.53647,-92.33219 0,0 -1.2365,-3.96368 -0.3049,-12.47801 0,0 4.9817,-9.90287 -6.4788,-0.76159 0,0 2.5077,-6.8649 9.2492,-8.51644 0,0 12.9312,-26.2299 8.1837,-63.37358 l -4.9121,-3.80799 c 0,0 2.6101,-33.718596 -18.00793,-49.225111 l -2.8021,1.604195 c 0,0 -16.6248,-20.799832 -44.11618,-21.992722 0,0 -3.9605,-6.089628 -9.64382,-5.005087 v 1.730426 c 0,0 5.44067,-0.552264 7.79967,4.524355 0,0 29.56341,0.625899 45.7641,24.303814 l 3.55226,-1.631545 c 0,0 18.5375,12.586355 14.7215,46.237625 l 4.6484,4.62219 c 0,0 7.193,19.70266 -6.2826,58.74614 0,0 -7.058,2.19327 -9.9382,14.55662 0,0 4.9122,-4.43705 6.117,-3.4009 0,0 -1.2048,5.80771 0,14.14637 0,0 -25.1208,89.35628 -66.30089,89.40046 v 2.05127"
         id="path2131"
         style="fill:none;stroke:#231f20;stroke-width:1.96156;stroke-linecap:butt;stroke-linejoin:miter;stroke-miterlimit:4;stroke-dasharray:none;stroke-opacity:1" />
      <path
         d="m 974.53078,257.83455 c 0,0 -4.38039,0.98145 -4.81822,9.10656 0,0 -2.19758,15.42762 5.04399,6.70817 0,0 5.84158,-6.38102 6.0051,-12.50746 0,0 1.98869,-8.09146 -6.23087,-3.30727"
         id="path2133"
         style="fill:#231f20;fill-opacity:1;fill-rule:nonzero;stroke:none" />
      <path
         d="m 974.53078,257.83455 c 0,0 -4.38039,0.98145 -4.81822,9.10656 0,0 -2.19758,15.42762 5.04399,6.70817 0,0 5.84158,-6.38102 6.0051,-12.50746 0,0 1.98869,-8.09146 -6.23087,-3.30727 z"
         id="path2135"
         style="fill:none;stroke:#231f20;stroke-width:0.135276;stroke-linecap:butt;stroke-linejoin:miter;stroke-miterlimit:4;stroke-dasharray:none;stroke-opacity:1" />
      <path
         d="m 1008.9989,144.46479 c 0,0 -54.30859,11.96887 -132.01198,0 0,0 0.28169,88.45687 66.00864,89.31735 0,0 62.78774,1.7967 66.00334,-89.31735"
         id="path2137"
         style="fill:#231f20;fill-opacity:1;fill-rule:nonzero;stroke:none" />
      <path
         d="m 1008.9989,144.46479 c 0,0 -54.30859,11.96887 -132.01198,0 0,0 0.28169,88.45687 66.00864,89.31735 0,0 62.78774,1.7967 66.00334,-89.31735 z"
         id="path2139"
         style="fill:none;stroke:#231f20;stroke-width:0.135276;stroke-linecap:butt;stroke-linejoin:miter;stroke-miterlimit:4;stroke-dasharray:none;stroke-opacity:1" />
      <path
         d="m 903.9624,159.86085 c -0.56654,0 -0.85139,0.58698 -1.13413,0.88362 -0.42306,0.44497 -0.70791,1.033 -0.99171,1.62944 -0.2859,0.29349 -0.56759,0.7374 -0.56759,1.17711 0.14137,0.59645 0.56759,0.88994 0.85139,1.3349 2.65756,4.15303 7.19304,5.89818 11.82769,6.15801 4.86991,0.27876 9.46447,-2.02392 13.72669,-4.24034 0.85562,-0.29243 2.13639,-1.03299 2.13639,-2.21326 0,-0.2998 -0.42938,-0.7374 -0.57392,-1.03931 -0.2838,-0.59013 -0.70685,-1.02984 -1.13308,-1.62628 -0.42939,-0.43866 -0.99592,-0.88257 -1.70594,-1.18027 -0.42095,-0.29664 -0.99066,-0.59013 -1.56036,-0.59013"
         id="path2141"
         style="fill:#ffffff;fill-opacity:1;fill-rule:nonzero;stroke:none" />
      <path
         d="m 903.9624,159.70201 c -1.50655,0.18724 -2.49614,2.15014 -3.02048,3.41772 -0.30701,0.74056 0.45682,1.44115 0.84084,1.96396 0.62245,0.84785 1.2122,1.65258 1.97181,2.39209 2.98356,2.90859 7.4378,4.06045 11.5154,3.97735 2.52674,-0.0494 5.00284,-0.82682 7.3228,-1.77145 2.11529,-0.85943 4.3498,-1.84825 6.30051,-3.03167 0.62984,-0.3808 1.06028,-0.94884 1.27023,-1.64312 0.2226,-0.75213 -0.43783,-1.39065 -0.76699,-1.99446 -0.88726,-1.61681 -2.70821,-3.03482 -4.55869,-3.25467 -0.51062,-0.06 -0.50535,0.73319 0,0.79315 1.94543,0.23143 3.27474,1.91452 4.20631,3.44718 1.0835,1.78408 -1.96758,2.67506 -3.13442,3.26835 -3.47098,1.76619 -7.12658,3.3241 -11.08074,3.40405 -3.21356,0.0642 -6.53683,-0.871 -9.19017,-2.67296 -1.40527,-0.95305 -2.37271,-2.21747 -3.36336,-3.56183 -0.23422,-0.31979 -0.64883,-0.64799 -0.58131,-1.10874 -0.0105,0.0684 0.56865,-0.96567 0.64039,-1.1182 0.27113,-0.56804 0.99698,-1.99972 1.67113,-2.19538 0.16563,-0.0484 0.14031,-0.33346 -0.0433,-0.31137"
         id="path2143"
         style="fill:#231f20;fill-opacity:1;fill-rule:nonzero;stroke:none" />
      <path
         d="m 982.75878,160.44362 c 0.57498,0 0.86405,0.56068 1.15101,0.83944 0.42623,0.41762 0.71952,0.97093 1.00754,1.52214 0.28696,0.28402 0.57286,0.70164 0.57286,1.11715 -0.14453,0.55542 -0.57286,0.83208 -0.86088,1.25075 -2.69344,3.90898 -7.28905,5.54999 -11.98066,5.79509 -4.93322,0.26088 -9.59107,-1.904 -13.91027,-3.98682 -0.85983,-0.28192 -2.14905,-0.97093 -2.14905,-2.08493 0,-0.27981 0.42094,-0.69743 0.56548,-0.97409 0.28696,-0.55647 0.72374,-0.97514 1.1584,-1.5295 0.42517,-0.41762 0.99593,-0.83524 1.72072,-1.10979 0.43044,-0.27876 1.00753,-0.55542 1.57934,-0.55542"
         id="path2145"
         style="fill:#ffffff;fill-opacity:1;fill-rule:nonzero;stroke:none" />
      <path
         d="m 982.71764,160.59299 c 0.57392,0.15884 1.24279,1.28862 1.52448,1.7441 0.48847,0.7879 1.08349,1.45588 0.30173,2.32793 -1.04867,1.17185 -1.86736,2.29952 -3.17557,3.22627 -2.64068,1.87454 -5.97978,2.58565 -9.16907,2.70767 -3.93623,0.14937 -7.77012,-1.3917 -11.27697,-3.00747 -0.7807,-0.35976 -4.63148,-1.61261 -3.76743,-2.98748 0.99804,-1.59684 2.43285,-3.2652 4.45846,-3.48926 0.49374,-0.0547 0.49902,-0.82892 0,-0.77317 -1.9486,0.21565 -3.49524,1.53687 -4.60616,3.06638 -0.36398,0.50177 -0.97905,1.20867 -0.76066,1.88506 0.22155,0.70374 0.66571,1.14766 1.27023,1.55265 0.89886,0.60065 2.03827,0.95831 3.0131,1.4138 1.1067,0.51649 2.22606,0.99723 3.36336,1.44114 2.37799,0.92991 4.86358,1.5495 7.41565,1.66731 4.11664,0.19145 8.51074,-1.0656 11.65677,-3.74698 0.8324,-0.709 1.45486,-1.56211 2.12057,-2.41523 0.44837,-0.5733 0.84611,-0.9278 0.72162,-1.69361 -0.11816,-0.72794 -0.959,-1.63786 -1.40632,-2.21431 -0.46843,-0.60276 -0.90309,-0.9257 -1.64265,-1.00881 -0.17724,-0.02 -0.20678,0.25878 -0.0411,0.30401"
         id="path2147"
         style="fill:#231f20;fill-opacity:1;fill-rule:nonzero;stroke:none" />
      <path
         d="m 965.08108,162.79153 c 0,3.26519 2.79155,5.9108 6.23087,5.9108 3.44988,0 6.24775,-2.64561 6.24775,-5.9108 0,-3.27256 -2.79787,-5.91922 -6.24775,-5.91922 -3.43932,0 -6.23087,2.64666 -6.23087,5.91922"
         id="path2149"
         style="fill:#231f20;fill-opacity:1;fill-rule:nonzero;stroke:none" />
      <path
         d="m 965.08108,162.79153 c 0,3.26519 2.79155,5.9108 6.23087,5.9108 3.44988,0 6.24775,-2.64561 6.24775,-5.9108 0,-3.27256 -2.79787,-5.91922 -6.24775,-5.91922 -3.43932,0 -6.23087,2.64666 -6.23087,5.91922 z"
         id="path2151"
         style="fill:none;stroke:#231f20;stroke-width:0.42992;stroke-linecap:butt;stroke-linejoin:miter;stroke-miterlimit:4;stroke-dasharray:none;stroke-opacity:1" />
      <path
         d="m 921.51456,162.79153 c 0,3.26519 -2.79577,5.9108 -6.24037,5.9108 -3.44354,0 -6.24564,-2.64561 -6.24564,-5.9108 0,-3.27256 2.8021,-5.91922 6.24564,-5.91922 3.4446,0 6.24037,2.64666 6.24037,5.91922"
         id="path2153"
         style="fill:#231f20;fill-opacity:1;fill-rule:nonzero;stroke:none" />
      <path
         d="m 921.51456,162.79153 c 0,3.26519 -2.79577,5.9108 -6.24037,5.9108 -3.44354,0 -6.24564,-2.64561 -6.24564,-5.9108 0,-3.27256 2.8021,-5.91922 6.24564,-5.91922 3.4446,0 6.24037,2.64666 6.24037,5.91922 z"
         id="path2155"
         style="fill:none;stroke:#231f20;stroke-width:0.42992;stroke-linecap:butt;stroke-linejoin:miter;stroke-miterlimit:4;stroke-dasharray:none;stroke-opacity:1" />
      <path
         d="m 993.1295,200.47064 c 0,0 9.6839,-30.97305 4.03646,-29.76649 -12.32987,2.63509 -24.6091,15.88837 -37.92118,13.47524 -7.02002,-1.27179 -13.06415,-20.62732 -17.34959,-19.9099 0,0 -15.73227,63.75544 -51.63628,40.22374 0,0 15.32187,29.25946 52.64592,29.56557 12.30244,0.0999 43.5718,-4.83678 50.22467,-33.58816"
         id="path2157"
         style="fill:#9c9a9b;fill-opacity:1;fill-rule:nonzero;stroke:none" />
      <path
         d="m 905.51748,159.82298 c 0,0 -4.13879,0.0547 -6.62333,-0.71426 0,0 2.5605,4.16985 3.28529,5.09976 0,0 -0.18252,-1.83352 3.33804,-4.3855"
         id="path2159"
         style="fill:#ffffff;fill-opacity:1;fill-rule:nonzero;stroke:none" />
      <path
         d="m 982.02872,160.4047 c 0,0 3.10594,0.10835 5.54828,-1.21919 0,0 -2.69027,6.3221 -4.32975,6.59035 -1.63315,0.26193 0.5159,-5.12922 -1.21853,-5.37116"
         id="path2161"
         style="fill:#ffffff;fill-opacity:1;fill-rule:nonzero;stroke:none" />
      <path
         d="m 930.60344,125.08822 c 0,0 -27.43229,-2.82128 -43.97903,-34.276123 0,0 -10.5891,9.067646 -6.29522,28.321143 0,0 17.61018,10.06277 47.27381,12.10877 l 7.43147,0.72373 c 0,0 -7.62664,-3.32936 -4.43103,-6.87752"
         id="path2163"
         style="fill:#9c9a9b;fill-opacity:1;fill-rule:nonzero;stroke:none" />
      <path
         d="m 957.33627,124.94936 c 0,0 17.71885,-4.51909 31.12904,-12.53691 0,0 6.24143,3.34304 4.28544,11.76374 0,0 -13.66128,8.21243 -35.92721,8.55746 0,0 -3.40662,1.41485 -5.36788,6.95221 0,0 -2.67128,-10.9222 5.88061,-14.7365"
         id="path2165"
         style="fill:#80d6f7;fill-opacity:1;fill-rule:nonzero;stroke:none" />
      <path
         d="m 909.97594,256.43337 c 0,0 3.95945,0.89099 4.35296,8.22926 0,0 1.98025,13.93809 -4.55235,6.06438 0,0 -5.28242,-5.77089 -5.43012,-11.30194 0,0 -1.79352,-7.30672 5.62951,-2.9917"
         id="path2167"
         style="fill:#231f20;fill-opacity:1;fill-rule:nonzero;stroke:none" />
      <path
         d="m 909.97594,256.43337 c 0,0 3.95945,0.89099 4.35296,8.22926 0,0 1.98025,13.93809 -4.55235,6.06438 0,0 -5.28242,-5.77089 -5.43012,-11.30194 0,0 -1.79352,-7.30672 5.62951,-2.9917 z"
         id="path2169"
         style="fill:none;stroke:#231f20;stroke-width:0.135708;stroke-linecap:butt;stroke-linejoin:miter;stroke-miterlimit:4;stroke-dasharray:none;stroke-opacity:1" />
      <path
         d="m 965.4746,166.74889 4.68317,-3.41562 v 6.39469"
         id="path2171"
         style="fill:#ffffff;fill-opacity:1;fill-rule:nonzero;stroke:none" />
      <path
         d="m 909.35982,166.51957 4.68212,-3.41457 v 6.39364"
         id="path2173"
         style="fill:#ffffff;fill-opacity:1;fill-rule:nonzero;stroke:none" />
      <path
         d="m 999.61674,198.15008 c 0,0 -49.95565,53.65059 -112.22112,0.7048 m 125.40658,-44.42831 c 0,0 -61.67676,99.4706 -139.98783,0"
         id="path2175"
         style="fill:none;stroke:#ffffff;stroke-width:4.8765;stroke-linecap:butt;stroke-linejoin:miter;stroke-miterlimit:4;stroke-dasharray:none;stroke-opacity:1" />
      <path
         d="m 943.07363,145.86911 c 0,1.61051 0,93.05487 0,93.05487"
         id="path2177"
         style="fill:none;stroke:#ffffff;stroke-width:4.3582;stroke-linecap:butt;stroke-linejoin:miter;stroke-miterlimit:4;stroke-dasharray:none;stroke-opacity:1" />
    </g>
  </g>
</svg>
