<?xml version="1.0" encoding="UTF-8" standalone="no"?>
<!-- Created with Inkscape (http://www.inkscape.org/) -->

<svg
   version="1.1"
   width="200"
   height="200"
   viewBox="0 0 223.09501 223.09501"
   id="svg2"
   xml:space="preserve"
   sodipodi:docname="logo_SHL.svg"
   inkscape:version="1.4.2 (f4327f4, 2025-05-13)"
   xmlns:inkscape="http://www.inkscape.org/namespaces/inkscape"
   xmlns:sodipodi="http://sodipodi.sourceforge.net/DTD/sodipodi-0.dtd"
   xmlns="http://www.w3.org/2000/svg"
   xmlns:svg="http://www.w3.org/2000/svg"
   xmlns:rdf="http://www.w3.org/1999/02/22-rdf-syntax-ns#"
   xmlns:cc="http://creativecommons.org/ns#"
   xmlns:dc="http://purl.org/dc/elements/1.1/"><sodipodi:namedview
     id="namedview1"
     pagecolor="#ffffff"
     bordercolor="#000000"
     borderopacity="0.25"
     inkscape:showpageshadow="2"
     inkscape:pageopacity="0.0"
     inkscape:pagecheckerboard="0"
     inkscape:deskcolor="#d1d1d1"
     showgrid="false"
     inkscape:zoom="2.1536999"
     inkscape:cx="257.92822"
     inkscape:cy="96.810143"
     inkscape:window-width="1920"
     inkscape:window-height="1009"
     inkscape:window-x="-8"
     inkscape:window-y="-8"
     inkscape:window-maximized="1"
     inkscape:current-layer="svg2" /><metadata
     id="metadata8"><rdf:RDF><cc:Work
         rdf:about=""><dc:format>image/svg+xml</dc:format><dc:type
           rdf:resource="http://purl.org/dc/dcmitype/StillImage" /></cc:Work></rdf:RDF></metadata><defs
     id="defs6"><clipPath
       id="clipPath18"><path
         d="M 0,0 H 4603 V 1729.93 H 0 Z"
         inkscape:connector-curvature="0"
         id="path20" /></clipPath></defs><g
     transform="matrix(0.52468586,0,0,-0.52468586,-9.2190984,156.93126)"
     id="g10"><g
       transform="scale(0.1)"
       id="g12"><g
         id="g14"><g
           clip-path="url(#clipPath18)"
           id="g16"><path
             d="m 3560.42,175.711 h -450.11 l 171.44,735.367 363.89,643.142 H 3881.7 L 3560.42,175.711"
             inkscape:connector-curvature="0"
             id="path22"
             style="fill:#171316;fill-opacity:1;fill-rule:nonzero;stroke:none" /><path
             d="M 2754.67,175.711 H 2518.6 l 321.27,1378.509 h 450.06 l -171.4,-735.4 -363.86,-643.109"
             inkscape:connector-curvature="0"
             id="path24"
             style="fill:#171316;fill-opacity:1;fill-rule:nonzero;stroke:none" /><path
             d="M 1222.57,175.59 H 175.707 l 198.906,351.539 h 782.847 c 54.59,0 86.36,83.473 17.8,105.422 L 621.738,802.707 C 269.629,915.559 415.672,1554.35 915.895,1554.35 H 1738.13 L 1549.27,1220.54 H 888.441 c -63.761,0 -90.82,-82.63 -29.375,-100.72 L 1628.1,892.352 1222.57,175.59"
             inkscape:connector-curvature="0"
             id="path26"
             style="fill:#171316;fill-opacity:1;fill-rule:nonzero;stroke:none" /><path
             d="m 4228.85,175.711 h -648.7 l 228.23,351.418 h 619.3 L 4228.85,175.711"
             inkscape:connector-curvature="0"
             id="path28"
             style="fill:#171316;fill-opacity:1;fill-rule:nonzero;stroke:none" /><path
             d="m 2205.66,1049.02 117.29,505.2 H 2086.86 L 1722.98,911.078 1551.57,175.711 h 450.07 l 124.74,531.617 h 354.65 l 221.89,341.692 h -497.26"
             inkscape:connector-curvature="0"
             id="path30"
             style="fill:#171316;fill-opacity:1;fill-rule:nonzero;stroke:none" /></g></g></g></g></svg>
