<?xml version="1.0" encoding="UTF-8" standalone="no"?>
<svg
   width="200"
   height="200"
   xml:space="preserve"
   version="1.1"
   id="svg1"
   sodipodi:docname="logo_DEL2.svg"
   inkscape:version="1.4.2 (f4327f4, 2025-05-13)"
   xmlns:inkscape="http://www.inkscape.org/namespaces/inkscape"
   xmlns:sodipodi="http://sodipodi.sourceforge.net/DTD/sodipodi-0.dtd"
   xmlns="http://www.w3.org/2000/svg"
   xmlns:svg="http://www.w3.org/2000/svg"><defs
   id="defs1" /><sodipodi:namedview
   id="namedview1"
   pagecolor="#ffffff"
   bordercolor="#000000"
   borderopacity="0.25"
   inkscape:showpageshadow="2"
   inkscape:pageopacity="0.0"
   inkscape:pagecheckerboard="0"
   inkscape:deskcolor="#d1d1d1"
   inkscape:zoom="3.485359"
   inkscape:cx="92.816837"
   inkscape:cy="115.77"
   inkscape:window-width="1920"
   inkscape:window-height="1009"
   inkscape:window-x="-8"
   inkscape:window-y="-8"
   inkscape:window-maximized="1"
   inkscape:current-layer="svg1" />

 <g
   id="g1"
   transform="matrix(0.60337284,0,0,0.60337284,-14.794703,30.001214)">
  <title
   id="title1">Layer 1</title>
  <g
   id="background" />
  <g
   id="Ebene_1" />
  <g
   stroke="null"
   id="DEL2">
   <g
   stroke="null"
   id="svg_1">
    <path
   stroke="null"
   id="svg_2"
   fill="#8e979c"
   d="M 310.19904,34.78497 H 70.31097 C 45.01836,34.78497 24.52,55.28333 24.52,80.57594 v 70.8731 c 0,25.29261 20.49836,45.79097 45.79097,45.79097 h 239.88807 c 25.29261,0 45.79097,-20.49836 45.79097,-45.79097 v -70.8731 c 0,-25.29261 -20.49836,-45.79097 -45.79097,-45.79097 z"
   class="st0" />
    <path
   stroke="null"
   id="svg_3"
   fill="#ffffff"
   d="m 310.19904,41.80095 c 21.37535,0 38.76329,17.38794 38.76329,38.76329 v 70.8731 c 0,21.37535 -17.38794,38.76329 -38.76329,38.76329 H 70.31097 c -21.37535,0 -38.76329,-17.38794 -38.76329,-38.76329 V 80.57593 c 0,-21.37535 17.38794,-38.76329 38.76329,-38.76329 h 239.88807"
   class="st1" />
    <g
   stroke="null"
   id="svg_4">
     <path
   stroke="null"
   id="svg_5"
   fill="#d40c2a"
   clip-rule="evenodd"
   fill-rule="evenodd"
   d="m 290.99864,84.25932 c -1.33304,10.25503 -17.4581,19.44596 -43.1132,19.91369 l 4.26805,-13.17835 c 0.18709,-0.58467 0.79514,-1.02901 1.43828,-1.12256 0.16371,-0.02339 0.32741,-0.03508 0.49112,-0.04677 13.36544,-0.95885 21.66769,-5.14505 22.41606,-9.68205 0.84192,-5.02812 -9.40141,-8.76998 -22.48622,-8.76998 -12.95618,0 -24.01804,3.27412 -27.44418,8.88691 h -12.44167 c 4.26805,-7.36678 20.68545,-13.80979 41.18381,-13.80979 20.779,0.01169 37.02099,7.58895 35.68796,17.8089 z m -45.00752,25.77204 -2.25681,6.93413 c 14.46461,-0.33911 28.95261,-3.26243 35.6178,-7.79943 4.1979,-2.85317 5.85834,-6.60672 8.0333,-13.16666 -6.25592,6.95751 -20.14756,12.30135 -39.46489,12.85094 -0.21048,0.0117 -0.3508,0.0234 -0.50281,0.0351 -0.58467,0.0585 -1.2161,0.49112 -1.42658,1.14594 z"
   class="st2" />
     <path
   stroke="null"
   id="svg_6"
   fill="#d40c2a"
   d="m 133.27939,108.48784 c -0.26895,1.83585 -0.65482,3.68339 -1.28626,5.63617 l -4.33821,13.40052 c -5.03981,15.41177 -13.82148,24.2636 -33.25575,24.2636 H 49.45012 c -0.63144,0 -0.98224,-0.51451 -0.77176,-1.14594 l 19.3758,-59.62414 c 0.21048,-0.63144 0.88869,-1.14594 1.52013,-1.14594 h 44.84381 c 13.90334,-0.01169 20.61529,6.77042 18.86129,18.61574 z m -58.71207,29.05785 h 17.68027 c 7.70589,0 11.26065,-2.30358 13.38883,-8.85183 l 5.12167,-15.72749 c 0.26895,-1.0407 0.51451,-1.95278 0.64313,-2.75962 0.64313,-4.37329 -1.85923,-6.09221 -8.30224,-6.09221 H 85.4421 l -10.87477,33.43115 z"
   class="st3" />
     <path
   stroke="null"
   id="svg_7"
   fill="#d40c2a"
   d="M 264.0105,137.5457 H 233.643 c -6.44301,0 -8.44256,-0.74837 -7.86959,-4.58377 0.12863,-0.8653 0.42096,-1.97617 0.8653,-3.34428 l 12.53522,-38.61128 c 0.21048,-0.63144 -0.14032,-1.14594 -0.77176,-1.14594 h -19.34072 c -0.63144,0 -1.32134,0.51451 -1.52013,1.14594 l -3.88218,11.93886 c 0,0.0117 -9.4248,29.02277 -9.4248,29.02277 -0.67821,2.10479 -1.2278,4.09266 -1.49674,5.9402 -1.42658,9.65867 3.77694,13.86826 15.91458,13.86826 h 40.73946 c 0.63144,0 1.32134,-0.51451 1.52013,-1.14594 l 3.88218,-11.93886 c 0.21048,-0.63144 -0.14032,-1.14594 -0.78345,-1.14594 z"
   class="st3" />
     <path
   stroke="null"
   id="svg_8"
   fill="#d40c2a"
   d="m 210.20962,89.86041 h -43.00796 c -18.07784,0 -22.80194,5.9402 -27.19862,19.82015 l -7.22646,22.29913 c -0.67821,2.10479 -1.2278,4.09266 -1.49674,5.9402 -1.42658,9.65867 3.77694,13.86826 15.91458,13.86826 h 42.90272 c 0.63144,0 1.32134,-0.51451 1.52013,-1.14594 l 3.88218,-11.93886 c 0.21048,-0.63144 -0.14032,-1.14594 -0.77176,-1.14594 h -32.54246 c -6.44301,0 -8.44256,-0.74837 -7.86959,-4.58377 0.12863,-0.8653 0.42096,-1.97617 0.8653,-3.34428 l 0.72498,-2.25681 h 13.02634 16.10168 c 0.63144,0 1.32134,-0.51451 1.52013,-1.14594 l 3.68339,-11.31912 c 0.21048,-0.63144 -0.14032,-1.14594 -0.77176,-1.14594 H 173.35233 160.3143 l 0.54959,-1.70722 c 2.22173,-6.68857 4.13943,-7.92806 12.19611,-7.92806 h 32.51907 c 0.63144,0 1.32134,-0.51451 1.52013,-1.14594 l 3.88218,-11.93886 c 0.21048,-0.66652 -0.14032,-1.18102 -0.77176,-1.18102 z"
   class="st3" />
     <path
   stroke="null"
   id="svg_9"
   fill="#d40c2a"
   d="m 320.51253,113.73814 -2.13987,6.60672 c -0.71329,2.21003 -1.96447,3.04026 -4.58377,3.04026 h -14.69848 c -10.06793,0 -13.0848,3.39106 -15.56378,10.98001 l -5.43739,16.73311 c -0.11693,0.3508 0.15201,0.71329 0.51451,0.71329 h 39.82738 1.92939 c 0.43265,0 0.88869,-0.3508 1.02901,-0.78345 l 2.63099,-8.08007 c 0.14032,-0.43265 -0.0935,-0.78345 -0.5262,-0.78345 h -29.51389 l 0.21048,-0.64313 1.94109,-5.97528 c 0.71329,-2.18665 1.99955,-3.02857 4.59547,-3.02857 h 15.55209 c 10.09132,0 13.17835,-6.2793 14.61663,-10.73445 l 2.23342,-6.92243 c 2.52575,-7.82282 -2.42051,-10.74614 -7.57726,-10.74614 h -31.40821 c -0.43265,0 -0.88869,0.3508 -1.02901,0.78345 l -2.63099,8.08007 c -0.14032,0.43265 0.0935,0.78345 0.5262,0.78345 h 29.5022 v -0.0234 z"
   class="st3" />
    </g>
   </g>
  </g>
 </g>
</svg>
