<?xml version="1.0" encoding="UTF-8" standalone="no"?>
<svg
   width="200"
   height="200"
   viewBox="0 0 200 200"
   version="1.1"
   id="svg2"
   sodipodi:docname="logo_NCAA.svg"
   inkscape:version="1.4.2 (f4327f4, 2025-05-13)"
   xmlns:inkscape="http://www.inkscape.org/namespaces/inkscape"
   xmlns:sodipodi="http://sodipodi.sourceforge.net/DTD/sodipodi-0.dtd"
   xmlns="http://www.w3.org/2000/svg"
   xmlns:svg="http://www.w3.org/2000/svg">
  <defs
     id="defs2" />
  <sodipodi:namedview
     id="namedview2"
     pagecolor="#ffffff"
     bordercolor="#000000"
     borderopacity="0.25"
     inkscape:showpageshadow="2"
     inkscape:pageopacity="0.0"
     inkscape:pagecheckerboard="0"
     inkscape:deskcolor="#d1d1d1"
     inkscape:zoom="3.2673387"
     inkscape:cx="123.495"
     inkscape:cy="123.34197"
     inkscape:window-width="1920"
     inkscape:window-height="1009"
     inkscape:window-x="-8"
     inkscape:window-y="-8"
     inkscape:window-maximized="1"
     inkscape:current-layer="svg2" />
  <g
     transform="matrix(3.5426057,0,0,3.5426057,-22.215681,-22.664257)"
     id="g2">
    <path
       d="m 59.402,34.312 h -7.339 l -0.878,3.073 h 1.13 l -3.639,5.709 -0.502,-8.782 h -7.402 l -0.815,3.01 h 1.129 l -4.83,7.34 h -4.015 c -0.439,0 -2.007,-0.377 -2.007,-2.384 0,-2.007 1.882,-4.893 3.826,-4.893 h 0.816 c -0.125,0.502 -0.44,1.506 -0.44,1.506 h 3.576 l 1.255,-4.642 H 33.81 c -3.388,0 -6.148,2.446 -7.026,4.956 l 1.443,-4.956 h -4.893 l -0.878,3.074 h 1.255 l -1.255,4.453 -3.2,-7.527 H 14.678 L 13.8,37.385 h 1.254 l -2.823,10.288 h 3.639 c 0,0 1.38,-5.081 1.756,-6.398 a 1145.1,1145.1 0 0 0 2.634,6.398 h 4.078 l 1.882,-6.524 a 8.099,8.099 0 0 0 0,3.01 c 0.376,2.134 2.446,3.514 4.704,3.514 h 7.402 l 1.255,-1.945 h 5.206 l 0.125,1.882 h 4.642 l 1.192,-1.882 h 5.332 l 0.188,1.945 h 3.262 l 0.69,-1.443 z"
       fill="#ffffff"
       id="path1" />
    <path
       d="m 34.5,6.3984 c -15.62,0 -28.229,12.608 -28.229,28.227 0,15.62 12.61,28.227 28.229,28.227 a 28.127,28.127 0 0 0 24.965,-15.053 h -3.2617 v -0.12695 l -0.1875,-1.9434 h -5.332 l -1.1914,1.8809 h -4.6426 l -0.125,-1.8809 h -5.207 l -1.2539,1.9434 h -7.4023 c -2.259,0 -4.3911,-1.3797 -4.7051,-3.5117 a 8.099,8.099 0 0 1 0,-3.0117 l -1.8809,6.5234 h -4.0781 c 0,0 -2.1328,-5.2064 -2.6348,-6.3984 -0.313,1.318 -1.6934,6.3984 -1.6934,6.3984 h -3.6367 l 2.8223,-10.287 H 13.801 l 0.87695,-3.0098 h 4.5801 l 3.1992,7.5273 1.2539,-4.4551 h -1.2559 l 0.87891,-3.0742 h 4.8926 l -1.4434,4.957 c 0.879,-2.51 3.6403,-4.957 7.0273,-4.957 h 5.457 l -1.2559,4.6426 h -3.5742 c 0,0 0.31345,-1.0019 0.43945,-1.5039 H 34.0606 c -1.945,0 -3.8262,2.8836 -3.8262,4.8906 0,2.008 1.6308,2.3848 2.0078,2.3848 h 4.0137 l 4.8301,-7.3398 h -1.1289 l 0.81641,-3.0098 h 7.4004 l 0.50195,8.7812 3.6387,-5.707 h -1.1289 l 0.87695,-3.0742 h 7.3398 l 0.81641,11.918 c 1.63,-3.575 2.5078,-7.5275 2.5078,-11.73 0,-15.619 -12.608,-28.227 -28.227,-28.227 z m 10.035,31.863 -2.8438,4.2656 H 44.66 Z m -2.8438,4.2656 h -0.04102 v 0.0625 z m 14.135,-4.2656 -2.8223,4.2656 h 2.9473 z"
       fill="#009cde"
       id="path2" />
  </g>
</svg>
