<?xml version="1.0" encoding="UTF-8" standalone="no"?>
<svg
   version="1.1"
   width="200"
   height="200"
   style="clip-rule:evenodd;fill-rule:evenodd;image-rendering:optimizeQuality;shape-rendering:geometricPrecision;text-rendering:geometricPrecision"
   id="svg39"
   sodipodi:docname="logo_LIIGA.svg"
   inkscape:version="1.4.2 (f4327f4, 2025-05-13)"
   xmlns:inkscape="http://www.inkscape.org/namespaces/inkscape"
   xmlns:sodipodi="http://sodipodi.sourceforge.net/DTD/sodipodi-0.dtd"
   xmlns="http://www.w3.org/2000/svg"
   xmlns:svg="http://www.w3.org/2000/svg">
  <defs
     id="defs39" />
  <sodipodi:namedview
     id="namedview39"
     pagecolor="#ffffff"
     bordercolor="#000000"
     borderopacity="0.25"
     inkscape:showpageshadow="2"
     inkscape:pageopacity="0.0"
     inkscape:pagecheckerboard="0"
     inkscape:deskcolor="#d1d1d1"
     showgrid="false"
     inkscape:zoom="0.79117647"
     inkscape:cx="600.37175"
     inkscape:cy="510"
     inkscape:window-width="1920"
     inkscape:window-height="1009"
     inkscape:window-x="-8"
     inkscape:window-y="-8"
     inkscape:window-maximized="1"
     inkscape:current-layer="svg39" />
  <g
     id="g40"
     transform="matrix(0.16666667,0,0,0.16666667,0.08333134,15.999998)">
    <g
       id="g1">
      <path
         style="opacity:0.998"
         fill="#231f20"
         d="m 601.5,-0.5 c 20,0 40,0 60,0 139.554,12.9274 251.887,74.594 337,185 13.6,-7.634 27.6,-14.467 42,-20.5 52.91,-20.468 105.91,-40.635 159,-60.5 0,7.667 0,15.333 0,23 -8.71,45.062 -17.38,90.228 -26,135.5 8.69,-2.507 17.36,-5.341 26,-8.5 0,8.667 0,17.333 0,26 -7.18,37.254 -14.52,74.587 -22,112 -19.47,7.991 -39.14,15.491 -59,22.5 -11.23,2.67 -22.57,3.17 -34,1.5 8.52,147.349 -40.15,271.849 -146,373.5 -107.948,94.97 -233.615,132.97 -377,114 -64.929,-10.358 -124.929,-33.191 -180,-68.5 -127.354,58.011 -254.688,116.011 -382,174 0,-2.33 0,-4.67 0,-7 19.9171,-104.653 39.5838,-209.487 59,-314.5 22.3311,-9.561 44.998,-18.561 68,-27 1.833,-0.5 3,-1.667 3.5,-3.5 16.779,-90.843 33.613,-181.677 50.5,-272.5 -0.333,-0.833 -0.667,-1.667 -1,-2.5 -22.667,8.667 -45.333,17.333 -68,26 -0.333,-0.833 -0.667,-1.667 -1,-2.5 C 120.173,352.793 130.006,300.626 140,248.5 176.096,234.537 212.263,220.704 248.5,207 333.012,82.3779 450.678,13.2112 601.5,-0.5 Z"
         id="path1" />
    </g>
    <g
       id="g2">
      <path
         style="opacity:1"
         fill="#f8f7f7"
         d="m 875.5,109.5 c -9.51,-5.255 -19.176,-10.2552 -29,-15 -11.471,-6.3995 -23.471,-11.7328 -36,-16 -8.628,-4.1011 -17.628,-7.4345 -27,-10 -15.557,-5.558 -31.557,-9.8913 -48,-13 -70.103,-14.2059 -140.103,-13.0393 -210,3.5 -3.528,0.946 -6.861,2.1126 -10,3.5 -16.933,3.7561 -33.267,9.0895 -49,16 -9.644,3.4315 -18.978,7.4315 -28,12 -11.309,4.6518 -21.975,10.318 -32,17 -11.808,5.823 -22.808,12.823 -33,21 -9.904,6.238 -19.238,13.238 -28,21 -7.614,5.281 -14.614,11.281 -21,18 -7,6.667 -14,13.333 -21,20 58.967,-73.028 134.3,-121.1943 226,-144.5 110.504,-25.2714 215.171,-10.2714 314,45 11.117,6.6379 21.783,13.805 32,21.5 z"
         id="path2" />
    </g>
    <g
       id="g3">
      <path
         style="opacity:1"
         fill="#403d3e"
         d="m 735.5,55.5 c -8.256,1.9545 -16.256,4.7878 -24,8.5 -47.916,17.4454 -96.916,21.4454 -147,12 -16.586,-3.7288 -32.919,-8.2288 -49,-13.5 3.139,-1.3874 6.472,-2.554 10,-3.5 69.897,-16.5393 139.897,-17.7059 210,-3.5 z"
         id="path3" />
    </g>
    <g
       id="g4">
      <path
         style="opacity:1"
         fill="#3c393a"
         d="m 735.5,55.5 c 16.443,3.1087 32.443,7.442 48,13 -1.373,-0.1567 -2.707,0.01 -4,0.5 -75.093,45.681 -155.427,58.015 -241,37 -23.677,-6.448 -46.344,-15.448 -68,-27 -1.293,-0.49 -2.627,-0.6567 -4,-0.5 15.733,-6.9105 32.067,-12.2439 49,-16 16.081,5.2712 32.414,9.7712 49,13.5 50.084,9.4454 99.084,5.4454 147,-12 7.744,-3.7122 15.744,-6.5455 24,-8.5 z"
         id="path4" />
    </g>
    <g
       id="g5">
      <path
         style="opacity:1"
         fill="#393637"
         d="m 783.5,68.5 c 9.372,2.5655 18.372,5.8989 27,10 -90.004,61.889 -187.67,77.722 -293,47.5 -12.567,-4.077 -24.9,-8.744 -37,-14 -14.252,-6.958 -28.252,-14.1246 -42,-21.5 9.022,-4.5685 18.356,-8.5685 28,-12 1.373,-0.1567 2.707,0.01 4,0.5 21.656,11.552 44.323,20.552 68,27 85.573,21.015 165.907,8.681 241,-37 1.293,-0.49 2.627,-0.6567 4,-0.5 z"
         id="path5" />
    </g>
    <g
       id="g6">
      <path
         style="opacity:1"
         fill="#363334"
         d="m 810.5,78.5 c 12.529,4.2672 24.529,9.6005 36,16 -98.97,75.228 -208.97,97.395 -330,66.5 -40.12,-11.229 -76.786,-29.062 -110,-53.5 10.025,-6.682 20.691,-12.3482 32,-17 13.748,7.3754 27.748,14.542 42,21.5 12.1,5.256 24.433,9.923 37,14 105.33,30.222 202.996,14.389 293,-47.5 z"
         id="path6" />
    </g>
    <g
       id="g7">
      <path
         style="opacity:1"
         fill="#332f30"
         d="m 846.5,94.5 c 9.824,4.7448 19.49,9.745 29,15 0.473,1.406 1.473,2.073 3,2 1.527,-0.073 2.527,0.594 3,2 -1.052,-0.149 -2.052,0.017 -3,0.5 -96.65,80.087 -207.317,110.42 -332,91 -64.183,-11.531 -121.85,-37.031 -173,-76.5 10.192,-8.177 21.192,-15.177 33,-21 33.214,24.438 69.88,42.271 110,53.5 121.03,30.895 231.03,8.728 330,-66.5 z"
         id="path7" />
    </g>
    <g
       id="g8">
      <path
         style="opacity:1"
         fill="#b0aeaf"
         d="m 875.5,109.5 c 1.527,-0.073 2.527,0.594 3,2 -1.527,0.073 -2.527,-0.594 -3,-2 z"
         id="path8" />
    </g>
    <g
       id="g9">
      <path
         style="opacity:1"
         fill="#2f2c2d"
         d="m 881.5,113.5 c 8.581,5.579 16.581,11.912 24,19 -75.784,67.523 -164.784,104.356 -267,110.5 -107.816,4.316 -204.15,-26.35 -289,-92 -1.245,-0.791 -2.578,-1.291 -4,-1.5 8.762,-7.762 18.096,-14.762 28,-21 51.15,39.469 108.817,64.969 173,76.5 124.683,19.42 235.35,-10.913 332,-91 0.948,-0.483 1.948,-0.649 3,-0.5 z"
         id="path9" />
    </g>
    <g
       id="g10">
      <path
         style="opacity:1"
         fill="#2d292a"
         d="m 905.5,132.5 c 7.299,5.964 14.299,12.297 21,19 -76.453,68.37 -166.12,107.703 -269,118 0.795,-6.724 1.628,-13.391 2.5,-20 -18.806,7.435 -37.639,14.768 -56.5,22 -104.424,-4.689 -197.424,-39.355 -279,-104 6.386,-6.719 13.386,-12.719 21,-18 1.422,0.209 2.755,0.709 4,1.5 84.85,65.65 181.184,96.316 289,92 102.216,-6.144 191.216,-42.977 267,-110.5 z"
         id="path10" />
    </g>
    <g
       id="g11">
      <path
         style="opacity:1"
         fill="#fcfbfb"
         d="m 1163.5,146.5 c 1,0 2,0 3,0 -8.29,45.83 -16.62,91.664 -25,137.5 -0.84,11.161 4.16,16.161 15,15 3.51,-0.67 6.84,-1.837 10,-3.5 -3.82,24.898 -8.32,49.898 -13.5,75 -12.33,5.221 -24.83,10.054 -37.5,14.5 -21.49,4.844 -35.33,-3.323 -41.5,-24.5 -1.39,-5.261 -2.39,-10.594 -3,-16 -15.61,34.274 -39.11,61.774 -70.5,82.5 -13.443,8.648 -28.11,13.814 -44,15.5 -14.547,-0.532 -23.714,-7.866 -27.5,-22 -3.388,-18.708 -3.054,-37.375 1,-56 4.282,-23.745 8.949,-47.412 14,-71 10.309,-39.637 33.809,-68.471 70.5,-86.5 10.43,-5.547 21.09,-10.547 32,-15 39.22,-14.9 78.22,-30.067 117,-45.5 z"
         id="path11" />
    </g>
    <g
       id="g12">
      <path
         style="opacity:1"
         fill="#2a2627"
         d="m 926.5,151.5 c 4.639,4.974 9.305,9.974 14,15 -46.228,43.321 -99.562,75.821 -160,97.5 -41.201,14.473 -83.534,23.64 -127,27.5 0.715,-7.563 2.048,-14.896 4,-22 102.88,-10.297 192.547,-49.63 269,-118 z"
         id="path12" />
    </g>
    <g
       id="g13">
      <path
         style="opacity:1"
         fill="#d3d2d2"
         d="m 1150.5,200.5 c -8.77,4.269 -17.44,8.769 -26,13.5 -4.95,4.946 -9.95,9.946 -15,15 -5,2.5 -10,5 -15,7.5 -0.93,-1.189 -1.26,-2.522 -1,-4 0.44,-5.441 1.44,-10.775 3,-16 -0.33,-0.333 -0.67,-0.667 -1,-1 -15.42,5.967 -30.75,11.8 -46,17.5 36.14,-25.306 72.14,-50.806 108,-76.5 0.33,0.333 0.67,0.667 1,1 -3.18,14.238 -5.85,28.572 -8,43 z"
         id="path13" />
    </g>
    <g
       id="g14">
      <path
         style="opacity:1"
         fill="#2a2627"
         d="m 324.5,167.5 c 81.576,64.645 174.576,99.311 279,104 -7.089,2.376 -14.089,5.042 -21,8 -1.812,7.078 -3.478,14.078 -5,21 -103.175,-8.92 -194.508,-45.92 -274,-111 0,-0.667 0,-1.333 0,-2 7,-6.667 14,-13.333 21,-20 z"
         id="path14" />
    </g>
    <g
       id="g15">
      <path
         style="opacity:1"
         fill="#272324"
         d="m 940.5,166.5 c 9.268,9.19 17.601,19.19 25,30 -7.527,7.694 -15.527,14.861 -24,21.5 -12.833,9.45 -25.166,18.617 -37,27.5 -35.8,14.389 -71.8,28.556 -108,42.5 -16.827,7.575 -32.827,16.408 -48,26.5 -46.908,11.879 -94.575,17.546 -143,17 13.782,-5.766 27.782,-11.266 42,-16.5 2.458,-7.817 4.458,-15.651 6,-23.5 43.466,-3.86 85.799,-13.027 127,-27.5 60.438,-21.679 113.772,-54.179 160,-97.5 z"
         id="path15" />
    </g>
    <g
       id="g16">
      <path
         style="opacity:1"
         fill="#272324"
         d="m 303.5,189.5 c 79.492,65.08 170.825,102.08 274,111 -1.344,9.731 -3.011,19.397 -5,29 -22.514,-2.141 -44.847,-5.475 -67,-10 0.473,-3.197 1.139,-6.363 2,-9.5 -0.333,-0.5 -0.667,-1 -1,-1.5 -6.28,2.537 -12.613,4.87 -19,7 -75.184,-20.257 -142.85,-54.757 -203,-103.5 3.989,-6.169 8.322,-12.002 13,-17.5 2,-1.667 4,-3.333 6,-5 z"
         id="path16" />
    </g>
    <g
       id="g17">
      <path
         style="opacity:1"
         fill="#7b7879"
         d="m 303.5,187.5 c 0,0.667 0,1.333 0,2 -2,1.667 -4,3.333 -6,5 1.257,-2.927 3.257,-5.261 6,-7 z"
         id="path17" />
    </g>
    <g
       id="g18">
      <path
         style="opacity:1"
         fill="#d8d7d8"
         d="m 1150.5,200.5 c -3.1,15.012 -6.1,30.012 -9,45 -7.08,4.244 -13.08,9.744 -18,16.5 -4.67,0.333 -9.33,0.667 -14,1 -3,5.667 -7.33,10 -13,13 -4.83,4.833 -9.67,9.667 -14.5,14.5 -0.46,-0.594 -0.63,-1.261 -0.5,-2 4.66,-18.641 8.66,-37.308 12,-56 -0.26,1.478 0.07,2.811 1,4 5,-2.5 10,-5 15,-7.5 5.05,-5.054 10.05,-10.054 15,-15 8.56,-4.731 17.23,-9.231 26,-13.5 z"
         id="path18" />
    </g>
    <g
       id="g19">
      <path
         style="opacity:1"
         fill="#231f20"
         d="m 1085.5,225.5 c 1.05,-0.149 2.05,0.017 3,0.5 -3.57,18.514 -7.4,37.014 -11.5,55.5 -10.18,33.505 -31.02,57.671 -62.5,72.5 -7.5,2.336 -12.33,-0.164 -14.5,-7.5 0.51,-19.256 3.18,-38.256 8,-57 4.73,-19.378 15.56,-34.212 32.5,-44.5 14.86,-7.101 29.86,-13.601 45,-19.5 z"
         id="path19" />
    </g>
    <g
       id="g20">
      <path
         style="opacity:1"
         fill="#fdfdfd"
         d="m 748.5,314.5 c 15.173,-10.092 31.173,-18.925 48,-26.5 36.2,-13.944 72.2,-28.111 108,-42.5 8.906,-3.359 17.906,-6.192 27,-8.5 -16.898,89.772 -33.732,179.605 -50.5,269.5 -7.652,37.86 -27.152,67.694 -58.5,89.5 -22.564,12.449 -45.564,24.115 -69,35 C 515.711,739.979 277.878,848.812 40,957.5 46.2147,917.753 53.2147,878.086 61,838.5 288.173,747.002 515.673,656.169 743.5,566 c 14.232,-5.449 28.232,-11.449 42,-18 11.411,-8.084 19.911,-18.584 25.5,-31.5 6.594,-21.305 11.26,-42.971 14,-65 -16.021,28.356 -37.855,51.189 -65.5,68.5 -7.316,4.159 -14.983,7.492 -23,10 -19.689,5.563 -33.522,-0.937 -41.5,-19.5 -2.685,-6.756 -4.351,-13.756 -5,-21 -16.021,34.554 -39.854,62.387 -71.5,83.5 -8.822,5.411 -18.156,9.744 -28,13 -19.083,5.752 -33.917,0.252 -44.5,-16.5 -3.66,-7.313 -6.327,-14.98 -8,-23 -14.505,30.514 -35.005,56.348 -61.5,77.5 -13.505,10.252 -28.505,17.585 -45,22 -16.069,2.548 -28.569,-2.952 -37.5,-16.5 -4.382,-7.48 -7.382,-15.48 -9,-24 -17.757,37.42 -44.257,66.92 -79.5,88.5 -77.606,30.923 -155.606,60.756 -234,89.5 4.2822,-25.026 8.7822,-50.026 13.5,-75 15.659,-6.554 31.492,-12.721 47.5,-18.5 11.5,-4.833 19.667,-13 24.5,-24.5 4.145,-12.39 7.145,-25.056 9,-38 17.275,-93.316 34.441,-186.649 51.5,-280 -0.041,-7.542 -3.708,-10.375 -11,-8.5 -18.777,6.889 -37.444,14.056 -56,21.5 4.492,-29.61 9.659,-59.277 15.5,-89 28.371,-11.349 56.871,-22.515 85.5,-33.5 11.863,-5.052 24.197,-7.385 37,-7 10.911,2.579 17.411,9.413 19.5,20.5 1.961,13.371 1.628,26.704 -1,40 -19.548,105.956 -38.882,211.956 -58,318 -0.667,7.333 -0.667,14.667 0,22 1.653,5.159 5.153,7.826 10.5,8 4.096,-0.386 8.096,-1.219 12,-2.5 23.559,-8.78 46.892,-18.113 70,-28 24.641,-16.417 41.141,-38.917 49.5,-67.5 6.834,-35.674 13.668,-71.341 20.5,-107 25.811,-10.103 51.644,-20.103 77.5,-30 -7.289,43.006 -14.955,86.006 -23,129 -0.667,6 -0.667,12 0,18 0.773,4.811 3.606,7.477 8.5,8 3.384,-0.643 6.717,-1.477 10,-2.5 35.199,-19.574 56.032,-49.407 62.5,-89.5 5.559,-30.353 11.226,-60.687 17,-91 25.699,-10.29 51.532,-20.29 77.5,-30 0.333,0.5 0.667,1 1,1.5 -8.495,45.311 -16.828,90.644 -25,136 0.119,4.308 0.952,8.475 2.5,12.5 3.396,3.703 7.563,4.869 12.5,3.5 32.188,-14.815 53.355,-39.315 63.5,-73.5 3.557,-21.786 8.89,-43.119 16,-64 8.224,-19.05 20.391,-35.05 36.5,-48 z"
         id="path20" />
    </g>
    <g
       id="g21">
      <path
         style="opacity:1"
         fill="#dedddd"
         d="m 1141.5,245.5 c -1.1,10.461 -2.93,20.794 -5.5,31 -0.5,4.655 -0.67,9.321 -0.5,14 -1.48,2.307 -3.48,4.14 -6,5.5 -7.86,2.099 -14.2,6.432 -19,13 -4.33,2.167 -8.67,4.333 -13,6.5 -4.61,7.987 -11.27,13.653 -20,17 -0.68,-1.102 -1.34,-2.102 -2,-3 0.16,-2.357 0,-4.69 -0.5,-7 -2.98,4.776 -5.48,9.776 -7.5,15 -0.74,-0.131 -1.41,0.036 -2,0.5 -2.48,3.313 -5.15,6.48 -8,9.5 -5.69,2.527 -10.69,6.027 -15,10.5 -4.88,2.607 -9.88,4.94 -15,7 -2.99,2.957 -5.99,5.957 -9,9 -6.71,3.354 -12.71,7.687 -18,13 -8.888,1.897 -15.888,6.564 -21,14 -6.499,2.834 -12.165,6.834 -17,12 -3.919,1.862 -7.919,3.529 -12,5 -4.002,3.197 -7.669,6.697 -11,10.5 -3.239,-5.545 -5.406,-11.545 -6.5,-18 -0.823,-8.51 -0.657,-16.844 0.5,-25 -0.162,2.027 0.005,4.027 0.5,6 2.405,-1.903 4.239,-4.236 5.5,-7 4.632,-0.828 9.298,-1.328 14,-1.5 6.097,-7.082 12.931,-13.249 20.5,-18.5 1.697,-2.199 3.197,-4.532 4.5,-7 4.632,-0.828 9.298,-1.328 14,-1.5 0.873,-1.045 1.873,-1.878 3,-2.5 2.503,2.333 5.17,4.499 8,6.5 8.71,1.715 16.71,0.049 24,-5 25.6,-16.09 43.6,-38.257 54,-66.5 -0.13,0.739 0.04,1.406 0.5,2 4.83,-4.833 9.67,-9.667 14.5,-14.5 5.67,-3 10,-7.333 13,-13 4.67,-0.333 9.33,-0.667 14,-1 4.92,-6.756 10.92,-12.256 18,-16.5 z"
         id="path21" />
    </g>
    <g
       id="g22">
      <path
         style="opacity:1"
         fill="#fdfdfd"
         d="m 657.5,269.5 c -1.952,7.104 -3.285,14.437 -4,22 -1.542,7.849 -3.542,15.683 -6,23.5 -14.218,5.234 -28.218,10.734 -42,16.5 -11.667,4 -23.333,8 -35,12 0.279,-4.727 0.946,-9.393 2,-14 1.989,-9.603 3.656,-19.269 5,-29 1.522,-6.922 3.188,-13.922 5,-21 6.911,-2.958 13.911,-5.624 21,-8 18.861,-7.232 37.694,-14.565 56.5,-22 -0.872,6.609 -1.705,13.276 -2.5,20 z"
         id="path22" />
    </g>
    <g
       id="g23">
      <path
         style="opacity:1"
         fill="#d3d2d2"
         d="m 998.5,305.5 c -6.746,3.909 -12.413,9.076 -17,15.5 -9.126,4.396 -18.126,9.063 -27,14 -4.869,5.037 -9.869,9.87 -15,14.5 1.87,-14.851 4.703,-29.517 8.5,-44 23.01,-16.724 46.177,-32.891 69.5,-48.5 -10.93,14.282 -17.26,30.448 -19,48.5 z"
         id="path23" />
    </g>
    <g
       id="g24">
      <path
         style="opacity:1"
         fill="#e4e3e4"
         d="m 1135.5,290.5 c 2.7,12.204 10.37,17.204 23,15 -0.87,6.354 -1.87,12.687 -3,19 -7.29,6.451 -15.29,11.951 -24,16.5 -5.79,7.392 -13.12,12.559 -22,15.5 -5.57,7.583 -12.57,13.25 -21,17 -4.35,-4.026 -7.19,-9.026 -8.5,-15 -2.55,-9.513 -4.05,-19.18 -4.5,-29 0.66,0.898 1.32,1.898 2,3 8.73,-3.347 15.39,-9.013 20,-17 4.33,-2.167 8.67,-4.333 13,-6.5 4.8,-6.568 11.14,-10.901 19,-13 2.52,-1.36 4.52,-3.193 6,-5.5 z"
         id="path24" />
    </g>
    <g
       id="g25">
      <path
         style="opacity:1"
         fill="#d8d7d7"
         d="m 998.5,305.5 c -4.304,14.026 -5.804,28.359 -4.5,43 1.009,1.525 1.509,3.192 1.5,5 -1.127,0.622 -2.127,1.455 -3,2.5 -4.702,0.172 -9.368,0.672 -14,1.5 -1.303,2.468 -2.803,4.801 -4.5,7 -7.569,5.251 -14.403,11.418 -20.5,18.5 -4.702,0.172 -9.368,0.672 -14,1.5 -1.261,2.764 -3.095,5.097 -5.5,7 -0.495,-1.973 -0.662,-3.973 -0.5,-6 0.981,-12.206 2.981,-24.206 6,-36 5.131,-4.63 10.131,-9.463 15,-14.5 8.874,-4.937 17.874,-9.604 27,-14 4.587,-6.424 10.254,-11.591 17,-15.5 z"
         id="path25" />
    </g>
    <g
       id="g26">
      <path
         style="opacity:1"
         fill="#fdfdfd"
         d="m 505.5,319.5 c -3.241,18.018 -6.574,36.018 -10,54 -25.745,9.369 -51.412,19.035 -77,29 -0.333,-1 -0.667,-2 -1,-3 3.641,-20.372 7.474,-40.705 11.5,-61 19.393,-7.964 38.893,-15.631 58.5,-23 6.387,-2.13 12.72,-4.463 19,-7 0.333,0.5 0.667,1 1,1.5 -0.861,3.137 -1.527,6.303 -2,9.5 z"
         id="path26" />
    </g>
    <g
       id="g27">
      <path
         style="opacity:1"
         fill="#231f20"
         d="m 847.5,316.5 c 1,0 2,0 3,0 -2.961,18.095 -6.461,36.095 -10.5,54 -9.608,33.268 -29.775,57.768 -60.5,73.5 -12.797,3.554 -18.797,-1.446 -18,-15 2.035,-14.582 4.535,-29.082 7.5,-43.5 4.102,-21.41 15.269,-37.91 33.5,-49.5 14.73,-7.4 29.73,-13.9 45,-19.5 z"
         id="path27" />
    </g>
    <g
       id="g28">
      <path
         style="opacity:1"
         fill="#e9e9e9"
         d="m 1155.5,324.5 c -2.34,14.008 -4.67,28.008 -7,42 -12.75,4.207 -25.42,8.707 -38,13.5 -5.07,0.751 -10.07,0.418 -15,-1 -3.1,-0.935 -5.43,-2.769 -7,-5.5 8.43,-3.75 15.43,-9.417 21,-17 8.88,-2.941 16.21,-8.108 22,-15.5 8.71,-4.549 16.71,-10.049 24,-16.5 z"
         id="path28" />
    </g>
    <g
       id="g29">
      <path
         style="opacity:1"
         fill="#d4d3d3"
         d="m 896.5,388.5 c -5.704,1.685 -11.037,4.185 -16,7.5 -4.333,4.333 -8.667,8.667 -13,13 -3.493,0.942 -6.826,2.275 -10,4 -6.715,3.442 -13.215,7.275 -19.5,11.5 -0.464,-0.594 -0.631,-1.261 -0.5,-2 0.351,-2.369 0.518,-4.703 0.5,-7 -12.681,26.049 -28.347,50.049 -47,72 -15.785,16.814 -34.618,28.98 -56.5,36.5 -15.447,4.856 -26.614,0.023 -33.5,-14.5 -2.834,-7.841 -4.501,-15.841 -5,-24 20.054,-15.054 40.387,-29.721 61,-44 2.885,6.19 7.719,9.524 14.5,10 4.13,-0.199 8.13,-1.033 12,-2.5 29.214,-15.55 49.547,-38.883 61,-70 20.5,-14.5 41,-29 61.5,-43.5 -2.728,17.695 -5.894,35.362 -9.5,53 z"
         id="path29" />
    </g>
    <g
       id="g30">
      <path
         style="opacity:1"
         fill="#e2e2e2"
         d="m 1067.5,337.5 c -14.12,31.951 -35.12,58.451 -63,79.5 -12.731,9.03 -26.731,15.363 -42,19 -9.331,2.167 -16.998,-0.333 -23,-7.5 3.331,-3.803 6.998,-7.303 11,-10.5 4.081,-1.471 8.081,-3.138 12,-5 4.835,-5.166 10.501,-9.166 17,-12 5.112,-7.436 12.112,-12.103 21,-14 5.29,-5.313 11.29,-9.646 18,-13 3.01,-3.043 6.01,-6.043 9,-9 5.12,-2.06 10.12,-4.393 15,-7 4.31,-4.473 9.31,-7.973 15,-10.5 2.85,-3.02 5.52,-6.187 8,-9.5 0.59,-0.464 1.26,-0.631 2,-0.5 z"
         id="path30" />
    </g>
    <g
       id="g31">
      <path
         style="opacity:1"
         fill="#d8d7d8"
         d="m 896.5,388.5 c -2.077,13.383 -4.41,26.716 -7,40 -2.667,0 -5.333,0 -8,0 0,4.667 0,9.333 0,14 -4.679,-0.166 -9.345,10e-4 -14,0.5 -8.667,8.667 -17.333,17.333 -26,26 -3.986,0.499 -7.986,0.666 -12,0.5 0,-1.333 0,-2.667 0,-4 2.308,-14.523 4.974,-28.856 8,-43 -0.131,0.739 0.036,1.406 0.5,2 6.285,-4.225 12.785,-8.058 19.5,-11.5 3.174,-1.725 6.507,-3.058 10,-4 4.333,-4.333 8.667,-8.667 13,-13 4.963,-3.315 10.296,-5.815 16,-7.5 z"
         id="path31" />
    </g>
    <g
       id="g32">
      <path
         style="opacity:1"
         fill="#dddddd"
         d="m 889.5,428.5 c -3.338,17.025 -6.672,34.025 -10,51 -4.089,2.583 -7.756,5.75 -11,9.5 -4.614,1.214 -9.28,2.214 -14,3 -5.148,7.483 -11.815,13.15 -20,17 -5,5 -10,10 -15,15 -1.601,0.273 -3.101,0.773 -4.5,1.5 -0.399,-0.228 -0.565,-0.562 -0.5,-1 7.032,-19.238 12.032,-38.905 15,-59 0,1.333 0,2.667 0,4 4.014,0.166 8.014,-10e-4 12,-0.5 8.667,-8.667 17.333,-17.333 26,-26 4.655,-0.499 9.321,-0.666 14,-0.5 0,-4.667 0,-9.333 0,-14 2.667,0 5.333,0 8,0 z"
         id="path32" />
    </g>
    <g
       id="g33">
      <path
         style="opacity:1"
         fill="#e4e3e3"
         d="m 879.5,479.5 c -2.385,21.608 -8.052,42.275 -17,62 -4.772,2.22 -9.438,4.72 -14,7.5 -5.519,6.924 -12.519,11.59 -21,14 -4.333,4.333 -8.667,8.667 -13,13 -9.203,3.103 -16.87,8.437 -23,16 -12,7.667 -24,15.333 -36,23 -5.943,6.976 -13.276,11.976 -22,15 -1.964,1.451 -3.297,3.284 -4,5.5 -64.841,29.281 -129.507,58.947 -194,89 -0.131,-0.739 0.036,-1.406 0.5,-2 5.786,-4.819 11.286,-9.986 16.5,-15.5 5.062,-2.911 10.395,-5.245 16,-7 5.173,-4.09 10.84,-7.423 17,-10 4.135,-5.14 9.135,-9.14 15,-12 3.9,-3.81 7.566,-7.81 11,-12 5.131,-0.465 10.131,-1.465 15,-3 3.434,-4.19 7.1,-8.19 11,-12 4.769,-3.103 9.769,-5.769 15,-8 4,-4 8,-8 12,-12 9.314,-3.141 16.981,-8.475 23,-16 7.55,-2.884 13.217,-7.884 17,-15 5.333,-1.333 10.667,-2.667 16,-4 4.721,-4.721 9.387,-9.387 14,-14 5.439,-2.467 10.606,-5.3 15.5,-8.5 0.74,-1.249 0.573,-2.249 -0.5,-3 9.13,-4.057 18.464,-7.89 28,-11.5 11.459,-4.638 20.959,-11.805 28.5,-21.5 2.857,-4.398 5.691,-8.732 8.5,-13 -0.065,0.438 0.101,0.772 0.5,1 1.399,-0.727 2.899,-1.227 4.5,-1.5 5,-5 10,-10 15,-15 8.185,-3.85 14.852,-9.517 20,-17 4.72,-0.786 9.386,-1.786 14,-3 3.244,-3.75 6.911,-6.917 11,-9.5 z"
         id="path33" />
    </g>
    <g
       id="g34">
      <path
         style="opacity:1"
         fill="#d2d1d1"
         d="m 677.5,497.5 c -16.801,34.637 -42.801,60.804 -78,78.5 -9.771,5.086 -20.104,6.752 -31,5 -1.544,-0.29 -2.877,-0.956 -4,-2 37.848,-27.03 75.515,-54.196 113,-81.5 z"
         id="path34" />
    </g>
    <g
       id="g35">
      <path
         style="opacity:1"
         fill="#e9e8e8"
         d="m 862.5,541.5 c -13.173,26.006 -32.839,45.506 -59,58.5 -24.571,12.12 -49.238,23.953 -74,35.5 0.703,-2.216 2.036,-4.049 4,-5.5 8.724,-3.024 16.057,-8.024 22,-15 12,-7.667 24,-15.333 36,-23 6.13,-7.563 13.797,-12.897 23,-16 4.333,-4.333 8.667,-8.667 13,-13 8.481,-2.41 15.481,-7.076 21,-14 4.562,-2.78 9.228,-5.28 14,-7.5 z"
         id="path35" />
    </g>
    <g
       id="g36">
      <path
         style="opacity:1"
         fill="#dddcdd"
         d="m 749.5,570.5 c 1.073,0.751 1.24,1.751 0.5,3 -4.894,3.2 -10.061,6.033 -15.5,8.5 -4.613,4.613 -9.279,9.279 -14,14 -5.333,1.333 -10.667,2.667 -16,4 -3.783,7.116 -9.45,12.116 -17,15 -6.019,7.525 -13.686,12.859 -23,16 -4,4 -8,8 -12,12 -5.231,2.231 -10.231,4.897 -15,8 -3.9,3.81 -7.566,7.81 -11,12 -4.869,1.535 -9.869,2.535 -15,3 -3.434,4.19 -7.1,8.19 -11,12 -5.865,2.86 -10.865,6.86 -15,12 -6.16,2.577 -11.827,5.91 -17,10 -5.605,1.755 -10.938,4.089 -16,7 -5.214,5.514 -10.714,10.681 -16.5,15.5 -0.464,0.594 -0.631,1.261 -0.5,2 -53.338,24.334 -106.672,48.668 -160,73 1.004,-6.504 4.671,-10.671 11,-12.5 2.667,-3.667 5.333,-7.333 8,-11 5.778,-0.094 11.444,-0.761 17,-2 5.624,-7.893 11.957,-15.227 19,-22 3.752,-2.293 7.586,-4.46 11.5,-6.5 1.796,-3.427 3.963,-6.594 6.5,-9.5 5,-0.333 10,-0.667 15,-1 0.828,-0.915 1.828,-1.581 3,-2 7.428,-8.217 15.094,-16.217 23,-24 5.948,-0.928 11.615,-2.595 17,-5 5.51,-6.677 11.51,-12.843 18,-18.5 3.337,-2.671 7.004,-4.837 11,-6.5 2.58,-3.158 4.913,-6.492 7,-10 5.665,-1.24 11.332,-2.573 17,-4 2.569,-2.479 4.902,-5.146 7,-8 3.665,-1.497 6.998,-3.497 10,-6 2.333,-3 4.667,-6 7,-9 9.989,0.27 17.656,-3.73 23,-12 -0.228,-0.399 -0.562,-0.565 -1,-0.5 47.719,-19.519 95.719,-38.519 144,-57 z"
         id="path36" />
    </g>
    <g
       id="g37">
      <path
         style="opacity:1"
         fill="#d8d7d7"
         d="m 605.5,627.5 c 0.438,-0.065 0.772,0.101 1,0.5 -5.344,8.27 -13.011,12.27 -23,12 -2.333,3 -4.667,6 -7,9 -3.002,2.503 -6.335,4.503 -10,6 -2.098,2.854 -4.431,5.521 -7,8 -5.668,1.427 -11.335,2.76 -17,4 -2.087,3.508 -4.42,6.842 -7,10 -3.996,1.663 -7.663,3.829 -11,6.5 -6.49,5.657 -12.49,11.823 -18,18.5 -5.385,2.405 -11.052,4.072 -17,5 -7.906,7.783 -15.572,15.783 -23,24 -1.172,0.419 -2.172,1.085 -3,2 -5,0.333 -10,0.667 -15,1 -2.537,2.906 -4.704,6.073 -6.5,9.5 -3.914,2.04 -7.748,4.207 -11.5,6.5 -7.043,6.773 -13.376,14.107 -19,22 -5.556,1.239 -11.222,1.906 -17,2 -2.667,3.667 -5.333,7.333 -8,11 -6.329,1.829 -9.996,5.996 -11,12.5 -50.888,23.278 -101.888,46.278 -153,69 1.364,-3.56 3.364,-6.727 6,-9.5 4.795,-2.713 9.795,-5.046 15,-7 1.905,-1.815 3.572,-3.815 5,-6 8.643,-3.655 16.977,-7.822 25,-12.5 1.43,-2.933 3.43,-5.433 6,-7.5 4.743,-1.47 9.409,-3.136 14,-5 2.92,-4.504 5.586,-9.171 8,-14 4.667,-0.333 9.333,-0.667 14,-1 5.073,-5.744 10.74,-10.744 17,-15 3.893,-3.39 7.227,-7.223 10,-11.5 8.791,-4.298 17.458,-8.798 26,-13.5 1.504,-3.344 3.504,-6.344 6,-9 9.137,-3.063 16.137,-8.73 21,-17 7.731,-4.198 15.731,-7.864 24,-11 5.333,-5.333 10.667,-10.667 16,-16 9.031,-4.516 18.031,-9.016 27,-13.5 2.558,-6.726 7.225,-11.226 14,-13.5 -3.652,-0.499 -7.318,-0.665 -11,-0.5 46.352,-19.233 93.018,-37.9 140,-56 z"
         id="path37" />
    </g>
    <g
       id="g38">
      <path
         style="opacity:1"
         fill="#d2d1d1"
         d="m 465.5,683.5 c 3.682,-0.165 7.348,10e-4 11,0.5 -6.775,2.274 -11.442,6.774 -14,13.5 -8.969,4.484 -17.969,8.984 -27,13.5 -5.333,5.333 -10.667,10.667 -16,16 -8.269,3.136 -16.269,6.802 -24,11 -4.863,8.27 -11.863,13.937 -21,17 -2.496,2.656 -4.496,5.656 -6,9 -8.542,4.702 -17.209,9.202 -26,13.5 -2.773,4.277 -6.107,8.11 -10,11.5 -6.26,4.256 -11.927,9.256 -17,15 -4.667,0.333 -9.333,0.667 -14,1 -2.414,4.829 -5.08,9.496 -8,14 -4.591,1.864 -9.257,3.53 -14,5 -2.57,2.067 -4.57,4.567 -6,7.5 -8.023,4.678 -16.357,8.845 -25,12.5 -1.428,2.185 -3.095,4.185 -5,6 -5.205,1.954 -10.205,4.287 -15,7 -2.636,2.773 -4.636,5.94 -6,9.5 -56.79,26.558 -113.79,52.891 -171,79 100.913,-72.955 202.58,-145.788 305,-218.5 36.14,-15.073 72.473,-29.573 109,-43.5 z"
         id="path38" />
    </g>
    <g
       id="g39">
      <path
         style="opacity:1"
         fill="#585556"
         d="m 984.5,682.5 c 1.025,0.397 1.192,1.063 0.5,2 -81.045,118.803 -193.878,182.637 -338.5,191.5 -81.997,2.729 -158.33,-16.605 -229,-58 3.289,-2.483 6.955,-3.483 11,-3 97.966,43.729 199.299,53.396 304,29 102.858,-25.136 186.858,-78.969 252,-161.5 z"
         id="path39" />
    </g>
  </g>
</svg>
