<?xml version="1.0" encoding="UTF-8" standalone="no"?>
<svg
   width="200"
   height="200"
   viewBox="0 0 15.42048 15.42048"
   version="1.1"
   id="svg10"
   sodipodi:docname="logo_AHL.svg"
   inkscape:version="1.4.2 (f4327f4, 2025-05-13)"
   xmlns:inkscape="http://www.inkscape.org/namespaces/inkscape"
   xmlns:sodipodi="http://sodipodi.sourceforge.net/DTD/sodipodi-0.dtd"
   xmlns="http://www.w3.org/2000/svg"
   xmlns:svg="http://www.w3.org/2000/svg">
  <defs
     id="defs10" />
  <sodipodi:namedview
     id="namedview10"
     pagecolor="#ffffff"
     bordercolor="#000000"
     borderopacity="0.25"
     inkscape:showpageshadow="2"
     inkscape:pageopacity="0.0"
     inkscape:pagecheckerboard="0"
     inkscape:deskcolor="#d1d1d1"
     showgrid="false"
     inkscape:zoom="2.8531759"
     inkscape:cx="138.09173"
     inkscape:cy="134.76211"
     inkscape:window-width="1920"
     inkscape:window-height="1009"
     inkscape:window-x="-8"
     inkscape:window-y="-8"
     inkscape:window-maximized="1"
     inkscape:current-layer="svg10" />
  <path
     d="M 13.62485,12.654912 C 14.745134,11.31624 15.42048,9.5923828 15.42048,7.71024 15.42048,3.4521452 11.968554,4.3781984e-5 7.7102839,4.3781984e-5 3.4518381,4.3781984e-5 -8.9512001e-8,3.4521452 -8.9512001e-8,7.7104155 -8.9512001e-8,11.96851 3.4517504,15.420436 7.7102839,15.420436 c 1.8513455,0 3.5501091,-0.653147 4.8794801,-1.741054 a 0.77931997,0.77931997 0 0 0 0.712724,0.464679 0.77975867,0.77975867 0 0 0 0.779759,-0.779847 c 0,-0.31543 -0.18803,-0.586552 -0.457397,-0.709302 z"
     fill="#ffffff"
     id="path2"
     style="clip-rule:evenodd;fill-rule:evenodd;stroke-width:0.0877415" />
  <path
     d="m 7.7102839,13.438531 c 3.1635201,0 5.7282911,-2.564508 5.7282911,-5.728291 0,-3.1636074 -2.564684,-5.7281158 -5.7282911,-5.7281158 -3.1638706,0 -5.7283791,2.5645962 -5.7283791,5.7281158 8.78e-5,3.163871 2.5645962,5.728291 5.7283791,5.728291 z"
     fill="#234b8d"
     id="path3"
     style="clip-rule:evenodd;fill-rule:evenodd;stroke-width:0.0877415" />
  <path
     d="m 7.7102839,13.3364 c 3.1070141,0 5.6259851,-2.518795 5.6259851,-5.62616 0,-3.1070141 -2.518971,-5.6259847 -5.6259851,-5.6259847 -3.1072774,0 -5.6260725,2.5189706 -5.6260725,5.6259847 8.77e-5,3.107365 2.5188829,5.62616 5.6260725,5.62616 z"
     fill="#ffffff"
     id="path4"
     style="clip-rule:evenodd;fill-rule:evenodd;stroke-width:0.0877415" />
  <path
     d="m 6.5700831,6.3963111 c 0.041853,0.00605 0.1431942,-0.0043 0.1002886,0.046503 -0.044046,0.052645 -0.1146782,0.095901 -0.1956636,0.092041 0.016408,-0.051241 0.035097,-0.1474057 0.095375,-0.138544 z M 7.3903784,6.1466865 C 7.2877208,6.1630942 7.2413933,6.2501338 7.159706,6.2900561 7.113993,6.3128691 7.072754,6.2790881 7.0309015,6.2547841 c -0.032026,-0.018777 -0.037027,-0.062647 -0.021146,-0.091163 0.073089,-0.1323142 0.095112,-0.27428 0.1039736,-0.4131748 0.00219,-0.033693 -0.076686,-0.047029 -0.099411,-0.078353 -0.073089,-0.1002885 -0.075458,-0.245413 0.042467,-0.3256087 0.016408,-0.011231 0.048784,-0.013512 0.065455,-0.023164 0.074756,-0.043169 0.1368767,-0.12898 0.2097021,-0.1353851 0.1451245,-0.012547 0.2763858,-0.07265 0.4086122,-0.1238032 0.048521,0.07809 0.059138,0.169692 0.092392,0.254538 0.01904,0.048258 0.024129,0.1024821 0.00412,0.1553025 -0.043344,0.1145026 -0.062033,0.2337433 -0.1030962,0.3472808 -0.022462,0.062735 -0.020181,0.1508277 -0.092129,0.1777643 -0.095638,0.035711 -0.1490728,0.131349 -0.2514671,0.1476689 z m 5.2536976,1.8882848 c 0.04852,-0.00272 0.114327,-0.017373 0.13521,0.00711 0.101604,0.119504 0.06738,0.284458 0.100288,0.4391462 0.01439,0.067386 0.05194,0.1427554 8.78e-4,0.1991732 -0.01527,0.017022 -0.06151,0.010178 -0.07458,-0.010704 -0.02623,-0.042467 -0.0379,-0.093094 -0.05659,-0.140211 -0.02895,-0.07379 -0.07476,-0.1358238 -0.122399,-0.2026828 -0.05019,-0.071071 -0.02623,-0.1404741 -0.03545,-0.209439 -0.0061,-0.043608 -0.0044,-0.079318 0.05265,-0.082389 z"
     fill="#cf4044"
     id="path5"
     style="clip-rule:evenodd;fill-rule:evenodd;stroke-width:0.0877415" />
  <path
     d="m 11.583632,10.445318 c 0.01132,-0.005 0.02623,-0.0016 0.0394,-0.0016 -0.0015,0.02202 0.01064,0.0515 -0.02071,0.05773 -0.08257,0.01702 -0.186626,0.07906 -0.223126,0.03001 -0.07054,-0.09529 0.127225,-0.05098 0.204437,-0.08607 z m 0.35974,-0.125997 c 0.0372,-0.01106 0.068,0.0019 0.101079,0.0063 0.01544,0.0023 0.03115,0.02422 0.01781,0.03439 -0.08274,0.06256 -0.1818,0.07458 -0.278667,0.07888 -0.02773,0.0011 -0.02606,-0.03755 -0.0165,-0.05308 0.04001,-0.06291 0.113888,-0.04782 0.176272,-0.06642 z"
     fill="#234b8d"
     id="path6"
     style="clip-rule:evenodd;fill-rule:evenodd;stroke-width:0.0877415" />
  <path
     d="m 12.868255,8.8560562 c 0.104325,0.00544 0.126787,0.1954881 0.07125,0.2255834 -0.116872,0.063174 -0.121171,-0.1079221 -0.12626,-0.2048764 -0.0015,-0.024217 0.03106,-0.02176 0.05501,-0.020707 z M 2.8508089,10.277819 c 0.474155,0.0068 0.9533113,0.0501 1.4315025,-0.009 0.055014,-0.0064 0.1040614,-0.05234 0.1350341,-0.110774 C 4.8581588,9.3195945 5.3039733,8.522814 5.6853856,7.6656673 5.6982836,7.6312727 5.5917655,7.6494351 5.5894842,7.5953864 5.5856235,7.5098384 5.6336181,7.4115679 5.7169726,7.38507 5.7832174,7.3636611 5.8846466,7.3769101 5.8840324,7.282237 5.8039244,7.3037337 5.7411015,7.2500359 5.6683638,7.2288902 5.6345833,7.2187999 5.5891332,7.2083586 5.573603,7.1725601 5.5426302,7.1000856 5.5936958,7.0298924 5.6666967,6.9925146 5.8046263,6.9217072 5.9382566,6.8601126 6.0743437,6.7832511 6.2591273,6.6790142 6.331865,6.4746643 6.3855628,6.2890032 6.4147807,6.1873109 6.3352869,6.0740366 6.2482473,5.989717 c -0.00798,-0.00807 -0.00798,-0.032552 0,-0.04352 0.015267,-0.020707 0.032903,-0.04545 0.017811,-0.057734 -0.066069,-0.055189 -0.03106,-0.1195039 -0.023427,-0.1855732 9.651e-4,-0.00728 -0.016671,-0.014653 -0.01904,-0.024392 -0.011056,-0.045275 0.013161,-0.081161 0.030183,-0.1217852 0.00974,-0.023252 -0.018777,-0.0544 0.0043,-0.082302 0.028077,-0.034131 0.056154,-0.063174 0.080371,-0.099236 0.011406,-0.017636 -0.00219,-0.04817 0.00676,-0.068526 0.024743,-0.057471 0.107922,-0.066069 0.1291555,-0.1045879 0.050714,-0.091778 0.055365,-0.2049641 0.1010782,-0.304814 0.065455,-0.1431941 0.1281025,-0.298321 0.2671728,-0.3767619 0.035184,-0.019917 0.093094,0.027375 0.1410006,0.040098 0.078704,0.020795 0.211808,-0.065543 0.19347,-0.1452122 -0.010441,-0.045099 -0.065192,0.00272 -0.098183,-0.00641 -0.021935,-0.00623 -0.049223,-0.016495 -0.054224,-0.055365 C 7.015459,4.2840223 7.0144061,4.2181285 7.0017713,4.1486372 6.9892243,4.0814272 6.9024479,4.094062 6.8768274,4.0376442 6.8384844,3.9537633 6.7879453,3.8783934 6.7569725,3.7888093 6.7468822,3.7595037 6.6845858,3.7550288 6.6744078,3.7238806 6.6118481,3.5369912 6.7871556,3.3882694 6.8886725,3.234634 7.0105454,3.0501137 7.2268282,3.0026455 7.4155602,2.9936959 c 0.1780275,-0.00834 0.2949869,0.1801333 0.4366894,0.2943727 0.064753,0.052119 0.1540741,0.035097 0.2247937,0.027902 0.1338058,-0.013512 0.2846334,-0.028779 0.3919413,0.057032 0.1310858,0.1050265 0.2608555,0.1878545 0.3912393,0.2943727 0.1338058,0.1095891 0.2082106,0.2757715 0.3667595,0.3391209 0.3113945,0.1245052 0.5816383,0.324468 0.8110826,0.5682139 0.07282,0.0773 0.07695,0.1902236 0.131963,0.2805973 0.05809,0.094585 0.171008,0.1170472 0.258048,0.1855733 0.02571,0.020093 0.05106,0.040888 0.05861,0.072211 0.01316,0.055277 0.0358,0.1076588 0.06098,0.1499502 0.145476,0.2444478 0.359565,0.4404623 0.36948,0.7295706 0.01031,0.2927056 -0.106431,0.5688281 -0.271472,0.8076604 -0.05668,0.3054282 -0.117574,0.6035738 -0.162761,0.9169864 -0.01869,0.1300329 -0.17443,0.1558289 -0.233568,0.173114 -0.01579,0.00447 -0.09274,0.075633 0.0088,0.081336 0.06835,0.00395 0.250239,-0.084056 0.383869,-0.053435 0.465294,0.1064304 0.921286,0.081687 1.361047,-0.060103 0.07335,-0.02369 0.135385,-0.070193 0.199173,-0.1205569 a 0.28147472,0.28147472 0 0 1 0.284107,-0.038343 c 0.06203,0.025533 0.05659,0.1196794 0.123189,0.1373155 0.05826,0.01553 0.13284,0.068614 0.170832,0.010968 0.02641,-0.039396 -0.0098,-0.1021311 -0.0068,-0.1505644 0.0031,-0.049398 0.08107,-0.077125 0.136438,-0.081073 0.01869,-0.00123 0.02878,0.028253 0.03167,0.045099 0.06458,0.359126 0.102131,0.6942985 0.175834,1.0543018 0.06098,-0.3281532 0.09976,-0.6588509 0.09976,-1.0049911 0,-3.0410325 -2.465711,-5.5065685 -5.506656,-5.5065685 -3.0412958,0 -5.5066563,2.465536 -5.5066563,5.5065685 -2.632e-4,0.9295335 0.2402362,1.7996659 0.646918,2.5674908 z"
     fill="#cf4044"
     id="path7"
     style="clip-rule:evenodd;fill-rule:evenodd;stroke-width:0.0877415" />
  <path
     d="m 3.1038553,10.727758 c 0.9842841,1.497133 2.6808537,2.489138 4.6064286,2.489138 2.5273941,0 4.6540721,-1.700254 5.3015171,-4.0208415 -0.117925,9.652e-4 -0.236113,-0.00386 -0.348246,0.055979 -0.07713,0.041063 -0.149249,-0.027551 -0.16864,-0.095902 -0.01255,-0.043695 -0.01492,-0.097042 -0.03562,-0.1342445 -0.06923,-0.1252071 -0.108273,-0.2609432 -0.236288,-0.3410512 -0.09801,-0.061331 -0.214703,-0.015004 -0.323239,-0.076861 -0.0415,-0.02369 -0.107834,-0.020883 -0.153372,-0.0014 -0.03562,0.015355 -0.06651,0.067649 -0.103009,0.066157 -0.200314,-0.00851 -0.416772,-0.032201 -0.59945,0.092918 -0.0099,0.00684 -0.0099,0.040624 3.51e-4,0.052469 0.05984,0.070105 0.115117,0.1350341 0.170833,0.2085615 0.07949,0.1050266 0.103359,0.2260221 0.179958,0.3414022 0.07862,0.1182755 0.15732,0.2207576 0.257784,0.3050771 0.05642,0.047468 0.147406,0.065806 0.204964,0.118802 0.135736,0.1237155 0.29683,0.2086493 0.335348,0.3971184 0.0043,0.02106 -0.03018,0.07414 -0.03448,0.100288 -0.01075,0.07116 0.05686,0.05405 0.125295,0.06677 0.02983,0.0058 0.08616,0.06467 0.05589,0.0787 -0.306744,0.14293 -0.735712,0.166972 -0.977352,0.183379 -0.0773,0.005 -0.216634,-0.120644 -0.25603,-0.232515 -0.03597,-0.102394 0.113274,-0.15188 0.09116,-0.258311 -0.0033,-0.01623 -0.02948,-0.02562 -0.03308,-0.04168 -0.01027,-0.04633 0.01255,-0.1070445 -0.01132,-0.132314 C 10.93531,9.719608 10.681299,9.5637791 10.404387,9.4082134 10.207846,9.2975714 10.053771,9.136478 9.862846,9.0189044 9.7699277,8.961697 9.6217324,9.0076735 9.4953846,8.9888968 9.4566906,8.9831936 9.408696,8.9697692 9.3807065,8.9486235 9.1868855,8.8023584 9.0684345,8.3559297 9.115113,8.0883181 9.109673,8.0757711 9.0597481,8.0627853 9.0471133,8.0391829 8.7874862,7.5609917 8.8383763,7.0200654 8.7966991,6.4992319 8.7954707,6.4834384 8.7677444,6.4777352 8.7509858,6.4651882 8.7115898,6.4355315 8.6670171,6.3960479 8.6226199,6.4190361 8.4856555,6.4894926 8.4116894,6.6224209 8.2757778,6.7114786 8.1506584,6.7936046 8.0463338,6.8916118 7.9165641,6.9464503 7.8334729,6.9816346 7.7373083,7.0534072 7.6480752,6.9875133 7.587709,6.9431161 7.5227803,6.9041589 7.4520606,6.9246904 7.306322,6.966894 7.1481241,6.9335523 7.0255492,7.0076061 c -0.031762,0.019391 -0.059664,0.035886 -0.085636,0.06528 -0.012196,0.013688 -0.025006,0.028253 -0.041239,0.036237 -0.034482,0.017022 -0.07344,0.017987 -0.1061672,0.04001 -0.00254,0.00175 -0.00553,0.022462 -2.632e-4,0.017724 -0.014126,0.012196 -0.023602,0.04466 -0.034482,0.064051 -0.052645,0.091778 -0.2529587,0.2504142 -0.44599,0.3027082 -0.1429305,0.058524 -0.2550642,0.1467916 -0.414315,0.1495993 -0.5120593,0.9538378 -0.9453269,1.9242588 -1.4729165,2.8943284 -0.043432,0.07993 -0.1125723,0.133982 -0.2018054,0.141001 -0.3788678,0.02957 -0.7410647,-0.01132 -1.1188796,0.0092 z"
     fill="#234b8d"
     id="path8"
     style="clip-rule:evenodd;fill-rule:evenodd;stroke-width:0.0877415" />
  <path
     fill="#cf4044"
     d="m 4.6463508,13.803009 0.1440716,0.280422 0.048521,-0.309288 0.3097275,-0.05423 -0.2798954,-0.141439 0.047819,-0.30885 -0.2227756,0.223127 -0.2796322,-0.14144 0.1431942,0.278316 -0.2225125,0.223127 z m 6.1634012,-0.01886 0.314115,0.02904 -0.234972,-0.206894 0.120996,-0.290249 -0.269718,0.159602 -0.234796,-0.206017 0.06844,0.307709 -0.269629,0.159514 0.311745,0.02922 0.06853,0.307359 z M 7.0527491,14.873894 V 13.750891 H 7.531379 v 0.378868 h 0.4521319 v -0.378868 h 0.4784544 v 1.123003 H 7.9835109 V 14.438697 H 7.531379 v 0.435197 z m -1.7539525,-0.371146 0.7694929,-0.970772 0.4733654,0.112485 0.2483084,1.213991 -0.4633628,-0.110554 -0.021058,-0.157409 -0.4634506,-0.110378 -0.087741,0.131173 z m 0.9236547,-0.586377 -0.237253,0.356933 0.2938463,0.07028 z m 2.8237846,0.830298 -0.2161073,-1.101945 0.4693292,-0.09195 0.1659192,0.844687 0.644725,-0.126523 0.05036,0.257346 z"
     id="path9"
     style="clip-rule:evenodd;fill-rule:evenodd;stroke-width:0.0877415" />
  <path
     d="m 4.3855831,12.792929 -1.1284434,0.510744 -0.368953,-0.316923 0.3349093,-1.192933 0.3614072,0.310429 -0.05361,0.149512 0.3612317,0.310342 0.1382806,-0.07642 z m -1.0893107,0.09836 0.374393,-0.208913 -0.2289176,-0.196804 z M 3.1686963,11.746875 2.233021,12.367997 1.9134665,11.88656 l 0.4411642,-0.601819 -0.7258854,0.172675 -0.3199055,-0.48135 0.9355876,-0.621034 0.2378672,0.357985 -0.2856863,0.189961 -0.1490728,0.0916 -0.1825024,0.09195 0.00246,0.0032 0.7471188,-0.177325 0.1838185,0.277 -0.4532726,0.619893 0.00237,0.0034 0.1264355,-0.10836 0.1400355,-0.105202 0.31701,-0.210317 z M 2.1879219,10.160246 1.1213362,10.512089 0.7486981,9.3811013 0.99770846,9.2992385 1.2204841,9.9752867 1.3730666,9.9248354 1.1845101,9.353024 1.4335205,9.2710735 1.6219015,9.843148 1.7891368,9.7877831 1.5576747,9.0847983 1.8064218,9.0026722 Z M 1.3473583,8.4076972 1.7376325,8.377865 1.7742207,8.8550033 0.65437599,8.9407267 0.60173109,8.2532721 C 0.5645287,7.7682371 0.65341083,7.6007386 0.87100974,7.5840677 1.0001652,7.5741529 1.1148434,7.640661 1.1636276,7.8077208 1.1952146,7.6505758 1.216097,7.5556395 1.4415927,7.5385299 1.5878578,7.527299 1.6381336,7.5294048 1.6335711,7.4727238 l 0.034482,-0.00254 0.036851,0.4831046 c -0.024041,0.014126 -0.094673,0.031587 -0.1940842,0.039308 -0.1461773,0.011056 -0.1918906,0.047205 -0.1750443,0.2694542 z M 1.1015067,8.4264738 1.0872048,8.2386193 C 1.0759739,8.0908626 1.0417547,8.0141765 0.96401573,8.0203184 0.88460967,8.0263726 0.85363693,8.1099025 0.86214785,8.2211587 L 0.8791697,8.4435834 Z M 1.7151707,7.305664 0.59874788,7.1840542 0.65051536,6.7084076 1.7670259,6.8301051 Z M 1.3824549,5.5036291 C 1.2666361,5.4825712 1.1745953,5.5543437 1.1304613,5.6977133 1.0814138,5.8588067 1.1574857,5.9880499 1.3644679,6.051487 1.5152078,6.0978145 1.6698961,6.0986042 1.7412299,5.865826 1.7865045,5.7184203 1.7288583,5.6245369 1.6312021,5.5754894 L 1.765973,5.1353781 C 2.0309523,5.2612871 2.1190448,5.5702249 2.006297,5.9387392 1.8646822,6.400084 1.5614476,6.6125939 1.2124119,6.505637 0.86495558,6.3990311 0.74273167,6.0264807 0.86206011,5.6366452 0.99279494,5.2101338 1.2284686,5.0214896 1.5155588,5.0691332 Z M 2.184149,5.2478627 1.498186,4.2161104 1.7518466,3.8006544 2.9827721,3.9391105 2.7344636,4.3461433 2.5784593,4.3173641 2.3302386,4.7239582 2.4283336,4.8478492 Z M 1.9115361,4.1882086 2.1781825,4.5242585 2.3355031,4.266474 Z M 3.3921739,2.8335677 3.2015994,2.6619453 2.9540806,2.404424 3.2845151,2.0869753 4.0626944,2.8964783 3.7396302,3.2069955 2.9403052,3.1274139 3.1307042,3.299124 3.3770824,3.5555924 3.0468234,3.8729534 2.268644,3.0632749 2.5917082,2.753021 Z M 4.7795424,2.4274123 4.3509252,1.3893426 4.7933178,1.2066648 4.9379158,1.5570166 5.3560918,1.3845168 5.2112306,1.0342528 5.6536232,0.85183823 6.0822404,1.8897324 5.6396723,2.0722347 5.4738409,1.6701154 5.0558404,1.8425275 5.2218473,2.2448222 Z M 7.6722918,1.094268 C 7.7187948,1.473399 7.4131912,1.7280248 6.9843985,1.7808452 6.5298098,1.8368243 6.1991998,1.6574806 6.1525214,1.2782619 6.1092648,0.92843655 6.3891602,0.66310627 6.8398882,0.6075659 7.3570366,0.54369009 7.6360546,0.80007074 7.6722918,1.094268 Z M 6.6277293,1.2228093 C 6.6453653,1.3653015 6.7236307,1.5362219 6.9511444,1.5084078 7.1562841,1.4830505 7.2198967,1.3368732 7.1974348,1.1525283 7.1786581,1.000911 7.0782819,0.84982017 6.8695449,0.88026647 6.6541395,0.90685214 6.6103565,1.0820719 6.6277293,1.2228093 Z M 8.8862831,1.1063763 C 8.8878625,0.98862722 8.8023145,0.90939665 8.6535927,0.88947933 8.4868839,0.8670175 8.3716793,0.96326993 8.3429001,1.1782366 8.3220176,1.3343287 8.346322,1.4873499 8.5876111,1.5196388 8.7401058,1.5401703 8.823548,1.4678713 8.8560123,1.3637221 l 0.4559926,0.061156 C 9.2312827,1.7067036 8.9409461,1.8440191 8.5590074,1.7928658 8.0807285,1.7287267 7.8218033,1.4641861 7.8702366,1.1024279 7.9185822,0.74216136 8.2659508,0.56053646 8.6700004,0.6147607 9.1121298,0.6741617 9.3366602,0.87561617 9.3363093,1.1667425 Z M 9.8208178,0.85999818 10.262772,1.0433779 10.123614,1.3789891 10.650589,1.2042958 11.169317,1.419438 10.514853,1.6054499 10.79159,2.4783901 10.261719,2.2585099 10.108873,1.710652 9.9690132,1.7522415 9.8325752,2.0807456 9.3906213,1.8973659 Z M 10.86617,2.5565678 11.538621,1.6573052 12.491406,2.3702926 12.334612,2.580258 11.764643,2.1537465 11.668654,2.2823756 12.150706,2.6433441 11.99356,2.853134 11.511684,2.4921655 11.40578,2.6334293 11.998562,3.0768748 11.841417,3.2866647 Z m 1.660245,1.5289833 -0.304025,-0.3693917 0.315168,-0.2597149 0.205929,-0.8735543 0.340349,0.4131747 -0.133981,0.435812 0.453624,-0.047995 0.334997,0.4070328 -0.891805,0.030797 z m 0.677188,1.0866784 1.054829,-0.3848342 0.164164,0.4495874 -0.808889,0.2950747 0.225233,0.6170859 -0.246115,0.089847 z m 0.422125,1.2213616 1.114054,-0.1400354 0.148721,1.1810883 -0.25989,0.032552 -0.08879,-0.7060559 -0.159251,0.020005 0.07493,0.5975196 -0.259978,0.032552 -0.07502,-0.5973441 -0.175044,0.022023 0.09239,0.7343086 -0.260154,0.032552 z m 0.167411,1.2596169 1.056495,0.6470936 -0.05519,0.4834556 -1.175122,0.3926432 0.05396,-0.4734531 0.153547,-0.039571 0.05414,-0.4734531 -0.141001,-0.071246 z m 0.693157,0.8462668 -0.382991,-0.1926804 -0.03431,0.3003392 z m -1.414919,2.0793852 0.112397,-0.28709 0.109852,0.02334 c -0.0379,-0.09968 -0.05089,-0.246291 0.03273,-0.4595904 0.135911,-0.3476318 0.430811,-0.5913777 0.795289,-0.4484468 0.334032,0.1306471 0.457221,0.4924053 0.284633,0.9326042 -0.128015,0.326662 -0.361407,0.53768 -0.640074,0.491967 l 0.165744,-0.423002 c 0.09836,0.0015 0.176711,-0.0616 0.221722,-0.176799 0.0687,-0.175483 -0.02071,-0.3063934 -0.205139,-0.3786924 -0.147932,-0.058085 -0.306745,-0.050539 -0.394837,0.1741664 -0.03562,0.09064 -0.03273,0.224619 0.03106,0.275772 l 0.07677,-0.196278 0.226724,0.08853 -0.23892,0.609892 z m 0.803712,0.848461 -0.285862,0.383693 -0.53882,-0.40168 c -0.08897,-0.06624 -0.182152,-0.100289 -0.299901,0.05721 -0.102657,0.138281 -0.06563,0.229269 0.03203,0.301919 l 0.538821,0.401943 -0.285862,0.383519 -0.509164,-0.379131 c -0.288582,-0.215406 -0.28516,-0.483719 0.0043,-0.872326 0.270069,-0.362373 0.5268,-0.484509 0.836791,-0.253398 z m -1.908377,0.609013 0.707898,0.871712 -0.923655,0.750278 -0.165392,-0.20321 0.552508,-0.448885 -0.101166,-0.124681 -0.467662,0.379745 -0.164954,-0.20356 0.467135,-0.379482 -0.110905,-0.136876 -0.574794,0.466697 -0.164867,-0.203561 z"
     fill="#234b8d"
     id="path10"
     style="clip-rule:evenodd;fill-rule:evenodd;stroke-width:0.0877415"
     sodipodi:nodetypes="ccccccccccccccccccccccccccccccccccccccccccccccccccccccccccccccccccccccccccccccccccccccccccccccccccccccccccccccccccccccccccccccccccccccccccccccccccccccccccccccccccccccccccccccccccccccccccccccccccccccccccccccccccccccccccccccccccccccccccccccccccccccccccc" />
</svg>
