<?xml version="1.0" encoding="UTF-8" standalone="no"?>
<!-- Generator: Adobe Illustrator 13.0.1, SVG Export Plug-In . SVG Version: 6.00 Build 14948)  -->

<svg
   version="1.1"
   id="Layer_1"
   x="0px"
   y="0px"
   width="200"
   height="200"
   viewBox="0 0 200 200"
   enable-background="new 0 0 204.5 88"
   xml:space="preserve"
   sodipodi:docname="logo_OHL.svg"
   inkscape:version="1.4.2 (f4327f4, 2025-05-13)"
   xmlns:inkscape="http://www.inkscape.org/namespaces/inkscape"
   xmlns:sodipodi="http://sodipodi.sourceforge.net/DTD/sodipodi-0.dtd"
   xmlns="http://www.w3.org/2000/svg"
   xmlns:svg="http://www.w3.org/2000/svg"><defs
   id="defs18" /><sodipodi:namedview
   id="namedview18"
   pagecolor="#ffffff"
   bordercolor="#000000"
   borderopacity="0.25"
   inkscape:showpageshadow="2"
   inkscape:pageopacity="0.0"
   inkscape:pagecheckerboard="0"
   inkscape:deskcolor="#d1d1d1"
   showgrid="false"
   inkscape:zoom="4.035"
   inkscape:cx="100"
   inkscape:cy="100"
   inkscape:window-width="1920"
   inkscape:window-height="1009"
   inkscape:window-x="-8"
   inkscape:window-y="-8"
   inkscape:window-maximized="1"
   inkscape:current-layer="Layer_1" />
<g
   id="g19"
   transform="matrix(1.0690248,0,0,1.0690248,-8.3760194,53.895486)"><g
     id="g18">
	<path
   fill-rule="evenodd"
   clip-rule="evenodd"
   fill="#1f7cb6"
   d="m 156.18,66.82 h -4.467 l 1.268,-5.717 h -18.862 l -1.267,5.717 h -11.914 l 1.268,-5.717 h -18.862 l -1.268,5.717 H 85.624 c 3.042,-1.447 5.951,-3.348 8.608,-5.717 L 49.315,61.101 c 0.185,0.195 0.374,0.389 0.564,0.58 0.728,0.729 1.487,1.404 2.271,2.037 H 39.579 c 0.57,0.535 1.168,1.049 1.777,1.551 H 29.609 c 0.551,0.529 1.122,1.045 1.708,1.551 H 19.525 c 0.534,0.525 1.082,1.043 1.647,1.551 H 190.58 l 1.611,-7.268 h -34.745 z"
   id="path1" />
	<path
   fill-rule="evenodd"
   clip-rule="evenodd"
   fill="#1f7cb6"
   d="m 158.178,57.809 h -4.467 l 1.268,-5.719 h -18.862 l -1.268,5.719 h -11.913 l 1.268,-5.719 h -18.862 l -1.268,5.719 H 97.49 c 1.582,-1.807 2.96,-3.723 4.122,-5.719 L 43.548,52.088 c 0.359,0.893 0.779,1.762 1.228,2.619 H 32.667 c 0.274,0.525 0.569,1.039 0.874,1.551 H 22.614 c 0.29,0.523 0.594,1.039 0.912,1.551 H 12.508 c 0.3,0.521 0.612,1.039 0.938,1.549 h 179.133 l 1.611,-7.268 h -34.745 z"
   id="path2" />
	<path
   fill-rule="evenodd"
   clip-rule="evenodd"
   fill="#1f7cb6"
   d="m 179.037,48.795 1.268,-5.717 h -18.861 l -1.268,5.717 h -4.467 l 1.268,-5.717 h -49.638 l -1.268,5.718 H 103.3 c 0.841,-1.867 1.517,-3.779 2.011,-5.717 H 41.459 c 0.068,0.879 0.186,1.75 0.326,2.616 H 29.604 c 0.09,0.521 0.198,1.039 0.315,1.551 H 19.212 c 0.111,0.521 0.235,1.037 0.37,1.551 H 8.845 c 0.13,0.52 0.271,1.037 0.426,1.551 h 185.307 l 0.344,-1.551 h -15.885 z m -54.103,0 0.463,-2.084 h 11.913 l -0.463,2.084 z"
   id="path3" />
	<path
   fill-rule="evenodd"
   clip-rule="evenodd"
   fill="#1f7cb6"
   d="m 180.691,41.333 1.611,-7.268 H 163.44 l -1.267,5.718 h -4.467 l 1.268,-5.718 h -49.638 l -1.268,5.718 h -2.093 c 0.291,-1.907 0.423,-3.821 0.381,-5.718 H 42.02 c -0.174,0.87 -0.302,1.743 -0.407,2.616 H 29.396 c -0.041,0.338 -0.084,0.675 -0.114,1.015 -0.016,0.18 -0.018,0.357 -0.03,0.536 H 18.59 c -0.037,0.519 -0.063,1.036 -0.078,1.551 H 7.842 c -0.014,0.52 -0.005,1.035 0.005,1.55 z"
   id="path4" />
	<path
   fill-rule="evenodd"
   clip-rule="evenodd"
   fill="#1f7cb6"
   d="m 182.689,32.321 1.611,-7.268 -18.861,-0.001 -1.268,5.718 h -4.467 l 1.268,-5.718 H 142.11 l -0.807,3.634 h -11.912 l 0.806,-3.635 h -18.861 l -1.268,5.718 h -3.963 c -0.247,-1.947 -0.669,-3.863 -1.281,-5.717 L 45.165,25.051 c -0.438,0.86 -0.826,1.735 -1.188,2.617 H 31.788 c -0.214,0.512 -0.411,1.03 -0.601,1.55 H 20.476 c -0.182,0.514 -0.35,1.031 -0.507,1.551 H 9.286 c -0.151,0.514 -0.294,1.03 -0.422,1.55 h 173.825 z"
   id="path5" />
	<path
   fill-rule="evenodd"
   clip-rule="evenodd"
   fill="#1f7cb6"
   d="m 184.688,23.308 1.611,-7.268 h -18.861 l -1.268,5.718 h -4.468 l 1.268,-5.718 h -18.862 l -1.267,5.718 h -11.913 l 1.268,-5.718 h -18.861 l -1.268,5.718 h -8.568 c -0.951,-2.017 -2.128,-3.939 -3.557,-5.719 L 51.665,16.04 c -0.825,0.841 -1.584,1.721 -2.311,2.616 H 37.155 c -0.404,0.509 -0.789,1.027 -1.165,1.551 H 25.102 c -0.349,0.512 -0.686,1.029 -1.009,1.551 H 13.235 c -0.303,0.513 -0.596,1.029 -0.875,1.55 z"
   id="path6" />
	<path
   fill-rule="evenodd"
   clip-rule="evenodd"
   fill="#1f7cb6"
   d="m 186.686,14.296 1.611,-7.269 h -18.861 l -1.268,5.718 H 163.7 l 1.268,-5.718 -18.862,10e-4 -1.267,5.717 h -11.913 l 1.268,-5.718 h -18.861 l -1.268,5.718 H 96.835 C 86.96,3.787 72.14,2.867 60.015,9.643 H 46.836 c -0.717,0.499 -1.412,1.02 -2.095,1.55 h -11.57 c -0.58,0.508 -1.146,1.025 -1.697,1.551 H 20.146 c -0.491,0.511 -0.97,1.027 -1.436,1.55 z"
   id="path7" />
	<path
   fill-rule="evenodd"
   clip-rule="evenodd"
   fill="#1f7cb6"
   d="m 26.146,74.689 c 0.558,-0.826 1.281,-1.24 2.171,-1.24 0.58,0 1.057,0.199 1.432,0.594 0.374,0.395 0.562,0.938 0.562,1.633 0,0.621 -0.148,1.258 -0.444,1.914 -0.296,0.656 -0.67,1.145 -1.123,1.467 -0.453,0.322 -0.925,0.484 -1.416,0.484 -0.604,0 -1.091,-0.205 -1.461,-0.613 -0.371,-0.408 -0.556,-0.916 -0.556,-1.521 -0.001,-0.987 0.277,-1.893 0.835,-2.718 z m -2.261,4.422 c 0.233,0.553 0.628,1.014 1.186,1.387 0.558,0.373 1.249,0.559 2.071,0.559 0.947,0 1.796,-0.232 2.547,-0.703 0.75,-0.469 1.344,-1.139 1.782,-2.008 0.438,-0.871 0.656,-1.771 0.656,-2.701 0,-1.119 -0.336,-2.018 -1.008,-2.695 -0.673,-0.678 -1.555,-1.016 -2.646,-1.016 -0.815,0 -1.542,0.166 -2.179,0.496 -0.638,0.33 -1.167,0.781 -1.586,1.35 -0.42,0.57 -0.731,1.24 -0.937,2.016 -0.156,0.578 -0.235,1.127 -0.235,1.648 0,0.56 0.116,1.117 0.349,1.667 z"
   id="path8" />
	<polygon
   fill-rule="evenodd"
   clip-rule="evenodd"
   fill="#1f7cb6"
   points="39.577,80.908 37.896,80.908 35.516,74.967 34.277,80.908 32.597,80.908 34.432,72.082 36.111,72.082 38.499,78.002 39.731,72.082 41.411,72.082 "
   id="polygon8" />
	<polygon
   fill-rule="evenodd"
   clip-rule="evenodd"
   fill="#1f7cb6"
   points="44.991,73.557 42.405,73.557 42.704,72.082 49.628,72.082 49.329,73.557 46.802,73.557 45.274,80.908 43.463,80.908 "
   id="polygon9" />
	<path
   fill-rule="evenodd"
   clip-rule="evenodd"
   fill="#1f7cb6"
   d="m 51.131,77.49 1.942,-3.549 0.527,3.549 z m 2.978,3.418 h 1.719 l -1.421,-8.826 h -2.043 l -4.979,8.826 h 1.873 l 1.065,-1.945 h 3.497 z"
   id="path9" />
	<path
   fill-rule="evenodd"
   clip-rule="evenodd"
   fill="#1f7cb6"
   d="m 60.276,73.557 h 2.013 c 0.538,0 0.887,0.049 1.049,0.145 0.262,0.16 0.394,0.402 0.394,0.723 0,0.273 -0.091,0.533 -0.273,0.783 -0.182,0.25 -0.433,0.432 -0.754,0.547 -0.321,0.117 -0.972,0.176 -1.953,0.176 h -0.969 z m -0.768,3.697 h 0.748 c 0.434,0 0.737,0.059 0.912,0.176 0.284,0.195 0.551,0.58 0.802,1.148 0.462,1.057 0.772,1.832 0.93,2.33 h 1.945 c -0.497,-1.26 -0.947,-2.234 -1.352,-2.926 -0.205,-0.34 -0.423,-0.615 -0.655,-0.824 0.91,-0.117 1.589,-0.42 2.039,-0.906 0.449,-0.488 0.674,-1.107 0.674,-1.857 0,-0.525 -0.116,-0.973 -0.348,-1.342 -0.231,-0.369 -0.536,-0.623 -0.913,-0.762 -0.377,-0.139 -0.904,-0.209 -1.581,-0.209 h -3.936 l -1.834,8.826 h 1.811 z"
   id="path10" />
	<polygon
   fill-rule="evenodd"
   clip-rule="evenodd"
   fill="#1f7cb6"
   points="69.386,72.082 67.552,80.908 65.741,80.908 67.575,72.082 "
   id="polygon10" />
	<path
   fill-rule="evenodd"
   clip-rule="evenodd"
   fill="#1f7cb6"
   d="m 72.412,74.689 c 0.558,-0.826 1.281,-1.24 2.171,-1.24 0.58,0 1.057,0.199 1.432,0.594 0.374,0.395 0.562,0.938 0.562,1.633 0,0.621 -0.148,1.258 -0.444,1.914 -0.296,0.656 -0.67,1.145 -1.123,1.467 -0.453,0.322 -0.925,0.484 -1.416,0.484 -0.604,0 -1.091,-0.205 -1.461,-0.613 -0.371,-0.408 -0.556,-0.916 -0.556,-1.521 -0.002,-0.987 0.277,-1.893 0.835,-2.718 z m -2.262,4.422 c 0.233,0.553 0.628,1.014 1.186,1.387 0.558,0.373 1.249,0.559 2.071,0.559 0.947,0 1.795,-0.232 2.546,-0.703 0.75,-0.469 1.344,-1.139 1.782,-2.008 0.438,-0.871 0.656,-1.771 0.656,-2.701 0,-1.119 -0.336,-2.018 -1.008,-2.695 -0.672,-0.678 -1.554,-1.016 -2.646,-1.016 -0.815,0 -1.542,0.166 -2.179,0.496 -0.638,0.33 -1.167,0.781 -1.586,1.35 -0.419,0.57 -0.732,1.24 -0.937,2.016 -0.156,0.578 -0.235,1.127 -0.235,1.648 0.001,0.56 0.118,1.117 0.35,1.667 z"
   id="path11" />
	<polygon
   fill-rule="evenodd"
   clip-rule="evenodd"
   fill="#1f7cb6"
   points="89.286,80.908 87.475,80.908 88.297,76.955 84.873,76.955 84.051,80.908 82.24,80.908 84.074,72.082 85.886,72.082 85.18,75.48 88.604,75.48 89.31,72.082 91.121,72.082 "
   id="polygon11" />
	<path
   fill-rule="evenodd"
   clip-rule="evenodd"
   fill="#1f7cb6"
   d="m 94.294,74.689 c 0.558,-0.826 1.281,-1.24 2.171,-1.24 0.58,0 1.057,0.199 1.432,0.594 0.374,0.395 0.562,0.938 0.562,1.633 0,0.621 -0.148,1.258 -0.444,1.914 -0.295,0.656 -0.67,1.145 -1.123,1.467 -0.453,0.322 -0.925,0.484 -1.416,0.484 -0.604,0 -1.091,-0.205 -1.461,-0.613 -0.371,-0.408 -0.556,-0.916 -0.556,-1.521 -0.001,-0.987 0.278,-1.893 0.835,-2.718 z m -2.261,4.422 c 0.233,0.553 0.628,1.014 1.186,1.387 0.558,0.373 1.249,0.559 2.071,0.559 0.947,0 1.795,-0.232 2.546,-0.703 0.75,-0.469 1.344,-1.139 1.782,-2.008 0.438,-0.871 0.656,-1.771 0.656,-2.701 0,-1.119 -0.336,-2.018 -1.008,-2.695 -0.673,-0.678 -1.554,-1.016 -2.646,-1.016 -0.814,0 -1.542,0.166 -2.179,0.496 -0.638,0.33 -1.167,0.781 -1.586,1.35 -0.419,0.57 -0.732,1.24 -0.937,2.016 -0.157,0.578 -0.234,1.127 -0.234,1.648 0.001,0.56 0.117,1.117 0.349,1.667 z"
   id="path12" />
	<path
   fill-rule="evenodd"
   clip-rule="evenodd"
   fill="#1f7cb6"
   d="m 107.07,77.725 1.838,0.277 c -0.355,0.99 -0.891,1.748 -1.604,2.271 -0.712,0.523 -1.547,0.783 -2.504,0.783 -1.077,0 -1.919,-0.324 -2.525,-0.973 -0.607,-0.65 -0.91,-1.594 -0.91,-2.828 0,-1.002 0.203,-1.92 0.61,-2.752 0.407,-0.832 0.971,-1.469 1.693,-1.908 0.722,-0.441 1.507,-0.662 2.356,-0.662 0.953,0 1.726,0.254 2.314,0.764 0.588,0.51 0.936,1.203 1.039,2.082 l -1.729,0.166 c -0.098,-0.51 -0.283,-0.879 -0.56,-1.107 -0.275,-0.23 -0.643,-0.346 -1.101,-0.346 -0.504,0 -0.974,0.154 -1.41,0.459 -0.436,0.305 -0.786,0.781 -1.047,1.432 -0.262,0.646 -0.393,1.295 -0.393,1.941 0,0.707 0.169,1.252 0.508,1.639 0.338,0.385 0.759,0.578 1.264,0.578 0.468,0 0.896,-0.152 1.287,-0.459 0.391,-0.307 0.683,-0.758 0.874,-1.357 z"
   id="path13" />
	<polygon
   fill-rule="evenodd"
   clip-rule="evenodd"
   fill="#1f7cb6"
   points="111.942,78.209 111.381,80.908 109.57,80.908 111.405,72.082 113.217,72.082 112.437,75.83 116.494,72.082 118.93,72.082 114.992,75.539 117.884,80.908 115.81,80.908 113.669,76.699 "
   id="polygon13" />
	<polygon
   fill-rule="evenodd"
   clip-rule="evenodd"
   fill="#1f7cb6"
   points="125.661,79.434 125.34,80.908 118.481,80.908 120.315,72.082 126.836,72.082 126.537,73.557 121.813,73.557 121.381,75.566 125.96,75.566 125.661,77.041 121.063,77.041 120.547,79.434 "
   id="polygon14" />
	<path
   fill-rule="evenodd"
   clip-rule="evenodd"
   fill="#1f7cb6"
   d="m 131.108,80.908 h -1.812 l 0.716,-3.441 -2.425,-5.385 h 1.942 l 1.092,2.477 c 0.261,0.594 0.435,1.021 0.522,1.285 0.148,-0.26 0.319,-0.533 0.516,-0.826 l 0.834,-1.158 1.24,-1.777 h 2.102 l -4.047,5.561 z"
   id="path14" />
	<polygon
   fill-rule="evenodd"
   clip-rule="evenodd"
   fill="#1f7cb6"
   points="144.743,79.434 144.443,80.908 138.141,80.908 139.975,72.082 141.785,72.082 140.258,79.434 "
   id="polygon15" />
	<polygon
   fill-rule="evenodd"
   clip-rule="evenodd"
   fill="#1f7cb6"
   points="152.796,79.434 152.476,80.908 145.616,80.908 147.451,72.082 153.972,72.082 153.673,73.557 148.949,73.557 148.516,75.566 153.096,75.566 152.796,77.041 148.198,77.041 147.684,79.434 "
   id="polygon16" />
	<path
   fill-rule="evenodd"
   clip-rule="evenodd"
   fill="#1f7cb6"
   d="m 156.909,77.49 1.941,-3.549 0.527,3.549 z m 2.978,3.418 h 1.72 l -1.421,-8.826 h -2.043 l -4.979,8.826 h 1.873 l 1.065,-1.945 h 3.496 z"
   id="path16" />
	<path
   fill-rule="evenodd"
   clip-rule="evenodd"
   fill="#1f7cb6"
   d="m 167.587,76.186 h 3.95 l -0.787,3.795 c -0.466,0.301 -1.036,0.557 -1.712,0.764 -0.676,0.209 -1.365,0.313 -2.067,0.313 -1.091,0 -1.927,-0.246 -2.509,-0.738 -0.794,-0.674 -1.191,-1.652 -1.191,-2.932 0,-0.859 0.17,-1.682 0.511,-2.469 0.41,-0.947 0.991,-1.682 1.745,-2.203 0.754,-0.521 1.64,-0.781 2.659,-0.781 1.018,0 1.835,0.236 2.451,0.709 0.615,0.475 1.023,1.164 1.225,2.07 l -1.689,0.189 c -0.147,-0.494 -0.386,-0.867 -0.716,-1.117 -0.33,-0.252 -0.745,-0.377 -1.245,-0.377 -0.584,0 -1.119,0.152 -1.607,0.457 -0.488,0.305 -0.87,0.775 -1.146,1.412 -0.276,0.637 -0.414,1.334 -0.414,2.086 0,0.742 0.168,1.291 0.504,1.646 0.337,0.354 0.829,0.531 1.478,0.531 0.389,0 0.786,-0.057 1.195,-0.164 0.408,-0.111 0.761,-0.242 1.057,-0.395 l 0.273,-1.322 h -2.263 z"
   id="path17" />
	<path
   fill-rule="evenodd"
   clip-rule="evenodd"
   fill="#1f7cb6"
   d="m 174.192,72.082 h 1.811 l -1.053,4.805 -0.253,1.176 c -0.021,0.1 -0.041,0.227 -0.061,0.385 0,0.316 0.14,0.578 0.417,0.785 0.277,0.205 0.681,0.309 1.21,0.309 0.476,0 0.869,-0.082 1.18,-0.246 0.311,-0.164 0.55,-0.408 0.722,-0.732 0.17,-0.324 0.342,-0.875 0.518,-1.65 l 1.002,-4.83 h 1.811 l -1.037,5 c -0.222,0.973 -0.476,1.717 -0.763,2.232 -0.287,0.515 -0.722,0.936 -1.304,1.258 -0.582,0.324 -1.319,0.484 -2.209,0.484 -1.065,0 -1.882,-0.25 -2.446,-0.754 -0.566,-0.502 -0.849,-1.148 -0.849,-1.938 0.005,-0.164 0.026,-0.34 0.066,-0.529 0.012,-0.129 0.08,-0.494 0.205,-1.096 z"
   id="path18" />
	<polygon
   fill-rule="evenodd"
   clip-rule="evenodd"
   fill="#1f7cb6"
   points="188.358,79.434 188.037,80.908 181.179,80.908 183.013,72.082 189.533,72.082 189.234,73.557 184.511,73.557 184.078,75.566 188.657,75.566 188.358,77.041 183.761,77.041 183.244,79.434 "
   id="polygon18" />
</g></g>
</svg>
