<?xml version="1.0" encoding="UTF-8" standalone="no"?>
<!-- Generator: Adobe Illustrator 14.0.0, SVG Export Plug-In . SVG Version: 6.00 Build 43363)  -->

<svg
   version="1.1"
   id="Layer_1"
   x="0px"
   y="0px"
   width="200"
   height="200"
   viewBox="0 0 200 200"
   enable-background="new 0 0 250 250"
   xml:space="preserve"
   sodipodi:docname="logo_ECHL.svg"
   inkscape:version="1.4.2 (f4327f4, 2025-05-13)"
   xmlns:inkscape="http://www.inkscape.org/namespaces/inkscape"
   xmlns:sodipodi="http://sodipodi.sourceforge.net/DTD/sodipodi-0.dtd"
   xmlns="http://www.w3.org/2000/svg"
   xmlns:svg="http://www.w3.org/2000/svg"><defs
   id="defs9" /><sodipodi:namedview
   id="namedview9"
   pagecolor="#ffffff"
   bordercolor="#000000"
   borderopacity="0.25"
   inkscape:showpageshadow="2"
   inkscape:pageopacity="0.0"
   inkscape:pagecheckerboard="0"
   inkscape:deskcolor="#d1d1d1"
   inkscape:zoom="3.228"
   inkscape:cx="91.85254"
   inkscape:cy="125"
   inkscape:window-width="1920"
   inkscape:window-height="1009"
   inkscape:window-x="-8"
   inkscape:window-y="-8"
   inkscape:window-maximized="1"
   inkscape:current-layer="Layer_1" />
<g
   id="g9"
   transform="matrix(0.83333399,0,0,0.83333399,-4.1660597,-4.1663321)">
	<g
   id="g1">
		<path
   fill="#ffffff"
   d="M 228.397,41.652 C 212.407,20.134 186.856,8.282 156.46,8.282 93.744,8.282 27.96,59.77 9.817,123.059 0.553,155.368 4.739,185.661 21.6,208.348 c 15.995,21.52 41.542,33.369 71.936,33.369 62.721,0 128.505,-51.486 146.648,-114.775 9.26,-32.31 5.075,-62.599 -11.787,-85.29"
   id="path1" />
	</g>
	<path
   fill="#2e3191"
   d="m 77.458,83.288 -0.38,3.132 -0.217,1.766 6.475,-5.311 0.482,-0.398 0.619,-0.102 36.136,-5.922 0.955,-0.155 0.787,0.57 5.533,4.022 0.574,-4.048 0.248,-1.73 1.706,-0.276 99.259,-15.905 C 215.346,27.084 180.947,9.317 137.947,16.294 95.071,23.252 55.001,52.971 32.195,90.671 l 42.182,-6.881 3.081,-0.502"
   id="path2" />
	<polyline
   fill="#ba8645"
   points="188.106,46.81 205.521,33.683 185.044,37 180.62,22.856 172.386,38.786 141.134,43.842    136.714,29.696 128.325,45.919 96.468,51.035 92.039,36.885 83.655,53.112 63.863,56.325 78.276,63.521 72.075,75.514    75.359,78.389 88.689,68.714 104.463,76.588 99.535,60.842 112.856,51.293 122.942,56.33 116.741,68.323 120.021,71.2    133.351,61.523 149.12,69.399 144.201,53.654 156.877,44.507 166.853,49.488 160.651,61.479 163.931,64.356 177.261,54.684    193.035,62.56 191.457,57.519 188.106,46.81  "
   id="polyline2" />
	<polyline
   fill="#ffffff"
   points="94.921,53.567 91.535,42.741 85.113,55.161 71.12,57.433 81.308,62.518 74.055,76.559    88.472,66.093 100.759,72.226 96.923,59.963 108.852,51.307 94.921,53.567  "
   id="polyline3" />
	<polyline
   fill="#ffffff"
   points="185.495,45.93 197.424,37.278 183.497,39.535 180.107,28.706 173.689,41.126 159.692,43.397    169.884,48.487 162.627,62.524 177.044,52.061 189.331,58.195 185.495,45.93  "
   id="polyline4" />
	<polyline
   fill="#ffffff"
   points="139.587,46.376 136.205,35.553 129.783,47.965 115.778,50.235 125.979,55.329 118.717,69.366    133.138,58.902 145.416,65.032 141.584,52.776 153.514,44.118 139.587,46.376  "
   id="polyline5" />
	<path
   fill="#e2373f"
   d="m 201.207,80.749 25.44,-4.126 -5.764,46.888 12.34,-2.002 c 1.225,-4.842 2.18,-9.726 2.771,-14.636 1.958,-16.075 0.234,-30.752 -4.513,-43.435 l -98.663,15.807 -0.879,6.188 -0.548,3.869 -3.139,-2.28 -7.889,-5.732 -34.563,5.666 -10.501,8.612 -4.513,3.704 0.712,-5.832 0.543,-4.464 -42.907,6.995 c -2.179,3.96 -4.164,7.993 -5.949,12.09 l 42.748,-6.939 -1.724,14.035 -26.687,4.594 -1.237,10.016 23,-3.996 -1.777,14.43 -22.996,4.005 -1.379,11.222 26.687,-4.601 -1.777,14.426 -43.924,7.125 c 1.057,5.816 2.679,11.318 4.813,16.477 l 116.474,-18.891 c -1.181,1.494 -2.135,3.023 -2.882,4.566 L 20.633,192.68 c 1.105,2.294 2.321,4.513 3.633,6.656 l 106.481,-17.272 c 0.053,1.384 0.376,2.705 0.924,3.942 L 26.697,203.035 c 1.565,2.232 3.249,4.367 5.047,6.396 L 138.128,192.15 c 0.495,0.203 1.003,0.39 1.547,0.548 6.196,1.79 14.117,-0.149 21.79,-4.464 8.676,-4.87 14.346,-12.004 15.442,-18.487 l 2.462,5.838 c 3.646,6.635 -1.225,16.415 -12.389,22.691 -11.16,6.268 -21.949,5.295 -25.604,-1.344 l -0.703,-1.038 -105.526,17.117 c 17.741,17.405 44.719,25.661 76.356,20.534 50.897,-8.265 97.854,-48.591 116.633,-96.284 l -34.576,5.608 7.647,-62.12"
   id="path5" />
	<path
   fill="#ffffff"
   d="m 135.405,184.928 c -3.076,-5.582 2.802,-15.071 12.844,-20.725 10.037,-5.635 21.122,-5.679 24.198,-0.088 3.072,5.591 -2.811,15.08 -12.848,20.72 -6.705,3.766 -14.073,5.18 -19.227,3.69 -1.625,-0.468 -3.805,-1.471 -4.967,-3.597"
   id="path6" />
	<polyline
   fill="#ffffff"
   points="71.682,110.004 66.409,152.894 78.625,161.521 107.354,156.854 121.939,146.246 124.352,126.608    99.721,130.6 98.001,144.628 91.018,145.76 94.766,115.294 101.338,114.229 100.401,121.842 125.444,117.787 127.657,99.754    119.508,94.002 84.623,99.657 71.682,110.004  "
   id="polyline6" />
	<polyline
   fill="#ffffff"
   points="136.343,91.271 128.7,153.397 153.336,149.393 156.191,126.146 162.755,125.088 159.899,148.332    186.167,144.067 193.813,81.949 167.542,86.21 164.585,110.262 157.602,111.396 160.563,87.343 136.343,91.271  "
   id="polyline7" />
	<polyline
   fill="#ffffff"
   points="71.682,110.004 66.409,152.894 78.625,161.521 107.354,156.854 121.939,146.246 124.352,126.608    99.721,130.6 98.001,144.628 91.018,145.76 94.766,115.294 101.338,114.229 100.401,121.842 125.444,117.787 127.657,99.754    119.508,94.002 84.623,99.657 71.682,110.004  "
   id="polyline8" />
	<polyline
   fill="#ffffff"
   points="136.343,91.271 128.7,153.397 153.336,149.393 156.191,126.146 162.755,125.088 159.899,148.332    186.167,144.067 193.813,81.949 167.542,86.21 164.585,110.262 157.602,111.396 160.563,87.343 136.343,91.271  "
   id="polyline9" />
</g>
</svg>
