<?xml version="1.0" encoding="UTF-8" standalone="no"?>
<!-- Created with Inkscape (http://www.inkscape.org/) -->

<svg
   width="200"
   height="200"
   viewBox="0 0 52.916665 52.916666"
   version="1.1"
   id="svg1"
   xml:space="preserve"
   inkscape:version="1.4.2 (f4327f4, 2025-05-13)"
   sodipodi:docname="logo_CA_U20.svg"
   xmlns:inkscape="http://www.inkscape.org/namespaces/inkscape"
   xmlns:sodipodi="http://sodipodi.sourceforge.net/DTD/sodipodi-0.dtd"
   xmlns="http://www.w3.org/2000/svg"
   xmlns:svg="http://www.w3.org/2000/svg"><sodipodi:namedview
     id="namedview1"
     pagecolor="#ffffff"
     bordercolor="#000000"
     borderopacity="0.25"
     inkscape:showpageshadow="2"
     inkscape:pageopacity="0.0"
     inkscape:pagecheckerboard="0"
     inkscape:deskcolor="#d1d1d1"
     inkscape:document-units="mm"
     inkscape:zoom="0.71891835"
     inkscape:cx="2.0864678"
     inkscape:cy="561.25984"
     inkscape:window-width="1920"
     inkscape:window-height="1009"
     inkscape:window-x="-8"
     inkscape:window-y="-8"
     inkscape:window-maximized="1"
     inkscape:current-layer="layer1" /><defs
     id="defs1" /><g
     inkscape:label="Ebene 1"
     inkscape:groupmode="layer"
     id="layer1"><text
       xml:space="preserve"
       style="font-size:16.9333px;text-align:start;writing-mode:lr-tb;direction:ltr;text-anchor:start;fill:none;stroke-width:0.264583"
       x="11.040892"
       y="40.851299"
       id="text1"><tspan
         sodipodi:role="line"
         id="tspan1"
         style="stroke-width:0.264583"
         x="11.040892"
         y="40.851299">U20-WM</tspan></text><g
       id="g1"
       transform="matrix(0.07789882,0,0,0.07789882,1.5346059,1.9647063)"><path
         fill="#ffffff"
         d="M 150.1,0 H 489.8 V 480 H 150 Z"
         id="path1" /><path
         fill="#d52b1e"
         d="M -19.7,0 H 150.1 V 480 H -19.7 Z M 489.8,0 H 659.6 V 480 H 489.9 Z M 201,232 l -13.3,4.4 61.4,54 c 4.7,13.7 -1.6,17.8 -5.6,25 l 66.6,-8.4 -1.6,67 13.9,-0.3 -3.1,-66.6 66.7,8 c -4.1,-8.7 -7.8,-13.3 -4,-27.2 l 61.3,-51 -10.7,-4 c -8.8,-6.8 3.8,-32.6 5.6,-48.9 0,0 -35.7,12.3 -38,5.8 l -9.2,-17.5 -32.6,35.8 c -3.5,0.9 -5,-0.5 -5.9,-3.5 l 15,-74.8 -23.8,13.4 q -3.2,1.3 -5.2,-2.2 l -23,-46 -23.6,47.8 q -2.8,2.5 -5,0.7 l -22.9,-12.7 13.7,74.1 c -1.1,3 -3.7,3.8 -6.7,2.2 l -31.2,-35.3 c -4,6.5 -6.8,17.1 -12.2,19.5 -5.4,2.4 -23.5,-4.5 -35.6,-7 4.2,14.8 17,39.6 9,47.7"
         id="path2" /></g><text
       xml:space="preserve"
       style="font-size:12.0737px;text-align:start;writing-mode:lr-tb;direction:ltr;text-anchor:start;fill:none;stroke-width:0.188652"
       x="4.091332"
       y="50.769203"
       id="text2"><tspan
         sodipodi:role="line"
         id="tspan2"
         style="font-style:normal;font-variant:normal;font-weight:normal;font-stretch:normal;font-family:Calibri;-inkscape-font-specification:Calibri;fill:#000000;stroke-width:0.188652"
         x="4.091332"
         y="50.769203">U20-WM</tspan></text></g></svg>
