<?xml version="1.0" encoding="UTF-8" standalone="no"?>
<svg
   clip-rule="evenodd"
   fill-rule="evenodd"
   stroke-linejoin="round"
   viewBox="0 0 200 200"
   version="1.1"
   id="svg19"
   sodipodi:docname="logo_KAS.svg"
   width="200"
   height="200"
   inkscape:version="1.4.2 (f4327f4, 2025-05-13)"
   xmlns:inkscape="http://www.inkscape.org/namespaces/inkscape"
   xmlns:sodipodi="http://sodipodi.sourceforge.net/DTD/sodipodi-0.dtd"
   xmlns:xlink="http://www.w3.org/1999/xlink"
   xmlns="http://www.w3.org/2000/svg"
   xmlns:svg="http://www.w3.org/2000/svg">
  <defs
     id="defs19" />
  <sodipodi:namedview
     id="namedview19"
     pagecolor="#ffffff"
     bordercolor="#000000"
     borderopacity="0.25"
     inkscape:showpageshadow="2"
     inkscape:pageopacity="0.0"
     inkscape:pagecheckerboard="0"
     inkscape:deskcolor="#d1d1d1"
     inkscape:zoom="2.0175"
     inkscape:cx="95.415118"
     inkscape:cy="200"
     inkscape:window-width="1920"
     inkscape:window-height="1009"
     inkscape:window-x="-8"
     inkscape:window-y="-8"
     inkscape:window-maximized="1"
     inkscape:current-layer="svg19" />
  <linearGradient
     id="a"
     gradientTransform="matrix(0,147.134,-147.134,0,95.9108,64.619)"
     gradientUnits="userSpaceOnUse"
     x1="0"
     x2="1"
     y1="0"
     y2="0">
    <stop
       offset="0"
       stop-color="#0f3166"
       id="stop1" />
    <stop
       offset="1"
       stop-color="#1c5cbf"
       id="stop2" />
  </linearGradient>
  <linearGradient
     id="b">
    <stop
       offset="0"
       stop-color="#ced7d3"
       id="stop3" />
    <stop
       offset=".13"
       stop-color="#f8f8f8"
       id="stop4" />
    <stop
       offset=".5"
       stop-color="#f8f8f8"
       id="stop5" />
    <stop
       offset="1"
       stop-color="#ced7d3"
       id="stop6" />
  </linearGradient>
  <linearGradient
     id="c"
     gradientTransform="matrix(2.07161,13.2192,-13.2192,2.07161,117.796,128.031)"
     gradientUnits="userSpaceOnUse"
     x1="0"
     x2="1"
     xlink:href="#b"
     y1="0"
     y2="0" />
  <linearGradient
     id="d"
     gradientTransform="matrix(-4.34256,-15.6585,15.6585,-4.34256,94.4767,166.771)"
     gradientUnits="userSpaceOnUse"
     x1="0"
     x2="1"
     xlink:href="#b"
     y1="0"
     y2="0" />
  <g
     transform="matrix(0.93702269,0,0,0.93702269,10.128911,2.5256128e-6)"
     id="g19">
    <path
       d="m 5.862,61.687 c -2.145,0.001 -4.122,1.17 -5.149,3.053 -1.027,1.884 -0.938,4.181 0.224,5.984 l 30.652,47.668 c -0.19,0.165 -0.355,0.356 -0.499,0.57 l -2.645,3.907 c -0.259,0.378 -0.427,0.809 -0.489,1.262 l -1.099,8.549 c -0.075,0.604 0.038,1.215 0.326,1.75 l 0.967,1.823 -0.55,6.085 -1.069,0.977 c -0.518,0.473 -0.851,1.115 -0.936,1.812 L 24.822,151.62 23,157.034 c -0.439,1.298 0.082,2.727 1.252,3.44 l -7.246,22.572 c -0.88,2.744 -0.695,5.668 1.038,7.755 1.733,2.086 4.621,2.8 7.46,2.351 l 49.163,-7.786 16.323,25.389 c 1.08,1.674 2.936,2.687 4.926,2.687 1.991,0 3.847,-1.013 4.925,-2.687 l 22.705,-35.302 44.727,-9.82 c 0.028,-0.007 0.055,-0.014 0.082,-0.022 1.429,-0.359 3.288,-1.378 4.091,-3.144 0.804,-1.765 0.723,-3.52 0.428,-5.77 -0.412,-3.147 -1.593,-5.671 -3.308,-7.541 0.228,-0.63 0.347,-1.257 0.336,-1.761 -0.016,-0.74 -0.134,-1.373 -0.285,-2.106 l -2.564,-12.456 c -0.284,-1.382 -1.511,-2.365 -2.921,-2.341 l -1.313,0.021 c 0.075,-0.355 0.081,-0.721 0.022,-1.079 l -1.1,-6.513 c -0.233,-1.38 -1.408,-2.403 -2.808,-2.442 h -0.043 l 31.996,-49.754 c 1.161,-1.803 1.251,-4.101 0.224,-5.984 -1.026,-1.883 -3.005,-3.052 -5.15,-3.053 H 5.862 Z"
       fill="#ffffff"
       fill-rule="nonzero"
       id="path6" />
    <path
       d="M 5.862,67.549 H 185.959 L 95.915,207.58 Z"
       fill="none"
       stroke="#000000"
       stroke-width="5.86"
       id="path7" />
    <g
       fill-rule="nonzero"
       id="g18">
      <path
         d="M 5.862,67.549 H 185.959 L 95.915,207.58 Z"
         fill="url(#a)"
         id="path8"
         style="fill:url(#a)" />
      <g
         transform="matrix(0.325654,0,0,0.325654,-0.355636,3.49166)"
         id="g12">
        <path
           d="M 355.875,-4.625 C 342.372,17.59 331.18,41.117 319.125,64.156 290.021,66.124 260.682,68.842 231.721,70.344 217.643,58.865 208.176,43.145 196.136,29.89 187.447,22.478 178.747,15.075 170.065,7.656 153.069,16.37 144.85,34.63 139.063,51.782 c -7.001,19.445 -13.85,39.35 -16.623,59.812 2.198,21.23 7.335,43.084 0.821,64.044 -4.58,15.081 -6.745,30.602 -8.152,46.26 -1.053,12.885 -4.762,25.887 -1.133,38.653 3.52,19.001 7.586,38.018 12.45,56.683 5.061,11.375 8.368,23.798 14.508,34.526 7.198,8.424 14.396,16.85 21.6,25.271 H 411.38 c 6.077,-4.034 14.936,-5.48 16.742,-13.553 6.23,-14.485 14.583,-28.18 19.568,-43.137 3.747,-16.54 0.477,-33.709 -0.183,-50.434 -1.592,-14.625 -2.495,-29.578 -5.865,-43.83 -4.047,-10.068 -9,-19.971 -12.483,-30.143 0.678,-13.368 -0.949,-26.952 -5.293,-39.531 -0.601,-21.791 0.164,-43.731 -1.294,-65.428 C 418.278,69.98 414.908,48.278 403.916,29.519 399.492,19 390.062,11.796 382.474,3.559 c -6.44,-6.48 -14.439,-11.047 -22.97,-14.281 -1.21,2.034 -2.418,4.066 -3.629,6.097 z"
           fill="#ffffff"
           id="path9" />
        <path
           d="m 312.633,105.612 -0.493,18.379 39.971,15.168 35.889,31.012 c 8.24,16.239 10.373,38.791 21.873,49.333 -2.356,-21.593 -8.019,-42.012 -14.238,-62.337 -22.213,-11.926 -45.418,-22.717 -66.076,-36.42 16.682,3.213 34.477,11.06 51.437,16.218 l -39.324,-30.333 z m -61.875,-22.379 66.432,2.888 10.108,8.533 -39.124,5.514 9.717,7.614 2.757,19.955 -10.108,0.131 c -3.56,-9.175 -6.951,-18.256 -11.554,-26.65 -9.531,4.416 -16.938,11.772 -24.287,17.854 l -8.796,22.843 -38.531,27.373 -13.457,5.054 25.731,-33.871 c -22.276,16.386 -43.965,32.082 -61.44,52.907 l -11.421,36.103 0.656,19.036 -6.302,-16.673 6.433,-33.74 16.542,-28.816 20.611,-15.688 12.209,-19.692 c 12.229,-0.587 23.806,-0.351 34.003,-5.514 l -10.372,-9.978 50.807,-29.145 z m -0.794,189.164 c 4.537,-2.89 11.196,-6.34 13.351,-12.085 l 7.685,-20.515 32.699,41.294 -16.438,-14.658 -13.424,-2.577 -2.183,10.397 -22.968,12.34 -5.354,8.508 -4.094,0.874 z m 74.181,10.386 23.631,2.757 3.413,6.17 4.464,-3.807 -3.149,-7.089 c -5.286,-3.088 -9.899,-5.046 -16.806,-6.433 l -3.676,5.908 -7.877,1.182 z"
           fill="#a7aeab"
           id="path10" />
        <path
           d="m 251.283,203.488 c -1.78,5.127 1.492,11.674 7.482,13.785 3.854,1.358 7.514,-0.914 9.453,-3.676 1.629,-2.321 0.783,-7.934 -1.576,-9.583 0,0 -0.577,1.653 -0.82,2.363 -0.665,1.947 -2.313,4.285 -3.84,4.857 -3.179,1.191 -6.354,-0.855 -5.398,-3.216 0.873,-2.157 2.479,-4.398 2.479,-4.398 z m 108.702,-3.282 c 0,4.348 -3.529,7.877 -7.877,7.877 -4.349,0 -8.271,-4.185 -8.271,-8.533 1.573,-2.642 8.1,-3.716 10.634,-6.039 2.904,0.656 5.514,2.347 5.514,6.695 z m -5.383,-0.755 c 0,1.268 -1.26,2.363 -3.216,2.363 -1.694,0 -2.691,-0.931 -2.691,-2.199 0,-0.907 1.267,-1.723 2.726,-1.938 1.39,-0.202 3.05,0.079 3.181,1.774 z"
           fill="#07b2ea"
           id="path11" />
        <path
           d="M 362.75,-0.516 C 347.908,23.99 337.153,47.291 324.156,71.797 L 229.5,78.766 C 214.725,67.375 203.901,52.034 192.471,37.297 L 169.375,17.578 c -8.139,5.252 -14.541,15.938 -17.219,22.594 -9.814,24.396 -17.077,45.977 -21.781,70.5 l 4.346,36.5 -1.063,19.813 -7.75,31 -5.781,50.125 c 2.867,21.736 8.581,42.918 13,64.344 l 13.25,33.344 19.846,23.25 h 243.125 l 9.844,-5.405 18.531,-39.125 c 3.025,-6.396 3.849,-13.213 3.655,-20.47 -0.676,-25.557 -2.86,-48.35 -6.688,-73.906 l -13.656,-32.031 c 0.791,-12.997 -0.317,-28.491 -5.125,-39 l -0.78,-64.594 -5.655,-27.688 -5.25,-18.531 -10.375,-21.125 C 384.272,17.16 374.094,4.042 362.75,-0.516 Z m 1.219,29.875 c 10.759,0.158 21.904,5.788 30.813,18.563 l 14.063,63.375 0.155,19.625 -12.904,12.625 -16.781,-10.719 9.625,-12.625 -7.406,-23.219 2.466,-9.812 -10,-14.594 -1.219,-15.406 -8.563,8.5 2.719,40.938 -7.813,0.063 C 350.054,97.654 340.74,89.432 333.499,78.392 Z m -188.313,3.719 12.094,12.469 20.875,29.281 11.938,23.75 -22.063,17.875 -13.906,-45.813 -9.188,-3.938 0.125,12.063 3.281,14.188 1.063,24.531 -11.688,7.5 9.313,9.188 -29.938,28.5 v -58.438 c 0,-12.041 3.232,-36.804 7.875,-45.688 4.429,-8.478 10.736,-17.79 20.219,-25.468 z m 75.094,50.125 66.438,2.938 10.094,8.5 -39.094,5.5 9.688,7.625 2.779,20 -10.125,0.125 c -3.559,-9.175 -6.96,-18.293 -11.563,-26.688 -9.53,4.415 -16.93,11.792 -24.28,17.875 l -8.781,22.906 -37.969,24.688 -7.72,23.844 -17.938,5.313 14.219,27.375 -16.531,2.875 -5,-18.313 -14.313,-11.5 -2.031,67.938 -7.438,0.188 c -1.114,-6.508 -3.781,-15.688 -3.781,-15.688 l -6.281,-16.875 6.438,-33.75 16.563,-28.813 20.594,-15.688 12.221,-19.688 c 12.229,-0.587 23.804,-0.337 34,-5.5 l -10.375,-10 50.813,-29.125 z m 61.875,22.406 29.031,1.031 39.344,30.313 c -16.959,-5.158 -34.755,-13.006 -51.438,-16.219 20.658,13.703 43.85,24.512 66.063,36.438 6.224,20.325 11.895,40.751 14.25,62.344 C 398.378,208.974 396.24,186.41 388,170.172 l -35.904,-31 -39.971,-15.188 z m 2.312,36.063 32.063,9.812 -1.438,9.844 31.75,12.125 c 1.292,13.19 -0.391,28.703 5.063,38 5.397,9.201 4.832,17.385 -0.904,20.844 l -13.688,8.25 0.75,9.969 c 6.823,6.808 13.485,17.825 13.72,30.969 l -3.845,5.656 c -4.97,8.856 -9.957,17.285 -13.655,27.281 l -4.563,5.563 -14.938,4.25 0.594,-7.25 6.719,-11.688 1.406,-6.219 6.594,-11.781 c -0.935,-5.947 -5.854,-9.216 -10.719,-12.125 -5.298,-3.168 -11.719,-5.593 -18.438,-5.719 -4.452,4.652 -7.9,11.236 -15.719,13.156 l 1.5,10.281 c 1.27,8.785 4.331,13.29 9.281,13.844 4.299,0.481 6.875,2.704 8.438,5.344 1.195,4.816 0.809,10.131 -0.094,14.781 l -11.031,4.406 -8,-0.25 -23.688,-5.625 c -11.193,-4.563 -21.063,-11.135 -30.813,-17.75 l -20.594,8.75 c 4.771,4.92 11.04,8.768 13.625,15.25 -7.434,-2.414 -12.87,-6.494 -17.719,-11.156 -9.483,-9.118 -2.347,-19.077 2.875,-24.438 3.671,-8.081 8.364,-15.792 11,-24.219 l -9.781,-14.531 -1.5,-3.281 -16.688,0.75 -19.813,-15.375 4.125,-20.75 -11.438,-9.563 c 8.312,-11.83 16.443,-23.72 27.469,-34.531 l 9.531,-1.344 6.063,-17.219 12.625,-10.781 18.844,-0.844 15.563,36.125 3.28,13.344 -4.375,14.094 -8.405,0.719 -4.845,-8.469 c 0,0 -8.646,2.141 -12.438,1.969 -5.54,-0.251 -12.975,-1.974 -17.846,-4.625 -4.521,-2.461 -16.157,-8.886 -25.779,-7.25 10.654,4.097 17.922,9.78 16,17.688 -1.854,7.621 4.646,10.224 8.563,11.406 7.535,2.276 15.165,3.727 23.125,4.438 4.912,0.438 -2.064,7.922 -1.779,11.875 l 11.375,-15.781 22.563,-0.406 c 7.729,6.534 11.719,15.785 18.563,21.906 -2.551,-11.411 -7.617,-21.567 -13,-31.563 l -4.595,-21.063 -5.845,-43.438 8.938,0.094 c 3.88,8.697 6.839,18.179 8.5,27.656 l 10.563,22.625 -0.719,18 19.531,25.094 -5.438,-30.781 c 8.356,2.412 15.188,7.617 17.781,17.844 -0.059,-6.905 1.748,-11.618 8.844,-16.781 0,0 6.82,-3.987 8.97,-6.531 4.196,-4.968 4.822,-17.048 5,-22.938 -6.229,4.743 -12.609,10.028 -18.813,13.875 -5.468,3.392 -16.42,3.402 -19.844,-0.719 -0.868,3.033 -1.713,5.166 -3.281,7.5 L 315.688,179.39 Z m 50.469,47.219 c 0.102,3.447 -1.521,6.966 -3.531,10 -3.732,5.646 -8.409,10.376 -14.654,13.5 -1.217,-3.902 -3.067,-7.744 -5.563,-10.906 2.356,-1.151 4.686,-3.91 7.063,-1.313 0.43,0.469 1.117,-1.092 1.625,-1.344 0.954,-0.473 3.25,-0.632 3.594,0.375 0.449,1.313 -2.313,1.976 -1.75,2.719 0.763,1.005 3.51,-1.114 3.469,-2.375 -0.048,-1.49 -1.253,-3.209 -0.779,-4.469 z m -125.281,13.125 c 5.271,-0.204 11.28,1.048 16.813,2.469 0,0 -0.693,2.016 -1.063,3.281 -0.229,0.786 -0.285,1.511 0,2.188 0.285,0.677 0.823,1.229 1.471,1.625 1.292,0.793 3.015,0.893 4.813,0.219 0.995,-0.373 2,-1.165 2.656,-2.188 0.412,-0.641 1.031,-1.321 1.813,-2.063 1.339,0.373 2.294,0.989 2.938,1.438 2.563,1.785 3.406,4.708 1.094,8.188 -2.348,3.533 -6.118,3.205 -12.813,0.375 -5.965,-2.522 -14.908,-5.119 -17.722,-15.532 z M 261,206.703 c 0.924,0.043 2.981,0.705 2.625,2.188 -0.245,1.018 -1.374,1.426 -1.904,1.625 -1.382,0.518 -2.741,0.335 -3.596,-0.188 -0.426,-0.262 -0.703,-0.604 -0.844,-0.938 -0.141,-0.334 -0.182,-0.646 0,-1.063 0.64,-1.462 2.383,-1.686 3.719,-1.624 z m 152.406,36.156 c 0.728,2.295 2.994,18.109 2.594,30.375 -8.918,12.183 -18.069,23.662 -29.719,34.375 l -11.813,2.313 c 3.233,-8.511 7.827,-16.544 12.656,-23.719 l 19.344,-9.906 c 2.628,-10.901 5.667,-30.939 6.938,-33.438 z m -233.25,10.032 c 2.849,5.972 5.483,12.298 9.469,17.469 l 25.531,16.719 7.406,39.813 5.313,2.688 10.563,12.719 -30.625,6.688 -26.531,-28.5 -3.813,-37.217 -10.313,-1.406 -0.469,-13.563 z m 155.531,21.5 c 6.905,1.386 11.526,3.349 16.813,6.438 l 3.156,7.063 -4.469,3.813 -3.406,-6.156 -23.625,-2.75 v -1.313 l 7.875,-1.188 z m 83.032,35.5 16.688,12 -16.094,9.719 -14.313,28.374 -16.719,5.219 -44.156,-1.469 -1.844,-5.156 26.031,-28.469 36.469,-8 0.375,-10.563 z m -128.063,21.187 17.813,7.438 16.563,-1.094 8.938,-2.594 -15.97,10.344 -13.25,0.125 -49.188,-13.219 18.063,2.438 z"
           id="path12" />
      </g>
      <path
         d="m 158.848,123.41 1.1,6.513 h -0.815 l 0.53,3.582 4.518,-0.082 2.565,12.456 c 0.546,2.651 0.197,2.928 -2.076,3.257 3.063,1.454 4.709,3.483 5.291,7.938 0.534,4.072 -0.241,5.176 -2.32,5.699 l -61.548,13.514 c -1.277,0.28 -2.728,0 -2.728,0 0,0 -1.185,0.959 -3.419,1.344 l -3.786,0.651 c -1.166,0.201 -2.153,-0.367 -2.849,-1.384 -0.705,1.807 -3.164,3.044 -6.31,3.541 l -61.956,9.811 c -4.3,0.681 -6.601,-2.103 -5.251,-6.31 l 8.019,-24.994 c 0.179,-0.555 -0.692,-1.112 -2.035,-0.976 l 1.913,-5.699 0.814,-6.799 1.914,-1.75 0.732,-8.06 -1.384,-2.605 1.099,-8.548 2.646,-3.908 104.82,2.28 2.076,2.238 -0.082,-2.198 z"
         stroke="#000000"
         stroke-width="0.33"
         id="path13" />
      <path
         d="m 76.458,122.381 -0.07,4.648 1.805,0.015 -0.161,14.16 -1.857,0.081 -0.076,5.097 8.856,-0.546 -0.01,-4.789 -1.41,0.061 0.002,-2.244 3.516,-3.85 2.713,5.822 -1.873,0.082 0.037,4.736 8.469,-0.523 -0.115,-4.715 -1.998,0.087 -4.171,-9.22 3.633,-4.108 1.883,0.017 -0.102,-4.328 -7.929,-0.199 0.031,4.027 1.513,0.016 -5.741,6.511 0.007,-6.569 1.428,0.015 -0.008,-4.069 -8.372,-0.21 m 25.538,0.644 0.14,3.808 1.81,0.02 -3.602,13.388 -1.602,0.069 0.136,4.669 7.327,-0.451 -0.185,-4.254 -1.647,0.075 0.855,-3.137 5.006,-0.159 1.016,2.991 -1.611,0.072 0.211,4.188 6.974,-0.429 -0.277,-4.332 -1.571,0.068 -4.198,-12.687 1.779,0.019 -0.21,-3.653 -10.351,-0.261 m 18.137,0.457 -2.552,3.072 0.371,5.478 2.314,2.547 5.526,-0.125 0.387,4.669 -3.595,0.156 -0.145,-1.912 -3.937,0.138 0.196,2.879 2.968,3.19 5.988,-0.37 2.485,-3.479 -0.589,-6.504 -2.044,-2.281 -5.552,0.04 -0.271,-3.572 3.623,0.032 0.107,1.285 3.532,0.01 -0.201,-2.223 -2.541,-2.876 -6.07,-0.151 m 12.718,0.32 -2.191,2.907 0.487,5.173 2.135,2.404 4.93,-0.112 0.474,4.409 -3.195,0.138 -0.182,-1.802 -3.52,0.123 0.256,2.712 2.734,3.011 5.335,-0.329 2.129,-3.276 -0.703,-6.148 -1.893,-2.159 -4.949,0.036 -0.342,-3.374 3.238,0.028 0.131,1.215 3.149,0.009 -0.239,-2.105 -2.355,-2.721 -5.429,-0.137 m 9.227,0.233 0.416,3.548 1.011,0.008 1.283,10.727 -1.027,0.046 0.45,3.819 10.028,-0.618 -0.683,-4.971 -2.675,0.098 0.179,1.356 -2.923,0.127 -0.473,-3.744 3.369,-0.084 -0.444,-3.351 -3.354,0.028 -0.43,-3.404 2.882,0.025 0.144,1.089 2.648,0.008 -0.612,-4.457 -9.789,-0.248 m 11.236,0.284 0.47,3.359 0.905,0.007 1.44,10.144 -0.917,0.04 0.506,3.605 8.674,-0.535 -0.988,-6.283 -2.405,0.067 0.439,2.876 -2.353,0.102 -1.477,-9.993 1.011,0.009 -0.492,-3.278 -4.813,-0.118 m -45.887,3.618 1.916,6.009 -3.512,0.067 z"
         fill="url(#c)"
         id="path14"
         style="fill:url(#c)" />
      <path
         d="m 54.358,149.048 0.522,-8.929 -7.345,0.441 -0.126,1.699 -3.708,0.248 0.246,-3.042 6.676,-0.367 0.467,-6.919 -6.568,0.176 0.259,-3.199 3.594,-0.051 -0.141,1.919 7.187,-0.157 0.505,-8.633 -21.274,-0.296 -0.763,7.371 2.103,-0.03 -1.371,13.834 -2.175,0.145 -0.827,7.988 22.739,-2.199 m 18.937,-16.659 0.123,-5.736 -3.983,-4.232 -8.232,-0.114 -4.612,4.539 -0.983,17.377 4.355,4.282 8.997,-0.87 4.116,-4.948 0.115,-5.396 -6.486,0.339 -0.116,3.346 -3.174,0.213 0.501,-12.214 3.09,-0.046 -0.127,3.653 z"
         fill="#e6e6e6"
         id="path15" />
      <path
         d="m 36.667,123.877 -0.336,3.44 2.046,-0.011 -1.649,17.667 -2.137,0.163 -0.367,3.765 18.278,-1.588 0.325,-5.2 -3.419,0.244 -0.113,1.659 -7.947,0.611 0.59,-6.982 6.87,-0.315 0.234,-3.196 -6.808,0.255 0.6,-7.103 7.612,-0.042 -0.131,1.873 3.347,-0.041 0.326,-5.119 -17.321,-0.083 z m 25.228,0.122 -3.552,3.603 -0.804,15.549 3.4,3.43 0.224,-0.021 7.133,-0.621 3.216,-3.735 0.082,-3.166 -3.308,0.204 -0.061,2.167 -1.068,1.232 -4.397,0.335 -1.139,-1.048 0.61,-13.454 1.262,-1.283 4.05,-0.029 1.069,1.201 -0.072,2.524 3.267,-0.072 0.081,-3.307 -3.205,-3.481 -6.788,-0.031 z"
         fill="#ea0006"
         id="path16" />
      <path
         d="m 165.769,143.136 -0.357,0.031 -5.2,0.469 c -1.493,0.115 -2.516,0.726 -3.012,1.689 -0.498,0.964 -0.487,2.187 -0.224,3.552 0.745,3.874 1.965,5.429 3.256,5.973 l 2.84,1.202 c 0.284,0.119 0.334,0.202 0.417,0.427 0.067,0.184 0.031,0.188 0,0.224 -0.032,0.037 -0.129,0.079 -0.154,0.082 l -2.483,0.377 c -0.203,0.032 -0.359,0.017 -0.437,-0.022 -0.08,-0.037 -0.131,-0.071 -0.173,-0.285 l -0.072,-0.376 -0.387,0.051 -0.886,0.133 -0.01,-0.042 -0.438,0.062 -1.099,0.163 -0.469,0.072 0.082,0.457 c 0.046,0.242 0.027,0.317 0.032,0.317 -0.01,0.004 -0.047,0.024 -0.153,0.041 0,0 -2.408,0.362 -3.094,0.468 -0.093,-0.55 -0.3,-1.737 -0.397,-2.31 0.667,-0.09 2.534,-0.346 2.534,-0.346 0.39,-0.053 0.714,-0.356 0.845,-0.692 0.13,-0.336 0.146,-0.714 0.132,-1.14 -0.029,-0.851 -0.233,-1.923 -0.448,-3.084 l -0.072,-0.417 -0.428,0.052 c 0,0 -2.771,0.311 -3.45,0.387 -0.054,-0.319 -0.095,-0.533 -0.152,-0.876 0.709,-0.072 2.941,-0.295 2.941,-0.295 0.205,-0.021 0.412,-0.129 0.549,-0.275 0.138,-0.144 0.214,-0.313 0.265,-0.488 0.102,-0.351 0.118,-0.745 0.092,-1.201 -0.053,-0.914 -0.278,-2.069 -0.498,-3.257 l -0.073,-0.397 -0.407,0.032 -11.601,0.895 -0.479,0.031 0.062,0.479 0.213,1.526 0.061,0.428 0.428,-0.041 c 0.242,-0.022 0.407,0.021 0.498,0.082 0.092,0.061 0.172,0.156 0.214,0.448 l 2.31,16.252 c 0.075,0.522 0.367,0.992 0.824,1.282 0.457,0.291 1.058,0.399 1.73,0.276 l 8.966,-1.649 c 0.698,-0.128 1.223,-0.728 1.374,-1.547 0.213,0.278 0.488,0.479 0.794,0.59 0.597,0.218 1.252,0.16 1.893,0.062 h 0.01 l 3.43,-0.631 c 1.754,-0.32 2.946,-0.882 3.49,-2.015 0.545,-1.133 0.414,-2.66 -0.102,-4.865 -0.529,-2.269 -1.673,-4.364 -3.378,-5.272 l -2.28,-1.211 c -0.271,-0.144 -0.32,-0.236 -0.356,-0.336 0.064,-0.031 0.19,-0.081 0.397,-0.102 l 1.964,-0.203 c 0.189,-0.021 0.379,-0.109 0.509,-0.244 0.129,-0.136 0.2,-0.293 0.244,-0.458 0.089,-0.331 0.083,-0.702 0.041,-1.13 -0.084,-0.855 -0.343,-1.938 -0.6,-3.053 l -0.068,-0.348 z m -25.259,1.873 c -0.083,0 -0.161,0.004 -0.244,0.01 l -5.699,0.428 -0.489,0.041 0.051,0.479 0.163,1.597 0.041,0.458 0.469,-0.031 c 0.169,-0.015 0.291,0.007 0.366,0.061 0.077,0.056 0.17,0.156 0.204,0.488 l 1.78,17.138 c 0.084,0.785 0.499,1.36 1.059,1.578 0.561,0.218 1.172,0.151 1.771,0.041 l 6.086,-1.119 0.447,-0.082 -0.061,-0.448 -0.203,-1.516 -0.072,-0.489 -0.479,0.092 c -0.192,0.035 -0.351,0.013 -0.428,-0.031 -0.078,-0.043 -0.153,-0.102 -0.193,-0.407 l -2.107,-16.008 c -0.101,-0.762 -0.426,-1.374 -0.916,-1.771 -0.428,-0.346 -0.971,-0.508 -1.546,-0.509 z m -8.915,0.682 c -0.154,-0.005 -0.31,-0.002 -0.468,0.01 l -6.076,0.458 -0.478,0.031 0.031,0.488 0.102,1.669 0.031,0.499 0.439,-0.031 c -0.002,-0.005 -0.013,-0.007 -0.032,0.021 l -0.652,0.957 c -0.037,-0.697 -0.082,-1.394 -0.082,-1.394 -0.045,-0.822 -0.441,-1.432 -0.986,-1.72 -0.544,-0.289 -1.162,-0.306 -1.72,-0.265 l -7.602,0.579 -0.458,0.032 0.011,0.457 0.031,1.771 v 0.519 l 0.529,-0.041 c 0.247,-0.021 0.417,0.024 0.499,0.082 0.084,0.059 0.166,0.149 0.172,0.519 l 0.357,18.41 c 0.033,1.636 1.432,2.708 2.911,2.574 h 0.021 l 0.022,-0.01 7.978,-1.455 0.428,-0.082 -0.032,-0.428 -0.092,-1.699 -0.031,-0.55 -0.539,0.091 c -0.156,0.028 -0.265,0.005 -0.326,-0.041 -0.061,-0.045 -0.144,-0.137 -0.163,-0.468 0,0 -0.224,-3.956 -0.275,-4.895 0.835,1.274 3.654,5.587 3.654,5.587 l 0.01,0.01 0.011,0.01 c 0.432,0.591 0.833,1.011 1.282,1.262 0.45,0.251 0.941,0.3 1.415,0.214 l 3.735,-0.682 c 0.4,-0.075 0.86,-0.241 1.19,-0.641 0.332,-0.401 0.482,-0.987 0.407,-1.741 l -0.437,-4.458 -0.052,-0.509 -0.509,0.073 -0.855,0.131 c -0.074,0.012 -0.119,0.01 -0.223,-0.062 -0.103,-0.071 -0.246,-0.224 -0.408,-0.468 0,0 -3.904,-5.991 -4.243,-6.513 0.327,-0.479 3.389,-4.987 3.389,-4.987 0.35,-0.513 0.296,-1.078 0.264,-1.415 -0.065,-0.699 -0.403,-1.26 -0.905,-1.567 -0.377,-0.225 -0.812,-0.318 -1.273,-0.331 z m -19.091,1.353 -0.591,0.052 -9.769,0.742 c -2.57,0.195 -4.224,0.991 -5.201,2.289 -0.977,1.3 -1.243,2.99 -1.353,4.865 -0.304,5.179 1.826,7.673 3.46,8.274 l 3.582,1.312 c 0.411,0.151 0.807,0.293 1.059,0.427 0.251,0.134 0.283,0.215 0.284,0.224 0.038,0.267 0.019,0.27 -0.112,0.367 -0.129,0.096 -0.454,0.206 -0.905,0.275 l -3.959,0.611 c -0.427,0.065 -0.756,0.046 -0.845,0.01 -0.045,-0.019 -0.033,-0.015 -0.041,-0.032 -0.009,-0.017 -0.039,-0.086 -0.032,-0.244 l 0.041,-0.672 -0.672,0.102 -2.066,0.306 -0.448,0.061 -0.021,0.448 -0.316,5.272 c -0.047,0.778 0.09,1.428 0.407,1.943 0.318,0.516 0.818,0.858 1.374,1.039 1.114,0.361 2.479,0.21 3.959,-0.062 l 6.319,-1.16 c 3.115,-0.569 5.014,-1.377 6.086,-2.94 1.072,-1.564 1.223,-3.687 1.191,-6.727 -0.017,-1.544 -0.207,-2.924 -0.672,-4.071 -0.466,-1.147 -1.226,-2.064 -2.31,-2.574 l -3.318,-1.568 c -0.54,-0.254 -0.998,-0.48 -1.312,-0.671 -0.285,-0.174 -0.376,-0.299 -0.387,-0.295 0.074,-0.035 0.211,-0.086 0.376,-0.102 l 4.112,-0.418 c 0.609,-0.056 1.144,-0.281 1.526,-0.671 0.383,-0.39 0.586,-0.928 0.58,-1.507 l -0.021,-4.305 -0.008,-0.599 z m -21.097,1.578 c -0.109,0.003 -0.215,0.012 -0.325,0.021 l -9.475,0.723 -0.478,0.041 -0.061,0.478 c 0,0 -0.043,0.345 -0.072,0.58 -0.137,-0.166 -0.288,-0.309 -0.468,-0.417 -0.653,-0.391 -1.469,-0.488 -2.269,-0.428 l -11.276,0.855 -0.458,0.042 -0.081,0.447 -0.387,2.168 -0.133,0.753 0.764,-0.062 c 0.327,-0.028 0.663,0.052 0.834,0.163 0.171,0.111 0.233,0.15 0.184,0.438 l -2.809,16.435 c -0.435,2.545 -0.19,4.432 0.611,5.801 0.8,1.369 2.133,2.145 3.633,2.524 3,0.756 6.785,0.102 9.729,-0.244 h 0.02 l 0.02,-0.011 c 4.183,-0.781 7.694,-1.473 10.309,-3.165 2.616,-1.692 4.228,-4.428 4.529,-8.884 l 1.079,-15.916 c 0.06,-0.872 -0.542,-1.576 -1.262,-1.924 -0.63,-0.305 -1.389,-0.435 -2.158,-0.417 z m -29.461,2.208 c -0.106,0.003 -0.21,0.013 -0.316,0.021 l -13.016,0.987 -0.448,0.041 -0.102,0.427 c 0,0 -0.124,0.48 -0.235,0.916 -0.139,-0.262 -0.306,-0.501 -0.539,-0.66 -0.673,-0.465 -1.526,-0.507 -2.422,-0.439 l -15.112,1.15 -0.417,0.031 -0.122,0.398 -0.824,2.504 -0.285,0.885 0.926,-0.072 c 0.445,-0.038 0.932,0.033 1.15,0.153 0.109,0.061 0.142,0.111 0.163,0.163 0.022,0.052 0.05,0.148 -0.01,0.357 l -8.651,27.252 c -0.358,1.13 -0.109,2.227 0.621,2.891 0.73,0.663 1.827,0.872 3.032,0.651 l 16.996,-3.115 0.386,-0.072 0.102,-0.397 c 0,0 0.207,-0.834 0.387,-1.567 0.135,0.202 0.305,0.39 0.499,0.549 0.776,0.632 1.927,0.856 3.297,0.621 l 14.237,-2.605 0.428,-0.082 0.071,-0.428 0.417,-2.31 0.153,-0.855 -0.855,0.132 c -0.469,0.074 -0.593,-0.007 -0.692,-0.102 -0.098,-0.096 -0.196,-0.312 -0.244,-0.6 10e-4,0.003 0.021,-0.143 0.061,-0.417 l 4.488,-23.701 c 0.195,-0.99 -0.292,-1.857 -1.007,-2.259 -0.626,-0.352 -1.374,-0.469 -2.117,-0.448 z m 19.509,1.75 c 0.323,-0.028 0.482,0.048 0.56,0.122 0.075,0.076 0.133,0.194 0.102,0.469 l -1.751,15.417 c -0.066,0.584 -0.291,0.754 -0.753,0.825 -0.07,0.01 -0.16,-0.013 -0.194,-0.042 -0.033,-0.029 -0.093,-0.061 -0.061,-0.325 0,0 1.895,-15.553 2.004,-16.456 l 0.093,-0.011 z m -33.329,2.829 c 0.446,-0.038 0.728,0.062 0.824,0.143 0.097,0.081 0.156,0.142 0.072,0.488 0,0 -1.328,5.396 -1.506,6.127 -0.38,0.043 -0.795,0.084 -1.415,0.152 0.332,-1.302 1.576,-6.207 1.75,-6.889 l 0.275,-0.022 z m -2.676,15.235 c -0.369,1.506 -2.585,10.543 -2.585,10.543 -0.035,0.146 -0.038,0.292 -0.051,0.438 l -0.102,0.022 c -0.481,0.094 -0.998,0.065 -1.241,-0.041 -0.122,-0.054 -0.164,-0.106 -0.184,-0.143 -0.019,-0.037 -0.037,-0.098 0.01,-0.285 0,0 2.43,-9.55 2.626,-10.319 0.377,-0.052 0.865,-0.125 1.527,-0.215 z"
         fill="#ea0006"
         id="path17" />
      <path
         d="m 61.722,152.082 c 0.68,-0.052 1.355,0.064 1.73,0.275 0.375,0.21 0.521,0.373 0.407,0.946 l -4.498,23.732 v 0.01 l -0.01,0.011 c -0.03,0.201 -0.113,0.44 -0.05,0.804 0.069,0.409 0.205,0.899 0.6,1.282 0.232,0.225 0.561,0.353 0.926,0.417 -0.089,0.5 -0.149,0.831 -0.213,1.19 -0.767,0.142 -13.831,2.545 -13.831,2.545 -1.123,0.192 -1.882,-0.028 -2.3,-0.367 -0.417,-0.339 -0.575,-0.801 -0.417,-1.445 l 2.799,-11.428 0.213,-0.886 -0.895,0.122 -2.84,0.387 -0.407,0.061 -0.102,0.397 -2.737,10.737 c -0.102,0.404 -0.084,0.821 0.092,1.16 0.175,0.34 0.474,0.567 0.783,0.702 0.334,0.145 0.696,0.196 1.058,0.203 -0.14,0.57 -0.233,0.948 -0.315,1.283 -0.757,0.139 -16.599,3.052 -16.599,3.052 -0.932,0.171 -1.622,-0.028 -1.985,-0.356 -0.361,-0.329 -0.516,-0.804 -0.264,-1.597 l 8.65,-27.274 v -0.01 l 0.01,-0.011 c 0.118,-0.407 0.116,-0.82 -0.03,-1.17 -0.146,-0.351 -0.422,-0.602 -0.713,-0.764 -0.303,-0.169 -0.628,-0.253 -0.957,-0.295 0.186,-0.568 0.313,-0.961 0.428,-1.312 0.771,-0.06 14.705,-1.12 14.705,-1.12 0.767,-0.059 1.379,0.053 1.628,0.224 0.125,0.087 0.182,0.158 0.224,0.316 0.043,0.157 0.048,0.412 -0.05,0.794 l -2.087,8.183 -0.213,0.865 0.885,-0.102 2.738,-0.306 0.427,-0.041 0.112,-0.417 1.598,-6.543 c 0.159,-0.655 -0.014,-1.342 -0.479,-1.731 -0.254,-0.212 -0.56,-0.326 -0.886,-0.387 0.128,-0.501 0.205,-0.812 0.295,-1.17 0.836,-0.064 12.57,-0.967 12.57,-0.967 z m 29.451,-2.27 c 0.707,-0.054 1.423,0.062 1.883,0.285 0.46,0.223 0.623,0.438 0.6,0.784 l -1.078,15.916 c -0.284,4.218 -1.668,6.47 -3.999,7.979 -2.332,1.508 -5.711,2.223 -9.882,3.002 -2.98,0.352 -6.678,0.919 -9.271,0.264 -1.302,-0.329 -2.296,-0.922 -2.911,-1.974 -0.615,-1.052 -0.875,-2.639 -0.468,-5.017 l 2.808,-16.425 c 0.117,-0.68 -0.216,-1.321 -0.692,-1.629 -0.259,-0.168 -0.542,-0.255 -0.834,-0.305 0.08,-0.452 0.13,-0.726 0.194,-1.079 0.842,-0.064 10.828,-0.824 10.828,-0.824 0.631,-0.049 1.238,0.057 1.567,0.254 0.33,0.197 0.456,0.352 0.346,0.875 l -0.01,0.032 v 0.022 l -2.056,16.934 c -0.066,0.55 0.118,1.06 0.458,1.353 0.34,0.293 0.756,0.373 1.13,0.316 0.874,-0.134 1.635,-0.839 1.75,-1.853 l 1.751,-15.418 c 0.061,-0.537 -0.087,-1.084 -0.458,-1.445 -0.21,-0.204 -0.474,-0.319 -0.763,-0.387 0.047,-0.4 0.07,-0.627 0.112,-0.977 0.862,-0.066 8.995,-0.681 8.995,-0.681 z m 20.232,-1.577 c 0.005,0.879 0.021,3.714 0.021,3.714 0.004,0.337 -0.088,0.563 -0.254,0.733 -0.167,0.169 -0.437,0.308 -0.845,0.346 h -0.01 l -4.112,0.417 c -0.307,0.032 -0.64,0.094 -0.956,0.316 -0.157,0.111 -0.316,0.273 -0.397,0.498 -0.082,0.225 -0.079,0.486 0,0.713 0.157,0.455 0.504,0.676 0.895,0.916 0.392,0.239 0.878,0.475 1.425,0.733 l 3.307,1.556 c 0.808,0.381 1.373,1.037 1.761,1.995 0.388,0.958 0.585,2.219 0.6,3.673 0.032,2.992 -0.17,4.87 -0.997,6.076 -0.827,1.206 -2.373,1.933 -5.383,2.483 l -6.32,1.16 c -1.419,0.26 -2.677,0.343 -3.419,0.102 -0.372,-0.121 -0.607,-0.3 -0.773,-0.57 -0.167,-0.27 -0.271,-0.678 -0.234,-1.303 0,0 0.23,-4.062 0.274,-4.813 0.374,-0.056 0.705,-0.111 1.12,-0.172 0.022,0.058 10e-4,0.128 0.032,0.183 0.133,0.248 0.366,0.434 0.601,0.529 0.468,0.191 0.94,0.127 1.434,0.052 l 3.949,-0.601 c 0.525,-0.081 1.006,-0.193 1.404,-0.488 0.399,-0.296 0.628,-0.848 0.55,-1.405 -0.075,-0.529 -0.487,-0.846 -0.865,-1.048 -0.378,-0.202 -0.797,-0.344 -1.191,-0.488 l -3.582,-1.313 c -0.939,-0.346 -3.031,-2.324 -2.748,-7.175 0.105,-1.803 0.386,-3.249 1.14,-4.254 0.754,-1.004 2.014,-1.681 4.396,-1.862 -0.002,-10e-4 8.136,-0.624 9.178,-0.703 z m 19.793,-1.567 c 0.509,-0.039 0.914,0.043 1.161,0.194 0.247,0.15 0.394,0.354 0.438,0.823 0.025,0.259 -0.018,0.664 -0.092,0.774 l -3.582,5.251 -0.183,0.265 0.183,0.274 4.427,6.799 c 0.203,0.306 0.41,0.554 0.672,0.732 0.262,0.179 0.597,0.273 0.916,0.224 l 0.346,-0.051 0.387,3.949 c 0.058,0.588 -0.052,0.859 -0.183,1.017 -0.131,0.159 -0.333,0.244 -0.611,0.295 l -3.736,0.692 c -0.309,0.057 -0.513,0.034 -0.773,-0.112 -0.254,-0.142 -0.57,-0.446 -0.946,-0.957 l -0.021,-0.021 c -0.031,-0.048 -4.193,-6.422 -4.193,-6.422 l -0.407,-0.611 -0.407,0.611 -0.377,0.55 -0.091,0.131 0.01,0.163 0.306,5.486 c 0.029,0.524 0.224,0.966 0.559,1.211 0.164,0.12 0.35,0.171 0.53,0.204 0.019,0.319 0.023,0.514 0.041,0.824 -0.763,0.14 -7.433,1.36 -7.511,1.374 -0.997,0.09 -1.821,-0.489 -1.842,-1.608 l -0.356,-18.42 c -0.011,-0.567 -0.218,-1.045 -0.58,-1.303 -0.197,-0.14 -0.417,-0.202 -0.631,-0.234 -0.005,-0.329 -0.006,-0.522 -0.01,-0.845 0.808,-0.062 7.144,-0.539 7.144,-0.539 0.465,-0.036 0.907,0.007 1.181,0.153 0.274,0.145 0.447,0.333 0.478,0.905 l 0.153,2.83 0.072,1.434 0.814,-1.19 1.466,-2.127 c 0.237,-0.345 0.317,-0.78 0.122,-1.12 -0.1,-0.173 -0.24,-0.284 -0.407,-0.356 -0.018,-0.283 -0.032,-0.486 -0.051,-0.824 0.809,-0.061 5.583,-0.427 5.583,-0.427 z m 9.139,-0.713 c 0.484,-0.037 0.853,0.073 1.13,0.295 0.277,0.223 0.494,0.578 0.57,1.16 l 2.107,16.008 c 0.067,0.506 0.32,0.913 0.672,1.11 0.186,0.103 0.373,0.149 0.56,0.162 0.035,0.26 0.046,0.374 0.082,0.641 -0.754,0.139 -5.649,1.039 -5.649,1.039 -0.531,0.099 -0.992,0.101 -1.251,0 -0.259,-0.101 -0.411,-0.238 -0.469,-0.794 l -1.781,-17.128 c -0.054,-0.514 -0.267,-0.928 -0.59,-1.16 -0.171,-0.123 -0.348,-0.181 -0.53,-0.214 -0.027,-0.268 -0.041,-0.42 -0.072,-0.722 0.804,-0.062 5.221,-0.397 5.221,-0.397 z m 14.492,-1.13 c 0.187,1.024 0.375,2.029 0.417,2.737 0.025,0.406 -0.003,0.733 -0.051,0.896 -0.022,0.076 -0.047,0.105 -0.052,0.112 -0.039,0.004 -3.399,0.347 -3.399,0.347 l -0.488,0.051 0.082,0.478 0.295,1.781 0.082,0.417 0.428,-0.041 c 0,0 2.749,-0.31 3.439,-0.387 0.177,0.967 0.356,1.9 0.376,2.524 0.013,0.363 -0.03,0.64 -0.082,0.774 -0.051,0.133 -0.035,0.121 -0.112,0.131 l -3.002,0.407 -0.468,0.061 0.082,0.458 0.539,3.226 0.082,0.438 0.438,-0.061 3.551,-0.55 c 0.265,-0.041 0.575,-0.141 0.764,-0.428 0.104,-0.16 0.156,-0.332 0.162,-0.519 0.116,-0.018 0.129,-0.014 0.245,-0.031 l 0.723,3.795 c 0.19,0.996 -0.245,1.486 -0.631,1.557 l -8.965,1.641 c -0.494,0.091 -0.845,0.017 -1.079,-0.132 -0.235,-0.149 -0.368,-0.373 -0.407,-0.652 l -2.311,-16.252 c -0.066,-0.468 -0.281,-0.858 -0.61,-1.079 -0.198,-0.132 -0.419,-0.177 -0.641,-0.203 -0.035,-0.247 -0.052,-0.381 -0.092,-0.672 0.862,-0.066 9.928,-0.766 10.686,-0.824 z m 10.288,-0.814 c 0.224,0.971 0.443,1.934 0.509,2.606 0.039,0.38 0.032,0.682 -0.01,0.834 -0.022,0.077 -0.048,0.109 -0.051,0.112 l -1.964,0.194 c -0.297,0.031 -0.571,0.088 -0.814,0.245 -0.121,0.078 -0.239,0.186 -0.305,0.346 -0.067,0.158 -0.064,0.35 -0.022,0.509 0.099,0.353 0.378,0.653 0.794,0.875 l 2.29,1.211 c 1.367,0.727 2.477,2.626 2.971,4.743 0.502,2.147 0.546,3.498 0.153,4.315 -0.392,0.816 -1.243,1.274 -2.899,1.577 l -3.43,0.621 c -0.595,0.092 -1.132,0.108 -1.486,-0.022 -0.353,-0.129 -0.577,-0.334 -0.682,-0.986 v -0.021 c 0,0 -0.602,-3.088 -0.732,-3.766 0.082,-0.012 0.089,-0.021 0.162,-0.032 0.117,0.22 0.268,0.404 0.469,0.499 0.305,0.144 0.624,0.136 0.916,0.092 l 2.473,-0.377 c 0.211,-0.033 0.45,-0.12 0.651,-0.356 0.201,-0.237 0.287,-0.644 0.143,-1.038 -0.134,-0.364 -0.419,-0.708 -0.865,-0.896 l -2.84,-1.19 c -0.951,-0.401 -2.055,-1.629 -2.778,-5.383 -0.245,-1.275 -0.21,-2.32 0.153,-3.022 0.363,-0.702 1.039,-1.152 2.361,-1.252 -0.002,-0.002 4.199,-0.383 4.832,-0.44 z"
         fill="url(#d)"
         id="path18"
         style="fill:url(#d)" />
    </g>
  </g>
</svg>
