<?xml version="1.0" encoding="UTF-8" standalone="no"?>
<!-- Creator: CorelDRAW -->

<svg
   xml:space="preserve"
   width="200"
   height="200"
   style="clip-rule:evenodd;fill-rule:evenodd;image-rendering:optimizeQuality;shape-rendering:geometricPrecision;text-rendering:geometricPrecision"
   viewBox="0 0 199.59826 199.59262"
   version="1.1"
   id="svg13"
   sodipodi:docname="logo_WHL.svg"
   inkscape:version="1.4.2 (f4327f4, 2025-05-13)"
   xmlns:inkscape="http://www.inkscape.org/namespaces/inkscape"
   xmlns:sodipodi="http://sodipodi.sourceforge.net/DTD/sodipodi-0.dtd"
   xmlns="http://www.w3.org/2000/svg"
   xmlns:svg="http://www.w3.org/2000/svg"><sodipodi:namedview
   id="namedview13"
   pagecolor="#ffffff"
   bordercolor="#000000"
   borderopacity="0.25"
   inkscape:showpageshadow="2"
   inkscape:pageopacity="0.0"
   inkscape:pagecheckerboard="0"
   inkscape:deskcolor="#d1d1d1"
   inkscape:zoom="4.035"
   inkscape:cx="99.876084"
   inkscape:cy="100"
   inkscape:window-width="1920"
   inkscape:window-height="1009"
   inkscape:window-x="-8"
   inkscape:window-y="-8"
   inkscape:window-maximized="1"
   inkscape:current-layer="Ebene_x0020_1" />
 <defs
   id="defs1">
  <style
   type="text/css"
   id="style1">
   <![CDATA[
    .fil0 {fill:black}
    .fil2 {fill:#ED171F}
    .fil3 {fill:#FCE2E3}
    .fil1 {fill:white}
    .fil4 {fill:white;fill-rule:nonzero}
   ]]>
  </style>
 </defs>
 <g
   id="Ebene_x0020_1"
   inkscape:label="Ebene 1"
   inkscape:groupmode="layer">
  <metadata
   id="CorelCorpID_0Corel-Layer" />
  
  
  
  
  
  
  
  
  
  
  
  
  
  
  
  
  
  
  
  
  
  
  
  
  
  
  
  
  
  
  
  
  <g
   id="g13"
   transform="matrix(0.0965716,0,0,0.0965716,5.2565046e-5,24.093654)"><path
     class="fil0"
     d="m 1126.99,336.848 c 26.7181,2.22327 48.5323,17.8486 54.0622,41.5866 31.0927,-7.24389 142.841,-95.268 149.711,-124.759 h -12.4755 c -32.2161,0 -172.551,66.8784 -191.298,83.1721 z"
     id="path1" /><path
     class="fil1"
     d="m 1126.99,336.848 c 18.7469,-16.2937 159.081,-83.1721 191.298,-83.1721 h 12.4755 c -6.8702,29.4907 -118.618,117.515 -149.711,124.759 -5.5299,-23.738 -27.3441,-39.3634 -54.0622,-41.5866 z m -499.036,536.464 58.2211,-91.4899 c -10.4067,-5.5063 -24.9522,-7.32759 -24.9522,-20.7933 v -4.1589 c 0,-11.2319 1.98632,-11.4653 4.1589,-20.7921 -12.7856,-3.41506 -16.6344,-8.08911 -16.6344,-24.9522 v -8.3178 c 0,-59.3669 23.4822,-136.012 48.1433,-172.264 24.6858,-36.2902 55.6748,-114.675 104.701,-118.702 l -7.29222,-70.8345 c -2.327,-3.34787 -8.3178,-10.2676 -8.3178,-12.4755 0,-57.1802 45.1396,-87.3322 103.967,-87.3322 h 8.31662 c 18.7763,0 37.4277,48.4828 37.4277,70.6978 v 29.1099 c 17.5728,-4.09406 30.0848,-12.4755 49.9044,-12.4755 h 29.1099 c 42.0122,0 22.2798,24.2614 95.6818,29.0769 33.0343,2.16786 69.9457,26.0132 70.6636,58.2541 44.1824,-23.3785 210.934,-139.401 212.091,-191.298 -9.3269,-2.17258 -9.5615,-4.15772 -20.7933,-4.15772 -76.3007,0 -178.943,71.8577 -245.36,87.331 18.9885,-25.9165 519.829,-298.491 519.829,-182.98 0,123.872 -521.265,507.981 -632.113,582.208 l -81.8094,174.307 -51.2672,-203.417 c -67.6811,15.768 -62.8267,9.64044 -95.6488,58.2211 -20.1285,29.7925 -42.5085,64.7246 -61.0149,97.0127 -25.1137,43.817 -93.1579,156.791 -120.764,189.90002 l -6.01791,-220.35702 -2.57338,-3.67912 -165.709,146.275 3.54709,2.85512 28.1586,341.09202 c 37.3888,-8.7115 88.0878,-25.8576 127.383,-38.9626 64.3946,-21.4759 50.1744,-33.5871 83.0471,-87.4583 33.606,-55.0736 87.3687,-174.44502 121.703,-214.45702 l 50.4608,220.27702 c 21.5537,-1.793 66.263,-19.183 90.6895,-25.7526 45.3671,-12.202 53.1085,-8.1115 71.5253,-49.0745 23.3019,-51.8247 54.674,-112.31902 74.2661,-162.77702 21.0656,-54.2531 50.4962,-107.363 74.0786,-162.962 22.0323,-51.9426 49.3327,-111.47 74.7871,-162.256 25.4061,-50.6895 198.562,-169.129 252.028,-222.056 47.192,-46.7157 210.988,-193.398 210.988,-267.256 v -12.4755 c 0,-21.7871 -36.8195,-33.2688 -62.38,-33.2688 -164.528,0 -439.416,184.964 -561.416,249.517 -17.2769,-9.1418 -31.5466,-16.6344 -58.2211,-16.6344 h -20.7933 c -15.076,0 -23.2123,3.49168 -33.2688,8.3178 -0.80632,-36.19 -22.9683,-95.6488 -58.2211,-95.6488 -34.5184,0 -77.3015,3.75338 -94.8107,21.6303 -10.2699,10.4868 -38.2647,60.6589 -38.2647,78.1762 v 8.3178 c 0,12.6052 12.4755,48.9661 12.4755,74.8555 -61.3579,32.4661 -153.87,192.498 -153.87,286.945 v 29.1111 c 0,15.7197 10.1473,27.739 16.6344,37.4277 l -3.85948,1.73405 20.4939,39.8514 c -17.4325,32.947 -29.1099,28.4899 -29.1099,79.0144 z"
     id="path2" /><path
     class="fil1"
     d="m 1443.05,170.503 c 26.8442,0.59884 36.9774,5.92242 49.9033,20.7933 -24.4194,50.8947 -40.9265,76.6426 -85.6712,109.784 -35.9907,26.6592 -68.9826,59.6604 -107.343,88.1126 -39.1924,29.071 -73.4126,53.5447 -113.065,82.3917 -41.688,30.3288 -84.1717,45.9188 -97.3086,102.306 72.9517,-38.6007 461.608,-326.461 461.608,-399.228 v -8.31662 c 0,-12.7844 -12.1832,-16.6356 -24.951,-16.6356 h -20.7933 c -20.2628,0 -51.2283,11.101 -62.38,20.7933 z"
     id="path3" /><path
     class="fil2"
     d="m 1089.56,573.89 c 13.1368,-56.3868 55.6206,-71.9768 97.3086,-102.306 39.6522,-28.8471 73.8723,-53.3207 113.065,-82.3917 38.3602,-28.4522 71.352,-61.4534 107.343,-88.1126 44.7447,-33.1415 61.2518,-58.8895 85.6712,-109.784 -12.9258,-14.8709 -23.059,-20.1945 -49.9033,-20.7933 11.1517,-9.69231 42.1171,-20.7933 62.38,-20.7933 h 20.7933 c 12.7679,0 24.951,3.85123 24.951,16.6356 v 8.31662 c 0,72.7678 -388.657,360.628 -461.608,399.228 z m -461.608,299.422 -4.1589,62.38 c 10.0931,-7.39478 95.3753,-147.278 111.451,-171.337 10.0483,-15.0359 45.5227,-78.5806 57.4725,-83.9207 31.9544,-14.2815 75.8469,-19.6015 109.567,-35.8127 l 37.5657,153.834 c 40.7662,-46.9008 -0.77213,-40.8463 74.8555,-91.4899 110.847,-74.2272 632.113,-458.336 632.113,-582.208 0,-115.511 -500.841,157.063 -519.829,182.98 66.4163,-15.4733 169.059,-87.331 245.36,-87.331 11.2319,0 11.4664,1.98514 20.7933,4.15772 -1.1564,51.8967 -167.909,167.919 -212.091,191.298 -0.7179,-32.2409 -37.6293,-56.0862 -70.6636,-58.2541 -73.402,-4.81551 -53.6696,-29.0769 -95.6818,-29.0769 h -29.1099 c -19.8196,0 -32.3317,8.38146 -49.9044,12.4755 v -29.1099 c 0,-22.215 -18.6514,-70.6978 -37.4277,-70.6978 h -8.31662 c -58.827,0 -103.967,30.152 -103.967,87.3322 0,2.20794 5.9908,9.12765 8.3178,12.4755 l 7.29222,70.8345 c -49.0262,4.02687 -80.0152,82.4118 -104.701,118.702 -24.661,36.2524 -48.1433,112.897 -48.1433,172.264 v 8.3178 c 0,16.8631 3.84887,21.5372 16.6344,24.9522 -2.17258,9.32687 -4.1589,9.56028 -4.1589,20.7921 v 4.1589 c 0,13.4657 14.5455,15.287 24.9522,20.7933 l -58.2211,91.4899 z"
     id="path4" /><path
     class="fil1"
     d="m 1555.33,948.168 c 71.3827,-16.6297 178.973,-49.5744 245.245,-74.9698 15.966,-6.11811 42.2043,-12.5663 60.9595,-18.0537 32.7136,-9.57325 41.4652,-3.59424 49.8679,-33.3054 9.1736,-32.4389 38.2588,-90.0199 38.8506,-123.675 l -185.189,53.7297 131.274,-381.776 c -33.8512,16.243 -154.286,32.6688 -163.154,65.5722 -12.4779,46.3008 -40.8051,120.737 -59.7524,168.972 -19.4011,49.3905 -115.145,307.974 -118.102,343.506 z"
     id="path5" /><path
     class="fil1"
     d="m 1380.67,686.174 62.38,-174.662 c -19.2408,1.60085 -72.11,18.8931 -90.2427,26.1994 -26.3055,10.5976 -71.6691,10.323 -79.5637,36.8772 -16.19,54.4547 -40.4055,117.972 -61.4169,171.466 -16.9327,43.1097 -121.714,323.116 -122.261,347.665 21.4275,-1.7824 90.4584,-26.9185 118.968,-34.9015 66.3632,-18.5818 47.1542,-24.2685 71.0349,-82.8338 15.2929,-37.5055 27.9276,-73.3855 41.2601,-112.61 22.7749,-67.008 33.0166,-38.0785 89.9409,-64.5631 l -79.7335,220.919 164.227,-51.4381 193.146,-535.795 c -26.0415,6.06742 -78.346,23.606 -103.851,33.3832 -65.4602,25.0937 -52.7843,-6.99751 -80.4231,60.9713 -13.026,32.0323 -27.9229,70.6695 -38.5075,102.887 -14.4878,44.0987 -37.4301,45.3624 -84.958,56.4351 z"
     id="path6" /><path
     class="fil0"
     d="m 432.497,1176.89 4.1589,37.4277 v 24.951 c -38.135,56.9491 -110.737,99.8077 -203.773,99.8077 v -24.9522 c 0,-27.6965 5.41081,-54.7871 12.0924,-75.2386 6.0851,-18.6231 52.3529,-14.0363 72.8597,-18.6314 90.3523,-20.2428 66.7628,-36.2407 114.662,-68.3165 v 24.9522 z m -232.883,133.075 c 0,23.006 23.9797,41.5866 45.7455,41.5866 h 49.9033 c 94.5112,0 311.297,-86.7428 404.184,-111.486 128.972,-34.3545 270.501,-80.3394 397.961,-121.867 127.96,-41.6904 263.215,-82.9988 393.969,-121.703 69.0557,-20.442 353.298,-117.969 401.348,-118.847 l -46.2913,145.372 c -61.741,14.384 -135.289,40.1426 -197.002,60.8333 -67.7071,22.7007 -132.057,39.862 -199.602,62.3906 -132.189,44.0893 -263.469,82.4554 -396.909,122.922 -126.901,38.484 -267.266,81.1834 -395.324,124.504 -89.7134,30.3489 -311.616,107.593 -416.396,107.593 h -41.5866 c -63.6767,0 -128.918,-29.2266 -128.918,-91.4899 v -16.6344 c 0,-94.0397 104.745,-224.005 150.455,-282.042 29.4341,-37.3712 66.6249,-83.1249 100.109,-116.14 19.7277,-19.4518 95.8905,-96.6213 107.577,-113.378 l -4.65754,-58.1715 0.0684,-24.7247 174.595,-50.1308 c -4.68819,17.5563 -94.6763,102.9 -113.387,123.657 -38.682,42.9128 -72.4365,89.7075 -110.109,131.091 -46.2218,50.7756 -175.734,222.229 -175.734,306.667 z M 1380.664,686.17 c 47.5279,-11.0727 70.4702,-12.3364 84.958,-56.4351 10.5847,-32.2173 25.4815,-70.8545 38.5075,-102.887 27.6388,-67.9688 14.9628,-35.8776 80.4231,-60.9713 25.5051,-9.77719 77.8096,-27.3158 103.851,-33.3832 l -193.146,535.795 -164.227,51.4381 79.7335,-220.919 c -56.9243,26.4847 -67.166,-2.44489 -89.9409,64.5631 -13.3325,39.2243 -25.9672,75.1042 -41.2601,112.61 -23.8807,58.5653 -4.6717,64.2519 -71.0349,82.8338 -28.5099,7.983 -97.5408,33.1191 -118.968,34.9015 0.547,-24.5491 105.328,-304.556 122.261,-347.665 21.0114,-53.494 45.2269,-117.011 61.4169,-171.466 7.8946,-26.5542 53.2582,-26.2796 79.5637,-36.8772 18.1327,-7.30637 71.0019,-24.5986 90.2427,-26.1994 l -62.38,174.662 z m 174.663,261.994 c 2.9565,-35.5322 98.7008,-294.116 118.102,-343.506 18.9473,-48.2352 47.2745,-122.671 59.7524,-168.972 8.8683,-32.9034 129.303,-49.3292 163.154,-65.5722 l -131.274,381.776 185.189,-53.7297 c -0.5918,33.6555 -29.677,91.2365 -38.8506,123.675 -8.4027,29.7111 -17.1543,23.7321 -49.8679,33.3054 -18.7551,5.48744 -44.9934,11.9356 -60.9595,18.0537 -66.2724,25.3955 -173.863,58.3401 -245.245,74.9698 z M 1014.704,706.963 c -75.6276,50.6436 -34.0893,44.5891 -74.8555,91.4899 l -37.5657,-153.834 c -33.7203,16.2112 -77.6128,21.5313 -109.567,35.8127 -11.9498,5.34008 -47.4242,68.8847 -57.4725,83.9207 -16.0757,24.0587 -101.358,163.942 -111.451,171.337 l 4.1589,-62.38 c 0,-50.5245 11.6775,-46.0674 29.1099,-79.0144 l -20.4939,-39.8514 3.85948,-1.73405 c -6.48708,-9.68877 -16.6344,-21.7081 -16.6344,-37.4277 v -29.1111 c 0,-94.4476 92.5119,-254.479 153.87,-286.945 0,-25.8894 -12.4755,-62.2503 -12.4755,-74.8555 v -8.3178 c 0,-17.5174 27.9948,-67.6894 38.2647,-78.1762 17.5091,-17.8769 60.2923,-21.6303 94.8107,-21.6303 35.2528,0 57.4147,59.4588 58.2211,95.6488 10.0566,-4.82612 18.1928,-8.3178 33.2688,-8.3178 h 20.79332 c 26.6745,0 40.9442,7.49262 58.2211,16.6344 122,-64.5537 396.888,-249.517 561.416,-249.517 25.5605,0 62.38,11.4818 62.38,33.2688 v 12.4755 c 0,73.8582 -163.796,220.541 -210.988,267.256 -53.4669,52.9269 -226.622,171.366 -252.028,222.056 -25.4544,50.7862 -52.7548,110.313 -74.7871,162.256 -23.5824,55.5993 -53.013,108.709 -74.0786,162.962 -19.5921,50.4585 -50.9642,110.95205 -74.2661,162.77705 -18.41682,40.963 -26.15822,36.8725 -71.52532,49.0745 -24.4265,6.5696 -69.1358,23.9596 -90.6895,25.7526 l -50.4608,-220.27705 c -34.3345,40.0117 -88.0972,159.38305 -121.703,214.45705 -32.8728,53.8712 -18.6526,65.9825 -83.0471,87.4583 -39.295,13.105 -89.994,30.2509 -127.383,38.9626 l -28.1586,-341.09205 -3.54709,-2.85512 165.709,-146.275 2.57338,3.67912 6.01791,220.35695 c 27.6058,-33.10845 95.65,-146.08295 120.764,-189.89995 18.5064,-32.2881 40.8864,-67.2202 61.0149,-97.0127 32.8221,-48.5806 27.9677,-42.4531 95.6488,-58.2211 l 51.2672,203.417 81.80942,-174.307 z M 989.7518,261.989 c -18.0467,-26.9492 -31.9603,-83.1721 -79.0132,-83.1721 h -24.9522 c -50.7673,0 -80.5787,7.78379 -107.127,34.2661 -15.9931,15.9519 -46.7428,69.5425 -46.7428,98.8104 v 16.6344 c 0,22.7042 8.3178,23.0402 8.3178,45.7444 0,7.6942 -46.9727,50.6766 -55.485,65.116 -15.4344,26.1794 -30.2145,52.0452 -44.2696,76.3302 -26.5873,45.9377 -49.9563,122.67 -50.6777,192.995 l -208.208,60.6872 5.15619,103.908 c -12.9105,19.2809 -83.4385,89.335 -105.07,111.18 -32.3128,32.6323 -71.9732,82.3457 -100.375,120.033 -45.6654,60.594 -148.039,192.094 -148.039,288.617 0,95.0393 71.8023,141.393 166.345,141.393 h 29.1099 c 121.421,0 324.715,-71.2872 426.794,-105.512 66.9114,-22.4331 134.862,-44.1435 202.86,-63.2924 70.5681,-19.8727 135.312,-45.6548 205.37901,-64.9333 129.628,-35.6654 275.513,-82.8385 405.787,-126.516 54.7353,-18.352 379.008,-125.612 408.373,-126.901 l 134.848,-411.156 -180.544,53.5211 125.993,-379.493 -511.008,155.513 c 25.3141,-37.8038 125.369,-100.257 163.846,-152.209 38.1327,-51.4852 118.941,-113.435 118.941,-197.116 V 95.6437 c 0,-32.5262 -40.6059,-62.3788 -74.8555,-62.3788 h -29.1111 c -96.5659,0 -262.238,77.5573 -329.962,115.011 -47.8486,26.4623 -93.6955,54.0999 -141.326,79.0828 -25.7939,13.5282 -46.0237,29.3056 -70.5374,41.8342 -18.8164,9.61687 -60.2911,-7.20381 -94.44641,-7.20381 z"
     id="path7" /><path
     class="fil2"
     d="m 282.787,1372.35 h -24.9522 c -36.4894,0 -79.0144,-22.3741 -79.0144,-54.0622 0,-70.4867 43.2936,-139.815 73.165,-184.67 15.3082,-22.9895 107.669,-144.145 109.815,-152.179 -61.4145,41.1257 -274.47,311.519 -274.47,411.705 0,60.7885 47.9087,87.331 108.124,87.331 h 24.9522 c 147.674,0 317.826,-75.492 442.487,-110.612 140.447,-39.5673 283.683,-85.9989 422.039,-131.06 135.209,-44.0351 283.711,-93.8912 420.436,-132.663 68.6077,-19.4554 140.548,-41.8165 209.552,-64.918 36.3974,-12.1867 68.7822,-19.5567 105.083,-32.1525 16.9692,-5.8894 37.0647,-80.3547 38.9072,-102.487 -32.3647,0.72144 -337.197,99.5649 -390.441,116.912 -128.104,41.7375 -262.225,77.133 -390.851,120.662 -127.378,41.6149 -262.302,79.3008 -390.854,120.658 -85.7738,26.8313 -312.651,107.535 -403.977,107.535 z"
     id="path8" /><path
     class="fil2"
     d="m 1010.55,1226.8 c 19.598,-1.6303 28.6408,-12.1926 29.1111,-33.2688 -19.9245,1.6574 -27.4702,13.5518 -29.1111,33.2688 z"
     id="path9" /><path
     class="fil2"
     d="m 436.656,1214.32 -4.1589,-37.4277 c -29.5638,21.6598 -19.8797,30.7108 -70.0942,50.5056 -28.4663,11.2212 -67.3522,17.0942 -103.978,20.264 l -4.74831,45.6713 v 24.9522 c 34.015,0 82.644,-20.501 109.493,-31.9014 44.727,-18.9933 47.7991,-42.5108 73.4869,-72.064 z"
     id="path10" /><polygon
     class="fil2"
     points="781.824,1280.86 781.824,1272.54 769.347,1272.54 769.347,1280.86 "
     id="polygon10" /><path
     class="fil3"
     d="m 436.656,1214.32 c -25.6878,29.5532 -28.7598,53.0708 -73.4869,72.064 -26.849,11.4004 -75.4779,31.9014 -109.493,31.9014 v -24.9522 l 4.74831,-45.6713 c 36.6261,-3.1699 75.5121,-9.0428 103.978,-20.264 50.2145,-19.7949 40.5304,-28.8459 70.0942,-50.5056 v -24.9522 c -47.8993,32.0759 -24.3098,48.0737 -114.662,68.3165 -20.5069,4.5951 -66.7746,0.01 -72.8597,18.6314 -6.68159,20.4515 -12.0924,47.5421 -12.0924,75.2386 v 24.9522 c 93.0365,0 165.638,-42.8586 203.773,-99.8077 v -24.951 z"
     id="path11" /><path
     class="fil1"
     d="m 282.787,1372.35 c 91.326,0 318.203,-80.7036 403.977,-107.535 129.186,-40.4102 264.291,-77.8273 390.854,-120.658 128.625,-43.5293 262.746,-78.9248 390.851,-120.662 53.2441,-17.3476 358.077,-116.191 390.441,-116.912 -1.8425,22.1325 -21.938,96.5978 -38.9072,102.487 -36.3008,12.5958 -68.6855,19.9658 -105.083,32.1525 -69.0038,23.1015 -140.944,45.4626 -209.552,64.918 -136.725,38.7716 -285.226,88.6277 -420.436,132.663 -138.355,45.0606 -281.592,91.4923 -422.039,131.06 -124.661,35.1196 -294.813,110.612 -442.487,110.612 h -24.9522 c -60.2156,0 -108.124,-26.5425 -108.124,-87.331 0,-100.186 213.055,-370.579 274.47,-411.705 -2.14546,8.03488 -94.5065,129.19 -109.815,152.179 -29.8715,44.8555 -73.165,114.183 -73.165,184.67 0,31.688 42.525,54.0622 79.0144,54.0622 h 24.9522 z m -83.1733,-62.38 c 0,-84.4382 129.512,-255.891 175.734,-306.667 37.6729,-41.3839 71.4275,-88.1786 110.109,-131.091 18.7103,-20.7568 108.698,-106.1 113.387,-123.657 l -174.595,50.1308 -0.0684,24.7247 4.65754,58.1715 c -11.6869,16.757 -87.8497,93.9265 -107.577,113.378 -33.4846,33.0154 -70.6754,78.7692 -100.109,116.14 -45.7102,58.0372 -150.455002,188.003 -150.455002,282.042 v 16.6344 c 0,62.2633 65.241002,91.4899 128.918002,91.4899 h 41.5866 c 104.78,0 326.682,-77.2438 416.396,-107.593 128.058,-43.3207 268.423,-86.0201 395.32406,-124.504 133.44,-40.4668 264.72,-78.8328 396.909,-122.922 67.5456,-22.5286 131.895,-39.6899 199.602,-62.3906 61.7127,-20.6908 135.261,-46.4493 197.002,-60.8333 l 46.2913,-145.372 c -48.0501,0.87823 -332.292,98.4049 -401.348,118.847 -130.753,38.7044 -266.008,80.0128 -393.969,121.703 -127.46106,41.5277 -268.98906,87.5125 -397.96106,121.867 -92.8868,24.7436 -309.673,111.486 -404.184,111.486 h -49.9033 c -21.7659,0 -45.7455,-18.5807 -45.7455,-41.5866 z"
     id="path12" /><path
     class="fil1"
     d="m 989.754,261.993 c 34.1553,0 75.63,16.8207 94.4464,7.20381 24.5137,-12.5286 44.7435,-28.306 70.5374,-41.8342 47.6305,-24.9829 93.4774,-52.6205 141.326,-79.0828 67.7236,-37.4537 233.396,-115.011 329.962,-115.011 h 29.1111 c 34.2496,0 74.8555,29.8526 74.8555,62.3788 v 20.7933 c 0,83.6814 -80.8086,145.631 -118.941,197.116 -38.4769,51.9521 -138.532,114.405 -163.846,152.209 l 511.008,-155.513 -125.993,379.493 180.544,-53.5211 -134.848,411.15599 c -29.3646,1.2885 -353.637,108.549 -408.373,126.901 -130.274,43.6779 -276.159,90.851 -405.787,126.516 -70.0671,19.2785 -134.811,45.0606 -205.379,64.9333 -67.9971,19.1489 -135.948,40.8593 -202.86,63.2924 -102.079,34.2249 -305.373,105.512 -426.794,105.512 h -29.1099 c -94.5431,0 -166.345,-46.3538 -166.345,-141.393 0,-96.5223 102.374,-228.023 148.039,-288.617 28.4015,-37.6871 68.0619,-87.4005 100.375,-120.03299 21.6315,-21.8448 92.1595,-91.899 105.07,-111.18 l -5.15619,-103.908 208.208,-60.6872 c 0.72144,-70.3252 24.0905,-147.057 50.6777,-192.995 14.0551,-24.285 28.8353,-50.1508 44.2696,-76.3302 8.51231,-14.4394 55.485,-57.4218 55.485,-65.116 0,-22.7042 -8.3178,-23.0402 -8.3178,-45.7444 v -16.6344 c 0,-29.2679 30.7497,-82.8585 46.7428,-98.8104 26.5484,-26.4823 56.3597,-34.2661 107.127,-34.2661 h 24.9522 c 47.0529,0 60.9665,56.2229 79.0132,83.1721 z m 598.844,124.76 c 22.0075,-32.8645 75.4885,-77.9027 105.695,-118.872 29.1088,-39.4801 68.9684,-89.9126 68.9684,-155.599 V 99.8065 C 1763.2614,39.3138 1706.5492,0 1642.6604,0 h -29.1099 c -153.47,0 -433.947,180.353 -548.941,241.2 l -57.7884,-14.3946 c -3.8159,-38.7504 -55.1655,-81.253 -104.398,-81.253 h -20.7933 c -65.1679,0 -94.121,13.1439 -127.916,46.7464 -18.9697,18.8624 -55.0642,80.5704 -55.0642,115.44 v 24.951 c 0,15.076 3.49168,23.2135 8.3178,33.27 -31.2224,20.9077 -78.6619,100.806 -98.4756,138.566 -26.1181,49.7771 -45.5487,113.311 -51.2353,181.648 l -212.434,61.2271 8.86713,109.261 c -21.688,32.0959 -77.8544,86.4657 -107.386,117.403 -32.8539,34.4158 -70.2298,82.1277 -99.6132,120.794 -44.9993,59.2125 -146.691,199.213 -146.691,294.124 v 8.3178 c 0,119.917 97.14,170.503 220.408,170.503 h 12.4755 c 100.829,0 210,-39.3752 291.167,-62.3175 84.8743,-23.9891 182.15,-55.8245 268.688,-84.7965 175.752,-58.8399 360.37897,-115 534.66497,-168.144 180.404,-55.0088 357.711,-112.978 536.195,-166.614 61.9143,-18.6066 51.5359,-42.3871 72.7642,-106.057 15.168,-45.4956 28.7834,-86.2936 43.6779,-130.985 25.8988,-77.713 68.7256,-184.93 86.8017,-262.522 l -182.962,54.1187 126.862,-377.783 -422.142,124.05 z"
     id="path13" /><polygon
     class="fil4"
     points="445.039,1419.15 429.472,1423.96 429.326,1375.51 400.573,1432.89 384.669,1437.8 386.482,1372.38 401.489,1367.74 399.296,1412.97 425.734,1360.25 443.179,1354.86 442.54,1400.37 467.069,1347.48 481.841,1342.92 "
     id="polygon13" /><polygon
     id="1"
     class="fil4"
     points="488.078,1394.92 528.668,1382.39 525.438,1394.32 470.18,1411.39 489.334,1340.61 543.207,1323.97 539.965,1335.95 500.762,1348.06 496.516,1363.75 532.993,1352.48 529.769,1364.39 493.292,1375.66 " /><path
     id="12"
     class="fil4"
     d="m 540.4,1368.6 14.6493,-5.7774 c -0.42084,4.4182 0.39491,7.3075 2.44135,8.6844 2.03465,1.3639 5.27053,1.3769 9.73829,0 4.72002,-1.4582 8.55356,-3.5341 11.47,-6.2324 2.9282,-2.6854 4.74596,-5.3319 5.44971,-7.9347 0.45503,-1.681 0.33125,-2.9424 -0.36779,-3.7982 -0.67665,-0.8782 -2.15961,-1.3568 -4.44889,-1.4346 -1.5478,-0.066 -5.19745,0.1261 -10.9041,0.5293 -7.3547,0.5352 -12.2362,-0.1014 -14.6516,-1.8921 -3.41388,-2.5097 -4.36284,-6.5672 -2.84687,-12.169 0.97724,-3.6095 2.93528,-7.2945 5.88588,-11.0916 2.94471,-3.7781 6.62029,-7.1036 11.0079,-9.9693 4.40174,-2.8551 9.37874,-5.1468 14.9617,-6.8714 9.13708,-2.8221 15.4638,-2.9942 19.0298,-0.5316 3.54473,2.4838 4.5597,6.9279 3.03548,13.3632 l -14.8391,5.1573 c 0.35954,-3.448 -0.28528,-5.6501 -1.92031,-6.5943 -1.63267,-0.9619 -4.51491,-0.7957 -8.64198,0.4798 -4.26499,1.3167 -7.84273,3.1922 -10.7085,5.6477 -1.85076,1.569 -3.02605,3.276 -3.52115,5.1043 -0.45385,1.6811 -0.11553,2.8905 1.01968,3.6273 1.43345,0.9466 5.50512,1.1387 12.2032,0.5647 6.69456,-0.5576 11.5136,-0.4904 14.4595,0.2004 2.93999,0.7073 4.9664,2.2716 6.08746,4.7188 1.10456,2.4531 1.05151,5.913 -0.15679,10.3784 -1.09749,4.054 -3.27714,8.2152 -6.55074,12.459 -3.27714,4.2591 -7.25568,7.904 -11.9486,10.9242 -4.69998,3.0378 -10.2098,5.5252 -16.5201,7.4738 -9.18895,2.8386 -15.6866,2.9576 -19.4895,0.3418 -3.80407,-2.6158 -5.11729,-7.7378 -3.92313,-15.3554 z" /><polygon
     id="123"
     class="fil4"
     points="637.861,1305.71 616.305,1312.37 619.548,1300.38 677.294,1282.55 674.052,1294.53 652.546,1301.17 636.633,1359.97 621.949,1364.51 " /><polygon
     id="1234"
     class="fil4"
     points="685.511,1333.94 726.102,1321.4 722.872,1333.33 667.613,1350.4 686.768,1279.62 740.64,1262.98 737.398,1274.96 698.195,1287.07 693.949,1302.76 730.427,1291.49 727.203,1303.41 690.725,1314.67 " /><path
     id="12345"
     class="fil4"
     d="m 735.36,1329.47 19.1548,-70.7803 30.8959,-9.5426 c 7.76611,-2.3989 13.2253,-3.4964 16.401,-3.3137 3.17694,0.1816 5.39195,1.5655 6.62736,4.1589 1.23187,2.6099 1.27785,5.9932 0.145,10.1792 -1.43581,5.3071 -4.23434,10.2027 -8.36967,14.6516 -4.12943,4.4324 -9.52728,8.108 -16.1476,10.9678 2.69126,0.8299 4.77896,1.9981 6.25839,3.52 1.47943,1.5207 3.21937,4.4866 5.23163,8.9096 l 5.14676,11.0656 -17.5457,5.419 -6.43875,-12.1313 c -2.28457,-4.338 -3.91842,-7.0046 -4.91806,-8.0101 -0.99965,-1.0055 -2.20912,-1.523 -3.61782,-1.5855 -1.41459,-0.046 -3.79582,0.4479 -7.18023,1.4936 l -2.96003,0.9136 -7.99716,29.5473 -14.6858,4.5373 z m 25.742,-45.3895 10.8452,-3.3502 c 7.03877,-2.1738 11.5136,-3.8123 13.4292,-4.9322 1.89909,-1.1164 3.54119,-2.5451 4.92278,-4.2697 1.36508,-1.7199 2.3494,-3.6414 2.92467,-5.7669 0.64718,-2.3894 0.50454,-4.0964 -0.4008,-5.162 -0.90534,-1.0645 -2.50029,-1.417 -4.78014,-1.0751 -1.14346,0.2169 -4.69055,1.2366 -10.646,3.0767 l -11.4382,3.5329 -4.85676,17.9466 z" /><polygon
     id="123456"
     class="fil4"
     points="822.412,1302.59 808.774,1306.8 827.929,1236.02 842.209,1231.61 859.163,1269.68 871.953,1222.42 885.591,1218.21 866.436,1288.99 851.699,1293.54 834.903,1256.43 " /><polygon
     id="1234567"
     class="fil4"
     points="961.998,1231.11 933.252,1239.99 924.875,1270.94 910.19,1275.47 929.344,1204.69 944.031,1200.16 936.494,1228.01 965.24,1219.13 972.777,1191.28 987.446,1186.75 968.292,1257.52 953.622,1262.06 " /><path
     id="12345678"
     class="fil4"
     d="m 989.95,1218.81 c 1.95332,-7.2191 4.68937,-13.6072 8.23057,-19.1854 2.62993,-4.1047 5.75973,-8.0467 9.39403,-11.7965 3.6308,-3.7345 7.3371,-6.8278 11.1116,-9.262 5.0431,-3.2795 10.5045,-5.8128 16.4269,-7.6412 10.7096,-3.3078 18.3968,-2.7231 23.0732,1.7683 4.6812,4.4736 5.4615,12.4779 2.3435,23.9974 -3.0944,11.437 -8.7103,21.3556 -16.8371,29.7866 -8.1222,8.4144 -17.5234,14.2779 -28.1835,17.5704 -10.811,3.3396 -18.53695,2.782 -23.18035,-1.6587 -4.63868,-4.4571 -5.42496,-12.3246 -2.37887,-23.5789 z m 15.2375,-5.1456 c -2.1679,8.009 -1.9014,13.4999 0.7698,16.4647 2.6865,2.96 6.9515,3.5306 12.8056,1.7223 5.8375,-1.8024 11.1965,-5.3307 16.0674,-10.6106 4.8497,-5.2588 8.3909,-11.9851 10.6118,-20.1921 2.1949,-8.108 2.004,-13.5907 -0.5505,-16.4717 -2.5746,-2.8598 -6.8915,-3.3538 -12.9317,-1.4877 -6.0568,1.8708 -11.4782,5.4037 -16.2772,10.5859 -4.7802,5.1762 -8.2872,11.8319 -10.4951,19.9894 z" /><path
     id="123456789"
     class="fil4"
     d="m 1115.97,1188.06 13.0272,-0.01 c -4.2744,8.4027 -9.4483,15.2552 -15.5393,20.5811 -6.0721,5.3024 -13.026,9.1725 -20.8263,11.582 -9.644,2.9789 -16.711,2.2174 -21.1859,-2.2751 -4.4701,-4.509 -5.2045,-12.3317 -2.1938,-23.4551 3.1887,-11.7824 8.7929,-21.8955 16.8018,-30.3501 8.0054,-8.4381 17.0953,-14.2355 27.2804,-17.3818 8.8825,-2.7432 15.4155,-2.4202 19.5779,0.9902 2.5015,1.991 3.7946,5.5782 3.9172,10.7356 l -15.4473,7.8675 c 0.1486,-3.4127 -0.8605,-5.761 -3.0272,-7.0388 -2.1478,-1.2849 -5.1786,-1.3144 -9.0711,-0.1132 -5.3789,1.6622 -10.2699,4.8933 -14.641,9.703 -4.3675,4.7931 -7.6918,11.4063 -9.9752,19.8432 -2.4225,8.9496 -2.5062,14.8202 -0.2157,17.5857 2.268,2.7879 6.0521,3.3549 11.3321,1.7246 3.909,-1.2071 7.5846,-3.4457 11.048,-6.7358 3.4598,-3.2736 6.5036,-7.7013 9.1382,-13.2571 z" /><polygon
     id="12345678910"
     class="fil4"
     points="1171.5,1164.31 1156.39,1179.82 1150.6,1201.21 1135.93,1205.74 1155.09,1134.96 1169.75,1130.43 1161.25,1161.86 1199.4,1121.27 1219.13,1115.18 1184.3,1151.2 1201.46,1185.5 1182.48,1191.36 " /><polygon
     id="1234567891011"
     class="fil4"
     points="1226.95,1166.69 1267.54,1154.15 1264.31,1166.09 1209.06,1183.16 1228.21,1112.37 1282.08,1095.73 1278.84,1107.71 1239.64,1119.82 1235.39,1135.51 1271.87,1124.25 1268.65,1136.16 1232.17,1147.43 " /><polygon
     id="123456789101112"
     class="fil4"
     points="1295.84,1156.35 1303.9,1126.55 1288.38,1093.79 1305.59,1088.48 1315.11,1111.19 1339.44,1078.02 1356.34,1072.8 1318.51,1122.13 1310.47,1151.83 " /><polygon
     id="12345678910111213"
     class="fil4"
     points="1389.15,1116.59 1425.62,1105.33 1422.4,1117.26 1371.25,1133.06 1390.25,1062.85 1404.92,1058.32 " /><polygon
     id="1234567891011121314"
     class="fil4"
     points="1450.77,1097.56 1491.36,1085.02 1488.13,1096.95 1432.87,1114.02 1452.02,1043.24 1505.9,1026.6 1502.65,1038.58 1463.45,1050.69 1459.2,1066.38 1495.68,1055.11 1492.46,1067.03 1455.98,1078.29 " /><path
     id="123456789101112131415"
     class="fil4"
     d="m 1566.11,1072.87 -15.9719,4.9334 -1.9922,-14.1247 -29.0498,8.9732 -10.343,17.9347 -15.5664,4.8084 47.4619,-79.5225 15.5145,-4.7931 9.9469,61.7905 z m -19.4436,-19.6522 -2.9082,-23.1745 -16.9221,29.2997 19.8302,-6.1252 z" /><path
     id="12345678910111213141516"
     class="fil4"
     d="m 1614.74,1034 3.2288,-11.9309 31.622,-9.7678 -7.6305,28.1952 c -3.8642,3.8524 -9.0039,7.7803 -15.4403,11.793 -6.4305,3.9951 -12.6335,6.9221 -18.6054,8.767 -7.5976,2.347 -13.8111,2.8468 -18.6231,1.4935 -4.8085,-1.3686 -7.8557,-4.4901 -9.1324,-9.3964 -1.2778,-4.9051 -0.9996,-10.7462 0.837,-17.535 1.9945,-7.3665 5.3589,-14.4159 10.0754,-21.1281 4.7294,-6.7016 10.5564,-12.5345 17.5056,-17.47489 5.2905,-3.79346 11.4099,-6.75585 18.3473,-8.89896 9.018,-2.78557 15.5735,-3.118 19.6392,-1.00672 4.0763,2.12425 5.9636,6.2077 5.6572,12.2669 l -15.2858,7.15307 c -0.091,-3.158 -1.2744,-5.3141 -3.5566,-6.4517 -2.281,-1.13872 -5.5287,-1.0562 -9.7583,0.2511 -6.4128,1.9804 -12.0405,5.5299 -16.9008,10.6566 -4.8638,5.1421 -8.3308,11.589 -10.4397,19.3834 -2.2704,8.3885 -2.0677,14.1094 0.6366,17.1248 2.6865,3.0213 7.146,3.5612 13.3561,1.6433 3.0791,-0.9513 6.3185,-2.4956 9.7312,-4.6222 3.3962,-2.1207 6.4399,-4.3746 9.1064,-6.724 l 2.4308,-8.9815 -16.8006,5.1904 z" /><path
     id="1234567891011121314151617"
     class="fil4"
     d="m 1671.91,975.322 14.6681,-4.53141 -10.3737,38.33071 c -1.6456,6.0816 -2.5286,9.9788 -2.6594,11.6657 -0.1603,2.7077 0.7179,4.5656 2.5958,5.5865 1.892,1.0314 4.8874,0.9053 8.9826,-0.3584 4.1613,-1.2861 7.5315,-3.0815 10.0955,-5.399 2.5628,-2.3023 4.3841,-4.7366 5.458,-7.2734 1.0963,-2.5581 2.3824,-6.6262 3.8984,-12.228 l 10.5965,-39.1559 14.6705,-4.53141 -10.0613,37.1778 c -2.3023,8.50291 -4.3145,14.62221 -6.0592,18.37791 -1.7458,3.7557 -3.9986,7.1543 -6.7865,10.2357 -2.782,3.0638 -6.1641,5.8764 -10.1061,8.4074 -3.9573,2.5356 -8.8188,4.687 -14.5715,6.4647 -6.9362,2.1419 -11.9887,2.993 -15.1526,2.5356 -3.1628,-0.4574 -5.4403,-1.6114 -6.8478,-3.4575 -1.4087,-1.846 -2.0688,-4.0422 -1.9887,-6.5743 0.1332,-3.7557 1.279,-9.5921 3.4233,-17.5185 l 10.2181,-37.7543 z" /><polygon
     id="123456789101112131415161718"
     class="fil4"
     points="1744.07,1006.96 1784.66,994.424 1781.43,1006.36 1726.17,1023.43 1745.32,952.645 1799.2,936.005 1795.96,947.985 1756.75,960.094 1752.51,975.784 1788.98,964.516 1785.76,976.43 1749.28,987.697 " /></g>
 </g>
</svg>
