<?xml version="1.0" encoding="UTF-8" standalone="no"?>
<!-- Created with Inkscape (http://www.inkscape.org/) -->

<svg
   width="200mm"
   height="200mm"
   viewBox="0 0 200 200"
   id="svg2"
   version="1.1"
   inkscape:version="1.4.2 (f4327f4, 2025-05-13)"
   sodipodi:docname="logo_USHL.svg"
   xmlns:inkscape="http://www.inkscape.org/namespaces/inkscape"
   xmlns:sodipodi="http://sodipodi.sourceforge.net/DTD/sodipodi-0.dtd"
   xmlns="http://www.w3.org/2000/svg"
   xmlns:svg="http://www.w3.org/2000/svg"
   xmlns:rdf="http://www.w3.org/1999/02/22-rdf-syntax-ns#"
   xmlns:cc="http://creativecommons.org/ns#"
   xmlns:dc="http://purl.org/dc/elements/1.1/">
  <defs
     id="defs4" />
  <sodipodi:namedview
     id="base"
     pagecolor="#ffffff"
     bordercolor="#666666"
     borderopacity="1.0"
     inkscape:pageopacity="0.0"
     inkscape:pageshadow="2"
     inkscape:zoom="0.37745139"
     inkscape:cx="290.10358"
     inkscape:cy="462.31119"
     inkscape:document-units="px"
     inkscape:current-layer="layer1"
     showgrid="false"
     fit-margin-top="0"
     fit-margin-left="0"
     fit-margin-right="0"
     fit-margin-bottom="0"
     inkscape:window-width="1920"
     inkscape:window-height="1009"
     inkscape:window-x="-8"
     inkscape:window-y="-8"
     inkscape:window-maximized="1"
     inkscape:showpageshadow="2"
     inkscape:pagecheckerboard="0"
     inkscape:deskcolor="#d1d1d1" />
  <metadata
     id="metadata7">
    <rdf:RDF>
      <cc:Work
         rdf:about="">
        <dc:format>image/svg+xml</dc:format>
        <dc:type
           rdf:resource="http://purl.org/dc/dcmitype/StillImage" />
      </cc:Work>
    </rdf:RDF>
  </metadata>
  <g
     inkscape:label="Layer 1"
     inkscape:groupmode="layer"
     id="layer1"
     transform="translate(-324.13858,-196.08558)">
    <g
       id="g1"
       transform="matrix(0.53861176,0,0,0.53861176,169.86046,91.25283)">
      <path
         id="path4264"
         d="m 324.13858,196.08558 v 12.5 273.128 7.672 l 6.841,3.475 135.461,68.776 5.659,2.873 5.659,-2.873 135.46,-68.776 6.841,-3.475 v -293.3 z m 283.421,285.628 -135.46,68.776 -135.461,-68.776 v -273.128 h 270.921 z"
         inkscape:connector-curvature="0" />
      <path
         id="path4266"
         d="m 336.63858,481.71358 135.461,68.776 135.46,-68.776 v -273.128 h -270.921 z m 52.218,1.324 -34.061,-16.679 v -69.655 h 34.061 z m 16.865,-100.695 h -19.055 c 0,0 -8.119,0.265 -12.696,0.265 -14.976,0 -24.223,-8.766 -20.179,-22.134 l 11.239,-37.146 -2.041,-4.288 h 17.596 l -12.401,40.992 c -2.196,7.258 1.413,11.599 9.107,11.599 7.091,0 13.023,-3.696 15.63,-9.961 l 12.816,-42.364 h 0.101 l 0.08,-0.266 h 14.156 l -0.082,0.266 -12.454,41.168 -5.39,17.812 z m 51.258,134.052 -34.062,-16.68 v -103.011 h 34.062 z m -15.979,-174.161 c 1.086,1.153 3.152,2.126 6.018,2.479 l 8.295,1.065 c 6.425,0.796 10.15,2.389 12.474,4.868 2.935,3.187 3.287,7.792 1.6,13.368 -3.697,12.219 -17.582,19.123 -32.865,19.123 -11.078,0 -18.872,-2.033 -24.151,-8.321 l 9.321,-6.378 2.32,-1.591 c 3.411,3.987 9.265,5.315 16.038,5.315 8.409,0 13.751,-2.747 15.279,-7.794 0.668,-2.212 0.513,-4.072 -0.649,-5.311 -1.089,-1.152 -2.541,-1.77 -5.792,-2.213 l -8.501,-1.062 c -6.013,-0.798 -10.121,-2.481 -12.573,-5.224 -2.576,-3.01 -3.088,-7.083 -1.48,-12.394 3.402,-11.246 15.425,-19.125 31.223,-19.125 10.051,0 16.688,2.127 21.364,7.35 l -11.355,7.702 c -3.464,-3.806 -8.842,-4.339 -13.66,-4.339 -7.591,0 -12.384,3.631 -13.695,7.968 -0.483,1.595 -0.376,3.279 0.789,4.514 z m 81.399,156.935 -31.359,15.355 v -117.82 h 31.359 z m -10.382,-117.093 7.983,-26.384 h -24.719 l -7.983,26.384 h -14.256 l 17.854,-59.015 c 0,0 -2.368,-4.023 -2.369,-4.021 h 17.842 l -7.792,25.763 h 24.72 l 7.792,-25.763 h 14.256 l -19.071,63.036 z m 77.386,84.283 -32.942,16.131 v -85.786 h 32.942 z m -2.445,-84.283 h -47.387 l 17.775,-58.748 -1.845,-4.288 h 17.4 l -15.75,52.057 h 28.865 l 5.341,-3.555 z m 4.4,-156.962 v 80.574 h -59.996 l 30.631,-22.255 h -68.673 l -18.949,-58.319 z m -238.519,0 h 116.988 l -18.95,58.319 h -68.672 l 30.631,22.255 h -59.997 z"
         inkscape:connector-curvature="0"
         style="fill:#ffffff" />
      <polygon
         id="polygon4268"
         points="30.657,200.618 30.657,270.273 64.718,286.952 64.718,200.618 "
         style="fill:#c6093b"
         transform="translate(324.13858,196.08558)" />
      <polygon
         id="polygon4270"
         points="98.779,200.618 98.779,303.629 132.841,320.309 132.841,200.618 "
         style="fill:#c6093b"
         transform="translate(324.13858,196.08558)" />
      <polygon
         id="polygon4272"
         points="232.322,200.618 232.322,286.404 265.265,270.273 265.265,200.618 "
         style="fill:#c6093b"
         transform="translate(324.13858,196.08558)" />
      <polygon
         id="polygon4274"
         points="166.901,200.618 166.901,318.438 198.261,303.083 198.261,200.618 "
         style="fill:#c6093b"
         transform="translate(324.13858,196.08558)" />
      <polygon
         id="polygon4276"
         points="126.739,87.347 145.689,29.028 28.701,29.028 28.701,109.602 88.698,109.602 58.067,87.347 "
         transform="translate(324.13858,196.08558)" />
      <polygon
         id="polygon4278"
         points="207.224,109.602 267.22,109.602 267.22,29.028 150.232,29.028 169.182,87.347 237.854,87.347 "
         transform="translate(324.13858,196.08558)" />
      <path
         id="path4280"
         d="m 419.99258,319.30558 0.082,-0.266 h -14.156 l -0.08,0.266 h -0.101 l -12.816,42.364 c -2.607,6.265 -8.539,9.961 -15.63,9.961 -7.694,0 -11.303,-4.341 -9.107,-11.599 l 12.401,-40.992 h -17.596 l 2.041,4.288 -11.239,37.146 c -4.044,13.368 5.203,22.134 20.179,22.134 4.577,0 12.696,-0.265 12.696,-0.265 h 19.055 l -3.573,-4.057 5.39,-17.812 z"
         inkscape:connector-curvature="0" />
      <path
         id="path4282"
         d="m 453.90658,329.75258 c 4.818,0 10.196,0.533 13.66,4.339 l 11.355,-7.702 c -4.676,-5.223 -11.313,-7.35 -21.364,-7.35 -15.798,0 -27.821,7.879 -31.223,19.125 -1.608,5.311 -1.096,9.384 1.48,12.394 2.452,2.743 6.56,4.426 12.573,5.224 l 8.501,1.062 c 3.251,0.443 4.703,1.061 5.792,2.213 1.162,1.239 1.317,3.099 0.649,5.311 -1.528,5.047 -6.87,7.794 -15.279,7.794 -6.773,0 -12.627,-1.328 -16.038,-5.315 l -2.32,1.591 -9.321,6.378 c 5.279,6.288 13.073,8.321 24.151,8.321 15.283,0 29.168,-6.904 32.865,-19.123 1.687,-5.576 1.335,-10.181 -1.6,-13.368 -2.324,-2.479 -6.049,-4.072 -12.474,-4.868 l -8.295,-1.065 c -2.866,-0.353 -4.932,-1.326 -6.018,-2.479 -1.165,-1.236 -1.272,-2.919 -0.789,-4.514 1.311,-4.338 6.104,-7.968 13.695,-7.968 z"
         inkscape:connector-curvature="0" />
      <polygon
         id="polygon4284"
         points="261.88,175.011 233.015,175.011 248.765,122.954 231.364,122.954 233.209,127.242 215.434,185.99 262.82,185.99 267.221,171.456 "
         transform="translate(324.13858,196.08558)" />
      <polygon
         id="polygon4286"
         points="166.758,126.975 148.904,185.99 163.16,185.99 171.144,159.606 195.862,159.606 187.879,185.99 202.135,185.99 221.206,122.954 206.95,122.954 199.158,148.717 174.438,148.717 182.23,122.954 164.389,122.954 "
         transform="translate(324.13858,196.08558)" />
    </g>
  </g>
</svg>
