<?xml version="1.0" encoding="UTF-8" standalone="no"?>
<svg
   id="svg11315"
   height="200"
   width="200"
   version="1.1"
   sodipodi:docname="logo_SBR.svg"
   inkscape:version="1.4.2 (f4327f4, 2025-05-13)"
   xmlns:inkscape="http://www.inkscape.org/namespaces/inkscape"
   xmlns:sodipodi="http://sodipodi.sourceforge.net/DTD/sodipodi-0.dtd"
   xmlns="http://www.w3.org/2000/svg"
   xmlns:svg="http://www.w3.org/2000/svg">
  <defs
     id="defs1" />
  <sodipodi:namedview
     id="namedview1"
     pagecolor="#ffffff"
     bordercolor="#000000"
     borderopacity="0.25"
     inkscape:showpageshadow="2"
     inkscape:pageopacity="0.0"
     inkscape:pagecheckerboard="0"
     inkscape:deskcolor="#d1d1d1"
     showgrid="false"
     inkscape:zoom="2.4184915"
     inkscape:cx="205.5"
     inkscape:cy="158.9834"
     inkscape:window-width="1920"
     inkscape:window-height="1009"
     inkscape:window-x="-8"
     inkscape:window-y="-8"
     inkscape:window-maximized="1"
     inkscape:current-layer="svg11315" />
  <g
     id="g1"
     transform="matrix(0.53849957,0,0,0.53849957,-11.674503,18.103078)">
    <g
       id="id1">
      <path
         id="path11318"
         fill-rule="nonzero"
         fill="#004f42"
         d="m 260.43359,160.10156 c 0,38.54297 -31.25,69.78906 -69.79297,69.78906 -38.54296,0 -69.78906,-31.24609 -69.78906,-69.78906 0,-38.54687 31.2461,-69.792966 69.78906,-69.792966 38.54297,0 69.79297,31.246096 69.79297,69.792966" />
      <path
         id="path11320"
         stroke-linejoin="miter"
         d="m 270.66016,160.09766 c 0,44.19531 -35.82813,80.02343 -80.01954,80.02343 -44.19531,0 -80.02343,-35.82812 -80.02343,-80.02343 0,-44.19532 35.82812,-80.019535 80.02343,-80.019535 44.19141,0 80.01954,35.824215 80.01954,80.019535 z"
         stroke="#000000"
         stroke-linecap="butt"
         stroke-miterlimit="10"
         stroke-width="2.5"
         fill="none" />
      <path
         id="path11322"
         fill-rule="nonzero"
         fill="#ffffff"
         d="m 202.73828,219.10937 59.97656,58.17969 -31.39453,-111.96094 140.32813,-92.878901 -157.46485,34.414061 -24.33203,-86.83203 -26.49609,93.38672 -66.816408,1.4375 52.414058,47.80859 -4.67578,22.32031 c -3.16797,2.375 -6.26562,6.33594 -7.84765,10.08204 -1.94532,4.32031 0.14062,8.13671 0.5039,12.02343 l -14.1875,50.39844 42.26563,-33.69531 c 6.83984,0.35937 3.96094,0.64844 10.9414,0.21875 15.19141,-0.9375 19.01172,-2.3086 26.78516,-4.90235" />
      <path
         id="path11324"
         stroke-linejoin="miter"
         d="m 202.73828,219.10937 59.97656,58.17969 -31.39453,-111.96094 140.32813,-92.878901 -157.46485,34.414061 -24.33203,-86.83203 -26.49609,93.38672 -66.816408,1.4375 52.414058,47.80859 -4.67578,22.32031 c -3.16797,2.375 -6.26562,6.33594 -7.84765,10.08204 -1.94532,4.32031 0.14062,8.13671 0.5039,12.02343 l -14.1875,50.39844 42.26563,-33.69531 c 6.83984,0.35937 3.96094,0.64844 10.9414,0.21875 15.19141,-0.9375 19.01172,-2.3086 26.78516,-4.90235 z"
         stroke="#ffffff"
         stroke-linecap="butt"
         stroke-miterlimit="6"
         stroke-width="5"
         fill="none" />
      <path
         id="path11326"
         fill-rule="nonzero"
         fill="#000000"
         d="M 202.69141,219.26562 262.66797,277.44141 231.27734,165.48047 371.60547,72.601562 214.14062,107.01953 189.80859,20.1875 l -26.49609,93.38281 -66.816406,1.4375 52.414066,47.8086 -4.67969,22.32031 c -3.16797,2.375 -6.26172,6.33594 -7.84766,10.08203 -1.9414,4.32031 0.14453,8.13672 0.50391,12.02344 l -14.18359,50.39843 42.26562,-33.69531 c 6.83984,0.35938 3.95703,0.64844 10.94141,0.21485 15.1914,-0.9336 19.01171,-2.30469 26.78125,-4.89454" />
      <path
         id="path11328"
         fill-rule="nonzero"
         fill="#ffffff"
         d="m 141.92969,215.23047 -8.71485,15.05078 4.03125,-11.66406 -16.05468,20.08593 12.96093,-21.09375 -19.37109,19.29297 17.64453,-22.82031 -17.57031,15.04688 15.98437,-18.35938 -15.625,10.80078 20.37891,-21.02344 c 0.35547,4.82422 3.45312,6.83985 5.25391,10.72657 z" />
      <path
         id="path11330"
         fill-rule="nonzero"
         fill="#ffffff"
         d="m 149.63281,158.85547 -6.69531,-15.91016 -10.29688,-9 c 0.50391,-1.08203 1.29688,-2.80859 1.72657,-4.03125 0.5039,-1.15234 0.64843,-2.66406 0.71875,-4.25 l 35.5,0.79297 19.07812,-65.160155 15.47656,61.917965 56.95313,-11.30078 c 0.21484,2.08594 0.86328,4.17578 1.51172,5.54297 0.64844,1.36719 2.30469,3.74219 3.09765,4.96875 l -50.97656,37.15234 16.62891,68.1836 -14.32422,-13.53516 c -1.65625,0.9336 -2.44922,1.51172 -4.96875,2.23047 l 30.52734,28.73047 -21.67187,-82.51563 56.51953,-39.45703 c -2.30469,-1.14843 -5.76172,-5.6875 -7.27344,-9.21484 -0.86328,-2.08594 -1.65234,-4.32031 -1.51172,-10.36719 l -60.62109,12.45703 -19.36719,-74.449215 -21.96094,79.417965 h -35.85546 c 0.21875,2.30079 -0.28516,5.1836 -1.07813,7.77344 -0.79297,2.59375 -2.23437,5.47266 -3.60156,6.41016 l 16.19922,14.03906 4.82422,9.72266 v 3.59765 l 0.71875,0.0703 z" />
      <path
         id="path11332"
         fill-rule="nonzero"
         fill="#ffffff"
         d="m 151.28516,219.69531 c -1.65235,-0.93359 -3.52344,-2.30469 -5.46875,-3.52344 l -4.60938,-12.53125 1.15234,9.14454 -9.14453,28.72656 22.17578,-18.14063 c 0.71875,0.50391 3.09766,1.29688 7.41797,2.44532 l 2.23047,-1.8711 c -7.99219,-1.58594 -12.09765,-3.3125 -13.7539,-4.25" />
      <path
         id="path11334"
         fill-rule="nonzero"
         fill="#e10028"
         d="m 201.47266,125.73828 -3.89063,-15.98437 -4.10156,9.21484 3.30859,-12.96094 -7.77344,15.41016 6.40625,-21.24219 -10.58203,23.76172 8.92969,-30.671875 -12.74609,31.390625 10.87109,-39.457031 -13.39062,36.937501 6.40625,-32.183595 -12.45704,39.742185 -26.20703,-0.86328 7.48828,9.07422 1.44141,-1.80078 -4.53516,-6.83985 9.14063,7.12891 3.38672,-3.16797 2.59375,3.74219 4.3164,-3.81641 3.81641,4.53516 5.90625,-4.53516 5.03906,5.03907 z" />
      <path
         id="path11336"
         fill-rule="nonzero"
         fill="#ffffff"
         d="m 201.47266,125.73828 -16.77735,9.28516 -4.60937,-4.60547 -5.97657,4.46484 -3.59765,-4.17969 -4.32031,3.45704 -2.73829,-3.38282 -4.02734,3.23828 -7.41797,-3.8164 7.77344,6.19531 3.38672,-3.16797 2.59375,3.74219 4.3164,-3.81641 3.81641,4.53516 5.90625,-4.53516 5.03906,5.03907 z" />
      <path
         id="path11338"
         fill-rule="nonzero"
         fill="#e10028"
         d="m 193.76953,150.21484 -14.47656,-9.64453 -6.1875,4.60547 -3.81641,-5.18359 -4.10547,3.60156 -3.09765,-2.95313 -4.10157,2.59375 -10.72656,42.40625 c 4.17578,0.14454 9.07031,-0.0703 13.39063,0.79297 3.24218,0.64844 9.21484,1.72657 14.47265,3.52735 l 5.47266,-14.83203 4.32031,-2.08985 -2.95312,-3.16797 4.24609,-0.64453 -4.24609,-4.10547 5.76172,-0.57422 -4.75391,-3.3125 6.625,-0.0742 -5.90625,-3.16797 7.20312,-0.35938 -7.20312,-3.8164 8.71484,-0.28516 -8.13672,-4.75391 z" />
      <path
         id="path11340"
         fill-rule="nonzero"
         fill="#000000"
         d="m 162.80859,168.14453 c 0.64453,0 1.29688,0.28906 2.01563,0.43359 0.57422,0.14063 1.36719,0.35938 1.87109,0.57422 -0.5039,-0.35937 -1.22265,-0.71875 -1.72656,-1.07812 -0.64844,-0.4336 -1.29688,-0.9375 -1.94531,-1.22656 -0.64844,0.14453 -1.44141,0.43359 -2.08594,0.64843 -0.72266,0.21485 -1.37109,0.57813 -2.08984,0.79297 0.64453,-0.0742 1.4375,-0.21484 2.01562,-0.21484 0.64844,-0.0742 1.29688,-0.0742 1.94531,0.0703" />
      <path
         id="path11342"
         fill-rule="nonzero"
         fill="#000000"
         d="m 162.16016,174.33594 c 1.22656,0.14453 2.44531,0.5039 3.74218,0.79297 1.22657,0.21484 2.66407,0.71875 3.88672,1.07812 -1.07812,-0.71875 -2.58984,-1.4375 -3.67187,-2.08594 -1.14844,-0.57812 -2.44532,-1.36718 -3.52344,-1.94531 -1.37109,0.21875 -2.59375,0.57813 -3.89063,0.86328 -1.14843,0.28906 -2.44531,0.79297 -3.74218,1.15235 1.22265,-0.0703 2.51953,-0.14454 3.74218,-0.0703 1.15235,0 2.375,0 3.45704,0.21485" />
      <path
         id="path11344"
         fill-rule="nonzero"
         fill="#000000"
         d="m 161.29687,180.96094 c -1.94531,-0.4336 -4.03125,-0.4336 -5.98046,-0.50391 -1.94141,-0.0742 -4.10157,0 -6.11719,0 2.08594,-0.64844 4.17578,-1.08203 6.1914,-1.51172 2.01563,-0.5039 4.10547,-1.00781 6.19141,-1.4414 1.07813,0.64843 2.16016,1.22656 3.23828,1.80078 1.00781,0.5039 2.08985,1.22265 3.16797,1.80078 1.00781,0.5039 2.08984,1.22265 3.24219,1.79687 1.07812,0.64844 2.30469,1.29688 3.45312,1.94532 -1.14843,-0.4336 -2.375,-0.71875 -3.52343,-1.07813 -1.15235,-0.43359 -2.30469,-0.86719 -3.38672,-1.15234 -1.15235,-0.35938 -2.23438,-0.71875 -3.3125,-1.00782 -1.00782,-0.14453 -2.08594,-0.5039 -3.16407,-0.64843" />
      <path
         id="path11346"
         fill-rule="nonzero"
         fill="#ffffff"
         d="m 216.01562,200.03906 -8.57031,-0.0703 5.6875,2.16016 c 1.00781,-0.72266 2.16016,-1.44141 2.88281,-2.08985" />
      <path
         id="path11348"
         fill-rule="nonzero"
         fill="#ffffff"
         d="m 218.53125,196.08203 h -13.96484 l 12.09375,3.23828 c 0.72265,-1.14844 1.51562,-2.16015 1.87109,-3.23828" />
      <path
         id="path11350"
         fill-rule="nonzero"
         fill="#ffffff"
         d="m 219.39844,191.54297 -19.72657,-0.42969 19.21875,4.10156 c 0.29297,-1.0039 0.50782,-2.51953 0.50782,-3.67187" />
      <path
         id="path11352"
         fill-rule="nonzero"
         fill="#ffffff"
         d="m 219.32422,190.75391 -1.07813,-3.96094 h -19.65234 z" />
      <path
         id="path11354"
         fill-rule="nonzero"
         fill="#ffffff"
         d="m 217.01953,181.82422 -19.58203,0.43359 20.66406,3.38281 z" />
      <path
         id="path11356"
         fill-rule="nonzero"
         fill="#ffffff"
         d="m 216.08594,177.50391 -19.4375,-0.14454 20.08203,3.38672 z" />
      <path
         id="path11358"
         fill-rule="nonzero"
         fill="#ffffff"
         d="m 214.85937,172.96875 h -18.14062 l 18.86328,2.73437 z" />
      <path
         id="path11360"
         fill-rule="nonzero"
         fill="#ffffff"
         d="m 213.63672,167.49609 h -14.25391 l 14.97266,3.23828 z" />
      <path
         id="path11362"
         fill-rule="nonzero"
         fill="#ffffff"
         d="m 162.30469,190.32031 c -7.41797,-1.22265 -17.35547,-1.51172 -17.35547,-1.51172 -2.94922,2.44922 -4.10156,4.17578 -5.32813,7.27344 l 3.82032,-2.23047 2.08593,7.48438 c 5.32813,2.30468 13.03125,3.74609 19.29688,4.60937 l 1.22265,-0.14453 3.60157,9.35938 0.71875,1.51171 1.15234,-2.08593 4.10156,9.57422 9.86719,21.74218 -7.70703,-25.84765 15.55469,27.9375 -11.73828,-28.8711 18.5039,27.71875 L 184.625,217.75 207.01562,244.67969 187.50391,215.23047 209.75,237.625 l -21.52344,-26.71484 15.6211,11.59375 -19.29297,-20.375 6.76562,5.04296 -12.88672,-12.38671 c -5.90625,-1.80079 -7.84765,-3.02344 -16.1289,-4.46485" />
      <path
         id="path11364"
         fill-rule="nonzero"
         fill="#e10028"
         d="m 322.35547,93.191406 -38.44531,26.640624 c -3.89063,-0.64844 -9.9375,-9.35937 -8.57032,-17.64062 z" />
      <path
         id="path11366"
         fill-rule="nonzero"
         fill="#ffffff"
         d="m 261.51953,122.64063 c -1.29687,-1.94532 -2.30859,-3.96094 -2.95312,-6.55079 l -9.4336,2.08594 L 238.98047,123 254.75,119.40234 l -14.61719,9.14063 16.70313,-5.46875 -16.05469,9.86328 13.32031,-5.11328 z" />
      <path
         id="path11368"
         fill-rule="nonzero"
         fill="#e10028"
         d="m 128.32031,120.55078 -18.28906,0.21875 14.11328,12.09375 c 1.29297,-1.15234 2.94922,-3.81641 3.52735,-5.83203 0.57421,-1.94141 0.86328,-4.10156 0.64843,-6.48047" />
      <path
         id="path11370"
         fill-rule="nonzero"
         fill="#e10028"
         d="m 201.75781,127.10547 0.50391,1.9414 8.78125,-1.72656 -17.77735,12.89063 -2.375,-1.73047 z" />
      <path
         id="path11372"
         fill-rule="nonzero"
         fill="#e10028"
         d="m 231.20312,144.09766 -20.8789,14.18359 -5.47266,-5.32813 c 0,0 4.25,1.00782 7.05469,0.50391 2.73828,-0.50391 5.32812,-2.08984 6.69922,-3.09766 1.4375,-1.07812 3.8164,-4.03125 5.18359,-6.40625 1.36719,-2.44921 2.44531,-4.89453 2.44531,-4.89453 z" />
      <path
         id="path11374"
         fill-rule="nonzero"
         fill="#e10028"
         d="m 226.09375,125.51953 -14.97656,9.86719 c 3.74218,-1.15235 6.40625,-2.8086 12.67187,-2.08985 6.48047,0.71875 11.23047,4.60938 11.23047,4.60938 0,0 -1.65625,-4.53906 -3.95703,-7.20313 -3.02734,-3.52734 -4.96875,-5.18359 -4.96875,-5.18359" />
      <path
         id="path11376"
         fill-rule="nonzero"
         fill="#ffffff"
         d="m 221.41016,136.46484 -3.67188,1.94532 c 0,0 0,3.52734 -1.07812,6.33593 -1.00782,2.80469 -3.09766,6.19141 -3.09766,6.19141 0,0 1.22656,-0.21875 2.66406,-1.29688 1.51172,-1.00781 2.88281,-2.80859 3.45703,-3.88671 0.50391,-1.00782 1.00782,-1.80079 1.29688,-3.09766 0.28906,-1.36719 0.79297,-3.67188 0.64844,-4.39063 -0.14454,-0.71875 -0.21875,-1.80078 -0.21875,-1.80078" />
      <path
         id="path11378"
         fill-rule="nonzero"
         fill="#ffffff"
         d="m 206.22266,143.95312 -3.52735,1.80079 c 1.29688,1.72656 2.08594,2.80859 3.59766,3.74218 1.51172,0.9375 3.89062,1.65625 6.69531,1.51172 z" />
      <path
         id="path11380"
         fill-rule="nonzero"
         fill="#ffffff"
         d="m 212.55859,140.92969 -3.52734,1.72656 2.73437,3.02344 c 0,0 0.86329,-1.4375 1.00782,-2.58985 0.14062,-0.79297 0,-1.4414 -0.21485,-2.16015" />
      <path
         id="path11382"
         fill-rule="nonzero"
         fill="#ffffff"
         d="M 153.08594,142.00781 151,140.57031 c 0.14453,1.58203 0.64844,2.44531 1.51172,3.45313 z" />
      <path
         id="path11384"
         fill-rule="nonzero"
         fill="#ffffff"
         d="m 146.75,142.00781 5.03906,5.11328 -1.00781,3.38282 c 0,0 -1.94141,-2.30469 -2.66406,-4.03125 -0.78907,-1.65625 -1.36719,-4.46485 -1.36719,-4.46485" />
      <path
         id="path11386"
         fill-rule="nonzero"
         fill="#000000"
         d="m 175.11719,195.57812 -7.91797,9.50391 2.95312,9.50391 1.51172,-3.89063 10.51172,25.78125 -7.84766,-25.41797 14.47266,27 -12.09766,-28.08203 18.35938,28.4375 -16.91797,-30.67187 23.17969,29.01953 -21.3086,-30.74219 23.6875,24.69531 -22.17578,-26.35547 18.64844,14.76172 z" />
      <path
         id="path11388"
         fill-rule="nonzero"
         fill="#000000"
         d="m 140.99219,202.70312 0.64843,8.28125 0.21485,2.44922 -6.76953,12.67188 6.05078,-14.11328 -14.98047,19.58593 15.19531,-22.89453 -22.03125,23.03907 20.58985,-25.41797 -20.73438,18.28906 19.94141,-21.3125 -19.4375,14.32812 17.49609,-15.91406 z" />
      <path
         id="path11390"
         fill-rule="nonzero"
         fill="#000000"
         d="m 150.64062,221.56641 -10.87109,9.57812 4.75,-13.03125 z" />
      <path
         id="path11392"
         fill-rule="nonzero"
         fill="#000000"
         d="m 354.36719,190.42187 v -8.33984 h 12.41406 c 0.83203,0 0.83203,-0.24219 0.83203,-0.40234 0,-0.21875 -0.27734,-0.32813 -0.83203,-0.32813 h -3.24219 c -2.64453,0 -4.79297,-0.46094 -6.22265,-1.33594 -2.33204,-1.58203 -3.59766,-4.15625 -3.59766,-7.26171 0,-3.48047 1.81641,-6.52344 4.74219,-7.94922 1.3789,-0.64844 2.92968,-0.86719 6.16015,-0.86719 h 12.05469 v 8.26953 h -11.04687 c -1.05079,0 -1.05079,0.15625 -1.05079,0.47266 0,0.23437 0,0.40234 0.97657,0.40234 h 2.66406 c 2.375,0 3.82812,0.21875 5.18359,0.77734 3.07422,1.15235 5,4.125 5,7.75 0,3.25782 -1.73437,6.14454 -4.64062,7.71485 -1.22656,0.61328 -2.6211,0.9375 -4.69141,1.09765 z" />
      <path
         id="path11394"
         fill-rule="nonzero"
         fill="#ffffff"
         d="m 375.92578,164.6875 v 6.76953 h -10.29687 c -1.36719,0 -1.80079,0.35938 -1.80079,1.22266 0,0.79297 0.4336,1.15234 1.73047,1.15234 h 2.66407 c 2.30078,0 3.67187,0.21484 4.89453,0.71875 2.8789,1.08203 4.53515,3.81641 4.53515,7.05859 0,3.02344 -1.58203,5.61719 -4.25,7.05469 -1.14843,0.57813 -2.51562,0.86328 -4.39062,1.00781 h -13.89844 v -6.83984 h 11.66406 c 1.00782,0 1.58594,-0.35937 1.58594,-1.15234 0,-0.71875 -0.57812,-1.07813 -1.58594,-1.07813 h -3.23828 c -2.51953,0 -4.53515,-0.43359 -5.83203,-1.22265 -2.01562,-1.3711 -3.23828,-3.67579 -3.23828,-6.625 0,-3.16797 1.65234,-5.97657 4.31641,-7.27344 1.22656,-0.57422 2.66406,-0.79297 5.83203,-0.79297 h 11.30859 m 1.5,-1.5 h -12.80469 c -3.35156,0 -4.98437,0.23828 -6.47265,0.9375 -3.20313,1.55469 -5.17969,4.85937 -5.17969,8.62891 0,3.36328 1.38281,6.15625 3.89453,7.86328 l 0.0625,0.0391 c 0.42578,0.25781 0.90234,0.48437 1.43359,0.67578 h -4.74218 v 9.83984 h 15.45312 l 0.0586,-0.004 c 2.17187,-0.16406 3.65234,-0.51563 4.94531,-1.16016 3.19922,-1.72656 5.07812,-4.85937 5.07812,-8.39844 0,-3.94531 -2.10937,-7.1875 -5.50781,-8.46093 -0.16797,-0.0703 -0.33594,-0.13282 -0.50781,-0.19141 h 4.28906 z" />
      <path
         id="path11396"
         fill-rule="nonzero"
         fill="#000000"
         d="m 330.10156,190.42187 v -8.6289 h 2.88281 v -9.22656 h -2.88281 v -8.62891 h 15.83203 v 8.62891 h -2.88281 v 9.22656 h 8.64063 v 8.6289 z" />
      <path
         id="path11398"
         fill-rule="nonzero"
         fill="#ffffff"
         d="m 345.18359,164.6875 v 7.12891 h -2.88281 v 10.72656 h 8.64063 v 7.1289 h -20.08594 v -7.1289 h 2.8789 v -10.72656 h -2.8789 v -7.12891 z m 1.5,-1.5 h -17.32812 v 10.12891 h 2.8789 v 7.72656 h -2.8789 v 10.1289 h 23.08594 v -10.1289 h -8.64063 v -7.72656 h 2.88281 z" />
      <path
         id="path11400"
         fill-rule="nonzero"
         fill="#000000"
         d="m 306.19922,190.42187 v -8.6289 h 2.8789 v -9.22656 h -2.8789 v -8.62891 h 15.82812 v 8.62891 h -2.88281 v 9.22656 h 8.57031 v 8.6289 z" />
      <path
         id="path11402"
         fill-rule="nonzero"
         fill="#ffffff"
         d="m 321.27734,164.6875 v 7.12891 h -2.88281 v 10.72656 h 8.57031 v 7.1289 h -20.01562 v -7.1289 h 2.8789 v -10.72656 h -2.8789 v -7.12891 z m 1.5,-1.5 h -17.32812 v 10.12891 h 2.8789 v 7.72656 h -2.8789 v 10.1289 h 23.01562 v -10.1289 h -8.5664 v -7.72656 h 2.8789 z" />
      <path
         id="path11404"
         fill-rule="nonzero"
         fill="#000000"
         d="m 289.38281,191.21484 c -3.6914,0 -7.33594,-1.46093 -9.28125,-3.71875 -1.44531,-1.67968 -2.27344,-4.16797 -2.27344,-6.82422 v -8.10546 h -2.80468 v -8.62891 h 12.94922 v 15.51172 c 0,1.98437 0.94921,1.98437 1.40625,1.98437 0.40234,0 1.33984,0 1.33984,-1.98437 l 0.0742,-15.51172 h 12.94531 v 8.62891 h -2.80859 v 8.10546 c 0,2.98047 -1.0586,5.69532 -2.89453,7.45704 -1.95704,1.875 -5.35157,3.08593 -8.65235,3.08593" />
      <path
         id="path11406"
         fill-rule="nonzero"
         fill="#ffffff"
         d="m 302.98828,164.6875 v 7.12891 h -2.80859 v 8.85546 c 0,2.8086 -1.00782,5.33204 -2.66407,6.91407 -1.79687,1.72656 -4.96484,2.8789 -8.13281,2.8789 -3.53125,0 -6.91406,-1.36718 -8.71484,-3.45703 -1.29688,-1.51172 -2.08985,-3.8164 -2.08985,-6.33594 v -8.85546 h -2.80859 v -7.12891 h 11.44922 v 14.76172 c 0,1.80078 0.71875,2.73437 2.16016,2.73437 1.36718,0 2.08984,-0.93359 2.08984,-2.73437 l 0.0703,-14.76172 h 11.44922 m 1.5,-1.5 h -14.44141 l -0.008,1.49609 -0.0703,14.75782 c 0,1.24218 -0.33984,1.24218 -0.58594,1.24218 -0.33984,0 -0.66015,0 -0.66015,-1.23437 V 163.1875 h -14.44922 v 10.12891 h 2.80859 v 7.35546 c 0,2.83204 0.89063,5.5 2.44922,7.3125 2.11719,2.45704 5.89062,3.98047 9.85156,3.98047 3.53906,0 7.05469,-1.26172 9.17188,-3.29687 1.98828,-1.89844 3.1289,-4.8125 3.1289,-7.9961 v -7.35546 h 2.8086 V 163.1875 Z" />
      <path
         id="path11408"
         fill-rule="nonzero"
         fill="#000000"
         d="m 248.09766,190.42187 v -17.85546 h -2.8125 v -8.62891 h 18.10546 c 5.32813,0 8.38282,2.58594 8.38282,7.08594 0,2.02734 -0.65625,3.71093 -1.89844,4.86718 -0.21875,0.22266 -0.4375,0.39844 -0.68359,0.5586 2.25781,1.10156 3.51562,3.24219 3.51562,6.09375 0,2.94531 -1.35156,5.47656 -3.61328,6.77344 -1.23828,0.69531 -3.42188,1.10546 -5.85156,1.10546 z m 12.48046,-8.26953 c 1.26954,0 1.26954,-0.28515 1.26954,-0.61718 0,-0.21094 0,-0.47266 -1.26954,-0.47266 h -2.48437 v 1.08984 z m -0.57031,-8.85547 c 0.3086,0 0.42578,-0.0391 0.72656,-0.16015 0.23047,-0.0703 0.39454,-0.33203 0.39454,-0.45703 0,-0.30469 0,-0.54688 -0.98047,-0.54688 h -2.05469 v 1.16406 z" />
      <path
         id="path11410"
         fill-rule="nonzero"
         fill="#ffffff"
         d="m 263.39062,164.6875 c 4.89454,0 7.63282,2.30469 7.63282,6.33594 0,1.80078 -0.57813,3.3125 -1.65625,4.32031 -0.50391,0.50391 -0.9375,0.72266 -2.16016,1.22656 3.09375,0.64453 4.75,2.8086 4.75,5.97266 0,2.73828 -1.22266,4.96875 -3.23828,6.12109 -1.15234,0.64844 -3.23828,1.00781 -5.47266,1.00781 h -14.39843 v -17.85546 h -2.8125 v -7.12891 h 17.35546 m -6.05078,9.35937 h 2.66407 c 0.43359,0 0.64843,-0.0703 1.01171,-0.21484 0.50391,-0.14453 0.85938,-0.71875 0.85938,-1.15234 0,-0.9336 -0.57422,-1.29688 -1.72656,-1.29688 h -2.8086 v 2.66406 m 0,8.85938 h 3.23828 c 1.3711,0 2.01954,-0.36328 2.01954,-1.37109 0,-0.86329 -0.57422,-1.22266 -2.01954,-1.22266 h -3.23828 v 2.59375 m 6.05078,-19.71875 h -18.85546 v 10.12891 h 2.80859 v 17.85546 h 15.89844 c 2.58593,0 4.85156,-0.4375 6.21093,-1.19921 2.51172,-1.4375 4.00391,-4.21094 4.00391,-7.42969 0,-2.73828 -1.05078,-4.88672 -2.96094,-6.20703 1.3086,-1.28125 2.02344,-3.16407 2.02344,-5.3125 0,-4.90625 -3.41406,-7.83594 -9.12891,-7.83594" />
      <path
         id="path11412"
         fill-rule="nonzero"
         fill="#000000"
         d="M 92.148438,190.35156 90.78125,186.89453 H 83.5625 l -1.078125,3.45703 h -11.0625 l 6.621094,-17.78515 h -3.125 v -8.62891 h 18.105469 l 10.609372,26.41406 z m -3.9375,-12.15625 -1.082032,-3.02734 -1.046875,3.02734 z" />
      <path
         id="path11414"
         fill-rule="nonzero"
         fill="#ffffff"
         d="m 92.515625,164.6875 10.007815,24.91406 h -9.863284 l -1.367187,-3.45703 h -8.28125 l -1.078125,3.45703 H 72.5 l 6.625,-17.78515 h -3.457031 v -7.12891 z m -7.488281,14.25781 h 4.25 l -2.089844,-5.83203 -0.07031,-0.21484 -2.089844,6.04687 M 93.531252,163.1875 H 74.167971 v 10.12891 h 2.796875 l -5.871094,15.76171 -0.753906,2.02344 h 12.695312 l 0.328125,-1.05469 0.75,-2.40234 h 6.160157 l 0.992187,2.50781 0.375,0.94922 h 13.101563 l -0.82813,-2.05859 -10.007808,-24.91406 z" />
      <path
         id="path11416"
         fill-rule="nonzero"
         fill="#000000"
         d="m 52.382812,190.35156 v -8.55859 h 2.878907 v -9.22656 h -6.839844 v -8.69922 h 23.605469 v 8.69922 h -6.699219 v 9.22656 h 2.808594 v 8.55859 z" />
      <path
         id="path11418"
         fill-rule="nonzero"
         fill="#ffffff"
         d="m 71.277344,164.61719 v 7.19922 h -6.699219 v 10.73046 h 2.808594 v 7.05469 H 53.132812 v -7.05469 h 2.878907 v -10.73046 h -6.839844 v -7.19922 z m 1.5,-1.5 H 47.671875 v 10.19922 h 6.839844 v 7.73046 h -2.878907 v 10.05469 h 17.253907 v -10.05469 h -2.808594 v -7.73046 h 6.699219 z" />
      <path
         id="path11420"
         fill-rule="nonzero"
         fill="#000000"
         d="m 23.007812,190.35156 v -8.26953 h 12.414063 c 0.378906,0 0.832031,-0.0703 0.832031,-0.40234 0,-0.16016 0,-0.40235 -0.761718,-0.40235 h -3.3125 c -2.757813,0 -4.855469,-0.42187 -6.222657,-1.26172 -2.324219,-1.65625 -3.527343,-4.15625 -3.527343,-7.26171 0,-3.55469 1.746093,-6.52344 4.671874,-7.94922 1.378907,-0.64844 2.929688,-0.86719 6.160157,-0.86719 h 3.597656 l 8.453125,-0.0781 v 8.34766 H 34.269531 c -0.867187,0 -1.011719,0.13281 -1.019531,0.14063 0,0 -0.03125,0.0547 -0.03125,0.26171 0,0.27344 0,0.47266 0.976562,0.47266 h 2.664063 c 2.179687,0 3.738281,0.11328 5.242187,0.69922 3.097657,1.27344 4.941407,4.16797 4.941407,7.75391 0,3.27734 -1.6875,6.11328 -4.628907,7.78125 -1.265624,0.63281 -2.734374,0.95703 -4.660156,1.03515 z" />
      <path
         id="path11422"
         fill-rule="nonzero"
         fill="#ffffff"
         d="m 44.5625,164.61719 v 6.83984 H 34.269531 c -1.371093,0 -1.800781,0.28906 -1.800781,1.15234 0,0.86329 0.503906,1.22266 1.726562,1.22266 h 2.664063 c 2.304687,0 3.671875,0.14453 4.96875,0.64844 2.808594,1.15234 4.464844,3.8164 4.464844,7.05469 0,3.02734 -1.582031,5.61718 -4.25,7.1289 -1.152344,0.57813 -2.519531,0.86328 -4.320313,0.9375 h -13.96875 v -6.76953 h 11.664063 c 1.007812,0 1.585937,-0.42969 1.585937,-1.15234 0,-0.79297 -0.578125,-1.15235 -1.511718,-1.15235 h -3.3125 c -2.519532,0 -4.535157,-0.35937 -5.832032,-1.15234 -2.015625,-1.4375 -3.167968,-3.67188 -3.167968,-6.62109 0,-3.24219 1.585937,-5.97657 4.25,-7.27344 1.222656,-0.57422 2.664062,-0.79297 5.832031,-0.79297 h 3.597656 l 7.703125,-0.0703 m 1.5,-1.51563 -1.511719,0.0156 -7.703125,0.0703 h -3.589844 c -3.351562,0 -4.984374,0.23828 -6.46875,0.9375 -3.207031,1.55859 -5.109374,4.78125 -5.109374,8.62891 0,3.35546 1.3125,6.07031 3.796874,7.84375 l 0.04297,0.0312 0.04297,0.0273 c 0.433594,0.26562 0.917969,0.48828 1.460938,0.67578 h -4.769532 v 9.76953 h 15.527344 c 2.035156,-0.082 3.601562,-0.42969 4.933594,-1.09375 l 0.07031,-0.0391 c 3.179688,-1.80469 5.007813,-4.87891 5.007813,-8.43359 0,-3.84375 -2.066407,-7.07813 -5.394531,-8.44141 -0.125,-0.0508 -0.25,-0.0937 -0.375,-0.13672 H 46.0625 Z" />
      <path
         id="path11424"
         fill-rule="nonzero"
         fill="#000000"
         d="m 118.42188,185.96484 -1.10938,-1.10547 v 5.49219 h -12.94531 v -8.55859 h 2.94922 v -9.22656 h -2.94922 v -8.62891 h 15.36328 c 3.77344,0 5.61328,0.33594 7.29297,1.32812 2.5039,1.61329 4.03906,4.61329 4.03906,7.84766 0,3.14453 -1.18359,5.50391 -3.71094,7.35547 l 10.11328,9.16797 -0.33984,0.53125 c -2.39844,3.76953 -2.94531,5.60547 -3.29297,8.89844 l -0.16016,1.52343 z m -0.85157,-8.77734 c 0.48828,0 0.875,0 1.2461,-0.0625 1.16015,-0.27734 1.67578,-1.02734 1.67578,-2.5 0,-1.30469 -0.53125,-2.01172 -1.72656,-2.29297 -0.36329,-0.0586 -0.75391,-0.125 -1.19532,-0.125 h -0.25781 v 4.98047 z" />
      <path
         id="path11426"
         fill-rule="nonzero"
         fill="#ffffff"
         d="m 119.73047,164.6875 c 3.52734,0 5.32812,0.28906 6.91406,1.22656 2.23047,1.4375 3.66797,4.17578 3.66797,7.19922 0,3.23828 -1.29297,5.47266 -4.17187,7.26953 l 10.35156,9.38281 c -2.51172,3.94922 -3.0625,5.94532 -3.40625,9.22266 l -14.14844,-13.5625 -2.375,-2.37891 v 6.55469 h -11.44531 v -7.05859 h 2.94922 v -10.72656 h -2.94922 v -7.12891 h 14.61328 m -3.16797,13.25 h 1.00781 c 0.50391,0 0.9375,0 1.36719,-0.0742 1.51563,-0.35937 2.30469,-1.36719 2.30469,-3.23828 0,-1.65625 -0.78906,-2.66406 -2.30469,-3.02344 -0.42969,-0.0742 -0.86328,-0.14453 -1.36719,-0.14453 h -1.00781 v 6.48047 m 3.16797,-14.75 h -16.11328 v 10.12891 h 2.94922 v 7.72656 h -2.94922 v 10.05859 h 14.44531 v -4.4414 l 13.98437,13.41015 2.21094,2.1211 0.32031,-3.04688 c 0.30469,-2.91406 0.71875,-4.70703 3.17969,-8.57422 l 0.67578,-1.0664 -0.9375,-0.84766 -8.98437,-8.14453 c 2.24609,-1.91016 3.30078,-4.30078 3.30078,-7.39844 0,-3.48437 -1.66797,-6.72656 -4.35547,-8.46094 l -0.0234,-0.0156 -0.0273,-0.0156 c -2.03906,-1.20312 -4.26953,-1.43359 -7.67578,-1.43359 m -1.66797,13.24609 v -3.44922 c 0.1875,0.0234 0.375,0.0547 0.57422,0.0859 0.70312,0.17578 1.10547,0.4961 1.10547,1.55469 0,1.35547 -0.49219,1.61719 -1.09766,1.76953 -0.17578,0.0234 -0.36719,0.0352 -0.58203,0.0391" />
      <path
         id="path11428"
         fill-rule="nonzero"
         fill="#000000"
         d="M 382.55859,165.67578 H 380.75 v -1.01172 h 4.88672 v 1.01172 h -1.875 v 4.65625 h -1.20313 z" />
      <path
         id="path11430"
         fill-rule="nonzero"
         fill="#000000"
         d="m 388.42578,164.66406 1.41406,4.42188 1.48438,-4.42188 h 1.75781 v 5.66797 h -1.14453 v -4.25391 l -1.48438,4.25391 h -1.24218 l -1.39844,-4.25391 v 4.25391 h -1.14844 v -5.66797 z" />
      <path
         id="path11432"
         fill-rule="nonzero"
         fill="#ffffff"
         d="m 95.84375,280.875 -6.242188,-5.76953 v 5.76953 h -7.886718 v -4.53516 h 2.246094 v -9.32812 h -2.246094 v -4.56641 h 10.808594 c 2.664062,0 4.003906,0.2461 5.125,0.94531 1.617187,0.9961 2.621092,2.96485 2.621092,5.14063 0,2.28125 -0.933592,3.89453 -3.031249,5.22656 l -0.5625,0.35547 7.656249,6.76172 z m -6.242188,-8.08984 h 1.261719 c 2.246094,0 3.386719,-1.03907 3.386719,-3.09375 0,-1.34375 -0.589844,-2.94532 -3.386719,-2.94532 h -1.261719 z" />
      <path
         id="path11434"
         fill-rule="nonzero"
         fill="#111111"
         d="m 92.523438,262.94531 c 2.589843,0 3.816406,0.21875 4.867187,0.8711 1.464844,0.90234 2.378906,2.70703 2.378906,4.71093 0,2.1211 -0.835937,3.5625 -2.800781,4.8086 l -1.121094,0.71484 0.996094,0.87891 6.16406,5.44531 h -6.968748 l -5.257812,-4.85938 -1.679688,-1.55078 v 6.41016 h -6.886718 v -3.53516 h 2.246094 v -10.32812 h -2.246094 v -3.56641 h 10.308594 m -3.421876,10.33985 h 1.761719 c 3.378907,0 3.886719,-2.25 3.886719,-3.59375 0,-2.1875 -1.417969,-3.44532 -3.886719,-3.44532 h -1.761719 v 7.03907 m 3.421876,-11.33985 H 81.214844 v 5.5625 h 2.246094 v 8.33203 h -2.246094 v 5.53516 h 8.886718 v -5.125 l 5.546876,5.125 h 10.003902 l -8.144528,-7.19531 c 2.242188,-1.42578 3.261718,-3.17188 3.261718,-5.65235 0,-2.35937 -1.109374,-4.48828 -2.855468,-5.5625 -1.222656,-0.76172 -2.621093,-1.01953 -5.390624,-1.01953 m -2.421876,10.33985 v -5.03907 h 0.761719 c 1.925781,0 2.886719,0.8125 2.886719,2.44532 0,1.75 -0.902344,2.59375 -2.886719,2.59375 z" />
      <path
         id="path11436"
         fill-rule="nonzero"
         fill="#ffffff"
         d="m 116.64453,281.28516 c -5.30078,0 -9.60937,-4.3125 -9.60937,-9.60938 0,-5.31641 4.30859,-9.64062 9.60937,-9.64062 5.31641,0 9.64063,4.32421 9.64063,9.64062 0,5.30078 -4.32422,9.60938 -9.64063,9.60938 m 0,-13.46094 c -2.05859,0 -3.73437,1.73047 -3.73437,3.85156 0,2.10547 1.67578,3.81641 3.73437,3.81641 2.07422,0 3.76172,-1.71485 3.76172,-3.81641 0,-2.12109 -1.6875,-3.85156 -3.76172,-3.85156" />
      <path
         id="path11438"
         fill-rule="nonzero"
         fill="#111111"
         d="m 116.64453,262.53516 c 5.03906,0 9.14063,4.10156 9.14063,9.14062 0,5.01953 -4.10157,9.10938 -9.14063,9.10938 -5.02344,0 -9.10937,-4.08985 -9.10937,-9.10938 0,-5.03906 4.08593,-9.14062 9.10937,-9.14062 m 0,13.45703 c 2.35156,0 4.26172,-1.9375 4.26172,-4.31641 0,-2.39844 -1.91016,-4.35156 -4.26172,-4.35156 -2.33594,0 -4.23437,1.94922 -4.23437,4.35156 0,2.37891 1.89843,4.31641 4.23437,4.31641 m 0,-14.45703 c -5.59375,0 -10.10937,4.54296 -10.10937,10.14062 0,5.59375 4.51562,10.10938 10.10937,10.10938 5.59375,0 10.14063,-4.51563 10.14063,-10.10938 0,-5.59766 -4.54688,-10.14062 -10.14063,-10.14062 m 0,13.45703 c -1.77734,0 -3.23437,-1.48047 -3.23437,-3.31641 0,-1.83594 1.45703,-3.35156 3.23437,-3.35156 1.8086,0 3.26172,1.51562 3.26172,3.35156 0,1.83594 -1.45312,3.31641 -3.26172,3.31641" />
      <path
         id="path11440"
         fill-rule="nonzero"
         fill="#ffffff"
         d="m 133.58594,280.875 v -4.30078 h 8.53515 c 1.57032,0 1.69141,-1.07031 1.69141,-1.39844 0,-0.32031 -0.12109,-1.375 -1.66406,-1.375 h -2.53516 c -1.89844,0 -3.33203,-0.29297 -4.25391,-0.86328 -1.5,-0.96094 -2.32812,-2.62109 -2.32812,-4.66797 0,-2.37109 1.14453,-4.32812 3.0625,-5.23437 0.90234,-0.45313 1.91406,-0.58985 4.33203,-0.58985 h 8.27344 v 4.30078 h -7.45703 c -0.58594,0 -1.95703,0 -1.95703,1.375 0,1.40235 1.42968,1.40235 1.90234,1.40235 h 2.03516 c 1.67187,0 2.73437,0.15234 3.66796,0.51953 1.95313,0.82422 3.17579,2.7539 3.17579,5.03906 0,2.17188 -1.11329,4.01172 -3.05469,5.04297 -0.78906,0.43359 -1.82422,0.67187 -3.16406,0.72656 -0.3125,0.0234 -0.48438,0.0234 -1.23438,0.0234 z" />
      <path
         id="path11442"
         fill-rule="nonzero"
         fill="#111111"
         d="m 148.19922,262.94531 v 3.30078 h -6.95703 c -1.62891,0 -2.45703,0.63282 -2.45703,1.875 0,0.71094 0.3125,1.90235 2.39843,1.90235 h 2.03907 c 1.60156,0 2.61328,0.13672 3.46093,0.47265 1.78125,0.75 2.88282,2.50782 2.88282,4.58594 0,1.98047 -1.01563,3.65625 -2.79688,4.60547 -0.71875,0.39453 -1.67969,0.60937 -2.97266,0.66406 -0.28906,0.0234 -0.44531,0.0234 -1.32812,0.0234 h -8.38281 v -3.30078 h 8.03515 c 1.61719,0 2.19141,-1.02344 2.19141,-1.89844 0,-0.86719 -0.56641,-1.87891 -2.16406,-1.87891 h -2.53516 c -1.77734,0 -3.16016,-0.26953 -3.97656,-0.77734 -1.35938,-0.87109 -2.10547,-2.38281 -2.10547,-4.25391 0,-2.17187 1.03906,-3.95703 2.79687,-4.78906 0.8125,-0.41015 1.76954,-0.53125 4.09766,-0.53125 h 7.77344 m 1,-1 h -8.77344 c -2.44922,0 -3.55469,0.14063 -4.54297,0.64063 -2.09765,0.98828 -3.35156,3.11328 -3.35156,5.68359 0,2.24219 0.93359,4.04688 2.5625,5.09375 0.99219,0.61328 2.50391,0.9375 4.51953,0.9375 h 2.53516 c 0.75781,0 1.16406,0.28906 1.16406,0.875 0,0.58203 -0.40625,0.89844 -1.19141,0.89844 h -9.03515 v 5.30078 h 9.38281 c 0.89844,0 1.07812,0 1.39844,-0.0234 1.42968,-0.0586 2.53515,-0.32031 3.3789,-0.78515 2.09766,-1.11329 3.32032,-3.11719 3.32032,-5.48047 0,-2.50391 -1.33985,-4.60157 -3.4961,-5.50782 -0.96094,-0.3789 -2.03906,-0.55468 -3.84765,-0.55468 h -2.03907 c -0.99218,0 -1.39843,-0.26172 -1.39843,-0.90235 0,-0.64062 0.3789,-0.875 1.45703,-0.875 h 7.95703 z" />
      <path
         id="path11444"
         fill-rule="nonzero"
         fill="#ffffff"
         d="m 158.89844,280.875 v -4.53516 h 2.21484 v -9.32812 h -2.21484 v -4.56641 h 15.23047 v 4.27344 h -7.33985 v 2.80469 h 7.33985 v 4.27734 h -7.33985 v 2.80078 h 7.33985 v 4.27344 z" />
      <path
         id="path11446"
         fill-rule="nonzero"
         fill="#111111"
         d="m 173.63281,262.94531 v 3.27344 h -7.34375 v 3.80469 h 7.34375 v 3.27343 h -7.34375 v 3.80469 h 7.34375 v 3.27344 h -14.23047 v -3.53516 h 2.21485 v -10.33203 h -2.21485 v -3.5625 z m 1,-1 h -16.23047 v 5.5625 h 2.21485 v 8.33203 h -2.21485 v 5.53516 h 16.23047 v -5.27344 h -7.34375 v -1.80469 h 7.34375 v -5.27343 h -7.34375 v -1.80469 h 7.34375 z" />
      <path
         id="path11448"
         fill-rule="nonzero"
         fill="#ffffff"
         d="m 197.47266,280.875 -6.81641,-8.09375 v 8.09375 h -5.67188 v -13.86328 h -2.21875 v -4.56641 h 5.91016 l 6.55859,7.80078 v -7.80078 h 5.67579 V 280.875 Z" />
      <path
         id="path11450"
         fill-rule="nonzero"
         fill="#111111"
         d="m 200.41016,262.94531 -0.004,17.42969 h -2.69922 l -5.78516,-6.86719 -1.76562,-2.09375 v 8.96094 h -4.67578 v -13.86328 h -2.21485 v -3.56641 h 5.17579 l 5.52734,6.57422 1.76562,2.10156 v -8.67578 z m 1,-1 h -6.67579 v 6.9336 l -5.82421,-6.9336 h -6.64454 v 5.5625 h 2.21485 V 281.375 h 6.67578 v -7.22266 l 6.08594,7.22266 h 4.16406 z" />
      <path
         id="path11452"
         fill-rule="nonzero"
         fill="#ffffff"
         d="m 222.66016,280.875 v -6.96484 h -4.61329 v 6.96484 h -7.88671 v -4.53516 h 2.21484 v -9.32812 h -2.21484 v -4.56641 h 7.88671 v 6.9336 h 4.61329 v -6.9336 h 7.89062 v 4.56641 h -2.21484 v 9.32812 h 2.21484 v 4.53516 z" />
      <path
         id="path11454"
         fill-rule="nonzero"
         fill="#111111"
         d="m 230.05078,262.94531 v 3.5625 h -2.21484 v 10.33203 h 2.21484 v 3.53516 h -6.89062 v -6.96484 h -5.61329 v 6.96484 h -6.88671 v -3.53516 h 2.21484 v -10.33203 h -2.21484 v -3.5625 h 6.88671 v 6.9336 h 5.61329 v -6.9336 z m 1,-1 h -8.89062 v 6.9336 h -3.61329 v -6.9336 h -8.88671 v 5.5625 h 2.21484 v 8.33203 h -2.21484 v 5.53516 h 8.88671 v -6.96484 h 3.61329 v 6.96484 h 8.89062 v -5.53516 h -2.21484 v -8.33203 h 2.21484 z" />
      <path
         id="path11456"
         fill-rule="nonzero"
         fill="#ffffff"
         d="m 238.76172,280.875 v -4.53516 h 2.21484 v -9.32812 h -2.21484 v -4.56641 h 15.22656 v 4.27344 h -7.33984 v 2.80469 h 7.33984 v 4.27734 h -7.33984 v 2.80078 h 7.33984 v 4.27344 z" />
      <path
         id="path11458"
         fill-rule="nonzero"
         fill="#111111"
         d="m 253.48828,262.94531 v 3.27344 h -7.34375 v 3.80469 h 7.34375 v 3.27343 h -7.34375 v 3.80469 h 7.34375 v 3.27344 h -14.22656 v -3.53516 h 2.21484 v -10.33203 h -2.21484 v -3.5625 z m 1,-1 h -16.22656 v 5.5625 h 2.21484 v 8.33203 h -2.21484 v 5.53516 h 16.22656 v -5.27344 h -7.34375 v -1.80469 h 7.34375 v -5.27343 h -7.34375 v -1.80469 h 7.34375 z" />
      <path
         id="path11460"
         fill-rule="nonzero"
         fill="#ffffff"
         d="m 262.19141,280.875 v -4.53516 h 2.24609 v -9.32812 h -2.24609 v -4.56641 h 10.10546 v 4.56641 h -2.1875 v 9.32812 h 2.1875 v 4.53516 z" />
      <path
         id="path11462"
         fill-rule="nonzero"
         fill="#111111"
         d="m 271.79687,262.94531 v 3.5625 h -2.1875 v 10.33203 h 2.1875 v 3.53516 h -9.10156 v -3.53516 h 2.24219 v -10.33203 h -2.24219 v -3.5625 z m 1,-1 h -11.10156 v 5.5625 h 2.24219 v 8.33203 h -2.24219 v 5.53516 h 11.10156 v -5.53516 h -2.1875 v -8.33203 h 2.1875 z" />
      <path
         id="path11464"
         fill-rule="nonzero"
         fill="#ffffff"
         d="m 295.96094,280.875 v -10.00781 l -3.28125,4.17578 -3.25391,-3.94531 v 9.77734 h -7.89453 v -4.53516 H 283.75 v -9.32812 h -2.21875 v -4.56641 h 7.04687 l 4.10547,4.9961 4.25782,-4.9961 h 6.91015 v 4.56641 h -2.21875 v 9.32812 h 2.1836 v 4.53516 z" />
      <path
         id="path11466"
         fill-rule="nonzero"
         fill="#111111"
         d="m 303.35156,262.94531 v 3.5625 h -2.21875 v 10.33203 h 2.1836 v 3.53516 h -6.85547 v -10.95313 l -1.78516,2.26954 -2.00391,2.55078 -1.97265,-2.39453 -1.77344,-2.14844 v 10.67187 h -6.89062 v -3.53125 H 284.25 v -10.33203 h -2.21484 v -3.5625 h 6.30859 l 3.57422,4.35156 0.75781,0.92579 0.77734,-0.91016 3.72266,-4.36719 z m 1,-1 h -7.64062 l -4.01953,4.71875 -3.875,-4.71875 h -7.78125 v 5.5625 H 283.25 v 8.33203 h -2.21484 v 5.53516 h 8.89062 v -8.88672 l 2.76563,3.35156 2.76953,-3.52734 v 9.0625 h 8.85547 v -5.53516 h -2.1836 v -8.32812 h 2.21875 z" />
      <path
         id="path11468"
         fill-rule="nonzero"
         fill="#0f110f"
         d="m 178.4375,285.17578 v 1.44531 h -2.25391 c -0.59375,0 -1.02343,0.0391 -1.28906,0.1211 -0.26953,0.082 -0.49219,0.24218 -0.67187,0.47656 -0.11719,0.16016 -0.19922,0.31641 -0.24219,0.47656 -0.043,0.16406 -0.082,0.44141 -0.11328,0.83594 h 4.57031 v 1.44531 h -4.57031 c 0.0586,0.70313 0.26562,1.19141 0.61328,1.46485 0.35156,0.27343 0.9414,0.41015 1.77734,0.41015 h 2.17969 v 1.44531 h -2.25391 c -0.61328,0 -1.14843,-0.0351 -1.61328,-0.11328 -0.73047,-0.11718 -1.3125,-0.4375 -1.74219,-0.95703 -0.61718,-0.74609 -0.92187,-1.75781 -0.92187,-3.03515 0,-1.41797 0.43359,-2.51563 1.30078,-3.30079 0.29688,-0.26953 0.61719,-0.45312 0.95313,-0.55859 0.33593,-0.10547 0.78906,-0.15625 1.35546,-0.15625 z" />
      <path
         id="path11470"
         fill-rule="nonzero"
         fill="#0f110f"
         d="m 180.10937,285.17578 h 1.72657 v 8.125 h -1.72657 z" />
      <path
         id="path11472"
         fill-rule="nonzero"
         fill="#0f110f"
         d="m 183.77734,293.30078 v -1.44531 h 3.70313 c 0.59765,0 0.99219,-0.0625 1.1914,-0.17969 0.28516,-0.17187 0.42969,-0.42969 0.42969,-0.76953 0,-0.39453 -0.16797,-0.67969 -0.5,-0.86328 -0.1875,-0.10156 -0.49219,-0.15625 -0.91015,-0.15625 h -1.50782 c -0.91797,0 -1.58203,-0.16406 -1.98437,-0.4961 -0.25391,-0.21093 -0.45313,-0.48046 -0.59766,-0.79296 -0.14062,-0.32422 -0.21484,-0.66407 -0.21484,-1.02344 0,-0.57031 0.16797,-1.09375 0.5,-1.56641 0.32812,-0.45312 0.84765,-0.72265 1.5664,-0.79687 0.24219,-0.0234 0.60157,-0.0352 1.08204,-0.0352 h 4.03125 v 1.44531 h -3.63672 c -0.54297,0.008 -0.90625,0.0274 -1.08203,0.0703 -0.36719,0.0898 -0.55079,0.36718 -0.55079,0.82812 0,0.39063 0.15235,0.64844 0.46094,0.78516 0.20703,0.0937 0.54688,0.14062 1.02344,0.14062 h 1.30078 c 0.66797,0 1.16406,0.0547 1.49609,0.16797 0.57422,0.19531 0.96875,0.53516 1.1836,1.02344 0.17187,0.39453 0.26172,0.8125 0.26172,1.26172 0,0.49218 -0.11328,0.9375 -0.33985,1.32812 -0.3164,0.55469 -0.79687,0.88672 -1.43359,0.99219 -0.3125,0.0547 -0.77344,0.0781 -1.39453,0.0781 h -4.07813 z" />
      <path
         id="path11474"
         fill-rule="nonzero"
         fill="#0f110f"
         d="m 199.17187,285.17578 v 8.125 h -1.72656 v -3.36328 h -3.14062 v 3.36328 h -1.72657 v -8.125 h 1.72657 v 3.3125 h 3.14062 v -3.3125 z" />
      <path
         id="path11476"
         fill-rule="nonzero"
         fill="#0f110f"
         d="m 204.70703,285.12109 c 0.8125,0 1.52734,0.14063 2.14063,0.41797 0.72656,0.32813 1.23046,0.88281 1.51953,1.65625 0.23437,0.61328 0.35156,1.33203 0.35156,2.15625 0,0.82422 -0.14453,1.54297 -0.42578,2.14844 -0.34375,0.73047 -0.87891,1.23828 -1.59766,1.52344 -0.53906,0.21484 -1.16406,0.32031 -1.86328,0.32031 -0.91406,0 -1.71094,-0.17188 -2.38672,-0.51172 -0.5664,-0.28516 -1.0039,-0.73047 -1.30078,-1.34375 -0.30078,-0.60547 -0.44922,-1.34766 -0.44922,-2.21875 0,-1.54297 0.38281,-2.64453 1.15235,-3.30469 0.65234,-0.55468 1.60156,-0.83203 2.85937,-0.84375 m 0.0117,1.3711 c -0.79688,0 -1.36719,0.25781 -1.71484,0.77734 -0.26954,0.40234 -0.40235,1.05469 -0.40235,1.94922 0,0.95312 0.16797,1.65625 0.51172,2.10547 0.33594,0.4375 0.87109,0.65625 1.60938,0.65625 0.71484,0 1.24218,-0.22266 1.57812,-0.66797 0.34375,-0.44531 0.51172,-1.14063 0.51172,-2.07422 0,-0.84766 -0.13672,-1.49609 -0.41016,-1.94531 -0.32422,-0.52735 -0.88281,-0.79688 -1.68359,-0.80078" />
      <path
         id="path11478"
         fill-rule="nonzero"
         fill="#0f110f"
         d="m 216.41406,291.85547 v 1.44531 h -2.82812 c -0.53907,0 -0.94922,-0.0273 -1.23828,-0.082 -0.9961,-0.19531 -1.70313,-0.75391 -2.125,-1.67578 -0.27735,-0.61328 -0.41407,-1.375 -0.41407,-2.28516 0,-1.09375 0.21094,-1.98047 0.63282,-2.66406 0.30859,-0.49219 0.71484,-0.85547 1.23046,-1.07422 0.51172,-0.23047 1.17969,-0.34375 1.9961,-0.34375 h 2.74609 v 1.44531 h -2.55078 c -0.76953,0 -1.33984,0.20703 -1.70312,0.61719 -0.29688,0.34375 -0.44532,0.96094 -0.44532,1.85938 0,1.19531 0.23438,1.98437 0.69532,2.36328 0.32812,0.25781 0.83203,0.39062 1.51953,0.39062 h 2.48437 z" />
      <path
         id="path11480"
         fill-rule="nonzero"
         fill="#0f110f"
         d="m 219.57812,293.30078 h -1.72656 v -8.125 h 1.72656 z m 0.0586,-4.11328 3.10937,-4.01172 h 2.27735 l -3.39453,4.01172 3.23046,4.11328 h -2.28125 z" />
      <path
         id="path11482"
         fill-rule="nonzero"
         fill="#0f110f"
         d="m 232.28125,285.17578 v 1.44531 h -2.25391 c -0.58984,0 -1.01953,0.0391 -1.28906,0.1211 -0.26953,0.082 -0.48828,0.24218 -0.66797,0.47656 -0.11719,0.16016 -0.20312,0.31641 -0.24609,0.47656 -0.043,0.16406 -0.082,0.44141 -0.10938,0.83594 h 4.56641 v 1.44531 h -4.56641 c 0.0586,0.70313 0.25782,1.19141 0.61328,1.46485 0.34766,0.27343 0.9375,0.41015 1.77344,0.41015 h 2.17969 v 1.44531 h -2.25391 c -0.60937,0 -1.14843,-0.0351 -1.61328,-0.11328 -0.73047,-0.11718 -1.3125,-0.4375 -1.73828,-0.95703 -0.61719,-0.74609 -0.92578,-1.75781 -0.92578,-3.03515 0,-1.41797 0.43359,-2.51563 1.30469,-3.30079 0.29297,-0.26953 0.61328,-0.45312 0.94922,-0.55859 0.33984,-0.10547 0.78906,-0.15625 1.35546,-0.15625 z" />
      <path
         id="path11484"
         fill-rule="nonzero"
         fill="#0f110f"
         d="m 236.15625,289.73437 -3.00391,-4.55859 h 2.02735 l 1.85937,3.17188 L 239,285.17578 h 2.05469 l -3.16797,4.63281 v 3.49219 h -1.73047 z" />
      <path
         id="path11486"
         fill-rule="nonzero"
         fill="#0f110f"
         d="m 245.55469,293.30078 v -1.44531 h 3.71093 c 0.58985,0 0.98829,-0.0625 1.1875,-0.17969 0.28516,-0.17187 0.42969,-0.42969 0.42969,-0.76953 0,-0.39453 -0.16797,-0.67969 -0.5039,-0.86328 -0.1875,-0.10156 -0.49219,-0.15625 -0.90625,-0.15625 h -1.50782 c -0.91797,0 -1.58203,-0.16406 -1.98437,-0.4961 -0.25391,-0.21093 -0.45313,-0.48046 -0.59766,-0.79296 -0.14062,-0.32422 -0.21094,-0.66407 -0.21094,-1.02344 0,-0.57031 0.16407,-1.09375 0.4961,-1.56641 0.32812,-0.45312 0.84765,-0.72265 1.5664,-0.79687 0.24219,-0.0234 0.60157,-0.0352 1.08204,-0.0352 h 4.02734 v 1.44531 h -3.63281 c -0.54688,0.008 -0.90625,0.0274 -1.08594,0.0703 -0.36328,0.0898 -0.54688,0.36718 -0.54688,0.82812 0,0.39063 0.15625,0.64844 0.45704,0.78516 0.20703,0.0937 0.55078,0.14062 1.02734,0.14062 h 1.29687 c 0.67188,0 1.17188,0.0547 1.4961,0.16797 0.57422,0.19531 0.96875,0.53516 1.18359,1.02344 0.17578,0.39453 0.26172,0.8125 0.26172,1.26172 0,0.49218 -0.10937,0.9375 -0.33594,1.32812 -0.3164,0.55469 -0.79687,0.88672 -1.43359,0.99219 -0.3125,0.0547 -0.77344,0.0781 -1.39453,0.0781 h -4.08203 z" />
      <path
         id="path11488"
         fill-rule="nonzero"
         fill="#0f110f"
         d="m 260.44922,285.17578 v 1.44531 h -2.25391 c -0.59375,0 -1.01953,0.0391 -1.28906,0.1211 -0.26953,0.082 -0.49219,0.24218 -0.67188,0.47656 -0.11328,0.16016 -0.19531,0.31641 -0.24218,0.47656 -0.0391,0.16406 -0.0781,0.44141 -0.10938,0.83594 h 4.56641 v 1.44531 h -4.56641 c 0.0547,0.70313 0.26172,1.19141 0.60938,1.46485 0.35156,0.27343 0.9414,0.41015 1.77734,0.41015 h 2.17969 v 1.44531 h -2.25391 c -0.60937,0 -1.14844,-0.0351 -1.61328,-0.11328 -0.73047,-0.11718 -1.3125,-0.4375 -1.74219,-0.95703 -0.61718,-0.74609 -0.92187,-1.75781 -0.92187,-3.03515 0,-1.41797 0.43359,-2.51563 1.30078,-3.30079 0.29687,-0.26953 0.61719,-0.45312 0.95312,-0.55859 0.33985,-0.10547 0.78907,-0.15625 1.35547,-0.15625 z" />
      <path
         id="path11490"
         fill-rule="nonzero"
         fill="#0f110f"
         d="m 262.125,285.17578 h 1.72656 v 8.125 H 262.125 Z" />
      <path
         id="path11492"
         fill-rule="nonzero"
         fill="#0f110f"
         d="m 267.63281,286.62109 h -2.59375 v -1.44531 h 7.00391 v 1.44531 h -2.6875 v 6.67969 h -1.72266 z" />
      <path
         id="path11494"
         fill-rule="nonzero"
         fill="#0f110f"
         d="m 276.59375,285.17578 h 1.72266 v 8.125 h -1.72266 z" />
      <path
         id="path11496"
         fill-rule="nonzero"
         fill="#0f110f"
         d="m 285.45312,289.96094 h -2.73046 c -0.625,0 -1.08204,-0.0312 -1.37891,-0.0937 -0.29688,-0.0625 -0.54688,-0.17578 -0.75,-0.34766 -0.53125,-0.43359 -0.79297,-1.04297 -0.79297,-1.82812 0,-0.92188 0.39844,-1.625 1.20313,-2.10938 0.49218,-0.30469 1.25781,-0.45312 2.28906,-0.45312 0.73047,0 1.32422,0.0625 1.77344,0.1914 0.44921,0.12891 0.83593,0.34375 1.15625,0.64844 0.40625,0.37891 0.70312,0.89062 0.90234,1.51953 0.17969,0.58203 0.26562,1.16797 0.26562,1.76563 0,0.90234 -0.1875,1.72265 -0.55859,2.44921 -0.37891,0.7461 -0.95312,1.22266 -1.71875,1.42579 -0.42187,0.10937 -1.04687,0.17187 -1.875,0.17187 h -3 v -1.44141 h 2.48438 c 1.08593,0.0156 1.78906,-0.0898 2.10937,-0.3164 0.19141,-0.13672 0.34766,-0.34375 0.45313,-0.61719 0.10937,-0.27734 0.16406,-0.59375 0.16796,-0.96484 m 0,-1.44141 c -0.004,-0.59375 -0.125,-1.0625 -0.35156,-1.41016 -0.14844,-0.22656 -0.35937,-0.39062 -0.6289,-0.48046 -0.26954,-0.0899 -0.65625,-0.13672 -1.16797,-0.13672 -0.58985,0 -0.99219,0.0664 -1.19141,0.20312 -0.26953,0.17578 -0.41016,0.45703 -0.41016,0.84375 0,0.34766 0.13282,0.60938 0.39454,0.79688 0.16796,0.125 0.47265,0.18359 0.91406,0.18359 z" />
      <path
         id="path11498"
         fill-rule="nonzero"
         fill="#0f110f"
         d="m 290.27344,291.85937 h 5.30859 v 1.4375 h -7.03125 v -2.16015 c -0.0117,-0.91016 0.21094,-1.60156 0.68359,-2.07813 0.21875,-0.21093 0.45704,-0.35547 0.71485,-0.42578 0.26172,-0.0703 0.67187,-0.10547 1.22656,-0.10547 h 1.32813 c 0.4414,0 0.76171,-0.0586 0.95703,-0.16797 0.28906,-0.16796 0.42968,-0.41796 0.42968,-0.75 0,-0.36328 -0.13281,-0.63281 -0.40234,-0.80468 -0.20312,-0.12891 -0.53125,-0.19141 -0.98437,-0.19141 h -3.82032 v -1.4375 h 4.1836 c 1.03515,0 1.76172,0.17188 2.17578,0.51953 0.23828,0.19922 0.42578,0.46094 0.55469,0.78906 0.13671,0.32422 0.20312,0.67969 0.20312,1.0586 0,0.47656 -0.082,0.89062 -0.24609,1.2539 -0.16016,0.36329 -0.39063,0.63282 -0.67578,0.80079 -0.41797,0.24609 -1.05079,0.37109 -1.89454,0.37109 h -1.14843 c -0.41016,0 -0.71485,0.0234 -0.91407,0.0742 -0.19921,0.0508 -0.34765,0.14453 -0.4414,0.26953 -0.12891,0.13672 -0.19531,0.41016 -0.20313,0.82812 v 0.71875 z" />
      <path
         id="path11500"
         fill-rule="nonzero"
         fill="#0f110f"
         d="m 298.14453,289.24609 c -0.44141,-0.26953 -0.75391,-0.55468 -0.9375,-0.84765 -0.18359,-0.29688 -0.26953,-0.67188 -0.26953,-1.1211 0,-0.96875 0.4375,-1.61718 1.3125,-1.9414 0.36328,-0.14063 1.14453,-0.20703 2.33594,-0.20703 0.89453,0 1.51953,0.0156 1.87109,0.043 0.35547,0.0234 0.64063,0.0859 0.86719,0.17188 0.45312,0.17969 0.79297,0.48828 1.03125,0.93359 0.17187,0.33985 0.26172,0.71094 0.26172,1.10157 0,0.875 -0.41797,1.5 -1.25,1.86718 0.36718,0.20703 0.6289,0.40235 0.78515,0.58985 0.28125,0.35156 0.41797,0.78125 0.41797,1.28515 0,0.59766 -0.22265,1.13282 -0.68359,1.60157 -0.22656,0.23828 -0.55469,0.40234 -0.97656,0.48828 -0.42579,0.0898 -1.07032,0.13672 -1.94141,0.13672 -0.57031,0 -1.10156,-0.0117 -1.60156,-0.0312 -0.75391,-0.0312 -1.32813,-0.22657 -1.71875,-0.58985 -0.48438,-0.4414 -0.72266,-0.96875 -0.72266,-1.57031 0,-0.48438 0.14063,-0.91016 0.42578,-1.26953 0.15625,-0.20703 0.42188,-0.41797 0.79297,-0.64063 m 2.62109,-2.7539 c -0.70703,0 -1.16015,0.0312 -1.36328,0.10547 -0.3789,0.13281 -0.5664,0.43359 -0.5664,0.91015 0,0.52344 0.20312,0.84375 0.60937,0.95313 0.10938,0.0312 0.55078,0.0547 1.32813,0.0703 0.61718,-0.0117 0.98437,-0.0234 1.10156,-0.0312 0.12109,-0.0117 0.23047,-0.0312 0.33203,-0.0703 0.33203,-0.13282 0.50391,-0.42578 0.50391,-0.88672 0,-0.52344 -0.22657,-0.84766 -0.67969,-0.96875 -0.19531,-0.0547 -0.61719,-0.082 -1.26563,-0.082 m -0.0117,3.38672 c -0.71094,0 -1.16797,0.0351 -1.36719,0.11718 -0.36719,0.13672 -0.55078,0.44922 -0.55078,0.9375 0,0.53516 0.19922,0.86328 0.59765,0.97657 0.10938,0.0312 0.55078,0.0586 1.32032,0.0703 0.60937,-0.008 0.97656,-0.0195 1.09375,-0.0312 0.12109,-0.008 0.22656,-0.0352 0.32421,-0.0703 0.33204,-0.13672 0.4961,-0.44532 0.4961,-0.92579 0,-0.52734 -0.22266,-0.86328 -0.66797,-0.99218 -0.1875,-0.0586 -0.60547,-0.082 -1.24609,-0.082" />
    </g>
  </g>
</svg>
