<?xml version="1.0" encoding="UTF-8" standalone="no"?>
<svg
   version="1.1"
   width="200"
   height="200"
   style="clip-rule:evenodd;fill-rule:evenodd;image-rendering:optimizeQuality;shape-rendering:geometricPrecision;text-rendering:geometricPrecision"
   id="svg6"
   sodipodi:docname="logo_QMJHL.svg"
   inkscape:version="1.4.2 (f4327f4, 2025-05-13)"
   xmlns:inkscape="http://www.inkscape.org/namespaces/inkscape"
   xmlns:sodipodi="http://sodipodi.sourceforge.net/DTD/sodipodi-0.dtd"
   xmlns="http://www.w3.org/2000/svg"
   xmlns:svg="http://www.w3.org/2000/svg">
  <defs
     id="defs6" />
  <sodipodi:namedview
     id="namedview6"
     pagecolor="#ffffff"
     bordercolor="#000000"
     borderopacity="0.25"
     inkscape:showpageshadow="2"
     inkscape:pageopacity="0.0"
     inkscape:pagecheckerboard="0"
     inkscape:deskcolor="#d1d1d1"
     showgrid="false"
     inkscape:zoom="0.43668831"
     inkscape:cx="1000.7138"
     inkscape:cy="924"
     inkscape:window-width="1920"
     inkscape:window-height="1009"
     inkscape:window-x="-8"
     inkscape:window-y="-8"
     inkscape:window-maximized="1"
     inkscape:current-layer="svg6" />
  <g
     id="g7"
     transform="matrix(0.10415506,0,0,0.10415506,-4.0937373,3.8128021)">
    <g
       id="g1">
      <path
         style="opacity:0.996"
         fill="#005caa"
         d="m 687.5,38.5 c 1.679,0.3923 3.346,0.8923 5,1.5 28.167,28.8333 56.333,57.6667 84.5,86.5 4.443,6.881 5.443,14.214 3,22 -30.715,71.469 -61.048,143.136 -91,215 -128.779,310.557 -257.279,621.224 -385.5,932 1.162,14 8.662,20 22.5,18 13.186,-0.52 26.353,-1.36 39.5,-2.5 25.971,-2.96 51.971,-5.63 78,-8 14.321,-1.14 28.654,-1.47 43,-1 4.88,1.35 9.047,3.85 12.5,7.5 1.913,3.97 1.913,7.97 0,12 -14.608,32.88 -28.942,65.88 -43,99 -4.263,6.26 -9.763,11.1 -16.5,14.5 -63.342,3.69 -126.675,7.69 -190,12 -40.002,3.04 -79.835,7.54 -119.5,13.5 -8.812,-0.37 -16.812,-3.03 -24,-8 -4.704,-10.28 -5.704,-20.95 -3,-32 192.724,-459.115 385.724,-918.115 579,-1377 1.406,-2.2437 3.239,-3.9103 5.5,-5 z"
         id="path1" />
    </g>
    <g
       id="g2">
      <path
         style="opacity:0.996"
         fill="#005caa"
         d="m 819.5,174.5 c 4.044,-0.542 7.711,0.291 11,2.5 30.194,30.528 60.694,60.695 91.5,90.5 4.121,6.144 4.454,12.478 1,19 -51.807,123.778 -102.64,247.945 -152.5,372.5 2.418,10.75 9.085,17.084 20,19 7.636,1.895 14.136,0.061 19.5,-5.5 2.732,-3.741 5.066,-7.741 7,-12 48.862,-118.92 97.529,-237.92 146,-357 2.708,-7.265 7.208,-13.099 13.5,-17.5 52.5,-31.082 104.83,-62.415 157,-94 4,-0.667 8,-0.667 12,0 2.42,1.64 3.42,3.973 3,7 -0.21,3.642 -1.05,7.142 -2.5,10.5 -136.1,332.314 -273.771,663.981 -413,995 -4.822,10.98 -10.155,21.64 -16,32 -3.161,3.06 -6.995,4.56 -11.5,4.5 -37.176,0.81 -74.343,1.64 -111.5,2.5 -7.092,-0.26 -10.592,-3.92 -10.5,-11 0.582,-5.58 2.082,-10.91 4.5,-16 54.195,-130.92 108.195,-261.919 162,-393 1.852,-12.144 -2.981,-20.31 -14.5,-24.5 -13.474,-4.515 -23.308,-0.348 -29.5,12.5 -55.942,137.828 -112.276,275.49 -169,413 -2.493,5.66 -5.493,10.99 -9,16 -2.626,2.73 -5.793,4.56 -9.5,5.5 -39.169,1.48 -78.336,2.98 -117.5,4.5 -15.056,-0.08 -20.389,-7.42 -16,-22 144.938,-351.322 289.772,-702.655 434.5,-1054 z"
         id="path2" />
    </g>
    <g
       id="g3">
      <path
         style="opacity:0.995"
         fill="#005caa"
         d="m 1035.5,631.5 c 4.95,-0.872 9.11,0.461 12.5,4 22.92,43.51 45.59,87.176 68,131 0.67,3.333 0.67,6.667 0,10 -84.05,202.438 -168.385,404.77 -253,607 -4,6.67 -8,13.33 -12,20 -4.17,5.85 -9.67,9.68 -16.5,11.5 -104.935,1.19 -209.768,5.02 -314.5,11.5 -8.214,1.5 -12.38,-1.84 -12.5,-10 0.199,-4.13 1.033,-8.13 2.5,-12 13.058,-30.45 26.392,-60.78 40,-91 5.059,-10.11 13.226,-15.61 24.5,-16.5 57.028,-2.23 114.028,-4.9 171,-8 4.246,-1.36 8.246,-3.19 12,-5.5 90.282,-215.9 181.115,-431.564 272.5,-647 1.73,-1.902 3.56,-3.569 5.5,-5 z"
         id="path3" />
    </g>
    <g
       id="g4">
      <path
         style="opacity:0.996"
         fill="#005caa"
         d="m 1178.5,808.5 c 6.42,0.132 12.76,0.965 19,2.5 49.07,15.802 98.07,31.802 147,48 2.54,2.205 4.71,4.705 6.5,7.5 10.74,19.752 21.07,39.752 31,60 0.9,1.201 2.07,2.035 3.5,2.5 9,0.253 17.66,-1.414 26,-5 17.12,-7.392 34.12,-15.059 51,-23 5.33,-0.667 10.67,-0.667 16,0 45,15 90,30 135,45 18.61,11.164 24.11,26.998 16.5,47.5 -60.29,138.87 -120.95,277.53 -182,416 -2.08,1.62 -4.25,3.12 -6.5,4.5 -42.33,0.67 -84.67,0.67 -127,0 -4.43,-2.45 -6.43,-6.28 -6,-11.5 0.47,-5.16 1.63,-10.16 3.5,-15 47.67,-107.33 95.33,-214.67 143,-322 3.79,-10.32 3.13,-20.32 -2,-30 -17.12,-14.98 -31.12,-12.31 -42,8 -52.41,119.81 -105.08,239.48 -158,359 -3.72,4.05 -8.22,6.88 -13.5,8.5 -36.01,0.21 -72.01,0.71 -108,1.5 -11.15,0.35 -16.32,-4.99 -15.5,-16 1.73,-7.53 4.07,-14.86 7,-22 51.39,-120.84 102.39,-241.84 153,-363 3.81,-11.949 0.65,-21.449 -9.5,-28.5 -13.47,-5.18 -24.63,-2.013 -33.5,9.5 -2.73,3.741 -5.07,7.74 -7,12 -49.33,120.67 -98.67,241.33 -148,362 -6.1,13.3 -12.77,26.3 -20,39 -3.41,4.46 -7.91,6.96 -13.5,7.5 -14.3,1.46 -28.63,2.29 -43,2.5 -24.418,-0.82 -48.752,-1.32 -73,-1.5 -8.714,-1.55 -13.38,-6.71 -14,-15.5 0.538,-4.82 1.705,-9.49 3.5,-14 79.391,-188.45 159.06,-376.78 239,-565 5.85,-6.436 13.01,-10.103 21.5,-11 z"
         id="path4" />
    </g>
    <g
       id="g5">
      <path
         style="opacity:0.994"
         fill="#005caa"
         d="m 1718.5,990.5 c 10.13,-0.542 20.13,0.291 30,2.5 38.86,13.4 77.86,26.4 117,39 22.67,7.83 45,16.5 67,26 18.48,11.96 27.48,28.96 27,51 0.02,18.07 -3.15,35.57 -9.5,52.5 -35.55,81.1 -70.55,162.43 -105,244 -13.76,20.05 -32.92,29.22 -57.5,27.5 -1.92,0.36 -3.59,1.19 -5,2.5 16.34,39.02 33.51,77.69 51.5,116 1.32,3.93 1.66,7.93 1,12 -27.96,32.3 -56.3,64.3 -85,96 -8.23,8.9 -17.07,17.07 -26.5,24.5 -2.57,0.96 -5.24,1.46 -8,1.5 -47.26,-4.45 -94.6,-7.95 -142,-10.5 -359.05,-20.46 -718.378,-29.79 -1078,-28 -116.124,4.26 -232.124,10.76 -348,19.5 -10.97,1.2 -14.803,-3.47 -11.5,-14 0.75,-0.63 1.584,-1.13 2.5,-1.5 52.939,-9.66 105.939,-18.99 159,-28 78.667,-8.33 157.333,-16.67 236,-25 83.322,-4.53 166.655,-8.87 250,-13 103.99,-2.04 207.99,-3.54 312,-4.5 130.33,1.44 260.67,2.94 391,4.5 67.53,1.25 135.03,3.42 202.5,6.5 6.15,0.45 11.32,-1.55 15.5,-6 8.73,-9.14 17.23,-18.48 25.5,-28 1.73,-2.8 2.9,-5.8 3.5,-9 -4.88,-33.66 -9.71,-67.33 -14.5,-101 -0.27,-5.5 -2.11,-10.33 -5.5,-14.5 -5.94,-1.14 -11.94,-1.81 -18,-2 -47.39,-1.56 -94.72,-3.89 -142,-7 -15.54,-3.53 -27.04,-12.37 -34.5,-26.5 -2.11,-9.41 -1.77,-18.74 1,-28 47.12,-112.23 94.78,-224.23 143,-336 12.56,-22.18 31.06,-36.509 55.5,-43 z m 59,125 c 12.43,-0.87 21.6,4.13 27.5,15 1.4,3.57 1.74,7.24 1,11 -15.86,38.59 -31.53,77.25 -47,116 -9.45,21.57 -19.45,42.91 -30,64 -1.59,-2.17 -2.92,-4.5 -4,-7 -11.5,-3.38 -21.84,-1.04 -31,7 -0.46,5.46 -0.13,10.79 1,16 -8.78,-7.54 -11.78,-16.87 -9,-28 24.86,-60.25 49.53,-120.59 74,-181 4.38,-6.43 10.21,-10.76 17.5,-13 z"
         id="path5" />
    </g>
    <g
       id="g6">
      <path
         style="opacity:0.991"
         fill="#005caa"
         d="m 970.5,1701.5 c 150,1.74 300,3.57 450,5.5 86.73,3.87 173.4,8.87 260,15 8.83,1.83 11,6.66 6.5,14.5 -20.13,22.47 -40.63,44.63 -61.5,66.5 -3.98,3.07 -8.48,4.91 -13.5,5.5 -43.39,-4.62 -86.89,-8.12 -130.5,-10.5 -363.33,-22.19 -726.998,-32.19 -1091,-30 -114.969,4.19 -229.802,10.69 -344.5,19.5 -4.6724,-1.17 -6.8391,-4.17 -6.5,-9 -0.7347,-3.68 0.5987,-6.18 4,-7.5 51.3333,-9 102.667,-18 154,-27 82.98,-8.86 165.98,-17.53 249,-26 87.994,-4.47 175.994,-8.8 264,-13 86.836,-0.83 173.502,-1.99 260,-3.5 z"
         id="path6" />
    </g>
  </g>
</svg>
