<?xml version="1.0" encoding="UTF-8" standalone="no"?>
<svg
   version="1.1"
   width="200"
   height="200"
   style="clip-rule:evenodd;fill-rule:evenodd;image-rendering:optimizeQuality;shape-rendering:geometricPrecision;text-rendering:geometricPrecision"
   id="svg70"
   sodipodi:docname="logo_EIHL.svg"
   inkscape:version="1.4.2 (f4327f4, 2025-05-13)"
   xmlns:inkscape="http://www.inkscape.org/namespaces/inkscape"
   xmlns:sodipodi="http://sodipodi.sourceforge.net/DTD/sodipodi-0.dtd"
   xmlns="http://www.w3.org/2000/svg"
   xmlns:svg="http://www.w3.org/2000/svg">
  <defs
     id="defs70" />
  <sodipodi:namedview
     id="namedview70"
     pagecolor="#ffffff"
     bordercolor="#000000"
     borderopacity="0.25"
     inkscape:showpageshadow="2"
     inkscape:pageopacity="0.0"
     inkscape:pagecheckerboard="0"
     inkscape:deskcolor="#d1d1d1"
     showgrid="false"
     inkscape:zoom="0.74722222"
     inkscape:cx="599.5539"
     inkscape:cy="540"
     inkscape:window-width="1920"
     inkscape:window-height="1009"
     inkscape:window-x="-8"
     inkscape:window-y="-8"
     inkscape:window-maximized="1"
     inkscape:current-layer="svg70" />
  <g
     id="g71"
     transform="matrix(0.16666667,0,0,0.16666667,0.08333134,10.083332)">
    <g
       id="g1">
      <path
         style="opacity:0.989"
         fill="#9d9b98"
         d="m 552.5,-0.5 c 40,0 80,0 120,0 50.058,5.06845 99.392,14.5684 148,28.5 33.068,9.2008 63.068,24.2008 90,45 45.779,40.878 56.612,89.711 32.5,146.5 -4.219,10.106 -9.219,19.773 -15,29 -7.006,15.819 -2.506,26.985 13.5,33.5 27.331,3.666 54.331,9 81,16 40.95,11.321 76.11,32.154 105.5,62.5 7.91,9.483 14.58,19.816 20,31 1.83,1.833 3.67,3.667 5.5,5.5 7.18,2.504 14.51,4.504 22,6 12.31,4.145 20.31,12.312 24,24.5 0,12.333 0,24.667 0,37 -21.57,89.806 -56.4,174.139 -104.5,253 -6.23,10.615 -14.39,19.448 -24.5,26.5 -8.49,4.606 -17.49,7.606 -27,9 -5.5,7.5 -11,15 -16.5,22.5 -16.37,17.368 -32.37,35.034 -48,53 -57.215,62.896 -119.048,120.396 -185.5,172.5 -39.597,28.97 -82.597,51.97 -129,69 -13.754,3.38 -27.421,6.55 -41,9.5 -16.667,0 -33.333,0 -50,0 -54.561,-12.45 -104.561,-34.95 -150,-67.5 -26.2,-19.194 -51.533,-39.528 -76,-61 C 296.573,903.741 248.073,854.241 202,802.5 189.833,787.667 177.667,772.833 165.5,758 c -3.953,-2.81 -8.287,-4.81 -13,-6 -34.751,2.127 -69.0841,-1.206 -103,-10 -24.2185,-7.059 -40.88517,-22.226 -50,-45.5 0,-6 0,-12 0,-18 8.73082,-26.464 21.8975,-50.464 39.5,-72 8.7042,-9.036 17.0375,-18.369 25,-28 0.6667,-2.333 0.6667,-4.667 0,-7 -18.7024,-43.251 -25.369,-88.251 -20,-135 7.4136,-41.341 27.9136,-74.507 61.5,-99.5 26.068,-18.698 54.735,-32.031 86,-40 23.342,-6.335 47.009,-11.002 71,-14 13.224,-3.958 19.391,-12.792 18.5,-26.5 -5.636,-11.271 -11.302,-22.604 -17,-34 C 237.019,152.782 254.852,97.9483 317.5,58 372.241,28.7277 430.575,11.061 492.5,5 c 20.15,-1.86826 40.15,-3.70159 60,-5.5 z"
         id="path1" />
    </g>
    <g
       id="g2">
      <path
         style="opacity:1"
         fill="#fefefe"
         d="m 588.5,22.5 c 34.447,-0.9386 68.781,0.5614 103,4.5 37.268,5.2342 74.268,11.9009 111,20 29.134,7.5952 56.467,19.2619 82,35 18.816,13.1414 33.316,29.975 43.5,50.5 6.911,20.177 7.244,40.51 1,61 -5.838,18.343 -13.838,35.676 -24,52 -6.928,29.975 4.239,49.808 33.5,59.5 57.165,2.72 108.83,20.72 155,54 10.25,8.244 19.08,17.744 26.5,28.5 5.12,10.076 10.62,19.909 16.5,29.5 2,1 4,2 6,3 10.82,0.305 21.15,2.638 31,7 4.39,4.223 6.05,9.389 5,15.5 -0.97,20.545 -4.8,40.545 -11.5,60 -21.05,68.758 -49.72,134.091 -86,196 -6.03,9.703 -13.2,18.536 -21.5,26.5 -7.79,3.998 -16.12,5.665 -25,5 -1.67,1 -3.33,2 -5,3 -9.4,14.066 -19.56,27.566 -30.5,40.5 -36.406,40.076 -73.906,79.243 -112.5,117.5 -22.965,19.963 -45.631,40.296 -68,61 -30.433,24.384 -62.1,47.051 -95,68 -69.253,39.03 -140.92,44.03 -215,15 -14.599,-6.3 -28.599,-13.63 -42,-22 C 406.999,973.533 352.166,928.033 302,876.5 c -28.565,-30.143 -56.899,-60.476 -85,-91 -15.64,-17.301 -30.14,-35.468 -43.5,-54.5 -1.333,-0.667 -2.667,-1.333 -4,-2 -3.833,-0.167 -7.667,-0.333 -11.5,-0.5 -20.809,1.642 -41.643,2.142 -62.5,1.5 -18.2959,-0.657 -35.6293,-4.991 -52,-13 C 25.8873,705.166 20.3873,688.999 27,668.5 c 7.8151,-18.311 18.1484,-34.978 31,-50 9.6365,-10.637 19.6365,-20.971 30,-31 2.2702,-4.43 2.9369,-9.097 2,-14 C 73.2486,539.994 64.4153,504.494 63.5,467 c 0.9452,-57.242 26.6118,-99.242 77,-126 38.862,-20.383 80.195,-32.383 124,-36 29.139,-6.394 41.972,-24.561 38.5,-54.5 -8.787,-16.576 -16.787,-33.576 -24,-51 -12.938,-35.721 -6.938,-67.721 18,-96 19.618,-20.2346 42.785,-35.0679 69.5,-44.5 44.676,-14.3319 90.343,-24.3319 137,-30 28.403,-3.2857 56.736,-5.4523 85,-6.5 z"
         id="path2" />
    </g>
    <g
       id="g3">
      <path
         style="opacity:1"
         fill="#133853"
         d="m 486.5,135.5 c 29.333,-0.667 58.667,-1.333 88,-2 8.919,-26.42 18.252,-52.7532 28,-79 10.187,26.5557 20.187,53.222 30,80 29.658,0.354 59.325,0.52 89,0.5 -24.146,19.979 -48.146,40.145 -72,60.5 9.366,27.595 18.2,55.262 26.5,83 -24.388,-16.565 -48.888,-32.898 -73.5,-49 -23.722,15.95 -47.222,32.284 -70.5,49 7.451,-28.628 15.618,-57.128 24.5,-85.5 -23.207,-19.379 -46.54,-38.545 -70,-57.5 z"
         id="path3" />
    </g>
    <g
       id="g4">
      <path
         style="opacity:1"
         fill="#a7a9aa"
         d="m 602.5,81.5 c 8.271,20.634 16.271,41.467 24,62.5 22.998,-0.123 45.998,-0.123 69,0 -18.979,15.314 -37.646,30.981 -56,47 6.864,20.26 13.531,40.593 20,61 -0.333,0.5 -0.667,1 -1,1.5 -18.161,-12.581 -36.494,-24.914 -55,-37 -17.971,12.138 -35.804,24.472 -53.5,37 -0.328,-2.707 0.005,-5.374 1,-8 5.976,-19.248 11.31,-38.581 16,-58 -17.833,-14.5 -35.667,-29 -53.5,-43.5 22.998,-0.5 45.998,-0.667 69,-0.5 6.459,-20.711 13.126,-41.377 20,-62 z"
         id="path4" />
    </g>
    <g
       id="g5">
      <path
         style="opacity:1"
         fill="#143953"
         d="m 401.5,89.5 c 1.29,0.5577 2.123,1.5577 2.5,3 7.704,21.569 15.537,43.069 23.5,64.5 24.67,0.261 49.337,0.261 74,0 -19.207,16.875 -38.707,33.375 -58.5,49.5 0.011,3.725 0.677,7.392 2,11 7.043,19.453 13.043,39.12 18,59 -20.253,-13.543 -40.42,-27.21 -60.5,-41 -19.413,13.79 -38.913,27.456 -58.5,41 5.938,-23.58 12.438,-47.08 19.5,-70.5 -18.979,-16.637 -38.312,-32.97 -58,-49 24.664,-0.5 49.331,-0.667 74,-0.5 7.329,-22.322 14.663,-44.655 22,-67 z"
         id="path5" />
    </g>
    <g
       id="g6">
      <path
         style="opacity:1"
         fill="#143953"
         d="m 799.5,90.5 c 8.938,22.634 17.604,45.468 26,68.5 24.664,-0.212 49.33,-0.212 74,0 -20.171,16.675 -40.171,33.508 -60,50.5 7.63,22.056 14.963,44.223 22,66.5 -0.333,0.5 -0.667,1 -1,1.5 -20.098,-13.464 -40.264,-26.797 -60.5,-40 -19.628,13.457 -39.128,27.124 -58.5,41 6.13,-23.479 12.796,-47.145 20,-71 -19.162,-16.325 -38.496,-32.492 -58,-48.5 24.664,-0.5 49.331,-0.667 74,-0.5 7.135,-22.74 14.469,-45.406 22,-68 z"
         id="path6" />
    </g>
    <g
       id="g7">
      <path
         style="opacity:1"
         fill="#c72b41"
         d="m 651.5,152.5 c 7.852,-0.325 15.518,0.008 23,1 -14.3,11.632 -28.3,23.632 -42,36 5.701,16.597 10.868,33.264 15.5,50 -14.51,-10.253 -29.177,-20.253 -44,-30 -14.157,9.414 -28.157,19.081 -42,29 3.652,-16.973 8.152,-33.807 13.5,-50.5 -13.229,-11.958 -26.896,-23.458 -41,-34.5 17.667,-0.667 35.333,-1.333 53,-2 4.611,-16.334 10.111,-32.334 16.5,-48 6.337,16.179 12.17,32.512 17.5,49 10,0 20,0 30,0 z"
         id="path7" />
    </g>
    <g
       id="g8">
      <path
         style="opacity:1"
         fill="#a7a7a9"
         d="m 328.5,165.5 c 18.667,-0.667 37.333,-1.333 56,-2 5.727,-17.014 11.56,-34.014 17.5,-51 6.701,17.106 13.201,34.272 19.5,51.5 19,0.333 38,0.667 57,1 -15.647,12.648 -30.98,25.648 -46,39 6.137,17.405 11.637,34.905 16.5,52.5 -15.341,-10.836 -31.007,-21.17 -47,-31 -14.627,9.79 -29.127,19.79 -43.5,30 -0.856,-2.639 -0.69,-5.306 0.5,-8 4.343,-15.035 8.843,-30.035 13.5,-45 -14.287,-12.807 -28.954,-25.14 -44,-37 z"
         id="path8" />
    </g>
    <g
       id="g9">
      <path
         style="opacity:1"
         fill="#a7a8a9"
         d="m 726.5,165.5 c 18.667,-0.667 37.333,-1.333 56,-2 5.725,-17.009 11.559,-34.009 17.5,-51 6.692,17.072 13.192,34.239 19.5,51.5 19,0.333 38,0.667 57,1 -15.647,12.648 -30.98,25.648 -46,39 6.537,17.272 12.037,34.772 16.5,52.5 -15.281,-10.719 -30.781,-21.053 -46.5,-31 -14.916,9.574 -29.583,19.574 -44,30 -1.114,-1.223 -1.281,-2.556 -0.5,-4 4.833,-16.5 9.667,-33 14.5,-49.5 -14.228,-12.731 -28.895,-24.898 -44,-36.5 z"
         id="path9" />
    </g>
    <g
       id="g10">
      <path
         style="opacity:1"
         fill="#c72c41"
         d="m 402.5,131.5 c 5.222,12.801 10.222,25.801 15,39 14.989,0.833 29.989,1.333 45,1.5 -12.172,10.008 -24.172,20.175 -36,30.5 5.106,13.478 9.273,27.145 12.5,41 -11.845,-8.254 -23.845,-16.254 -36,-24 -11.931,7.594 -23.597,15.594 -35,24 2.651,-14.432 6.484,-28.599 11.5,-42.5 -11.667,-9.667 -23.333,-19.333 -35,-29 14.678,-0.167 29.345,-0.667 44,-1.5 4.281,-13.181 8.948,-26.181 14,-39 z"
         id="path10" />
    </g>
    <g
       id="g11">
      <path
         style="opacity:1"
         fill="#c72c41"
         d="m 800.5,130.5 c 5.571,13.373 10.571,27.04 15,41 15.004,-0.167 30.004,0 45,0.5 -12.172,10.008 -24.172,20.175 -36,30.5 4.262,12.285 8.428,24.619 12.5,37 0.667,1.333 0.667,2.667 0,4 -11.845,-8.254 -23.845,-16.254 -36,-24 -11.931,7.594 -23.597,15.594 -35,24 2.962,-14.344 6.796,-28.511 11.5,-42.5 -11.667,-9.667 -23.333,-19.333 -35,-29 14.667,-0.333 29.333,-0.667 44,-1 4.769,-13.474 9.436,-26.974 14,-40.5 z"
         id="path11" />
    </g>
    <g
       id="g12">
      <path
         style="opacity:1"
         fill="#aebbc4"
         d="m 574.5,133.5 c -29.333,0.667 -58.667,1.333 -88,2 -0.543,-0.06 -0.876,-0.393 -1,-1 29.659,-1 59.326,-1.333 89,-1 z"
         id="path12" />
    </g>
    <g
       id="g13">
      <path
         style="opacity:1"
         fill="#bc5f6c"
         d="m 587.5,151.5 c -17.667,0.667 -35.333,1.333 -53,2 -0.543,-0.06 -0.876,-0.393 -1,-1 17.988,-1 35.988,-1.333 54,-1 z"
         id="path13" />
    </g>
    <g
       id="g14">
      <path
         style="opacity:1"
         fill="#ba6d77"
         d="m 651.5,152.5 c 8.156,-1.157 16.49,-1.323 25,-0.5 -0.544,0.717 -1.211,1.217 -2,1.5 -7.482,-0.992 -15.148,-1.325 -23,-1 z"
         id="path14" />
    </g>
    <g
       id="g15">
      <path
         style="opacity:1"
         fill="#425d6f"
         d="m 384.5,163.5 c -18.667,0.667 -37.333,1.333 -56,2 -0.543,-0.06 -0.876,-0.393 -1,-1 18.988,-1 37.988,-1.333 57,-1 z"
         id="path15" />
    </g>
    <g
       id="g16">
      <path
         style="opacity:1"
         fill="#425d6f"
         d="m 782.5,163.5 c -18.667,0.667 -37.333,1.333 -56,2 -0.543,-0.06 -0.876,-0.393 -1,-1 18.988,-1 37.988,-1.333 57,-1 z"
         id="path16" />
    </g>
    <g
       id="g17">
      <path
         style="opacity:1"
         fill="#5b5b5b"
         d="m 353.5,319.5 c -1.068,-0.934 -2.401,-1.268 -4,-1 4.123,-1.372 8.457,-1.872 13,-1.5 -3.02,0.901 -6.02,1.734 -9,2.5 z"
         id="path17" />
    </g>
    <g
       id="g18">
      <path
         style="opacity:1"
         fill="#626262"
         d="m 860.5,319.5 c 0,0.333 0,0.667 0,1 -3.026,-0.674 -6.026,-1.507 -9,-2.5 3.22,-0.32 6.22,0.18 9,1.5 z"
         id="path18" />
    </g>
    <g
       id="g19">
      <path
         style="opacity:1"
         fill="#020202"
         d="m 349.5,318.5 c 1.599,-0.268 2.932,0.066 4,1 -25.953,5.961 -51.619,13.128 -77,21.5 -28.43,11.773 -52.263,29.606 -71.5,53.5 -20.541,28.834 -28.208,60.834 -23,96 2.855,15.088 6.188,30.088 10,45 4.993,-17.301 9.993,-34.634 15,-52 1.471,-5.931 1.804,-11.931 1,-18 -5.031,-7.533 -9.864,-15.2 -14.5,-23 7.723,-0.697 15.39,-1.364 23,-2 66.667,-0.167 133.334,0 200,0.5 3.059,0.645 6.059,1.478 9,2.5 0.932,2.295 1.765,4.629 2.5,7 1.103,14.31 1.77,28.643 2,43 6.845,-23.712 13.845,-47.379 21,-71 1.758,-7.919 2.925,-15.919 3.5,-24 39.837,-0.332 79.504,10e-4 119,1 -4.487,8.973 -8.987,17.973 -13.5,27 -1.638,4.222 -2.805,8.555 -3.5,13 -0.904,0.709 -1.237,1.709 -1,3 145.333,0 290.667,0 436,0 11.02,0.332 22.02,-10e-4 33,-1 -0.12,-0.607 -0.46,-0.94 -1,-1 -8.32,-33.157 -26.652,-59.324 -55,-78.5 -12.235,-8.286 -25.235,-15.286 -39,-21 -23.063,-6.744 -46.063,-13.578 -69,-20.5 0,-0.333 0,-0.667 0,-1 32.31,4.895 64.31,11.395 96,19.5 32.323,8.496 61.66,22.829 88,43 19.72,15.939 33.05,36.106 40,60.5 10.67,0 21.33,0 32,0 0.17,24.669 0,49.336 -0.5,74 -4.42,-2.461 -8.92,-4.794 -13.5,-7 -0.59,0.209 -1.09,0.543 -1.5,1 -8.7,29.11 -17.2,58.277 -25.5,87.5 0.33,0.833 0.67,1.667 1,2.5 5.89,-2.247 11.89,-3.747 18,-4.5 -12.09,27.344 -23.76,54.844 -35,82.5 -17,-0.167 -34,0 -51,0.5 -71.99,111.658 -164.657,201.991 -278,271 -8.307,5.473 -16.974,10.306 -26,14.5 -3.645,-0.989 -3.645,-2.489 0,-4.5 13.674,-8.169 27.008,-16.835 40,-26 87.212,-71.842 158.212,-156.842 213,-255 -10.328,-0.5 -20.661,-0.666 -31,-0.5 -89.667,0.167 -179.334,0 -269,-0.5 10.333,-9 20.667,-18 31,-27 3.922,-3.251 7.088,-7.084 9.5,-11.5 12.492,-42.967 24.658,-85.967 36.5,-129 -6.342,-0.166 -12.675,0 -19,0.5 -14.667,5.333 -29.333,10.667 -44,16 -3.156,0.937 -5.989,2.437 -8.5,4.5 -10.738,37.788 -21.238,75.621 -31.5,113.5 0.065,2.591 0.565,5.091 1.5,7.5 5.033,8.204 9.866,16.537 14.5,25 -34.662,0.833 -69.329,1.333 -104,1.5 4.97,0.886 9.97,1.552 15,2 31.339,0.425 62.672,0.425 94,0 27.273,1.937 39.106,16.437 35.5,43.5 -2.525,8.047 -5.859,15.714 -10,23 -2.251,1.877 -4.751,3.377 -7.5,4.5 -79.669,15.797 -155.336,4.464 -227,-34 -17.338,-9.673 -31.005,-23.006 -41,-40 -40.999,-0.5 -81.999,-0.667 -123,-0.5 -0.333,0 -0.667,0 -1,0 -9.508,-1.323 -19.175,-1.323 -29,0 0.124,0.607 0.457,0.94 1,1 51.596,93.8 118.596,175.3 201,244.5 18.333,13 36.667,26 55,39 -2.931,1.91 -5.931,1.91 -9,0 -121.82,-70.648 -221.153,-165.148 -298,-283.5 -13.984,-0.999 -27.984,-1.333 -42,-1 -9.333,-0.667 -18.667,-1.333 -28,-2 9.627,-10.797 19.461,-21.463 29.5,-32 1.753,-2.505 3.253,-5.171 4.5,-8 -13.01,-38.528 -25.51,-77.195 -37.5,-116 -19.021,-65.425 0.145,-116.259 57.5,-152.5 26.741,-15.915 55.408,-26.915 86,-33 16.067,-3.35 32.067,-7.017 48,-11 10.567,-2.261 21.234,-3.761 32,-4.5 z"
         id="path19" />
    </g>
    <g
       id="g20">
      <path
         style="opacity:1"
         fill="#2d5796"
         d="m 991.5,441.5 c -145.337,0.665 -290.337,-0.002 -435,-2 0.695,-4.445 1.862,-8.778 3.5,-13 4.513,-9.027 9.013,-18.027 13.5,-27 0.543,-0.06 0.876,-0.393 1,-1 -40.165,-1.331 -80.165,-1.331 -120,0 -0.575,8.081 -1.742,16.081 -3.5,24 -7.155,23.621 -14.155,47.288 -21,71 -0.23,-14.357 -0.897,-28.69 -2,-43 -0.735,-2.371 -1.568,-4.705 -2.5,-7 -2.941,-1.022 -5.941,-1.855 -9,-2.5 -66.666,-0.5 -133.333,-0.667 -200,-0.5 6.174,-17.677 16.174,-32.844 30,-45.5 18.551,-15.841 39.551,-27.508 63,-35 68.588,-19.976 138.588,-32.309 210,-37 110.831,-7.403 220.497,0.597 329,24 17.073,4.368 34.073,9.034 51,14 32.807,9.975 59.64,28.475 80.5,55.5 4.923,7.846 8.757,16.179 11.5,25 z"
         id="path20" />
    </g>
    <g
       id="g21">
      <path
         style="opacity:1"
         fill="#12233c"
         d="m 454.5,398.5 c 39.835,-1.331 79.835,-1.331 120,0 -0.124,0.607 -0.457,0.94 -1,1 -39.496,-0.999 -79.163,-1.332 -119,-1 z"
         id="path21" />
    </g>
    <g
       id="g22">
      <path
         style="opacity:1"
         fill="#d7d7d7"
         d="m 550.5,412.5 c -0.667,0.333 -1.333,0.667 -2,1 -26.902,-1.327 -53.902,-1.327 -81,0 13.483,-1.333 27.317,-1.999 41.5,-2 14.004,0 27.837,0.333 41.5,1 z"
         id="path22" />
    </g>
    <g
       id="g23">
      <path
         style="opacity:1"
         fill="#aaaaab"
         d="m 550.5,412.5 c -22.035,73.762 -44.035,147.428 -66,221 -11.996,2.666 -23.996,5.332 -36,8 -0.667,0 -1,-0.333 -1,-1 18.99,-67.471 38.49,-134.805 58.5,-202 13.912,-8.708 28.079,-17.042 42.5,-25 0.667,-0.333 1.333,-0.667 2,-1 z"
         id="path23" />
    </g>
    <g
       id="g24">
      <path
         style="opacity:1"
         fill="#1d3962"
         d="m 556.5,439.5 c 144.663,1.998 289.663,2.665 435,2 0,0.333 0,0.667 0,1 -145.333,0 -290.667,0 -436,0 -0.237,-1.291 0.096,-2.291 1,-3 z"
         id="path24" />
    </g>
    <g
       id="g25">
      <path
         style="opacity:1"
         fill="#a6a6a6"
         d="m 1023.5,440.5 c 0.54,0.06 0.88,0.393 1,1 -10.98,0.999 -21.98,1.332 -33,1 0,-0.333 0,-0.667 0,-1 10.85,0.328 21.51,-0.006 32,-1 z"
         id="path25" />
    </g>
    <g
       id="g26">
      <path
         style="opacity:1"
         fill="#2c5592"
         d="m 555.5,442.5 c 2.877,7.424 6.043,14.757 9.5,22 -15.89,57.685 -32.223,115.352 -49,173 -4.645,7.145 -10.478,13.145 -17.5,18 -1.162,-4.967 -1.329,-9.967 -0.5,-15 18.884,-66.224 38.051,-132.224 57.5,-198 z"
         id="path26" />
    </g>
    <g
       id="g27">
      <path
         style="opacity:1"
         fill="#fefefe"
         d="m 548.5,413.5 c -14.421,7.958 -28.588,16.292 -42.5,25 -20.01,67.195 -39.51,134.529 -58.5,202 -19.591,0.987 -39.257,1.321 -59,1 -53.34,0.019 -106.673,-0.148 -160,-0.5 -22.442,6.87 -44.776,14.036 -67,21.5 -0.607,-0.124 -0.94,-0.457 -1,-1 7.146,-5.312 12.646,-11.979 16.5,-20 16.617,-56.136 32.45,-112.47 47.5,-169 -0.027,-6.383 -2.027,-12.049 -6,-17 65.165,-1.332 130.165,-1.332 195,0 -9.44,4.889 -18.773,10.055 -28,15.5 -37.665,0.5 -75.332,0.667 -113,0.5 -7.54,29.697 -15.206,59.364 -23,89 -0.838,0.342 -1.172,1.008 -1,2 -5.998,25.326 -11.998,50.659 -18,76 0.865,1.083 1.865,1.249 3,0.5 12.18,-5.591 24.18,-11.424 36,-17.5 46.168,1.331 92.502,1.331 139,0 20.481,-69.108 40.148,-138.442 59,-208 27.098,-1.327 54.098,-1.327 81,0 z"
         id="path27" />
    </g>
    <g
       id="g28">
      <path
         style="opacity:1"
         fill="#aaaaab"
         d="m 413.5,455.5 c 1.604,15.292 1.937,30.626 1,46 -5.475,-2.195 -11.142,-3.695 -17,-4.5 -30.667,-0.667 -61.333,-0.667 -92,0 -4.053,12.377 -7.72,24.877 -11,37.5 -14.703,9.014 -29.369,18.014 -44,27 -0.667,0 -1,-0.333 -1,-1 7.794,-29.636 15.46,-59.303 23,-89 37.668,0.167 75.335,0 113,-0.5 9.227,-5.445 18.56,-10.611 28,-15.5 z"
         id="path28" />
    </g>
    <g
       id="g29">
      <path
         style="opacity:1"
         fill="#fefcfc"
         d="m 572.5,455.5 c 35.335,-0.167 70.668,0 106,0.5 -17.846,7.06 -35.846,13.727 -54,20 -2.716,0.782 -5.05,2.116 -7,4 -13.926,53.537 -27.926,107.037 -42,160.5 -20.247,7.626 -40.58,14.959 -61,22 2.962,-3.464 6.129,-6.797 9.5,-10 2.838,-3.672 5.171,-7.672 7,-12 16.128,-55.85 31.628,-111.85 46.5,-168 0.059,-6.274 -1.941,-11.774 -6,-16.5 0.228,-0.399 0.562,-0.565 1,-0.5 z"
         id="path29" />
    </g>
    <g
       id="g30">
      <path
         style="opacity:1"
         fill="#faf8f8"
         d="m 1100.5,501.5 c -7.67,-8 -15.33,-16 -23,-24 -120.667,-1.333 -241.333,-1.333 -362,0 -11.036,10.372 -22.37,20.372 -34,30 7.313,-17.461 15.313,-34.628 24,-51.5 131,-0.667 262,-0.667 393,0 1.58,15.068 2.25,30.235 2,45.5 z"
         id="path30" />
    </g>
    <g
       id="g31">
      <path
         style="opacity:1"
         fill="#a9a9aa"
         d="m 572.5,455.5 c 36.169,-1.33 72.502,-1.33 109,0 -4.318,4.819 -8.818,9.485 -13.5,14 -6.663,16.989 -12.33,34.323 -17,52 -11,39.333 -22,78.667 -33,118 -1.608,8.322 -0.108,15.988 4.5,23 -12,0.667 -24,1.333 -36,2 -22.669,0.167 -45.336,0 -68,-0.5 -2.236,-0.079 -3.57,-0.579 -4,-1.5 20.42,-7.041 40.753,-14.374 61,-22 14.074,-53.463 28.074,-106.963 42,-160.5 1.95,-1.884 4.284,-3.218 7,-4 18.154,-6.273 36.154,-12.94 54,-20 -35.332,-0.5 -70.665,-0.667 -106,-0.5 z"
         id="path31" />
    </g>
    <g
       id="g32">
      <path
         style="opacity:1"
         fill="#284d85"
         d="m 686.5,460.5 c 1.333,0 2.667,0 4,0 -6.86,15.39 -14.026,30.724 -21.5,46 2.965,-16.392 8.799,-31.725 17.5,-46 z"
         id="path32" />
    </g>
    <g
       id="g33">
      <path
         style="opacity:1"
         fill="#e7e6e7"
         d="m 715.5,477.5 c 120.667,-1.333 241.333,-1.333 362,0 -40.89,-0.652 -81.553,0.015 -122,2 -0.342,-0.838 -1.008,-1.172 -2,-1 -25.664,-0.667 -51.498,-1 -77.5,-1 -26.381,0.009 -52.548,0.676 -78.5,2 0,-0.667 -0.333,-1 -1,-1 -26.828,-0.998 -53.828,-1.331 -81,-1 z"
         id="path33" />
    </g>
    <g
       id="g34">
      <path
         style="opacity:1"
         fill="#aaaaab"
         d="m 715.5,477.5 c 27.172,-0.331 54.172,0.002 81,1 -14.218,6.276 -28.552,12.276 -43,18 -24.631,-3.346 -47.964,0.488 -70,11.5 -1.851,0.703 -2.517,0.537 -2,-0.5 11.63,-9.628 22.964,-19.628 34,-30 z"
         id="path34" />
    </g>
    <g
       id="g35">
      <path
         style="opacity:1"
         fill="#aaaaab"
         d="m 953.5,478.5 c -17.111,5.724 -34.111,11.724 -51,18 -20.667,0 -41.333,0 -62,0 -13.496,47.981 -26.996,95.981 -40.5,144 -0.709,8.057 0.791,15.723 4.5,23 -36.333,1.333 -72.667,1.333 -109,0 0.124,-0.607 0.457,-0.94 1,-1 0.06,0.543 0.393,0.876 1,1 18.89,-7.24 37.723,-14.573 56.5,-22 14.501,-54.003 29.001,-108.003 43.5,-162 25.952,-1.324 52.119,-1.991 78.5,-2 26.002,0 51.836,0.333 77.5,1 z"
         id="path35" />
    </g>
    <g
       id="g36">
      <path
         style="opacity:1"
         fill="#fefcfc"
         d="m 796.5,478.5 c 0.667,0 1,0.333 1,1 -14.499,53.997 -28.999,107.997 -43.5,162 -18.777,7.427 -37.61,14.76 -56.5,22 -0.607,-0.124 -0.94,-0.457 -1,-1 7.571,-5.401 13.071,-12.401 16.5,-21 14.215,-48.144 27.715,-96.478 40.5,-145 14.448,-5.724 28.782,-11.724 43,-18 z"
         id="path36" />
    </g>
    <g
       id="g37">
      <path
         style="opacity:1"
         fill="#fefcfc"
         d="m 953.5,478.5 c 0.992,-0.172 1.658,0.162 2,1 -14.6,53.308 -29.933,106.475 -46,159.5 -20.492,9.573 -41.492,18.073 -63,25.5 -0.438,0.065 -0.772,-0.101 -1,-0.5 8.438,-6.44 14.604,-14.606 18.5,-24.5 13.719,-47.045 26.885,-94.211 39.5,-141.5 -0.556,-0.383 -0.889,-0.883 -1,-1.5 16.889,-6.276 33.889,-12.276 51,-18 z"
         id="path37" />
    </g>
    <g
       id="g38">
      <path
         style="opacity:1"
         fill="#2c5593"
         d="m 316.5,509.5 c 25.342,-0.333 50.675,0 76,1 -10.399,4.077 -21.065,7.244 -32,9.5 -15.663,0.5 -31.33,0.667 -47,0.5 0.803,-3.739 1.803,-7.405 3,-11 z"
         id="path38" />
    </g>
    <g
       id="g39">
      <path
         style="opacity:1"
         fill="#efefef"
         d="m 1001.5,510.5 c 7.01,-0.166 14.01,0 21,0.5 -0.79,3.718 -1.79,7.384 -3,11 -6.66,0.5 -13.33,0.666 -20,0.5 0.041,-4.116 0.71,-8.116 2,-12 z"
         id="path39" />
    </g>
    <g
       id="g40">
      <path
         style="opacity:1"
         fill="#2d5796"
         d="m 926.5,678.5 c -54.022,96.892 -124.689,180.058 -212,249.5 -22.639,18.658 -47.972,32.658 -76,42 -36.588,9.457 -71.255,4.79 -104,-14 C 481.952,921.814 434.452,881.314 392,834.5 349.094,786.015 311.594,733.682 279.5,677.5 c 41.001,-0.167 82.001,0 123,0.5 9.995,16.994 23.662,30.327 41,40 71.664,38.464 147.331,49.797 227,34 2.749,-1.123 5.249,-2.623 7.5,-4.5 4.141,-7.286 7.475,-14.953 10,-23 3.606,-27.063 -8.227,-41.563 -35.5,-43.5 -31.328,0.425 -62.661,0.425 -94,0 -5.03,-0.448 -10.03,-1.114 -15,-2 34.671,-0.167 69.338,-0.667 104,-1.5 -4.634,-8.463 -9.467,-16.796 -14.5,-25 -0.935,-2.409 -1.435,-4.909 -1.5,-7.5 10.262,-37.879 20.762,-75.712 31.5,-113.5 2.511,-2.063 5.344,-3.563 8.5,-4.5 14.667,-5.333 29.333,-10.667 44,-16 6.325,-0.5 12.658,-0.666 19,-0.5 -11.842,43.033 -24.008,86.033 -36.5,129 -2.412,4.416 -5.578,8.249 -9.5,11.5 -10.333,9 -20.667,18 -31,27 89.666,0.5 179.333,0.667 269,0.5 z"
         id="path40" />
    </g>
    <g
       id="g41">
      <path
         style="opacity:1"
         fill="#2c5594"
         d="m 851.5,510.5 c 11,0 22,0 33,0 -11.132,42.471 -22.965,84.805 -35.5,127 -7.571,10.741 -16.404,20.408 -26.5,29 -2.738,-5.378 -5.571,-10.712 -8.5,-16 -0.667,-2.333 -0.667,-4.667 0,-7 12.348,-44.396 24.848,-88.73 37.5,-133 z"
         id="path41" />
    </g>
    <g
       id="g42">
      <path
         style="opacity:1"
         fill="#2c5593"
         d="m 413.5,515.5 c 2.87,1.134 5.87,1.8 9,2 -8.128,30.385 -16.461,60.718 -25,91 -36.333,0 -72.667,0 -109,0 1.352,-6.075 3.019,-12.075 5,-18 16.657,-1.166 33.323,-1.333 50,-0.5 15.215,4.138 30.548,7.638 46,10.5 7.6,-28.465 15.6,-56.798 24,-85 z"
         id="path42" />
    </g>
    <g
       id="g43">
      <path
         style="opacity:1"
         fill="#fdfdfd"
         d="m 373.5,584.5 c -1.043,-2.556 -2.71,-4.723 -5,-6.5 -5.872,-5.376 -11.872,-10.543 -18,-15.5 -33.162,-0.998 -66.496,-1.332 -100,-1 14.631,-8.986 29.297,-17.986 44,-27 22.003,0.167 44.003,0 66,-0.5 11.44,-1.647 22.44,-4.813 33,-9.5 -4.218,20.514 -9.884,40.848 -17,61 -0.917,-0.627 -1.917,-0.961 -3,-1 z"
         id="path43" />
    </g>
    <g
       id="g44">
      <path
         style="opacity:1"
         fill="#fdfbfb"
         d="m 1061.5,586.5 c -5.26,-10.354 -10.93,-20.521 -17,-30.5 -36.33,-0.333 -72.667,-0.667 -109,-1 14,-6 28,-12 42,-18 10.841,-0.17 21.508,-0.67 32,-1.5 24.14,2.797 47.31,-0.536 69.5,-10 0.67,1.333 0.67,2.667 0,4 -4.66,16.655 -9.33,33.322 -14,50 -0.52,2.781 -1.69,5.115 -3.5,7 z"
         id="path44" />
    </g>
    <g
       id="g45">
      <path
         style="opacity:1"
         fill="#aaaaab"
         d="m 1077.5,477.5 c 7.67,8 15.33,16 23,24 -0.06,0.543 -0.39,0.876 -1,1 -8.41,-3.013 -17.07,-4.846 -26,-5.5 -27.33,-0.667 -54.67,-0.667 -82,0 -4.208,12.662 -7.874,25.496 -11,38.5 9.667,0 19.333,0 29,0 -10.492,0.83 -21.159,1.33 -32,1.5 -14,6 -28,12 -42,18 36.333,0.333 72.67,0.667 109,1 6.07,9.979 11.74,20.146 17,30.5 -7.19,-3.12 -14.52,-5.953 -22,-8.5 -24,-0.5 -47.998,-0.667 -72,-0.5 -3.799,15.396 -7.799,30.729 -12,46 -14.975,5.484 -29.975,10.984 -45,16.5 39.004,0.167 78.004,0.667 117,1.5 5.2,7.763 10.87,15.097 17,22 -50.999,0.938 -102.165,1.605 -153.5,2 -15.004,0 -29.837,-0.333 -44.5,-1 21.508,-7.427 42.508,-15.927 63,-25.5 16.067,-53.025 31.4,-106.192 46,-159.5 40.447,-1.985 81.11,-2.652 122,-2 z"
         id="path45" />
    </g>
    <g
       id="g46">
      <path
         style="opacity:1"
         fill="#cccccd"
         d="m 249.5,560.5 c 0,0.667 0.333,1 1,1 33.504,-0.332 66.838,0.002 100,1 -34,0 -68,0 -102,0 -0.172,-0.992 0.162,-1.658 1,-2 z"
         id="path46" />
    </g>
    <g
       id="g47">
      <path
         style="opacity:1"
         fill="#aaaaab"
         d="m 248.5,562.5 c 34,0 68,0 102,0 6.128,4.957 12.128,10.124 18,15.5 2.29,1.777 3.957,3.944 5,6.5 -29.697,-8.911 -60.03,-11.578 -91,-8 -4.491,14.968 -8.825,29.968 -13,45 -11.82,6.076 -23.82,11.909 -36,17.5 -1.135,0.749 -2.135,0.583 -3,-0.5 6.002,-25.341 12.002,-50.674 18,-76 z"
         id="path47" />
    </g>
    <g
       id="g48">
      <path
         style="opacity:1"
         fill="#f5f5f5"
         d="m 979.5,590.5 c 5.333,0 10.667,0 16,0 -1.906,6.315 -4.239,12.482 -7,18.5 -4.655,0.499 -9.321,0.666 -14,0.5 1.205,-6.488 2.872,-12.822 5,-19 z"
         id="path48" />
    </g>
    <g
       id="g49">
      <path
         style="opacity:1"
         fill="#e4e4e4"
         d="m 1054.5,598.5 c 3.32,1.658 6.65,3.324 10,5 -4.5,2.115 -9.16,3.281 -14,3.5 1.75,-2.663 3.08,-5.497 4,-8.5 z"
         id="path49" />
    </g>
    <g
       id="g50">
      <path
         style="opacity:1"
         fill="#fdfbfb"
         d="m 1044.5,663.5 c -6.13,-6.903 -11.8,-14.237 -17,-22 -38.996,-0.833 -77.996,-1.333 -117,-1.5 15.025,-5.516 30.025,-11.016 45,-16.5 30.687,0.39 61.35,-0.11 92,-1.5 6.32,-0.996 12.49,-2.496 18.5,-4.5 0.67,1 0.67,2 0,3 -6.65,14.639 -13.82,28.972 -21.5,43 z"
         id="path50" />
    </g>
    <g
       id="g51">
      <path
         style="opacity:1"
         fill="#fcfcfc"
         d="m 484.5,633.5 c -3.261,11.332 -2.427,22.332 2.5,33 13.709,14.438 30.542,22.938 50.5,25.5 8,1 16,2 24,3 25.671,0.644 51.338,0.478 77,-0.5 33.729,-2.565 43.895,11.769 30.5,43 -1.731,2.117 -3.898,3.617 -6.5,4.5 -78.422,13.181 -151.755,-0.485 -220,-41 -13.088,-8.752 -22.921,-20.252 -29.5,-34.5 -0.708,-0.881 -1.542,-1.547 -2.5,-2 1.142,-1.933 2.808,-3.433 5,-4.5 9.694,-5.512 19.361,-11.012 29,-16.5 1.495,-0.489 2.829,-1.155 4,-2 12.004,-2.668 24.004,-5.334 36,-8 z"
         id="path51" />
    </g>
    <g
       id="g52">
      <path
         style="opacity:1"
         fill="#aaaaab"
         d="m 388.5,641.5 c 18.667,0.667 37.333,1.333 56,2 -9.639,5.488 -19.306,10.988 -29,16.5 -2.192,1.067 -3.858,2.567 -5,4.5 -83.651,-0.653 -167.318,-1.32 -251,-2 0.124,-0.607 0.457,-0.94 1,-1 0.06,0.543 0.393,0.876 1,1 22.224,-7.464 44.558,-14.63 67,-21.5 53.327,0.352 106.66,0.519 160,0.5 z"
         id="path52" />
    </g>
    <g
       id="g53">
      <path
         style="opacity:1"
         fill="#cbcbcb"
         d="m 447.5,640.5 c 0,0.667 0.333,1 1,1 -1.171,0.845 -2.505,1.511 -4,2 -18.667,-0.667 -37.333,-1.333 -56,-2 19.743,0.321 39.409,-0.013 59,-1 z"
         id="path53" />
    </g>
    <g
       id="g54">
      <path
         style="opacity:1"
         fill="#5c5c5d"
         d="m 622.5,662.5 c 0.543,0.06 0.876,0.393 1,1 -12.315,0.999 -24.649,1.332 -37,1 12,-0.667 24,-1.333 36,-2 z"
         id="path54" />
    </g>
    <g
       id="g55">
      <path
         style="opacity:1"
         fill="#9c9c9c"
         d="m 129.5,675.5 c 9.333,0.667 18.667,1.333 28,2 -9.69,0.332 -19.356,-0.002 -29,-1 0.124,-0.607 0.457,-0.94 1,-1 z"
         id="path55" />
    </g>
    <g
       id="g56">
      <path
         style="opacity:1"
         fill="#434343"
         d="m 278.5,677.5 c -9.515,-0.327 -18.848,0.006 -28,1 -0.543,-0.06 -0.876,-0.393 -1,-1 9.825,-1.323 19.492,-1.323 29,0 z"
         id="path56" />
    </g>
    <g
       id="g57">
      <path
         style="opacity:1"
         fill="#acacad"
         d="m 462.5,675.5 c 20.33,12.091 42.33,19.591 66,22.5 -8.037,7.705 -16.37,15.039 -25,22 -4.816,1.027 -9.15,0.027 -13,-3 3.133,-5.099 6.633,-9.932 10.5,-14.5 0.982,-1.259 1.315,-2.592 1,-4 -13.21,-4.188 -25.377,-10.355 -36.5,-18.5 -1.641,-1.129 -2.641,-2.629 -3,-4.5 z"
         id="path57" />
    </g>
    <g
       id="g58">
      <path
         style="opacity:1"
         fill="#acacac"
         d="m 536.5,698.5 c 4.696,0.171 9.363,0.671 14,1.5 -7.667,9 -15.333,18 -23,27 -6.441,0.349 -12.608,-0.818 -18.5,-3.5 -0.688,-0.832 -0.521,-1.498 0.5,-2 9.338,-7.344 18.338,-15.011 27,-23 z"
         id="path58" />
    </g>
    <g
       id="g59">
      <path
         style="opacity:1"
         fill="#ababac"
         d="m 557.5,700.5 c 4,0 8,0 12,0 -3.657,10.795 -7.824,21.461 -12.5,32 -7.972,0.779 -15.805,-0.221 -23.5,-3 8.023,-9.686 16.023,-19.353 24,-29 z"
         id="path59" />
    </g>
    <g
       id="g60">
      <path
         style="opacity:1"
         fill="#acacad"
         d="m 577.5,700.5 c 8.333,0 16.667,0 25,0 -5.699,11.724 -12.199,23.057 -19.5,34 -1.822,1.545 -3.989,2.212 -6.5,2 -3.696,-0.283 -7.363,-0.783 -11,-1.5 -0.559,-0.725 -0.892,-1.558 -1,-2.5 3.948,-10.85 8.282,-21.517 13,-32 z"
         id="path60" />
    </g>
    <g
       id="g61">
      <path
         style="opacity:1"
         fill="#acacad"
         d="m 631.5,700.5 c 8.692,-0.331 17.359,0.002 26,1 -11.583,1.882 -23.249,3.049 -35,3.5 -0.833,0.833 -1.667,1.667 -2.5,2.5 -2.067,8.367 -4.234,16.701 -6.5,25 0.07,1.272 0.403,2.438 1,3.5 3.053,0.179 6.053,0.679 9,1.5 -11.314,0.999 -22.647,1.332 -34,1 0.255,-2.516 1.089,-4.85 2.5,-7 5.791,-10.086 11.958,-19.919 18.5,-29.5 7.179,-0.171 14.179,-0.671 21,-1.5 z"
         id="path61" />
    </g>
    <g
       id="g62">
      <path
         style="opacity:1"
         fill="#f6f7fa"
         d="m 434.5,787.5 c 1.699,-0.16 3.366,0.006 5,0.5 0.559,0.725 0.892,1.558 1,2.5 -2.724,12.285 -5.057,24.618 -7,37 8.001,1.334 16.001,2.667 24,4 0,2 0,4 0,6 -10.788,-0.891 -21.454,-2.558 -32,-5 2.366,-15.165 5.366,-30.165 9,-45 z"
         id="path62" />
    </g>
    <g
       id="g63">
      <path
         style="opacity:1"
         fill="#f5f7fa"
         d="m 756.5,787.5 c 2.333,0 4.667,0 7,0 0,2 0,4 0,6 -8.309,1.795 -16.642,3.462 -25,5 -0.333,0.5 -0.667,1 -1,1.5 0.938,3.792 1.604,7.625 2,11.5 7.925,-1.765 15.925,-3.099 24,-4 0.256,2.292 -0.077,4.459 -1,6.5 -7.327,1.308 -14.66,2.475 -22,3.5 0.965,4.273 1.631,8.606 2,13 8.043,-1.054 16.043,-2.387 24,-4 4.408,-0.423 6.075,1.577 5,6 -11.638,2.159 -23.304,4.159 -35,6 -2.01,-15.057 -4.343,-30.057 -7,-45 9.141,-1.906 18.141,-3.906 27,-6 z"
         id="path63" />
    </g>
    <g
       id="g64">
      <path
         style="opacity:1"
         fill="#f3f5f9"
         d="m 485.5,796.5 c 10.389,0.657 20.722,1.823 31,3.5 1.75,1.754 2.417,3.921 2,6.5 -9.316,-1.12 -18.65,-2.12 -28,-3 0.266,4.071 -0.067,8.071 -1,12 7.504,1.985 15.171,2.985 23,3 0,2.333 0,4.667 0,7 -8,-0.667 -16,-1.333 -24,-2 -0.427,4.324 -0.761,8.658 -1,13 9.016,0.585 18.016,1.418 27,2.5 1.761,3.466 0.761,5.633 -3,6.5 -10.757,-0.685 -21.424,-2.019 -32,-4 1.258,-15.137 3.258,-30.137 6,-45 z"
         id="path64" />
    </g>
    <g
       id="g65">
      <path
         style="opacity:1"
         fill="#f6f8fa"
         d="m 698.5,797.5 c 2.333,0 4.667,0 7,0 1.259,12.663 2.592,25.329 4,38 0.349,3.471 -0.984,5.971 -4,7.5 -9.964,1.495 -19.964,2.662 -30,3.5 -3.074,0.05 -5.241,-1.283 -6.5,-4 -1.719,-13.956 -2.885,-27.956 -3.5,-42 2.333,0 4.667,0 7,0 0.667,13 1.333,26 2,39 9.075,-0.461 18.075,-1.461 27,-3 0.333,-1.333 0.667,-2.667 1,-4 -1.581,-11.646 -2.914,-23.313 -4,-35 z"
         id="path65" />
    </g>
    <g
       id="g66">
      <path
         style="opacity:1"
         fill="#f5f7fa"
         d="m 555.5,802.5 c 2.619,-0.268 5.119,0.065 7.5,1 5.111,15.336 10.611,30.503 16.5,45.5 -2.402,0.814 -4.735,0.647 -7,-0.5 -1.435,-3.143 -2.768,-6.31 -4,-9.5 -7.333,-0.667 -14.667,-0.667 -22,0 -1.461,2.421 -2.794,4.921 -4,7.5 -2.243,0.974 -4.576,1.308 -7,1 6.935,-14.871 13.602,-29.871 20,-45 z"
         id="path66" />
    </g>
    <g
       id="g67">
      <path
         style="opacity:1"
         fill="#f7f8fb"
         d="m 634.5,815.5 c 0,-2 0,-4 0,-6 -5.526,-0.321 -10.86,0.012 -16,1 -3.333,0 -6.667,0 -10,0 0,5.667 0,11.333 0,17 0,5.333 0,10.667 0,16 6.854,0.324 13.521,-0.009 20,-1 2,0 4,0 6,0 0,-3.667 0,-7.333 0,-11 -4.333,0 -8.667,0 -13,0 0,-2.333 0,-4.667 0,-7 6.667,0 13.333,0 20,0 0.166,7.341 0,14.674 -0.5,22 -1.255,0.711 -2.421,1.544 -3.5,2.5 -10.667,0.667 -21.333,0.667 -32,0 -1.5,-0.833 -2.667,-2 -3.5,-3.5 -0.667,-12.667 -0.667,-25.333 0,-38 0.833,-0.833 1.667,-1.667 2.5,-2.5 10.568,-1.619 21.235,-1.952 32,-1 1.833,0.5 3,1.667 3.5,3.5 0.497,2.646 0.664,5.313 0.5,8 -2,0 -4,0 -6,0 z"
         id="path67" />
    </g>
    <g
       id="g68">
      <path
         style="opacity:1"
         fill="#9baecc"
         d="m 618.5,810.5 c 5.14,-0.988 10.474,-1.321 16,-1 0,2 0,4 0,6 -0.951,-1.419 -1.284,-3.085 -1,-5 -5,0 -10,0 -15,0 z"
         id="path68" />
    </g>
    <g
       id="g69">
      <path
         style="opacity:1"
         fill="#355c99"
         d="m 558.5,812.5 c 3.298,5.885 5.631,12.218 7,19 -5.344,0.166 -10.677,-10e-4 -16,-0.5 3.291,-6.049 6.291,-12.216 9,-18.5 z"
         id="path69" />
    </g>
    <g
       id="g70">
      <path
         style="opacity:1"
         fill="#718db8"
         d="m 608.5,827.5 c 0.987,4.805 1.321,9.805 1,15 6.333,0 12.667,0 19,0 -6.479,0.991 -13.146,1.324 -20,1 0,-5.333 0,-10.667 0,-16 z"
         id="path70" />
    </g>
  </g>
</svg>
