<?xml version="1.0" encoding="UTF-8" standalone="no"?>
<!-- Created with Inkscape (http://www.inkscape.org/) -->

<svg
   version="1.0"
   width="200"
   height="200"
   viewBox="0 0 160.83333 175.45455"
   id="svg2"
   sodipodi:docname="logo_RLO.svg"
   inkscape:version="1.4.2 (f4327f4, 2025-05-13)"
   xmlns:inkscape="http://www.inkscape.org/namespaces/inkscape"
   xmlns:sodipodi="http://sodipodi.sourceforge.net/DTD/sodipodi-0.dtd"
   xmlns="http://www.w3.org/2000/svg"
   xmlns:svg="http://www.w3.org/2000/svg">
  <sodipodi:namedview
     id="namedview1"
     pagecolor="#ffffff"
     bordercolor="#000000"
     borderopacity="0.25"
     inkscape:showpageshadow="2"
     inkscape:pageopacity="0.0"
     inkscape:pagecheckerboard="0"
     inkscape:deskcolor="#d1d1d1"
     showgrid="false"
     inkscape:zoom="3.6681818"
     inkscape:cx="119.95043"
     inkscape:cy="110"
     inkscape:window-width="1920"
     inkscape:window-height="1009"
     inkscape:window-x="-8"
     inkscape:window-y="-8"
     inkscape:window-maximized="1"
     inkscape:current-layer="svg2" />
  <defs
     id="defs201" />
  <g
     id="g2497"
     transform="matrix(0.93896716,0,0,0.93896716,-10.331757,-3.3550534)">
    <g
       transform="matrix(1.0947567,0,0,1.0947567,81.10214,23.034896)"
       id="g8"
       style="fill:#161413;fill-rule:nonzero;stroke:none;stroke-width:1;stroke-linecap:butt;stroke-linejoin:miter;stroke-dasharray:none">
      <path
         d="m 27.2973,43.0684 c 2.852,-11.1192 5.536,-27.8409 10.201,-33.0313 6.193,-6.8779 14.141,-5.8125 22.035,-7.4121 -0.186,1.3877 0.2,1.6787 1.192,2.4131 0.658,0.4834 0.402,1.5752 1.075,1.917 0.769,0.3896 1.37,-0.0137 2.171,0.4433 0.913,0.5196 0.873,1.9229 1.867,1.8331 0.817,-0.0743 0.914,-1.0879 1.73,-1.2071 0.754,-0.1064 2.484,1.0742 3.061,0.8487 1.218,-0.4707 0.105,-1.7452 0.65,-1.8663 0.961,-0.2099 1.586,0.0469 2.468,-0.456 0.616,-0.3526 -0.433,-1.0567 -0.441,-1.7354 -0.016,-0.791 1.129,-1.2978 1.939,-1.706 0.409,-0.2012 0.04,-1.5254 0.257,-1.8799 0.505,-0.8486 2.379,-0.5928 3.308,-0.6758 6.019,-0.5537 19.711,0.8184 20.296,1.5108 0.802,0.9443 0.9227,12.6201 -3.452,16.3828 -2.093,1.792 -36.907,-0.7276 -45.44,3.5674 -9.84,4.955 -13.558,32.2412 -18.39,46.2031 1.17,6.3218 6.338,5.0078 6.034,14.3908 -0.224,6.612 -9.928,16.696 -10.601,19.8254 -0.321,1.472 0.673,3.326 1.049,4.678 0.354,1.261 0.072,3.824 -0.881,3.232 -2.011,-1.234 -5.031,-1.768 -7.461,-0.928 -3.766,11.431 -5.7075,23.622 -8.726,35.422 -2.1846,-0.169 0.0312,-4.614 0.2822,-6.383 2.6856,-16.177 7.8888,-31.259 11.0818,-47.1874 0,0 -2.686,-1.347 -2.686,-1.347 C 13.1162,107.703 2.5166,144.533 1.2217,144.327 0,144.134 9.2539,117.983 12.5303,104.754 9.6729,104.922 9.6729,102.216 7.1553,101.709 13.21,97.2046 2.9365,96.1746 3.127,87.2256 3.0967,83.6386 6.0635,83.2596 6.8193,80.4816 8.333,73.6556 7.3633,65 14.832,61.5449 c 2.9356,-1.0957 5.6643,0.5235 8.4353,1.0303 1.842,-3.2061 3.253,-11.2822 2.94,-11.3184 0,0 0.857,-8.5175 1.09,-8.1884 z"
         id="path10" />
    </g>
    <g
       transform="matrix(1.0947567,0,0,1.0947567,109.15232,24.76899)"
       id="g12"
       style="fill:#009a51;fill-rule:nonzero;stroke:none;stroke-width:1;stroke-linecap:butt;stroke-linejoin:miter;stroke-dasharray:none">
      <path
         d="m 72.251,2.4375 c 1.441,4.5703 -1.443,11.7656 -3.317,13.0928 -2.037,1.4336 -33.686,-2.7754 -47.107,3.7099 -3.693,2.5303 -5.376,7.0811 -7.059,11.125 0,0 -10.401,34.7139 -10.401,34.7139 C 2.933,64.8281 0.338,63.1396 0,61.373 c 0,0 2.348,-9.7783 2.348,-9.7783 0.921,0.7598 2.436,0.1699 2.684,-1.0078 -3.942,-9.6904 1.715,-18.624 3.357,-28.9853 0.593,-3.0372 1.876,-5.2188 3.366,-8.4288 0.737,-1.5957 1.258,-2.6962 2.011,-4.0439 5.12,-4.7197 11.834,-5.5635 18.47,-6.7402 0.304,0.4843 0.247,1.3496 0.568,1.7734 0.377,0.5029 1.499,0.2852 1.908,0.7168 0.888,0.9355 -0.313,1.6055 0.841,2.3242 0.321,0.1973 1.45,-0.2764 2.22,0 0.881,0.3145 1.009,1.1406 1.842,1.5889 0.729,0.3877 2.355,-1.0889 3.221,-0.8848 1.106,0.2588 2.252,0.6006 2.932,0.3574 0.858,-0.3076 1.131,-1.29 1.379,-1.6875 0.601,-0.9726 2.14,-0.2812 2.396,-1.206 C 49.606,4.7314 48.958,3.7685 49.27,3.0996 49.727,2.1406 51.594,1.9805 51.65,0.4121 58.765,0 71.618,0.4316 72.251,2.4375 Z"
         id="path14" />
    </g>
    <g
       transform="matrix(1.0947567,0,0,1.0947567,91.203022,87.913134)"
       id="g16"
       style="fill:#e20010;fill-rule:nonzero;stroke:none;stroke-width:1;stroke-linecap:butt;stroke-linejoin:miter;stroke-dasharray:none">
      <path
         d="m 22.7747,12.7919 c -3.695,3.037 4.783,5.478 3.693,10.111 -0.696,2.772 -1.923,5.378 -3.734,8.374 -2.748,4.557 -6.289,9.231 -7.011,10.502 -0.497,0.885 1.211,5.647 1.211,5.647 0,0 -5.522,0.615 -5.522,0.615 0.585,-6.069 3.727,-13.087 6.33,-18.396 -2.835,-0.118 -6.567,0.386 -9.001,-2.397 0,0 -1.353,-0.105 -1.353,-0.105 -0.2491,2.019 0.7187,4.11 -0.541,6.13 -1.5079,-0.254 -2.2432,-2.417 -2.2032,-4.304 0.042,-1.886 3.3575,-5.052 3.6934,-8.089 3.6928,-1.428 8.4768,-0.248 11.7528,0.339 -2.852,-2.949 -7.748,-2.346 -11.9423,-2.603 0,0 -1.1523,-0.471 -0.8154,-1.777 0.5986,-2.346 7.9507,-2.775 12.4377,-3.753 0,0 -0.217,-0.816 -0.217,-0.816 -3.605,0.338 -7.98,-0.7133 -10.921,1.142 0,0 -1.6366,-1.291 -1.6366,-1.291 -0.5859,0.421 0.0986,1.87 -0.7432,2.207 0,0 -1.1318,0.165 -1.1318,0.165 0.25,-0.587 -0.0977,-1.37 -0.4346,-1.79 -1.8467,0.587 -1.6787,3.689 -4.4345,3.746 C 0,12.2369 0.582,8.0244 3.6015,5.1572 9.8747,0 17.4857,7.3145 22.7747,12.7919 Z"
         id="path18" />
    </g>
    <g
       transform="matrix(1.0947567,0,0,1.0947567,83.132366,107.31102)"
       id="g20"
       style="fill:#e20010;fill-rule:nonzero;stroke:none;stroke-width:1;stroke-linecap:butt;stroke-linejoin:miter;stroke-dasharray:none">
      <path
         d="M 13.8428,3.451 C 13.2354,6.624 12.5,9.095 8.9766,10.019 8.1397,10.188 7.3721,9.601 6.8672,10.779 c -0.2168,0.813 0.8535,2.003 1.5146,1.356 2.3799,-2.333 2.1329,4.302 5.4073,4.722 -1.9317,2.698 -0.377,7.259 -2.8155,10.038 -1.5088,-0.755 -1.9804,-3.257 -2.3134,-4.858 0.5,-0.08 1.456,1.15 2.0439,0.896 C 8.5459,20.239 0,12.947 4.4873,8.282 6.4873,6.866 5.9824,2.557 8.3818,0.954 9.4121,0.266 11.5947,0 13.4072,0.683 c 0,0 0.7061,1.356 0.4356,2.768 z"
         id="path22" />
    </g>
    <g
       transform="matrix(1.0947567,0,0,1.0947567,95.089189,105.18391)"
       id="g24"
       style="fill:#ffffff;fill-rule:nonzero;stroke:none;stroke-width:1;stroke-linecap:butt;stroke-linejoin:miter;stroke-dasharray:none">
      <path
         d="M 1.4062,1.272 C 1.2373,1.689 0.3369,1.432 0,1.432 0,1.432 0.4863,0.021 0.4863,0.021 1.4179,0 1.3232,0.845 1.4062,1.272 Z"
         id="path26" />
    </g>
    <g
       transform="matrix(1.0947567,0,0,1.0947567,82.310204,121.47608)"
       id="g28"
       style="fill:#009a51;fill-rule:evenodd;stroke:none;stroke-width:1;stroke-linecap:butt;stroke-linejoin:miter;stroke-dasharray:none">
      <path
         d="M 9.8057,54.848 C 8.1924,54.252 10.1787,50.206 10.417,48.534 13.1026,32.357 18.3058,17.275 21.4988,1.347 21.4988,1.347 18.8128,0 18.8128,0 12.0127,17.782 1.4131,54.612 0.1182,54.406 0.0323,54.394 0,54.244 0.042,53.983 c 0,0 2.9522,-1.565 4.96,-1.407 2.0635,0.16 4.8037,2.272 4.8037,2.272 z"
         id="path30" />
    </g>
    <g
       transform="matrix(1.0947567,0,0,1.0947567,6.9431017,12.65715)"
       id="g32"
       style="fill:#161413;fill-rule:nonzero;stroke:none;stroke-width:1;stroke-linecap:butt;stroke-linejoin:miter;stroke-dasharray:none">
      <path
         d="M 41.8408,9.209 C 38.3135,5.7383 31.8476,6.1904 27.4385,8.002 c 2.7919,0.9072 6.6123,2.1142 7.1992,5.5888 C 25.0869,12.0801 16.2705,15.4053 9.6523,22.0469 6.4209,25.9707 3.9228,30.501 1.1328,34.4258 4.0693,35.6367 7.8935,32.3125 10.5351,35.333 10.0967,40.7686 0,49.9414 0,49.9414 c 0,0 7.5967,-2.8301 9.3613,-1.6191 2.4981,2.5664 4.7022,6.3428 8.083,7.25 -4.2627,4.2246 -5.4365,11.4726 -4.4111,17.5156 4.4111,-2.7187 10.7334,-0.9072 14.8476,-4.8359 0,0 1.3203,1.3593 1.3203,1.3593 0.7344,6.1944 4.7012,11.3238 5.292,17.3688 -1.1777,1.81 -3.9697,2.567 -3.5263,5.583 2.2021,2.57 5.4365,4.533 6.7597,7.7019 0,0 2.2032,-2.7189 2.2032,-2.7189 3.5273,0.153 5.2929,4.6859 7.4941,6.7969 0.2959,-2.111 1.7656,-3.772 2.9434,-5.5859 0,0 0.8769,0.301 0.8769,0.301 1.0293,-1.657 0.7393,-4.226 0.8838,-6.946 -2.0576,-1.963 -2.2041,-5.132 -1.4707,-7.55 1.1777,0.906 2.3525,2.418 4.1143,2.265 -1.7618,-4.226 -2.7881,-9.0615 -1.4678,-13.7392 4.4111,1.207 9.5508,0.7529 12.9297,4.9834 1.6191,-6.4951 6.9092,-11.6309 4.8545,-19.1807 7.6396,-0.1533 14.1074,-10.4189 21.8976,-3.3183 2.492,-0.9072 0.585,-4.5313 0,-6.3428 C 90.6305,38.6563 78.7275,40.0147 74.0263,31.71 72.9961,30.3535 71.5263,29.294 70.0576,28.5401 75.9375,23.1045 82.4033,17.3643 85.6355,10.1162 83.581,9.5137 79.9023,10.5684 77.4053,8.6084 69.3252,0 55.2168,3.3223 45.9551,7.0977 44.6318,7.8486 43.3095,8.7559 41.8408,9.209 Z"
         id="path34" />
    </g>
    <g
       transform="matrix(1.0947567,0,0,1.0947567,2.8088625,10.864267)"
       id="g36"
       style="fill:#161413;fill-rule:nonzero;stroke:none;stroke-width:1;stroke-linecap:butt;stroke-linejoin:miter;stroke-dasharray:none">
      <path
         d="m 43.2315,13.2822 c 0,0 -0.0303,-0.0302 -0.0303,-0.0302 -0.2813,-0.2705 -0.5987,-0.501 -0.9404,-0.6924 -0.3594,-0.2012 -0.7754,-0.3692 -1.2305,-0.5059 0,0 -0.1416,-0.039 -0.1416,-0.039 0.4062,0.7675 0.7129,1.6425 0.8838,2.6523 0.3086,1.8604 -0.9453,3.624 -2.7989,3.9326 -0.4336,0.0723 -0.8632,0.0606 -1.2685,-0.0254 -1.1348,-0.1709 -2.2559,-0.2695 -3.3496,-0.289 -1.1006,-0.0205 -2.2373,0.041 -3.3975,0.1816 -5.6347,0.6807 -10.7851,3.3428 -14.9805,7.4912 -1.6113,1.9688 -3.0419,4.1084 -4.4208,6.2373 1.7832,-0.0156 3.5625,0.5264 5.3134,2.5284 0.627,0.7187 0.8965,1.6298 0.8282,2.5136 0,0 0.0117,0.001 0.0117,0.001 -0.2295,2.8408 -2.2871,6.2383 -4.6055,9.2354 0.7607,0.1015 1.4346,0.3085 1.9522,0.664 0.1787,0.1211 0.3398,0.2598 0.4863,0.4082 0,0 0.0068,-0.0068 0.0068,-0.0068 0,0 0.0195,0.0195 0.0195,0.0195 0.0743,0.0742 0.1397,0.1524 0.2051,0.2305 0.7002,0.7363 1.3233,1.4756 1.9453,2.2187 0.0518,0.0616 0.0957,0.126 0.1416,0.1895 1.3985,1.668 2.835,3.333 4.2383,3.709 1.8164,0.4873 2.8965,2.3623 2.4121,4.1865 -0.1611,0.6016 -0.4736,1.125 -0.8828,1.5351 0,0 0.0029,0.004 0.0029,0.004 0,0 -0.0283,0.0283 -0.0283,0.0283 0,0 -0.1679,0.1572 -0.1679,0.1572 -0.3741,0.3906 -0.7188,0.8262 -1.0372,1.292 -0.3701,0.543 -0.6962,1.1269 -0.9765,1.7334 -0.9981,2.1553 -1.4942,4.6611 -1.5547,7.1572 1.0273,-0.2099 2.0674,-0.3554 3.1064,-0.4971 2.4092,-0.3261 4.8399,-0.6582 6.3389,-2.0878 1.3506,-1.2901 3.4873,-1.2452 4.7832,0.0927 0,0 0.0166,0.0166 0.0166,0.0166 0,0 0.0108,0.0108 0.0108,0.0108 0,0 0.0048,0.0058 0.0048,0.0058 0,0 1.2881,1.3262 1.2881,1.3262 0.542,0.5596 0.8496,1.2617 0.9346,1.9815 0,0 0.0117,-10e-4 0.0117,-10e-4 0.3106,2.624 1.3711,5.1982 2.4219,7.749 1.2656,3.0801 2.5244,6.1351 2.8711,9.6871 0.0781,0.802 -0.1309,1.564 -0.5371,2.192 0,0 0.0029,0.002 0.0029,0.002 -0.6562,1.011 -1.3975,1.646 -2.1396,2.285 -0.1709,0.146 -0.3467,0.292 -0.4922,0.429 0.3466,0.334 0.7158,0.671 1.0791,1.005 0.7588,0.7 1.5136,1.399 2.2265,2.157 0.6416,-0.438 1.4092,-0.635 2.166,-0.577 3.0567,0.17 4.9883,1.873 6.5879,3.85 0,0 0.0391,-0.053 0.0391,-0.053 0.2168,-0.312 0.4355,-0.626 0.7041,-1.04 0.2949,-0.454 0.6748,-0.817 1.1084,-1.076 0.0322,-0.527 0.043,-1.142 0.0527,-1.788 0,0 0.0078,-0.711 0.0078,-0.711 0,0 -0.2255,-0.334 -0.2255,-0.334 0,0 -0.0059,0.004 -0.0059,0.004 -0.5615,-0.864 -0.9648,-1.807 -1.2266,-2.779 -0.5957,-2.211 -0.4316,-4.626 0.1788,-6.64 0.3359,-1.112 1.1855,-1.929 2.2119,-2.26 -0.0401,-0.244 -0.0743,-0.484 -0.1075,-0.73 -0.3691,-2.7618 -0.2773,-5.6055 0.5157,-8.418 0.5049,-1.8067 2.3701,-2.8653 4.1699,-2.375 0,0 0.0019,-0.0049 0.0019,-0.0049 0,0 0.0684,0.0185 0.0684,0.0185 0,0 0.0781,0.0254 0.0781,0.0254 0,0 0.0459,0.0137 0.0459,0.0137 0.9639,0.249 2.0166,0.4229 3.0694,0.5996 2.4433,0.4072 4.9023,0.8223 7.1963,2 0.3125,-0.6982 0.6416,-1.3896 0.9667,-2.0771 1.6153,-3.4141 3.2159,-6.7998 2.1875,-10.5772 -0.4931,-1.8164 0.5762,-3.6933 2.3858,-4.1875 0.2764,-0.0761 0.5517,-0.1123 0.8262,-0.1181 0,0 0,-0.002 0,-0.002 1.9941,-0.04 4.3261,-1.3115 6.6259,-2.5625 3.8897,-2.1191 7.7188,-4.2021 11.9741,-3.1387 -1.02,-4.1679 -4.5434,-5.9716 -8.1196,-7.7988 -3.8222,-1.9521 -7.6914,-3.9248 -10.2851,-8.3223 0,0 -0.1895,-0.2236 -0.1895,-0.2236 0,0 -0.3027,-0.3291 -0.3027,-0.3291 0,0 -0.0068,-0.0068 -0.0068,-0.0068 0,0 -0.0059,0.0068 -0.0059,0.0068 -0.6475,-0.6172 -1.4238,-1.1289 -2.1992,-1.5283 -1.6699,-0.8555 -2.3321,-2.9111 -1.4795,-4.5879 0.1894,-0.3721 0.4355,-0.6924 0.7246,-0.958 0,0 -0.0049,-0.0049 -0.0049,-0.0049 0,0 0.8848,-0.8174 0.8848,-0.8174 4.0576,-3.7431 8.3105,-7.667 11.3506,-12.04 C 82.2109,14.6123 80.6152,14.1309 79.0889,12.9336 78.9424,12.8184 78.8047,12.6963 78.6807,12.5625 77.791,11.6192 76.8115,10.8574 75.7647,10.2588 74.6914,9.6446 73.5361,9.1875 72.3281,8.8672 65.6514,7.0957 57.3389,9.3487 51.1943,11.8321 c 0,0 -0.6191,0.3662 -0.6191,0.3662 -1.1973,0.7109 -2.418,1.4375 -3.959,1.913 0,0 -0.999,-3.2646 -0.999,-3.2646 z m 2.3349,-6.6884 c 0.1778,0.0996 0.3496,0.207 0.5215,0.3154 0.3359,-0.1885 0.6816,-0.3945 1.0215,-0.5967 0,0 0.7578,-0.4414 0.7578,-0.4414 C 48.0488,5.752 48.2451,5.6485 48.4522,5.5645 55.6104,2.6465 65.5459,0 74.0606,2.2588 c 1.7597,0.4678 3.4599,1.1416 5.0625,2.0596 1.5429,0.8847 2.9863,1.9922 4.3017,3.3457 0.7442,0.4414 2.1143,0.4482 3.3194,0.4541 1.1933,0.0058 2.3007,0.0146 3.3827,0.291 0,0 0.193,0.0469 0.193,0.0469 0,0 0.025,0.0068 0.025,0.0068 0,0 -0.003,0.0108 -0.003,0.0108 0.153,0.0429 0.308,0.0966 0.457,0.163 1.714,0.7686 2.483,2.7881 1.719,4.5088 C 89.5719,19.752 84.4033,25 79.2158,29.8438 c 0.1895,0.1816 0.3428,0.3398 0.4668,0.4658 0,0 0.0166,0.0156 0.0166,0.0156 0,0 0.0039,0.0039 0.0039,0.0039 0,0 0.0157,0.0156 0.0157,0.0156 0,0 0.0019,0.001 0.0019,0.001 0,0 0.0156,0.0147 0.0156,0.0147 0,0 0.1143,0.1201 0.1143,0.1201 0,0 0.0039,0.0019 0.0039,0.0019 0,0 0.0127,0.0137 0.0127,0.0137 0.1582,0.1758 0.3174,0.3731 0.4834,0.583 0.0703,0.0791 0.1387,0.1612 0.2021,0.2481 0,0 0.0088,0.0136 0.0088,0.0136 0,0 -0.0068,0.0039 -0.0068,0.0039 0.0732,0.1026 0.1445,0.2061 0.207,0.3165 1.5674,2.7695 4.6065,4.3232 7.6075,5.8544 5.0097,2.5596 9.9477,5.085 11.6618,12.4073 0.061,0.1709 0.166,0.4414 0.272,0.7226 0,0 -0.004,0.002 -0.004,0.002 0,0 0.004,0.0107 0.004,0.0107 0,0 0.261,0.7002 0.261,0.7002 0,0 0.025,0.0615 0.025,0.0615 1.175,3.25 2.035,7.1612 -2.4591,8.9229 -1.194,0.5244 -2.634,0.333 -3.66,-0.6035 -3.09,-2.8164 -6.4084,-1.0108 -9.7951,0.834 -1.9082,1.04 -3.8389,2.0908 -5.9404,2.7353 0.2129,4.4297 -1.4746,8.0068 -3.1797,11.6094 -0.8828,1.8691 -1.7744,3.75 -2.2393,5.6201 0,0 -0.0078,-0.0019 -0.0078,-0.0019 -0.1738,0.6992 -0.5634,1.3496 -1.166,1.8346 -1.4639,1.182 -3.6055,0.949 -4.7822,-0.5212 -1.6748,-2.0957 -4.4756,-2.5654 -7.2432,-3.0273 0,0 -0.2295,-0.0361 -0.2295,-0.0361 -0.0224,0.8437 0.0293,1.6845 0.1426,2.5224 0.2588,1.9322 0.8486,3.8622 1.5986,5.6902 0.1709,0.362 0.2832,0.763 0.3174,1.185 0.1553,1.884 -1.2422,3.538 -3.1172,3.693 0,0 -0.0771,0.004 -0.0771,0.004 0.3808,0.585 0.5898,1.294 0.5517,2.043 -0.0371,0.717 -0.0468,1.281 -0.0537,1.825 -0.0351,2.474 -0.0693,4.7102 -1.3369,6.7532 0,0 -0.0039,-0.003 -0.0039,-0.003 -0.4863,0.783 -1.2617,1.324 -2.1318,1.526 -0.5928,0.869 -1.1065,1.713 -1.2051,2.424 0,0 -0.0049,-0.002 -0.0049,-0.002 -0.0937,0.685 -0.3916,1.351 -0.9004,1.888 -1.2949,1.366 -3.4511,1.42 -4.8115,0.121 -0.916,-0.88 -1.6396,-1.877 -2.3838,-2.905 -0.5781,-0.8 -1.1855,-1.637 -1.7451,-2.215 0,0 -0.5684,0.701 -0.5684,0.701 -0.3457,0.435 -0.7998,0.794 -1.3486,1.023 -1.7363,0.723 -3.7295,-0.103 -4.4502,-1.846 -0.5762,-1.38 -1.9922,-2.688 -3.3994,-3.9872 -0.8897,-0.822 -1.7813,-1.646 -2.6318,-2.612 -0.5,-0.501 -0.8448,-1.163 -0.9561,-1.918 -0.5703,-3.89 1.3213,-5.518 3.1865,-7.125 0,0 0.0967,-0.089 0.0967,-0.089 -0.4297,-2.081 -1.291,-4.178 -2.1592,-6.2894 -0.8486,-2.0596 -1.7031,-4.127 -2.29,-6.3516 -2.0488,0.8516 -4.1924,1.1416 -6.3242,1.4307 -1.9258,0.2617 -3.8428,0.5254 -5.1866,1.3027 -0.3847,0.2569 -0.8261,0.4385 -1.3115,0.5215 -1.8535,0.3184 -3.6152,-0.9346 -3.9316,-2.7959 -0.8418,-4.9561 -0.3692,-10.6611 1.7881,-15.3203 0.2734,-0.5918 0.5722,-1.167 0.9004,-1.7236 C 14.8545,57.1807 13.7529,55.8848 12.6738,54.5977 12.6113,54.5332 12.5547,54.4639 12.4961,54.3955 12.0195,53.8262 11.541,53.2617 11.0996,52.7754 10.2051,52.8457 4.9649,54.7842 4.9492,54.7901 3.6943,55.251 2.2324,54.9414 1.2715,53.8936 0,52.5049 0.0889,50.3418 1.4717,49.0645 c 0.0205,-0.0186 6.0996,-5.5567 8.4941,-9.7949 0,0 -0.3974,0.0781 -0.3974,0.0781 -1.8301,0.374 -3.6602,0.75 -5.7578,-0.0489 C 3.5059,39.1953 3.2119,39.043 2.9365,38.8457 1.4063,37.7529 1.0498,35.6201 2.1377,34.084 c 1.0254,-1.4404 2.0117,-2.9717 3.0117,-4.5205 1.7324,-2.6875 3.5069,-5.4336 5.5713,-7.957 0,0 0.1533,-0.1866 0.1533,-0.1866 0,0 0.0088,-0.0097 0.0088,-0.0097 0,0 0.0049,0.0029 0.0049,0.0029 0,0 0.1416,-0.1504 0.1416,-0.1504 4.9238,-4.9404 10.9639,-8.2324 17.6299,-9.3721 -0.2432,-0.2793 -0.4424,-0.6044 -0.5889,-0.9668 -0.706,-1.7431 0.1289,-3.7324 1.8653,-4.4414 3.7656,-1.5468 8.8398,-2.248 13.0419,-0.9824 0.8838,0.2656 1.752,0.627 2.5889,1.0938 z"
         id="path38" />
    </g>
    <g
       transform="matrix(1.0947567,0,0,1.0947567,11.237613,17.355845)"
       id="g40"
       style="fill:#009a51;fill-rule:nonzero;stroke:none;stroke-width:1;stroke-linecap:butt;stroke-linejoin:miter;stroke-dasharray:none">
      <path
         d="M 38.7989,7.9395 C 37.7705,7.3359 36.3018,5.9756 37.4766,4.7705 34.3907,2.9561 29.8311,2.5039 26.3076,3.71 c 2.6465,1.3603 6.9053,3.6259 8.5215,7.4033 0,0 0.1485,0.1465 0.1485,0.1465 C 26.0127,7.9395 15.1387,10.2051 8.085,17 4.9951,20.4727 2.2061,24.2481 0,28.3223 1.6153,27.8701 4.7041,26.209 6.6123,28.0205 c 0,0 0.7393,-2.8652 0.7393,-2.8652 1.3203,2.7148 0.4385,5.7373 0,8.7558 -0.5899,3.4727 -2.9424,6.6446 -5.292,8.9082 6.9062,-0.2988 9.4062,10.1202 17.0449,6.9493 0,0 0.1485,0.1533 0.1485,0.1533 -7.3487,2.7178 -9.1123,10.8662 -9.1123,18.1162 4.705,-1.3584 10.1416,-1.8115 13.375,-6.0391 0,0 -0.5879,-12.0771 -0.5879,-12.0771 -2.6455,-2.1182 -3.8233,-6.3428 -8.0821,-6.4961 -1.9101,-0.7539 -3.6757,-1.8125 -5.4384,-2.8701 3.2314,0.7588 6.1738,3.624 9.8457,3.7773 1.1757,-3.9267 -4.1143,-3.6269 -6.1729,-5.8906 -0.4414,-0.6055 -1.1758,-1.0586 -1.3223,-1.8125 2.2061,1.6592 4.8487,3.624 7.7901,4.5312 0,0 0.2959,-1.6611 0.2959,-1.6611 -1.9131,-1.9648 -4.8535,-3.624 -6.7637,-6.3428 0,0 7.4961,5.5869 7.4961,5.5869 0.5879,-0.3017 0.5879,-0.9072 0.1445,-1.3603 0.5909,-0.6006 1.3243,0 1.7657,0.3037 -0.293,-0.6045 -1.0264,-2.5693 -0.1446,-3.7764 1.7578,-1.3593 3.9658,-2.8701 6.3184,-1.6591 0,0 -1.6162,0.6015 -1.6162,0.6015 3.3789,2.418 7.0508,9.8184 12.4902,5.7412 -1.4678,0 -3.084,-4.6836 -5.292,-3.1709 -2.7881,-0.1523 -4.9961,-3.0224 -6.3174,-5.29 -1.4687,-2.2637 2.0547,-5.2822 -0.5869,-6.0361 -1.0303,-0.6055 -1.7627,-1.6592 -1.7627,-2.7198 0.2901,-0.4511 0.7324,-0.1513 1.0254,-0.2988 1.3242,4.8301 7.6416,0.9053 9.8496,5.1299 2.3487,-5.4356 14.6953,-1.0537 12.0489,-10.1133 1.4677,0.5996 1.7646,2.1113 1.9111,3.624 -0.4434,1.3594 -1.3233,3.0186 -2.6465,3.7725 2.2031,0.6055 5.293,0.7559 5.8789,3.7773 2.4981,5.1319 -6.4658,8.002 -1.7637,12.3799 0.1475,3.1699 0.7344,-0.6015 2.0547,-1.6592 1.1787,-1.8125 3.2373,-2.2675 5.292,-1.6611 0.7354,0.4541 1.7656,0.6006 2.2041,1.3584 -1.6162,0 -3.6719,0 -5.1396,0.9072 0.1435,1.6592 2.2031,2.5664 2.9355,3.9258 0,0 3.3819,-3.3242 3.3819,-3.3242 0.2939,1.6631 -2.0557,3.0225 -2.9375,4.0762 0,0 1.3212,3.7773 1.3212,3.7773 0,0 4.4112,-4.2305 4.4112,-4.2305 0,0 0.1455,0.1534 0.1455,0.1534 -1.9112,3.1718 -5.7344,4.5312 -5.293,8.6074 3.3818,-1.207 6.6152,-3.4707 9.5527,-5.8906 0,0 0.2959,0.3027 0.2959,0.3027 -3.6757,4.2285 -9.8486,4.834 -12.788,9.6641 -3.6729,1.0556 -6.17,4.833 -6.9053,8.6084 -0.4434,1.9619 1.9092,2.8662 3.0849,3.624 2.6456,0.7539 5.8799,0.9072 7.4961,3.9258 3.2325,-4.9834 7.1983,-11.1739 4.1143,-17.668 0,0 -1.6162,-1.9609 -1.6162,-1.9609 2.0586,-0.4522 5.1435,0.1494 7.3476,-0.6055 5.292,-1.3594 10.5801,-6.1895 16.4558,-3.1719 0,-4.3779 -2.195,-8.4531 -5.58,-11.7783 -5.4363,-2.416 -11.0222,-5.4356 -14.99,-10.874 C 65.4024,24.2481 63.0459,25.3047 61.5772,24.0977 68.9258,20.3203 76.8643,15.1885 79.7998,6.8818 72.6016,8.8467 68.9991,0 63.9297,0.79 54.3047,0.0859 45.5635,1.5977 38.7989,7.9395 Z"
         id="path42" />
    </g>
    <g
       transform="matrix(1.0947567,0,0,1.0947567,51.459303,44.39973)"
       id="g44"
       style="fill:#ffffff;fill-rule:nonzero;stroke:none;stroke-width:1;stroke-linecap:butt;stroke-linejoin:miter;stroke-dasharray:none">
      <path
         d="M 0.1484,6.3379 C 0,7.8487 0.2959,10.2676 1.7646,11.626 3.5302,13.8916 6.7607,13.4375 9.1123,12.8321 12.3466,10.8672 16.0214,8.3028 15.7246,3.7725 15.873,2.1104 14.9922,0.6016 13.375,0 8.2304,0 3.0849,1.8125 0.1484,6.3379 Z"
         id="path46" />
    </g>
    <g
       transform="matrix(1.0947567,0,0,1.0947567,42.128144,43.241915)"
       id="g48"
       style="fill:#ffffff;fill-rule:nonzero;stroke:none;stroke-width:1;stroke-linecap:butt;stroke-linejoin:miter;stroke-dasharray:none">
      <path
         d="M 1.0293,3.624 C 0,6.0371 2.0596,8.3008 3.8223,9.5117 4.5576,9.9668 5.4395,10.2656 6.4688,10.1123 7.4942,8.4541 7.0557,6.6416 6.7608,4.6768 5.878,2.2637 2.0596,0 1.0293,3.624 Z"
         id="path50" />
    </g>
    <g
       transform="matrix(1.0947567,0,0,1.0947567,44.382905,45.222987)"
       id="g52"
       style="fill:#161413;fill-rule:nonzero;stroke:none;stroke-width:1;stroke-linecap:butt;stroke-linejoin:miter;stroke-dasharray:none">
      <path
         d="M 0,1.9629 C 0.1465,2.7187 0.8818,3.4736 1.4678,3.4736 2.2041,3.7744 2.9365,3.0205 2.9365,2.415 3.9658,0 0,0.1533 0,1.9629 Z"
         id="path54" />
    </g>
    <g
       transform="matrix(1.0947567,0,0,1.0947567,57.252755,49.519688)"
       id="g56"
       style="fill:#161413;fill-rule:nonzero;stroke:none;stroke-width:1;stroke-linecap:butt;stroke-linejoin:miter;stroke-dasharray:none">
      <path
         d="M 0,1.3603 C 0,1.9648 0.2929,2.5664 0.7363,2.8721 1.913,3.0215 3.3818,3.0215 3.0849,1.3603 3.2343,0.7539 2.6464,0.3027 2.2041,0.1533 1.1748,0 0.1494,0.3027 0,1.3603 Z"
         id="path58" />
    </g>
    <g
       transform="matrix(1.0947567,0,0,1.0947567,58.860625,50.512851)"
       id="g60"
       style="fill:#ffffff;fill-rule:nonzero;stroke:none;stroke-width:1;stroke-linecap:butt;stroke-linejoin:miter;stroke-dasharray:none">
      <path
         d="m 0,0.2998 c 0,0 0.2959,0.4541 0.2959,0.4541 0,0 0,-0.6006 0,-0.6006 C 0.1494,0 0,0.1533 0,0.2998 Z"
         id="path62" />
    </g>
    <g
       transform="matrix(1.0947567,0,0,1.0947567,34.407154,59.273094)"
       id="g64"
       style="fill:#e20010;fill-rule:nonzero;stroke:none;stroke-width:1;stroke-linecap:butt;stroke-linejoin:miter;stroke-dasharray:none">
      <path
         d="M 1.3223,0.455 C 1.7637,1.666 3.9678,0.1533 3.3818,2.417 2.7939,2.1172 1.4687,1.9648 0.5869,1.8115 0.1475,2.2666 0.1475,2.872 0,3.4775 0.7344,4.834 5.1435,3.0254 3.2324,5.7412 2.0547,6.3427 2.9355,4.6836 1.7637,4.9834 1.7637,4.9834 0,4.5302 0,4.5302 c 0,0 0,1.8125 0,1.8125 0,0 1.6162,0 1.6162,0 0,0 0,1.5127 0,1.5127 0,0 -1.0293,0 -1.0293,0 0.7354,2.5664 3.3809,2.8702 5.293,3.7774 2.2021,0.1474 4.5517,-0.6065 5.1426,-2.8721 C 11.6103,6.4951 9.5508,4.9834 9.9941,2.5703 8.082,0 4.1142,1.8115 1.7637,0.1533 Z"
         id="path66" />
    </g>
    <g
       transform="matrix(1.0947567,0,0,1.0947567,55.4833,60.598735)"
       id="g68"
       style="fill:#ffffff;fill-rule:nonzero;stroke:none;stroke-width:1;stroke-linecap:butt;stroke-linejoin:miter;stroke-dasharray:none">
      <path
         d="m 0,2.4131 c 1.6163,0 3.085,0.4551 4.4073,-0.5986 C 3.5293,0 1.1739,2.7188 0,2.4131 Z"
         id="path70" />
    </g>
    <g
       transform="matrix(1.0947567,0,0,1.0947567,82.837329,62.417235)"
       id="g72"
       style="fill:#161413;fill-rule:nonzero;stroke:none;stroke-width:1;stroke-linecap:butt;stroke-linejoin:miter;stroke-dasharray:none">
      <path
         d="M 1.3203,0.1534 C 1.3203,0.1534 1.1709,0 1.1709,0 1.1709,0 0,1.5108 0,1.5108 c 0,0 0.1455,0.1474 0.1455,0.1474 z"
         id="path74" />
    </g>
    <g
       transform="matrix(1.0947567,0,0,1.0947567,41.485631,75.311718)"
       id="g76"
       style="fill:#ffffff;fill-rule:nonzero;stroke:none;stroke-width:1;stroke-linecap:butt;stroke-linejoin:miter;stroke-dasharray:none">
      <path
         d="M 1.3242,3.9257 C 1.7627,4.3779 2.2012,5.2822 2.9404,5.1318 1.6162,3.7724 3.8242,0.4531 1.0303,0 0,1.0546 0.1465,2.8662 1.3242,3.9257 Z"
         id="path78" />
    </g>
    <g
       transform="matrix(1.0947567,0,0,1.0947567,37.945845,77.625158)"
       id="g80"
       style="fill:#e20010;fill-rule:nonzero;stroke:none;stroke-width:1;stroke-linecap:butt;stroke-linejoin:miter;stroke-dasharray:none">
      <path
         d="m 1.6162,10.419 c 3.086,7.25 2.793,20.2334 13.961,19.7834 0,0 3.8232,-0.757 3.8232,-0.757 -2.4971,-8.9092 1.7666,-16.9131 3.5244,-24.9161 0,0 -0.4385,0 -0.4385,0 -2.498,7.7022 -4.4111,15.5567 -4.7011,24.0121 -2.9414,2.413 -6.3223,-0.604 -9.1133,-1.963 C 4.5576,19.0254 2.2041,10.1192 1.9111,1.0586 1.9111,1.0586 1.0303,0 1.0303,0 0,2.8702 1.1787,7.0957 1.6162,10.419 Z"
         id="path82" />
    </g>
    <g
       transform="matrix(1.0947567,0,0,1.0947567,55.161551,79.278021)"
       id="g84"
       style="fill:#ffffff;fill-rule:nonzero;stroke:none;stroke-width:1;stroke-linecap:butt;stroke-linejoin:miter;stroke-dasharray:none">
      <path
         d="M 0,3.625 C 0.8809,3.4736 1.7646,2.4141 2.0596,1.5088 2.3496,0.4541 0.7344,0 0,0.6016 Z"
         id="path86" />
    </g>
    <g
       transform="matrix(1.0947567,0,0,1.0947567,57.895268,81.759397)"
       id="g88"
       style="fill:#009a51;fill-rule:nonzero;stroke:none;stroke-width:1;stroke-linecap:butt;stroke-linejoin:miter;stroke-dasharray:none">
      <path
         d="M 4.2636,7.0957 C 2.9443,12.9854 0,19.78 2.7949,25.971 2.498,22.802 2.6474,19.178 3.5283,16.1563 4.1152,17.814 4.7021,19.934 6.1748,20.987 4.4111,13.7393 5.5859,6.4902 8.2295,0 6.0273,1.3584 5.4414,4.6777 4.2636,7.0957 Z"
         id="path90" />
    </g>
    <g
       transform="matrix(1.0947567,0,0,1.0947567,52.101816,95.808409)"
       id="g92"
       style="fill:#e20010;fill-rule:nonzero;stroke:none;stroke-width:1;stroke-linecap:butt;stroke-linejoin:miter;stroke-dasharray:none">
      <path
         d="M 0,8.308 C 0.2959,9.36 0.1494,10.419 0.7392,11.328 2.0595,11.175 3.9726,10.873 4.1191,9.212 3.2373,6.043 3.8242,2.8721 4.1191,0 0.5908,0.9063 0.1494,5.287 0,8.308 Z"
         id="path94" />
    </g>
    <g
       transform="matrix(1.0947567,0,0,1.0947567,48.887063,96.47019)"
       id="g96"
       style="fill:#e20010;fill-rule:nonzero;stroke:none;stroke-width:1;stroke-linecap:butt;stroke-linejoin:miter;stroke-dasharray:none">
      <path
         d="m 0,8.3065 c 0.5869,0.449 1.0293,1.508 1.9111,1.356 C 1.0293,6.0425 2.3496,2.8721 3.5273,0 0.4384,1.207 0,5.5905 0,8.3065 Z"
         id="path98" />
    </g>
    <g
       transform="matrix(1.0947567,0,0,1.0947567,41.646013,106.72204)"
       id="g100"
       style="fill:#009a51;fill-rule:nonzero;stroke:none;stroke-width:1;stroke-linecap:butt;stroke-linejoin:miter;stroke-dasharray:none">
      <path
         d="M 0.2959,4.83 C 0,8.76 4.4102,8.305 5.585,11.478 6.4658,10.871 6.6143,9.664 7.0527,8.76 c 1.7657,3.623 6.4707,2.863 8.378,6.793 1.6162,-1.512 1.0293,-4.228 2.0595,-6.195 0,0 1.4678,1.666 1.4678,1.666 C 19.6924,9.511 19.6924,7.549 19.4004,5.887 18.3711,4.226 16.6084,4.376 14.9922,4.074 13.0801,5.28 10.1416,5.433 7.9346,4.681 5.7334,3.624 3.6777,0 1.3223,3.47 Z"
         id="path102" />
    </g>
    <g
       transform="matrix(1.0947567,0,0,1.0947567,48.887063,59.165042)"
       id="g104"
       style="fill:#e20010;fill-rule:nonzero;stroke:none;stroke-width:1;stroke-linecap:butt;stroke-linejoin:miter;stroke-dasharray:none">
      <path
         d="M 17.4882,1.459 C 17.6357,4.6289 15.873,7.2002 13.373,9.0118 9.8457,6.8946 7.496,11.4248 4.4082,8.4063 c 0,0 -3.9698,0.4531 -3.9698,0.4531 -0.4384,2.416 0.5909,4.2305 1.9112,6.042 4.2627,4.0723 11.3203,4.5313 16.9023,3.0195 1.1748,-0.9072 2.3525,-1.3603 3.2344,-2.4179 -2.4981,0.7519 -4.7022,-0.4541 -7.0576,-0.6016 -0.585,-0.6045 -0.1416,-1.2129 0.2959,-1.6641 1.0302,1.6641 3.5273,1.6641 5.4404,1.8116 2.4941,0.4541 2.9375,-1.959 3.8193,-3.7735 0,0 0,-0.6045 0,-0.6045 -1.7627,1.208 -4.4101,2.1133 -6.3183,1.0606 0.1445,-0.4561 0.292,-0.9072 0.8769,-1.211 0.2969,1.962 2.5,0.6045 3.6787,0.4512 0.585,-0.4512 1.6133,-0.6006 2.0577,-1.3584 -0.1475,-1.3603 -0.5909,-2.5664 -1.3252,-3.7734 0,0 -6.9092,4.2256 -6.9092,4.2256 C 16.3125,9.7666 16.7548,8.8594 16.7548,8.4063 19.1044,8.5586 21.6044,6.7471 23.5156,5.0821 22.9248,4.0284 22.1914,2.8174 21.165,2.0635 c 0,0 -1.4893,-0.5517 -1.4893,-0.5517 C 18.207,1.0586 18.3867,0 17.4882,1.459 Z"
         id="path106" />
    </g>
    <g
       transform="matrix(1.0947567,0,0,1.0947567,95.089189,104.4132)"
       id="g108"
       style="fill:#ffffff;fill-rule:nonzero;stroke:none;stroke-width:1;stroke-linecap:butt;stroke-linejoin:miter;stroke-dasharray:none">
      <path
         d="M 0.9394,0 C 0.9394,0 0,2.136 0,2.136 c 0,0 1.4062,-0.16 1.4062,-0.16 z"
         id="path110" />
    </g>
  </g>
</svg>
