<?xml version="1.0" encoding="UTF-8" standalone="no"?>
<!-- Created with Inkscape (http://www.inkscape.org/) -->

<svg
   version="1.1"
   id="svg1"
   width="200"
   height="200"
   viewBox="0 0 200 200"
   sodipodi:docname="logo_spengler_cup.svg"
   inkscape:version="1.4.2 (f4327f4, 2025-05-13)"
   xmlns:inkscape="http://www.inkscape.org/namespaces/inkscape"
   xmlns:sodipodi="http://sodipodi.sourceforge.net/DTD/sodipodi-0.dtd"
   xmlns="http://www.w3.org/2000/svg"
   xmlns:svg="http://www.w3.org/2000/svg">
  <defs
     id="defs1" />
  <sodipodi:namedview
     id="namedview1"
     pagecolor="#ffffff"
     bordercolor="#000000"
     borderopacity="0.25"
     inkscape:showpageshadow="2"
     inkscape:pageopacity="0.0"
     inkscape:pagecheckerboard="0"
     inkscape:deskcolor="#d1d1d1"
     showgrid="false"
     inkscape:zoom="4.035"
     inkscape:cx="100"
     inkscape:cy="100"
     inkscape:window-width="1920"
     inkscape:window-height="1009"
     inkscape:window-x="-8"
     inkscape:window-y="-8"
     inkscape:window-maximized="1"
     inkscape:current-layer="g1" />
  <g
     inkscape:groupmode="layer"
     inkscape:label="Image"
     id="g1">
    <g
       id="g2"
       transform="matrix(0.28581246,0,0,0.28581246,26.023123,-5.3757517)">
      <path
         style="fill:#e3e3e3;fill-opacity:1"
         d="m 138.33333,717.78361 c 0.91667,-0.36989 2.41667,-0.36989 3.33334,0 0.91666,0.36988 0.16666,0.67251 -1.66667,0.67251 -1.83333,0 -2.58333,-0.30263 -1.66667,-0.67251 z m 6.75,-0.0278 c 0.9625,-0.38516 2.1125,-0.33779 2.55556,0.10526 0.44305,0.44306 -0.34445,0.75819 -1.75,0.70029 -1.55326,-0.064 -1.8692,-0.37992 -0.80556,-0.80555 z m 6.66667,0 c 0.9625,-0.38516 2.1125,-0.33779 2.55556,0.10526 0.44305,0.44306 -0.34445,0.75819 -1.75,0.70029 -1.55326,-0.064 -1.8692,-0.37992 -0.80556,-0.80555 z M 331.19992,487.33332 c 0.002,-11 0.20838,-15.32258 0.45892,-9.60573 0.25054,5.71686 0.24901,14.71686 -0.003,20 -0.25241,5.28315 -0.4574,0.60573 -0.45553,-10.39427 z M 159.75,483.08917 c 0.9625,-0.38516 2.1125,-0.33779 2.55556,0.10526 0.44305,0.44306 -0.34445,0.75819 -1.75,0.70029 -1.55326,-0.064 -1.8692,-0.37992 -0.80556,-0.80555 z m 249.25,0.0278 c 0.91667,-0.36989 2.41667,-0.36989 3.33333,0 0.91667,0.36988 0.16667,0.67251 -1.66666,0.67251 -1.83334,0 -2.58334,-0.30263 -1.66667,-0.67251 z"
         id="path45" />
      <path
         style="fill:#dfdfdf;fill-opacity:1"
         d="m 93.083333,489.75583 c 0.9625,-0.38516 2.1125,-0.33779 2.555556,0.10527 0.443055,0.44305 -0.344445,0.75818 -1.75,0.70029 -1.553257,-0.064 -1.869199,-0.37992 -0.805556,-0.80556 z M 163.75,483.08917 c 0.9625,-0.38516 2.1125,-0.33779 2.55556,0.10526 0.44305,0.44306 -0.34445,0.75819 -1.75,0.70029 -1.55326,-0.064 -1.8692,-0.37992 -0.80556,-0.80555 z"
         id="path44" />
      <path
         style="fill:#dcdcdc;fill-opacity:1"
         d="m 152.38135,505.99999 c 0.01,-3.66667 0.26895,-5.00842 0.57542,-2.98167 0.30648,2.02675 0.29829,5.02675 -0.0182,6.66667 -0.31648,1.63991 -0.56723,-0.0183 -0.55722,-3.685 z m -0.17082,-10 c 0,-1.83334 0.30263,-2.58334 0.67251,-1.66667 0.36988,0.91667 0.36988,2.41667 0,3.33333 -0.36988,0.91667 -0.67251,0.16667 -0.67251,-1.66666 z m 0,-18.66667 c 0,-1.83333 0.30263,-2.58333 0.67251,-1.66667 0.36988,0.91667 0.36988,2.41667 0,3.33334 -0.36988,0.91666 -0.67251,0.16666 -0.67251,-1.66667 z"
         id="path43" />
      <path
         style="fill:#d5d5d5;fill-opacity:1"
         d="m 332.43752,619.33332 c 0.006,-5.13334 0.24691,-7.06995 0.53554,-4.3036 0.28864,2.76636 0.2838,6.96636 -0.0107,9.33334 -0.29455,2.36697 -0.5307,0.10359 -0.52479,-5.02974 z M 251.66667,397.78361 c 0.91666,-0.36988 2.41666,-0.36988 3.33333,0 0.91667,0.36989 0.16667,0.67252 -1.66667,0.67252 -1.83333,0 -2.58333,-0.30263 -1.66666,-0.67252 z"
         id="path42" />
      <path
         style="fill:#cecece;fill-opacity:1"
         d="m 207,701.74755 c 1.28333,-0.33537 3.38333,-0.33537 4.66667,0 1.28333,0.33537 0.23333,0.60976 -2.33334,0.60976 -2.56666,0 -3.61666,-0.27439 -2.33333,-0.60976 z"
         id="path41" />
      <path
         style="fill:#cbcbcb;fill-opacity:1"
         d="m 339.75,607.08916 c 0.9625,-0.38516 2.1125,-0.33779 2.55556,0.10527 0.44305,0.44305 -0.34445,0.75818 -1.75,0.70029 -1.55326,-0.064 -1.8692,-0.37992 -0.80556,-0.80556 z"
         id="path40" />
      <path
         style="fill:#c7c7c7;fill-opacity:1"
         d="m 335.75,607.08916 c 0.9625,-0.38516 2.1125,-0.33779 2.55556,0.10527 0.44305,0.44305 -0.34445,0.75818 -1.75,0.70029 -1.55326,-0.064 -1.8692,-0.37992 -0.80556,-0.80556 z m -178.05796,-93.3465 c 1.29729,-0.33805 3.09729,-0.31582 4,0.0494 0.90271,0.36523 -0.15871,0.64182 -2.35871,0.61465 -2.2,-0.0272 -2.93858,-0.326 -1.64129,-0.66406 z m 192.64129,-0.017 c 1.65,-0.31781 4.35,-0.31781 6,0 1.65,0.3178 0.3,0.57782 -3,0.57782 -3.3,0 -4.65,-0.26002 -3,-0.57782 z m 58.68222,-0.002 c 1.65855,-0.31893 4.05855,-0.30682 5.33333,0.0269 1.27478,0.33372 -0.0822,0.59466 -3.01555,0.57986 -2.93333,-0.0148 -3.97633,-0.28785 -2.31778,-0.60677 z"
         id="path39" />
      <path
         style="fill:#c4c4c4;fill-opacity:1"
         d="m 313,641.70212 c 2.38333,-0.29577 6.28333,-0.29577 8.66667,0 2.38333,0.29577 0.43333,0.53776 -4.33334,0.53776 -4.76666,0 -6.71666,-0.24199 -4.33333,-0.53776 z m 15.33333,0.0454 c 1.28334,-0.33537 3.38334,-0.33537 4.66667,0 1.28333,0.33537 0.23333,0.60976 -2.33333,0.60976 -2.56667,0 -3.61667,-0.27439 -2.33334,-0.60976 z"
         id="path38" />
      <path
         style="fill:#c1c1c1;fill-opacity:1"
         d="m 337.08333,641.75583 c 0.9625,-0.38516 2.1125,-0.33779 2.55556,0.10526 0.44305,0.44306 -0.34445,0.75819 -1.75,0.7003 -1.55326,-0.064 -1.8692,-0.37992 -0.80556,-0.80556 z M 236.52608,585.99998 c 0.002,-10.26666 0.21138,-14.29041 0.46511,-8.94166 0.25373,5.34875 0.25202,13.74875 -0.004,18.66666 -0.25581,4.91792 -0.4634,0.54167 -0.46132,-9.725 z"
         id="path37" />
      <path
         style="fill:#bdbdbd;fill-opacity:1"
         d="m 236.30934,607.99998 c 0,-2.56666 0.27439,-3.61666 0.60976,-2.33333 0.33537,1.28333 0.33537,3.38333 0,4.66667 -0.33537,1.28333 -0.60976,0.23333 -0.60976,-2.33334 z M 73.692043,521.74266 c 1.29729,-0.33805 3.09729,-0.31582 4,0.0494 0.902709,0.36523 -0.15871,0.64182 -2.35871,0.61465 -2.2,-0.0272 -2.938581,-0.326 -1.64129,-0.66406 z M 91.75,521.75583 c 0.9625,-0.38516 2.1125,-0.33779 2.555556,0.10527 0.443055,0.44305 -0.344445,0.75818 -1.75,0.70029 -1.553258,-0.064 -1.8692,-0.37992 -0.805556,-0.80556 z m 44,0 c 0.9625,-0.38516 2.1125,-0.33779 2.55556,0.10527 0.44305,0.44305 -0.34445,0.75818 -1.75,0.70029 -1.55326,-0.064 -1.8692,-0.37992 -0.80556,-0.80556 z m 12.62356,-0.0709 c 3.50546,-0.27557 8.90546,-0.27225 12,0.007 3.09454,0.27964 0.22644,0.5051 -6.37356,0.50104 -6.6,-0.004 -9.1319,-0.23285 -5.62644,-0.50842 z m 21.95977,0.0986 c 0.91667,-0.36988 2.41667,-0.36988 3.33334,0 0.91666,0.36988 0.16666,0.67252 -1.66667,0.67252 -1.83333,0 -2.58333,-0.30264 -1.66667,-0.67252 z M 331.75,521.75583 c 0.9625,-0.38516 2.1125,-0.33779 2.55556,0.10527 0.44305,0.44305 -0.34445,0.75818 -1.75,0.70029 -1.55326,-0.064 -1.8692,-0.37992 -0.80556,-0.80556 z m 6.58333,0.0278 c 0.91667,-0.36988 2.41667,-0.36988 3.33334,0 0.91666,0.36988 0.16666,0.67252 -1.66667,0.67252 -1.83333,0 -2.58333,-0.30264 -1.66667,-0.67252 z m 11.33334,-0.0882 c 2.75,-0.28766 7.25,-0.28766 10,0 2.75,0.28766 0.5,0.52302 -5,0.52302 -5.5,0 -7.75,-0.23536 -5,-0.52302 z m 40.02537,0.0473 c 1.29729,-0.33805 3.09729,-0.31582 4,0.0494 0.90271,0.36523 -0.15871,0.64182 -2.35871,0.61465 -2.2,-0.0272 -2.93858,-0.326 -1.64129,-0.66406 z m 8.72463,0.0132 c 0.9625,-0.38516 2.1125,-0.33779 2.55555,0.10527 0.44306,0.44305 -0.34444,0.75818 -1.75,0.70029 -1.55326,-0.064 -1.8692,-0.37992 -0.80555,-0.80556 z m 9.25,-0.0302 c 1.65,-0.3178 4.35,-0.3178 6,0 1.65,0.31781 0.3,0.57783 -3,0.57783 -3.3,0 -4.65,-0.26002 -3,-0.57783 z m 38.75,0.0302 c 0.9625,-0.38516 2.1125,-0.33779 2.55555,0.10527 0.44306,0.44305 -0.34444,0.75818 -1.75,0.70029 -1.55326,-0.064 -1.8692,-0.37992 -0.80555,-0.80556 z m 13.91666,-0.008 c 1.28334,-0.33537 3.38334,-0.33537 4.66667,0 1.28333,0.33537 0.23333,0.60977 -2.33333,0.60977 -2.56667,0 -3.61667,-0.2744 -2.33334,-0.60977 z m 30.69205,-0.005 c 1.29729,-0.33805 3.09729,-0.31582 4,0.0494 0.90271,0.36523 -0.15871,0.64182 -2.35871,0.61465 -2.2,-0.0272 -2.93858,-0.326 -1.64129,-0.66406 z M 197.86319,490.66665 c 0,-10.63333 0.20707,-14.98333 0.46015,-9.66666 0.25308,5.31666 0.25308,14.01666 0,19.33333 -0.25308,5.31667 -0.46015,0.96667 -0.46015,-9.66667 z"
         id="path36" />
      <path
         style="fill:#bababa;fill-opacity:1"
         d="m 80.333333,521.74755 c 1.283334,-0.33537 3.383334,-0.33537 4.666667,0 1.283333,0.33537 0.233333,0.60977 -2.333333,0.60977 -2.566667,0 -3.616667,-0.2744 -2.333334,-0.60977 z m 59.416667,0.008 c 0.9625,-0.38516 2.1125,-0.33779 2.55556,0.10527 0.44305,0.44305 -0.34445,0.75818 -1.75,0.70029 -1.55326,-0.064 -1.8692,-0.37992 -0.80556,-0.80556 z m 26.66667,0 c 0.9625,-0.38516 2.1125,-0.33779 2.55555,0.10527 0.44306,0.44305 -0.34444,0.75818 -1.75,0.70029 -1.55326,-0.064 -1.8692,-0.37992 -0.80555,-0.80556 z m 36.60871,-0.0132 c 1.29729,-0.33805 3.09729,-0.31582 4,0.0494 0.90271,0.36523 -0.15871,0.64182 -2.35871,0.61465 -2.2,-0.0272 -2.93858,-0.326 -1.64129,-0.66406 z m 39.39129,0.0132 c 0.9625,-0.38516 2.1125,-0.33779 2.55555,0.10527 0.44306,0.44305 -0.34444,0.75818 -1.75,0.70029 -1.55326,-0.064 -1.8692,-0.37992 -0.80555,-0.80556 z M 365,521.78361 c 0.91667,-0.36988 2.41667,-0.36988 3.33333,0 0.91667,0.36988 0.16667,0.67252 -1.66666,0.67252 -1.83334,0 -2.58334,-0.30264 -1.66667,-0.67252 z m 20.08333,-0.0278 c 0.9625,-0.38516 2.1125,-0.33779 2.55556,0.10527 0.44305,0.44305 -0.34445,0.75818 -1.75,0.70029 -1.55326,-0.064 -1.8692,-0.37992 -0.80556,-0.80556 z m 17.33334,0 c 0.9625,-0.38516 2.1125,-0.33779 2.55555,0.10527 0.44306,0.44305 -0.34444,0.75818 -1.75,0.70029 -1.55326,-0.064 -1.8692,-0.37992 -0.80555,-0.80556 z M 417,521.78361 c 0.91667,-0.36988 2.41667,-0.36988 3.33333,0 0.91667,0.36988 0.16667,0.67252 -1.66666,0.67252 -1.83334,0 -2.58334,-0.30264 -1.66667,-0.67252 z m 34.68221,-0.06 c 1.65855,-0.31893 4.05855,-0.30682 5.33334,0.0269 1.27478,0.33372 -0.0822,0.59466 -3.01555,0.57986 -2.93333,-0.0148 -3.97634,-0.28785 -2.31779,-0.60677 z m 45.31779,0.06 c 0.91667,-0.36988 2.41667,-0.36988 3.33333,0 0.91667,0.36988 0.16667,0.67252 -1.66666,0.67252 -1.83334,0 -2.58334,-0.30264 -1.66667,-0.67252 z"
         id="path35" />
      <path
         style="fill:#b3b3b3;fill-opacity:1"
         d="m 402.77193,509.88887 c 0.064,-1.55325 0.37992,-1.86919 0.80556,-0.80555 0.38516,0.9625 0.33779,2.1125 -0.10527,2.55555 -0.44305,0.44306 -0.75818,-0.34444 -0.70029,-1.75 z m 0.10526,-40.55555 c 0,-1.83333 0.30263,-2.58333 0.67252,-1.66667 0.36988,0.91667 0.36988,2.41667 0,3.33334 -0.36989,0.91666 -0.67252,0.16666 -0.67252,-1.66667 z"
         id="path34" />
      <path
         style="fill:#acacac;fill-opacity:1"
         d="m 403.04802,501.99999 c 0.01,-3.66667 0.26895,-5.00842 0.57542,-2.98167 0.30647,2.02675 0.29828,5.02675 -0.0182,6.66667 -0.31648,1.63991 -0.56723,-0.0183 -0.55722,-3.685 z"
         id="path33" />
      <path
         style="fill:#a6a6a6;fill-opacity:1"
         d="m 462.87719,471.99999 c 0,-1.83334 0.30263,-2.58334 0.67252,-1.66667 0.36988,0.91667 0.36988,2.41667 0,3.33333 -0.36989,0.91667 -0.67252,0.16667 -0.67252,-1.66666 z"
         id="path32" />
      <path
         style="fill:#a2a2a2;fill-opacity:1"
         d="m 470.41667,463.08917 c 0.9625,-0.38516 2.1125,-0.33779 2.55555,0.10526 0.44306,0.44306 -0.34444,0.75819 -1.75,0.70029 -1.55326,-0.064 -1.8692,-0.37992 -0.80555,-0.80555 z"
         id="path31" />
      <path
         style="fill:#9c9c9c;fill-opacity:1"
         d="m 149.4386,596.55554 c 0.064,-1.55326 0.37992,-1.8692 0.80555,-0.80556 0.38516,0.9625 0.33779,2.1125 -0.10526,2.55556 -0.44306,0.44305 -0.75819,-0.34445 -0.70029,-1.75 z m 18.89473,-140.14132 c 1.28334,-0.33537 3.38334,-0.33537 4.66667,0 1.28333,0.33537 0.23333,0.60976 -2.33333,0.60976 -2.56667,0 -3.61667,-0.27439 -2.33334,-0.60976 z m 72.02538,-0.005 c 1.29729,-0.33805 3.09729,-0.31582 4,0.0494 0.90271,0.36523 -0.15871,0.64182 -2.35871,0.61465 -2.2,-0.0272 -2.93858,-0.326 -1.64129,-0.66406 z m 101.99017,-0.019 c 1.65855,-0.31893 4.05855,-0.30682 5.33333,0.0269 1.27479,0.33373 -0.0822,0.59467 -3.01554,0.57987 -2.93334,-0.0148 -3.97634,-0.28785 -2.31779,-0.60677 z"
         id="path30" />
      <path
         style="fill:#989898;fill-opacity:1"
         d="m 388.10526,504.55554 c 0.064,-1.55326 0.37992,-1.8692 0.80556,-0.80555 0.38516,0.9625 0.33779,2.1125 -0.10526,2.55555 -0.44306,0.44306 -0.75819,-0.34444 -0.7003,-1.75 z m 0.3079,-13.22222 c 0.007,-4.4 0.2564,-6.03925 0.55315,-3.64279 0.29675,2.39647 0.29062,5.99647 -0.0136,8 -0.30423,2.00353 -0.54702,0.0428 -0.53954,-4.35721 z M 73.083333,456.4225 c 0.9625,-0.38516 2.1125,-0.33779 2.555556,0.10527 0.443055,0.44305 -0.344445,0.75818 -1.75,0.70029 -1.553257,-0.064 -1.869199,-0.37992 -0.805556,-0.80556 z m 9.220261,-0.0515 c 2.366977,-0.29455 6.566977,-0.29939 9.333334,-0.0108 2.766356,0.28863 0.829739,0.52963 -4.303595,0.53554 -5.133333,0.006 -7.396716,-0.23024 -5.029739,-0.52479 z m 66.029736,-0.0177 c 3.48334,-0.27467 9.18334,-0.27467 12.66667,0 3.48333,0.27466 0.63333,0.49939 -6.33333,0.49939 -6.96667,0 -9.81667,-0.22473 -6.33334,-0.49939 z m 48.02538,0.0561 c 1.29729,-0.33805 3.09729,-0.31582 4,0.0494 0.90271,0.36523 -0.15871,0.64182 -2.35871,0.61465 -2.2,-0.0272 -2.93858,-0.326 -1.64129,-0.66406 z m 9.32629,-0.0328 c 2.02675,-0.30648 5.02675,-0.29829 6.66667,0.0182 1.63991,0.31648 -0.0183,0.56723 -3.685,0.55722 -3.66667,-0.01 -5.00842,-0.26895 -2.98167,-0.57542 z m 129.98167,0.0737 c 0.91666,-0.36988 2.41666,-0.36988 3.33333,0 0.91667,0.36988 0.16667,0.67251 -1.66667,0.67251 -1.83333,0 -2.58333,-0.30263 -1.66666,-0.67251 z M 387.75,456.4225 c 0.9625,-0.38516 2.1125,-0.33779 2.55556,0.10527 0.44305,0.44305 -0.34445,0.75818 -1.75,0.70029 -1.55326,-0.064 -1.8692,-0.37992 -0.80556,-0.80556 z m 11.91667,-0.0722 c 3.85,-0.26934 10.15,-0.26934 14,0 3.85,0.26934 0.7,0.4897 -7,0.4897 -7.7,0 -10.85,-0.22036 -7,-0.4897 z m 22.75,0.0722 c 0.9625,-0.38516 2.1125,-0.33779 2.55555,0.10527 0.44306,0.44305 -0.34444,0.75818 -1.75,0.70029 -1.55326,-0.064 -1.8692,-0.37992 -0.80555,-0.80556 z m 37.29469,-0.0737 c 3.87459,-0.27019 9.87459,-0.26735 13.33334,0.006 3.45875,0.27366 0.28863,0.49473 -7.0447,0.49126 -7.33333,-0.003 -10.16322,-0.22738 -6.28864,-0.49757 z"
         id="path29" />
      <path
         style="fill:#959595;fill-opacity:1"
         d="m 138.9266,705.99998 c 0.0272,-2.2 0.326,-2.93858 0.66405,-1.64129 0.33806,1.29729 0.31583,3.09729 -0.0494,4 -0.36523,0.90271 -0.64182,-0.15871 -0.61465,-2.35871 z M 388.10526,500.55554 c 0.064,-1.55326 0.37992,-1.8692 0.80556,-0.80555 0.38516,0.9625 0.33779,2.1125 -0.10526,2.55555 -0.44306,0.44306 -0.75819,-0.34444 -0.7003,-1.75 z m 0.27609,-22.55555 c 0.01,-3.66667 0.26895,-5.00842 0.57542,-2.98167 0.30648,2.02675 0.29829,5.02675 -0.0182,6.66667 -0.31648,1.63991 -0.56723,-0.0183 -0.55722,-3.685 z"
         id="path28" />
      <path
         style="fill:#919191;fill-opacity:1"
         d="m 149.08333,668.4225 c 0.9625,-0.38516 2.1125,-0.3378 2.55556,0.10526 0.44305,0.44305 -0.34445,0.75819 -1.75,0.70029 -1.55326,-0.064 -1.8692,-0.37992 -0.80556,-0.80555 z m 187.27538,-70.67984 c 1.29729,-0.33806 3.09729,-0.31582 4,0.0494 0.90271,0.36523 -0.15871,0.64182 -2.35871,0.61465 -2.2,-0.0272 -2.93858,-0.326 -1.64129,-0.66406 z m -89.58678,-87.85379 c 0.064,-1.55325 0.37992,-1.86919 0.80556,-0.80555 0.38516,0.9625 0.33779,2.1125 -0.10527,2.55555 -0.44305,0.44306 -0.75818,-0.34444 -0.70029,-1.75 z m 0.10526,-7.22222 c 0,-1.83333 0.30263,-2.58333 0.67252,-1.66666 0.36988,0.91666 0.36988,2.41666 0,3.33333 -0.36989,0.91667 -0.67252,0.16667 -0.67252,-1.66667 z m 0.28823,-19.33333 c 0.003,-8.06667 0.22262,-11.19476 0.48802,-6.95132 0.2654,4.24345 0.26294,10.84345 -0.005,14.66667 -0.26841,3.82322 -0.48556,0.35132 -0.48255,-7.71535 z m -91.49875,7.78363 c 0.91666,-0.36989 2.41666,-0.36989 3.33333,0 0.91667,0.36988 0.16667,0.67251 -1.66667,0.67251 -1.83333,0 -2.58333,-0.30263 -1.66666,-0.67251 z m 31,-451.620358 c 0,-0.276874 1.05,-1.326874 2.33333,-2.333333 2.11474,-1.658495 2.1619,-1.611334 0.50341,0.503407 -1.74183,2.220997 -2.83674,2.927305 -2.83674,1.829926 z"
         id="path27" />
      <path
         style="fill:#878787;fill-opacity:1"
         d="m 313.64267,505.33332 c 0,-2.56667 0.27439,-3.61667 0.60976,-2.33333 0.33537,1.28333 0.33537,3.38333 0,4.66666 -0.33537,1.28334 -0.60976,0.23334 -0.60976,-2.33333 z"
         id="path26" />
      <path
         style="fill:#848484;fill-opacity:1"
         d="m 139.11494,685.33331 c 0,-5.5 0.23536,-7.75 0.52302,-5 0.28766,2.75 0.28766,7.25 0,10 -0.28766,2.75 -0.52302,0.5 -0.52302,-5 z M 14.77193,511.22221 c 0.06398,-1.55326 0.37992,-1.8692 0.805555,-0.80556 0.385161,0.9625 0.337793,2.1125 -0.105263,2.55556 -0.443055,0.44305 -0.758187,-0.34445 -0.700292,-1.75 z m 448,-4 c 0.064,-1.55326 0.37992,-1.8692 0.80556,-0.80556 0.38516,0.9625 0.33779,2.1125 -0.10527,2.55556 -0.44305,0.44305 -0.75818,-0.34445 -0.70029,-1.75 z M 412.35871,491.076 c 1.29729,-0.33806 3.09729,-0.31583 4,0.0494 0.90271,0.36523 -0.15871,0.64183 -2.35871,0.61465 -2.2,-0.0272 -2.93858,-0.32599 -1.64129,-0.66405 z"
         id="path25" />
      <path
         style="fill:#808080;fill-opacity:1"
         d="m 462.77193,503.22221 c 0.064,-1.55326 0.37992,-1.8692 0.80556,-0.80556 0.38516,0.9625 0.33779,2.1125 -0.10527,2.55556 -0.44305,0.44305 -0.75818,-0.34445 -0.70029,-1.75 z"
         id="path24" />
      <path
         style="fill:#7d7d7d;fill-opacity:1"
         d="m 462.77193,499.22221 c 0.064,-1.55326 0.37992,-1.8692 0.80556,-0.80556 0.38516,0.9625 0.33779,2.1125 -0.10527,2.55556 -0.44305,0.44305 -0.75818,-0.34445 -0.70029,-1.75 z"
         id="path23" />
      <path
         style="fill:#7a7a7a;fill-opacity:1"
         d="m 281.59326,608.66665 c 0.0272,-2.2 0.326,-2.93858 0.66406,-1.64129 0.33806,1.29729 0.31583,3.09729 -0.0494,4 -0.36524,0.90271 -0.64183,-0.15871 -0.61466,-2.35871 z m 0.2443,-19.33333 c 0,-8.43334 0.21649,-11.88334 0.48109,-7.66667 0.2646,4.21667 0.2646,11.11667 0,15.33333 -0.2646,4.21667 -0.48109,0.76667 -0.48109,-7.66666 z m -0.39896,-19.44445 c 0.064,-1.55325 0.37992,-1.8692 0.80555,-0.80555 0.38516,0.9625 0.33779,2.1125 -0.10526,2.55555 -0.44306,0.44306 -0.75819,-0.34444 -0.70029,-1.75 z m 29.33333,-105.33333 c 0.064,-1.55325 0.37992,-1.8692 0.80556,-0.80555 0.38516,0.9625 0.33779,2.1125 -0.10527,2.55555 -0.44305,0.44306 -0.75818,-0.34444 -0.70029,-1.75 z"
         id="path22" />
      <path
         style="fill:#767676;fill-opacity:1"
         d="m 310.87719,469.33332 c 0,-1.83333 0.30263,-2.58333 0.67252,-1.66667 0.36988,0.91667 0.36988,2.41667 0,3.33334 -0.36989,0.91666 -0.67252,0.16666 -0.67252,-1.66667 z"
         id="path21" />
      <path
         style="fill:#737373;fill-opacity:1"
         d="m 201.08333,668.4225 c 0.9625,-0.38516 2.1125,-0.3378 2.55556,0.10526 0.44305,0.44305 -0.34445,0.75819 -1.75,0.70029 -1.55326,-0.064 -1.8692,-0.37992 -0.80556,-0.80555 z M 89.781608,475.99999 c 0,-5.5 0.235358,-7.75 0.523017,-5 0.287658,2.75 0.287658,7.25 0,10 -0.287659,2.75 -0.523017,0.5 -0.523017,-5 z"
         id="path20" />
      <path
         style="fill:#6c6c6c;fill-opacity:1"
         d="m 235.66667,668.45027 c 0.91666,-0.36988 2.41666,-0.36988 3.33333,0 0.91667,0.36989 0.16667,0.67252 -1.66667,0.67252 -1.83333,0 -2.58333,-0.30263 -1.66666,-0.67252 z M 269.814,591.99998 c 0,-6.96666 0.22472,-9.81666 0.49939,-6.33333 0.27466,3.48333 0.27466,9.18333 0,12.66667 -0.27467,3.48333 -0.49939,0.63333 -0.49939,-6.33334 z m -0.14442,-19.33333 c 0.0148,-2.93333 0.28784,-3.97634 0.60677,-2.31779 0.31892,1.65855 0.30681,4.05855 -0.0269,5.33334 -0.33372,1.27478 -0.59466,-0.0822 -0.57986,-3.01555 z M 94.416667,496.4225 c 0.9625,-0.38516 2.1125,-0.33779 2.555555,0.10526 0.443056,0.44306 -0.344444,0.75819 -1.75,0.7003 -1.553257,-0.064 -1.869199,-0.37992 -0.805555,-0.80556 z"
         id="path19" />
      <path
         style="fill:#696969;fill-opacity:1"
         d="m 201.08333,697.75583 c 0.9625,-0.38516 2.1125,-0.33779 2.55556,0.10526 0.44305,0.44306 -0.34445,0.75819 -1.75,0.70029 -1.55326,-0.064 -1.8692,-0.37992 -0.80556,-0.80555 z M 231.75,668.4225 c 0.9625,-0.38516 2.1125,-0.3378 2.55556,0.10526 0.44305,0.44305 -0.34445,0.75819 -1.75,0.70029 -1.55326,-0.064 -1.8692,-0.37992 -0.80556,-0.80555 z m 37.79386,-61.75585 c 0,-1.83333 0.30263,-2.58333 0.67251,-1.66667 0.36989,0.91667 0.36989,2.41667 0,3.33334 -0.36988,0.91666 -0.67251,0.16666 -0.67251,-1.66667 z"
         id="path18" />
      <path
         style="fill:#656565;fill-opacity:1"
         d="m 267.75,668.4225 c 0.9625,-0.38516 2.1125,-0.3378 2.55556,0.10526 0.44305,0.44305 -0.34445,0.75819 -1.75,0.70029 -1.55326,-0.064 -1.8692,-0.37992 -0.80556,-0.80555 z M 178.87719,467.99999 c 0,-1.83334 0.30263,-2.58334 0.67252,-1.66667 0.36988,0.91667 0.36988,2.41667 0,3.33333 -0.36989,0.91667 -0.67252,0.16667 -0.67252,-1.66666 z"
         id="path17" />
      <path
         style="fill:#626262;fill-opacity:1"
         d="m 166.41667,643.08916 c 0.9625,-0.38516 2.1125,-0.33779 2.55555,0.10527 0.44306,0.44305 -0.34444,0.75818 -1.75,0.70029 -1.55326,-0.064 -1.8692,-0.37992 -0.80555,-0.80556 z M 76.473274,495.33332 c -0.0041,-6.6 0.221402,-9.4681 0.501034,-6.37356 0.279632,3.09454 0.282956,8.49453 0.0074,12 -0.275569,3.50546 -0.504359,0.97356 -0.508422,-5.62644 z m 61.070586,-15.33333 c 0,-1.83334 0.30263,-2.58334 0.67251,-1.66667 0.36989,0.91667 0.36989,2.41667 0,3.33333 -0.36988,0.91667 -0.67251,0.16667 -0.67251,-1.66666 z m -0.10526,-6.11111 c 0.064,-1.55326 0.37992,-1.8692 0.80555,-0.80556 0.38516,0.9625 0.33779,2.1125 -0.10526,2.55556 -0.44306,0.44305 -0.75819,-0.34445 -0.70029,-1.75 z m 41.488,-11.88889 c 0.0272,-2.2 0.326,-2.93858 0.66405,-1.64129 0.33806,1.29729 0.31583,3.09729 -0.0494,4 -0.36523,0.90271 -0.64182,-0.15871 -0.61465,-2.35871 z"
         id="path16" />
      <path
         style="fill:#5f5f5f;fill-opacity:1"
         d="m 137.82031,495.33332 c 0.003,-7.33333 0.22737,-10.16322 0.49756,-6.28864 0.27019,3.87458 0.26735,9.87458 -0.006,13.33334 -0.27366,3.45875 -0.49472,0.28863 -0.49125,-7.0447 z M 76.381352,477.99999 c 0.01001,-3.66667 0.26895,-5.00842 0.575423,-2.98167 0.306472,2.02675 0.298282,5.02675 -0.0182,6.66667 -0.316483,1.63991 -0.567233,-0.0183 -0.557223,-3.685 z"
         id="path15" />
      <path
         style="fill:#5b5b5b;fill-opacity:1"
         d="m 345.814,495.99999 c 0,-6.96667 0.22472,-9.81667 0.49939,-6.33334 0.27466,3.48334 0.27466,9.18334 0,12.66667 -0.27467,3.48333 -0.49939,0.63333 -0.49939,-6.33333 z m -0.14442,-19.33334 c 0.0148,-2.93333 0.28784,-3.97633 0.60677,-2.31778 0.31892,1.65855 0.30681,4.05855 -0.0269,5.33333 -0.33372,1.27478 -0.59466,-0.0822 -0.57986,-3.01555 z m -0.23098,-8.11111 c 0.064,-1.55325 0.37992,-1.8692 0.80555,-0.80555 0.38516,0.9625 0.33779,2.1125 -0.10526,2.55555 -0.44306,0.44306 -0.75819,-0.34444 -0.70029,-1.75 z"
         id="path14" />
      <path
         style="fill:#585858;fill-opacity:1"
         d="m 330.77193,591.22221 c 0.064,-1.55326 0.37992,-1.8692 0.80556,-0.80556 0.38516,0.9625 0.33779,2.1125 -0.10527,2.55556 -0.44305,0.44305 -0.75818,-0.34445 -0.70029,-1.75 z m 0.3215,-12.55556 c 0,-4.76667 0.242,-6.71667 0.53776,-4.33333 0.29577,2.38333 0.29577,6.28333 0,8.66666 -0.29576,2.38334 -0.53776,0.43334 -0.53776,-4.33333 z m -0.3215,-14.11111 c 0.064,-1.55326 0.37992,-1.8692 0.80556,-0.80556 0.38516,0.9625 0.33779,2.1125 -0.10527,2.55556 -0.44305,0.44306 -0.75818,-0.34444 -0.70029,-1.75 z M 299.75,491.08917 c 0.9625,-0.38516 2.1125,-0.33779 2.55556,0.10526 0.44305,0.44306 -0.34445,0.75819 -1.75,0.70029 -1.55326,-0.064 -1.8692,-0.37992 -0.80556,-0.80555 z"
         id="path13" />
      <path
         style="fill:#555555;fill-opacity:1"
         d="m 193.4386,572.55554 c 0.064,-1.55326 0.37992,-1.8692 0.80555,-0.80556 0.38516,0.9625 0.33779,2.1125 -0.10526,2.55556 -0.44306,0.44306 -0.75819,-0.34444 -0.70029,-1.75 z m 137.33333,-4 c 0.064,-1.55326 0.37992,-1.8692 0.80556,-0.80556 0.38516,0.9625 0.33779,2.1125 -0.10527,2.55556 -0.44305,0.44306 -0.75818,-0.34444 -0.70029,-1.75 z m -137.07544,-5.88889 c 0,-3.3 0.26002,-4.65 0.57782,-3 0.3178,1.65 0.3178,4.35 0,6 -0.3178,1.65 -0.57782,0.3 -0.57782,-3 z m 26.63684,-11.64672 c 3.48334,-0.27466 9.18334,-0.27466 12.66667,0 3.48333,0.27467 0.63333,0.49939 -6.33333,0.49939 -6.96667,0 -9.81667,-0.22472 -6.33334,-0.49939 z m 48.71137,-0.004 c 3.87458,-0.27019 9.87458,-0.26735 13.33333,0.006 3.45875,0.27366 0.28864,0.49472 -7.0447,0.49125 -7.33333,-0.003 -10.16322,-0.22738 -6.28863,-0.49756 z m 47.28863,0.004 c 3.48334,-0.27466 9.18334,-0.27466 12.66667,0 3.48333,0.27467 0.63333,0.49939 -6.33333,0.49939 -6.96667,0 -9.81667,-0.22472 -6.33334,-0.49939 z m 24,0.0609 c 1.28334,-0.33537 3.38334,-0.33537 4.66667,0 1.28333,0.33537 0.23333,0.60977 -2.33333,0.60977 -2.56667,0 -3.61667,-0.2744 -2.33334,-0.60977 z M 89.438596,503.22221 c 0.06398,-1.55326 0.379921,-1.8692 0.805556,-0.80556 0.385161,0.9625 0.337792,2.1125 -0.105263,2.55556 -0.443056,0.44305 -0.758187,-0.34445 -0.700293,-1.75 z M 304.33333,491.08089 c 1.28334,-0.33537 3.38334,-0.33537 4.66667,0 1.28333,0.33537 0.23333,0.60976 -2.33333,0.60976 -2.56667,0 -3.61667,-0.27439 -2.33334,-0.60976 z"
         id="path12" />
      <path
         style="fill:#515151;fill-opacity:1"
         d="m 368.10526,704.55554 c 0.064,-1.55326 0.37992,-1.8692 0.80556,-0.80556 0.38516,0.9625 0.33779,2.1125 -0.10526,2.55556 -0.44306,0.44305 -0.75819,-0.34445 -0.7003,-1.75 z m -55.6246,-88.55556 c 0,-6.96666 0.22473,-9.81666 0.49939,-6.33333 0.27467,3.48333 0.27467,9.18333 0,12.66667 -0.27466,3.48333 -0.49939,0.63333 -0.49939,-6.33334 z m 0.0236,-34.66666 c 0,-8.43334 0.21649,-11.88334 0.48109,-7.66667 0.2646,4.21667 0.2646,11.11667 0,15.33333 -0.2646,4.21667 -0.48109,0.76667 -0.48109,-7.66666 z m -102.1709,-30.21638 c 0.91667,-0.36988 2.41667,-0.36988 3.33334,0 0.91666,0.36989 0.16666,0.67252 -1.66667,0.67252 -1.83333,0 -2.58333,-0.30263 -1.66667,-0.67252 z m 29.33334,0 c 0.91666,-0.36988 2.41666,-0.36988 3.33333,0 0.91667,0.36989 0.16667,0.67252 -1.66667,0.67252 -1.83333,0 -2.58333,-0.30263 -1.66666,-0.67252 z m 96.08333,-0.0278 c 0.9625,-0.38516 2.1125,-0.3378 2.55556,0.10526 0.44305,0.44305 -0.34445,0.75819 -1.75,0.70029 -1.55326,-0.064 -1.8692,-0.37992 -0.80556,-0.80555 z m -96.97807,-83.86696 c 0.064,-1.55326 0.37992,-1.8692 0.80556,-0.80556 0.38516,0.9625 0.33779,2.1125 -0.10527,2.55556 -0.44305,0.44305 -0.75818,-0.34445 -0.70029,-1.75 z"
         id="path11" />
      <path
         style="fill:#4e4e4e;fill-opacity:1"
         d="m 239.15995,483.99999 c 0,-7.7 0.22037,-10.85 0.48971,-7 0.26933,3.85 0.26933,10.15 0,14 -0.26934,3.85 -0.48971,0.7 -0.48971,-7 z"
         id="path10" />
      <path
         style="fill:#4a4a4a;fill-opacity:1"
         d="m 467.75,492.4225 c 0.9625,-0.38516 2.1125,-0.33779 2.55556,0.10526 0.44305,0.44306 -0.34445,0.75819 -1.75,0.7003 -1.55326,-0.064 -1.8692,-0.37992 -0.80556,-0.80556 z m -18.3114,-6.53362 c 0.064,-1.55326 0.37992,-1.8692 0.80555,-0.80556 0.38516,0.9625 0.33779,2.1125 -0.10526,2.55556 -0.44306,0.44305 -0.75819,-0.34445 -0.70029,-1.75 z m 0.20407,-9.88889 c 0,-2.56667 0.27439,-3.61667 0.60976,-2.33334 0.33537,1.28334 0.33537,3.38334 0,4.66667 -0.33537,1.28333 -0.60976,0.23333 -0.60976,-2.33333 z m -20.09881,-12 c 0,-1.83334 0.30263,-2.58334 0.67251,-1.66667 0.36989,0.91667 0.36989,2.41667 0,3.33333 -0.36988,0.91667 -0.67251,0.16667 -0.67251,-1.66666 z M 253.08333,409.75584 c 0.9625,-0.38516 2.1125,-0.3378 2.55556,0.10526 0.44305,0.44306 -0.34445,0.75819 -1.75,0.70029 -1.55326,-0.064 -1.8692,-0.37992 -0.80556,-0.80555 z"
         id="path9" />
      <path
         style="fill:#474747;fill-opacity:1"
         d="m 216.54279,587.99998 c 0,-12.1 0.20214,-17.05 0.44919,-11 0.24706,6.05 0.24706,15.95 0,22 -0.24705,6.05 -0.44919,1.1 -0.44919,-11 z m 233.22806,-88.66666 c 0.006,-5.13333 0.24691,-7.06995 0.53555,-4.30359 0.28863,2.76635 0.28379,6.96635 -0.0108,9.33333 -0.29455,2.36698 -0.5307,0.10359 -0.52479,-5.02974 z m -0.33225,-17.44444 c 0.064,-1.55326 0.37992,-1.8692 0.80555,-0.80556 0.38516,0.9625 0.33779,2.1125 -0.10526,2.55556 -0.44306,0.44305 -0.75819,-0.34445 -0.70029,-1.75 z M 262.41667,409.75584 c 0.9625,-0.38516 2.1125,-0.3378 2.55555,0.10526 0.44306,0.44306 -0.34444,0.75819 -1.75,0.70029 -1.55326,-0.064 -1.8692,-0.37992 -0.80555,-0.80555 z"
         id="path8" />
      <path
         style="fill:#444444;fill-opacity:1"
         d="m 377.54386,578.66665 c 0,-1.83333 0.30263,-2.58333 0.67251,-1.66667 0.36989,0.91667 0.36989,2.41667 0,3.33334 -0.36988,0.91666 -0.67251,0.16666 -0.67251,-1.66667 z M 301.4386,504.55554 c 0.064,-1.55326 0.37992,-1.8692 0.80555,-0.80555 0.38516,0.9625 0.33779,2.1125 -0.10526,2.55555 -0.44306,0.44306 -0.75819,-0.34444 -0.70029,-1.75 z m 30.87074,-4.55555 c 0,-2.56667 0.27439,-3.61667 0.60976,-2.33334 0.33537,1.28334 0.33537,3.38334 0,4.66667 -0.33537,1.28333 -0.60976,0.23333 -0.60976,-2.33333 z"
         id="path7" />
      <path
         style="fill:#404040;fill-opacity:1"
         d="m 144.33333,716.41421 c 1.28334,-0.33537 3.38334,-0.33537 4.66667,0 1.28333,0.33537 0.23333,0.60977 -2.33333,0.60977 -2.56667,0 -3.61667,-0.2744 -2.33334,-0.60977 z m 44.75,0.008 c 0.9625,-0.38516 2.1125,-0.33779 2.55556,0.10527 0.44305,0.44305 -0.34445,0.75819 -1.75,0.70029 -1.55326,-0.064 -1.8692,-0.37992 -0.80556,-0.80556 z M 332.10526,505.88887 c 0.064,-1.55325 0.37992,-1.86919 0.80556,-0.80555 0.38516,0.9625 0.33779,2.1125 -0.10526,2.55555 -0.44306,0.44306 -0.75819,-0.34444 -0.7003,-1.75 z m 0.36063,-20.55555 c 0,-6.23333 0.22967,-8.78333 0.51038,-5.66667 0.28072,3.11667 0.28072,8.21667 0,11.33334 -0.28071,3.11666 -0.51038,0.56666 -0.51038,-5.66667 z M 161.69204,463.076 c 1.29729,-0.33806 3.09729,-0.31583 4,0.0494 0.90271,0.36524 -0.15871,0.64183 -2.35871,0.61466 -2.2,-0.0272 -2.93858,-0.326 -1.64129,-0.66406 z m 246.66667,0 c 1.29729,-0.33806 3.09729,-0.31583 4,0.0494 0.90271,0.36524 -0.15871,0.64183 -2.35871,0.61466 -2.2,-0.0272 -2.93858,-0.326 -1.64129,-0.66406 z"
         id="path6" />
      <path
         style="fill:#3d3d3d;fill-opacity:1"
         d="m 151.66667,716.45027 c 0.91666,-0.36988 2.41666,-0.36988 3.33333,0 0.91667,0.36989 0.16667,0.67252 -1.66667,0.67252 -1.83333,0 -2.58333,-0.30263 -1.66666,-0.67252 z m -6.22807,-22.5614 c 0.064,-1.55326 0.37992,-1.8692 0.80555,-0.80556 0.38516,0.9625 0.33779,2.1125 -0.10526,2.55556 -0.44306,0.44306 -0.75819,-0.34444 -0.70029,-1.75 z m 5.64123,-193.22222 c 0.007,-4.4 0.2564,-6.03925 0.55315,-3.64278 0.29674,2.39646 0.29062,5.99646 -0.0136,7.99999 -0.30423,2.00354 -0.54703,0.0428 -0.53954,-4.35721 z m 181.22951,-30 c 0,-2.56666 0.27439,-3.61666 0.60976,-2.33333 0.33537,1.28333 0.33537,3.38333 0,4.66667 -0.33537,1.28333 -0.60976,0.23333 -0.60976,-2.33334 z m -176.64267,-7.5497 c 0.91666,-0.36989 2.41666,-0.36989 3.33333,0 0.91667,0.36988 0.16667,0.67251 -1.66667,0.67251 -1.83333,0 -2.58333,-0.30263 -1.66666,-0.67251 z"
         id="path5" />
      <path
         style="fill:#393939;fill-opacity:1"
         d="m 145.7601,683.99998 c 0,-4.76667 0.24199,-6.71667 0.53776,-4.33333 0.29577,2.38333 0.29577,6.28333 0,8.66666 -0.29577,2.38334 -0.53776,0.43334 -0.53776,-4.33333 z m 185.28792,-62 c 0.01,-3.66666 0.26895,-5.00841 0.57542,-2.98166 0.30647,2.02675 0.29828,5.02675 -0.0182,6.66666 -0.31648,1.63992 -0.56723,-0.0183 -0.55722,-3.685 z m 4.63419,-62.94301 c 1.65855,-0.31892 4.05855,-0.30682 5.33334,0.0269 1.27478,0.33372 -0.0822,0.59466 -3.01555,0.57986 -2.93333,-0.0148 -3.97634,-0.28785 -2.31779,-0.60677 z"
         id="path4" />
      <path
         style="fill:#363636;fill-opacity:1"
         d="m 145.71469,704.66665 c 0.01,-3.66667 0.26895,-5.00842 0.57542,-2.98167 0.30647,2.02675 0.29828,5.02675 -0.0182,6.66667 -0.31648,1.63991 -0.56723,-0.0183 -0.55722,-3.685 z m 99.11669,-2.71822 c -1.28663,-3.35292 -0.90708,-4.21807 0.66472,-1.51511 0.77825,1.33833 1.13413,2.71421 0.79084,3.0575 -0.3433,0.34329 -0.99829,-0.35078 -1.45556,-1.54239 z M 142.66667,509.33332 c -1.7092,-1.10457 -1.66073,-1.29547 0.33333,-1.31292 1.28333,-0.0112 2.33333,0.57959 2.33333,1.31292 0,1.62615 -0.15038,1.62615 -2.66666,0 z m 332.66666,-18.66667 c 0.45323,-0.73333 1.08864,-1.33333 1.41203,-1.33333 0.32338,0 0.58797,0.6 0.58797,1.33333 0,0.73334 -0.63541,1.33334 -1.41202,1.33334 -0.77661,0 -1.0412,-0.6 -0.58798,-1.33334 z m -315.66666,-6.21637 c 0.91666,-0.36988 2.41666,-0.36988 3.33333,0 0.91667,0.36988 0.16667,0.67251 -1.66667,0.67251 -1.83333,0 -2.58333,-0.30263 -1.66666,-0.67251 z m 249.33333,0 c 0.91667,-0.36988 2.41667,-0.36988 3.33333,0 0.91667,0.36988 0.16667,0.67251 -1.66666,0.67251 -1.83334,0 -2.58334,-0.30263 -1.66667,-0.67251 z M 212.10526,313.88888 c 0.064,-1.55326 0.37992,-1.8692 0.80556,-0.80556 0.38516,0.9625 0.33779,2.1125 -0.10526,2.55556 -0.44306,0.44306 -0.75819,-0.34444 -0.7003,-1.75 z"
         id="path3" />
      <path
         style="fill:#333333;fill-opacity:1"
         d="M 137.21717,715.50088 C 139.86976,714.31726 140,713.26823 140,693.0866 c 0,-20.68212 -0.0695,-21.2027 -3,-22.47432 -2.10987,-0.91552 1.65384,-1.17382 12.68474,-0.87054 17.5736,0.48316 20.9937,1.88197 25.31319,10.35302 5.51534,10.81626 1.32452,30.2573 -7.28854,33.81125 -4.97144,2.05133 -35.03974,3.62402 -30.49222,1.59487 z m 27.86772,-4.31899 c 4.9516,-3.24441 7.25798,-10.43955 6.67179,-20.81375 -0.45846,-8.11361 -0.96749,-9.52768 -4.81447,-13.37467 -3.92362,-3.92362 -5.03325,-4.3029 -12.62201,-4.31431 l -8.3202,-0.0125 -0.3716,19.27202 c -0.20438,10.59961 -0.0421,20.13077 0.3607,21.18036 0.94456,2.46149 14.47789,1.08863 19.09579,-1.93714 z m 19.57868,3.98881 c 1.1252,-0.82277 3.47099,-5.62277 5.21287,-10.66667 1.74187,-5.04389 5.03225,-13.95703 7.31196,-19.80697 4.94686,-12.69408 5.02477,-13.67548 1.14493,-14.42277 -1.65,-0.3178 0.68006,-0.65953 5.1779,-0.7594 7.45803,-0.16559 8.2389,0.0825 8.87091,2.81842 1.75009,7.57601 14.68706,40.4982 16.45168,41.86645 1.58039,1.22541 0.62454,1.62682 -4.76245,2 -3.70683,0.25679 -6.73932,0.0169 -6.73887,-0.53311 4.6e-4,-0.55 0.90083,-1 2.00083,-1 2.53692,0 2.51275,-1.33122 -0.14477,-7.97302 l -2.14477,-5.36032 h -11.00742 -11.00742 l -2.32235,6.08101 c -1.2773,3.34456 -2.10882,6.25607 -1.84781,6.47003 0.261,0.21396 1.48192,0.92751 2.71317,1.58566 1.5846,0.84704 0.31147,1.19664 -4.3578,1.19664 -5.20238,0 -6.16407,-0.31615 -4.55059,-1.49595 z m 31.11421,-17.68741 c -0.24445,-0.65085 -2.24445,-6.63425 -4.44445,-13.29646 -2.2,-6.6622 -4.47844,-11.97021 -5.06321,-11.79557 -0.58476,0.17464 -2.76764,5.10805 -4.85083,10.96312 -2.08319,5.85508 -4.21894,11.6956 -4.74611,12.97893 -0.86388,2.10304 0.0535,2.33334 9.29528,2.33334 5.63957,0 10.05376,-0.53251 9.80932,-1.18336 z m 76.2488,17.60014 c -9.06734,-4.72271 -13.67198,-17.15343 -10.90907,-29.45022 2.42647,-10.79945 7.58051,-15.71557 17.96894,-17.13946 8.68879,-1.19093 17.21979,2.19628 21.02064,8.34618 6.58898,10.66119 4.27282,30.52636 -4.2683,36.60817 -5.61017,3.9948 -17.68945,4.82435 -23.81221,1.63533 z m 19.52389,-3.26366 c 5.427,-4.504 8.37377,-18.19791 5.89605,-27.39946 -0.81633,-3.03161 -3.21648,-7.36639 -5.33366,-9.63284 -3.17713,-3.40113 -4.87674,-4.12082 -9.73168,-4.12082 -10.04137,0 -15.71451,8.23821 -15.71451,22.81968 0,14.67481 8.39186,23.87996 19.12922,20.98311 2.08774,-0.56325 4.6773,-1.75561 5.75458,-2.64967 z m 31.78286,4.85824 c -0.73333,-0.24462 -2.98333,-0.80869 -5,-1.25347 -3.14288,-0.69318 -3.66666,-1.4717 -3.66666,-5.44996 0,-5.41617 2.17339,-6.11226 4.00909,-1.28402 1.45829,3.83561 6.05973,5.97609 12.84694,5.97609 6.20631,0 13.12301,-6.47182 11.74584,-10.99035 -1.6061,-5.26967 -4.79554,-7.62108 -14.09293,-10.38996 -9.77616,-2.91146 -12.72291,-5.01843 -13.97046,-9.98904 -2.14037,-8.52791 5.48163,-15.40903 16.79485,-15.16234 10.11239,0.22051 12.6125,1.41487 13.08448,6.25075 0.48949,5.01533 -1.92322,5.75543 -3.68201,1.12945 -2.22851,-5.86142 -13.63221,-6.94771 -18.50338,-1.76258 -6.23546,6.63734 -2.52934,12.2559 10.69776,16.21804 C 364.0914,693.11423 368,696.82444 368,703.6427 c 0,6.64622 -2.90119,10.59331 -9.03931,12.29803 -4.72426,1.31205 -12.76686,1.69149 -15.62736,0.73728 z M 242.80258,703.70765 c -10.56859,-28.86478 -12.31358,-32.8832 -14.53321,-33.46755 -1.24815,-0.3286 1.63063,-0.62902 6.3973,-0.6676 6.43816,-0.0521 7.89526,0.23991 5.66666,1.1357 -1.65,0.66322 -2.98397,1.37518 -2.96438,1.58215 0.0196,0.20696 3.24715,9.35215 7.17237,20.32264 6.34109,17.7226 10.12535,24.81532 10.12535,18.97766 0,-1.08068 3,-10.25591 6.66666,-20.38939 C 265,681.06777 268,672.34597 268,671.81946 c 0,-0.5265 -1.05,-1.23167 -2.33333,-1.56704 -1.28334,-0.33537 0.63134,-0.67937 4.25484,-0.76444 5.51516,-0.12947 6.23688,0.11678 4.43127,1.512 -1.18629,0.91667 -5.6949,11.26667 -10.01912,23 l -7.86223,21.33333 -4.56905,0.37434 -4.56905,0.37434 z m 2.69352,-3.27433 c -1.5718,-2.70296 -1.95135,-1.83781 -0.66472,1.51511 0.45727,1.19161 1.11226,1.88568 1.45556,1.54239 0.34329,-0.34329 -0.0126,-1.71917 -0.79084,-3.0575 z m -89.50473,-59.01246 c -19.30839,-5.87335 -29.18081,-26.96984 -25.38662,-54.24903 3.51202,-25.25046 16.05652,-37.25032 38.72858,-37.04711 5.5,0.0493 13.15,0.85124 17,1.7821 l 7,1.69247 v 12.61816 12.61816 l -4.26826,-0.41781 c -3.9961,-0.39117 -4.42534,-0.95288 -6.73133,-8.80873 -1.98976,-6.77855 -3.15521,-8.65785 -6.06507,-9.78005 -5.54905,-2.14001 -13.38212,-0.53861 -17.72711,3.62415 C 151.96032,569.7584 150,577.22802 150,595.99998 c 0,15.11163 0.31101,17.28851 3.33333,23.33141 4.51878,9.03493 10.24267,12.67703 19.86385,12.63931 4.53731,-0.0178 9.75112,-1.0646 13.28176,-2.66667 3.19675,-1.45056 6.08125,-2.63738 6.41,-2.63738 0.32874,0 0.41322,2.55 0.18772,5.66667 -0.39811,5.50242 -0.60322,5.7326 -7.07666,7.94163 -6.93706,2.36725 -23.86811,3.01377 -30.00863,1.14591 z m 79.34196,-0.16883 c -2.2,-0.64576 -6.2364,-3.02412 -8.96977,-5.28524 -7.83155,-6.47845 -9.03023,-12.60864 -9.03023,-46.18171 V 561.38751 L 212,558.66665 c -2.93333,-1.49647 -5.33333,-3.60867 -5.33333,-4.69376 0,-1.65397 3.2332,-1.97291 20,-1.97291 16.93661,0 20,0.308 20,2.0108 0,1.10594 -2.4,2.97109 -5.33334,4.14477 -2.93333,1.17369 -5.3551,2.81883 -5.38171,3.65587 -0.0266,0.83705 -0.005,14.34298 0.0474,30.01318 0.10058,29.90777 0.56902,32.65624 6.47699,38.00288 3.96575,3.58895 13.13694,4.19457 18.85728,1.24524 8.52877,-4.39732 9.33068,-7.93219 9.3177,-41.07274 l -0.0115,-29.33333 -5.31977,-2.23432 C 262.31463,557.17017 260,555.28474 260,554.099 c 0,-1.79319 2.33122,-2.09902 16,-2.09902 13.66878,0 16,0.30583 16,2.09902 0,1.17352 -2.3065,3.08403 -5.2311,4.33301 l -5.23111,2.234 -0.43815,31.33365 c -0.40559,29.00539 -0.65033,31.72995 -3.29368,36.66699 -3.61557,6.75287 -6.97578,9.78266 -13.38437,12.06825 -5.66989,2.02214 -22.91642,2.32875 -29.08826,0.51713 z m 67.33334,-2.38288 c 0,-1.58514 1.90252,-3.32209 5.33333,-4.86917 l 5.33333,-2.405 V 596.49125 561.38751 L 308,558.66665 c -2.93333,-1.49647 -5.33333,-3.65939 -5.33333,-4.80647 0,-1.84167 3.39194,-2.03344 29,-1.63957 28.0632,0.43163 29.1875,0.55338 34.80428,3.76891 7.64026,4.37394 10.86238,10.72851 10.86238,21.42251 0,18.33387 -10.81525,27.07462 -35.71403,28.86362 l -11.04737,0.79377 0.3807,12.13195 0.3807,12.13195 5.61835,2.66666 c 3.38731,1.60774 5.63754,3.59323 5.66667,5 0.0439,2.12067 -1.77455,2.33334 -19.95168,2.33334 -18.56326,0 -20,-0.17702 -20,-2.46417 z m 49.22276,-44.76324 c 5.18884,-4.97122 7.25415,-11.34014 6.43658,-19.84885 -0.87769,-9.13421 -5.78221,-13.66407 -16.20405,-14.96619 -11.66112,-1.45696 -11.26506,-2.14319 -11.7211,20.30802 L 330,599.33332 l 8.92025,-0.67415 c 7.5346,-0.56942 9.54921,-1.27671 12.96918,-4.55326 z M 28,521.7441 c -1.833333,-0.30767 -5.283333,-1.1725 -7.666667,-1.92183 C 16.144713,518.50535 16,518.2184 16,511.22992 c 0,-6.69272 0.231999,-7.22993 3.122283,-7.22993 2.465678,0 3.444818,1.07652 4.655999,5.11908 1.29706,4.3292 2.350643,5.36385 6.828056,6.70531 12.335206,3.69572 22.629595,-8.07913 14.566754,-16.66163 -1.554799,-1.65501 -7.210553,-4.60791 -12.568341,-6.562 -12.1112,-4.4172 -15.455233,-7.77323 -16.278049,-16.33645 -0.76894,-8.00251 2.016019,-14.00549 7.912067,-17.05445 5.721996,-2.95896 17.709982,-3.7103 25.722201,-1.61212 l 6.627636,1.73559 -0.138545,7.33333 c -0.127533,6.75038 -0.385436,7.33334 -3.244284,7.33334 -2.487886,0 -3.340188,-0.99136 -4.284238,-4.98321 -1.013768,-4.28665 -1.887873,-5.17422 -6.253411,-6.34973 -6.044053,-1.6275 -10.785449,-0.18728 -13.86691,4.21212 -4.907862,7.00696 -0.731709,12.66343 13.064218,17.69508 11.198833,4.08444 16.074384,8.12483 17.32006,14.35322 C 62.371892,514.85945 48.304647,525.15164 28,521.7441 Z m 250.24507,-1.0092 c -6.42496,-2.29142 -9.78739,-5.33173 -13.34693,-12.06825 -4.18134,-7.91329 -4.15619,-29.64818 0.0434,-37.49894 3.7951,-7.09462 9.74886,-12.04293 16.78576,-13.95105 6.00159,-1.62739 19.37314,-0.91975 25.31607,1.33975 3.38881,1.28842 3.62331,1.89745 3.62331,9.41058 0,7.53484 -0.19363,8.033 -3.12229,8.033 -2.48532,0 -3.44693,-1.08358 -4.71367,-5.31158 -1.8629,-6.21782 -4.60171,-8.02176 -12.17895,-8.02176 -10.48556,0 -15.96319,9.31767 -15.97766,27.17864 -0.0172,21.25046 8.77164,30.32178 23.43973,24.19306 4.61238,-1.92717 4.68775,-2.08389 4.29051,-8.92127 -0.38409,-6.611 -0.62141,-7.01558 -4.73767,-8.07648 -2.41952,-0.6236 -4.33334,-1.98332 -4.33334,-3.07874 0,-1.55255 2.08637,-1.96187 10,-1.96187 h 10 v 12.5049 c 0,12.38568 -0.035,12.51935 -3.66666,14.01941 -4.13124,1.70638 -17.93803,4.15325 -23,4.07611 -1.83334,-0.0279 -5.62305,-0.86742 -8.4216,-1.86551 z M 69.333333,520.03423 c 0,-0.71451 1.8,-2.22991 4,-3.36758 l 4,-2.06848 v -25.26485 -25.26485 l -4,-2.06848 c -7.241447,-3.7447 -4.592188,-4.66667 13.409574,-4.66667 28.033343,0 34.511583,2.98907 35.626903,16.43832 1.14406,13.79588 -6.32895,20.86505 -23.201686,21.94787 l -9.834791,0.63116 v 9.22735 c 0,9.05385 0.07521,9.25357 4,10.62176 2.2,0.76692 4,2.23571 4,3.26397 0,1.48517 -2.878548,1.86957 -14,1.86957 -8.198445,0 -14,-0.53834 -14,-1.29909 z m 31.201897,-29.8934 c 6.20264,-2.59162 8.7981,-6.86862 8.7981,-14.49812 0,-9.06159 -4.00396,-12.97606 -13.272724,-12.97606 h -6.727273 v 13.77778 c 0,7.57778 0.4,14.17778 0.888889,14.66667 1.420587,1.42058 5.512202,1.03564 10.313008,-0.97027 z m 30.13144,29.8934 c 0,-0.71451 1.8,-2.22991 4,-3.36758 l 4,-2.06848 v -25.26485 -25.26485 l -4,-2.06848 c -2.2,-1.13767 -4,-2.65308 -4,-3.36758 0,-0.79512 9.3106,-1.29909 24,-1.29909 h 24 v 8 c 0,7.49097 -0.19786,8 -3.10963,8 -2.41883,0 -3.44279,-1.08557 -4.60939,-4.88667 -0.82486,-2.68767 -1.28142,-5.23767 -1.01457,-5.66667 0.26685,-0.42899 -3.80892,-0.47999 -9.05728,-0.11333 l -9.54247,0.66667 -0.3961,9.88252 c -0.24521,6.11775 0.15817,10.22507 1.05887,10.78174 0.80024,0.49457 5.02849,0.74917 9.39611,0.56577 7.5981,-0.31904 7.94112,-0.19443 7.94112,2.88493 0,3.09576 -0.35556,3.21837 -9.33333,3.21837 h -9.33333 v 12 12 h 8.61046 8.61046 l 3.51623,-6 c 2.31137,-3.94404 4.43144,-6 6.18712,-6 2.48866,0 2.60612,0.56857 1.72159,8.33334 -0.52211,4.58333 -1.21643,8.78333 -1.54293,9.33333 -0.90667,1.5273 -47.10293,1.23396 -47.10293,-0.29909 z m 14.66666,-10.70091 c 0,-0.73333 -1.05,-1.32415 -2.33333,-1.31292 -1.99406,0.0174 -2.04253,0.20835 -0.33333,1.31292 2.51628,1.62615 2.66666,1.62615 2.66666,0 z m 46.0351,10.72345 c -0.43393,-0.7021 1.03066,-2.21751 3.25464,-3.36757 l 4.0436,-2.09103 v -25.94035 -25.94036 l -3.33334,-0.83661 C 193.5,461.42071 192,460.20928 192,459.18878 c 0,-1.45443 2.66565,-1.84615 12.33333,-1.81239 l 12.33334,0.0431 L 226,479.50273 c 5.13333,12.14579 9.63333,23.62691 10,25.5136 0.36667,1.88668 1.41667,3.67983 2.33333,3.98477 C 239.6232,509.43019 240,504.41365 240,486.812 v -22.74353 l -4,-2.06848 c -6.63406,-3.43061 -4.69168,-4.66667 7.33333,-4.66667 6.39114,0 11.33334,0.56098 11.33334,1.28642 0,1.74404 -5.16327,4.3978 -7.10419,3.65134 -1.17266,-0.451 -1.46717,6.84163 -1.18046,29.23066 l 0.38201,29.83158 h -7.80559 -7.80559 l -9.79237,-23 c -5.3858,-12.65 -10.50227,-25.36903 -11.36994,-28.2645 -2.18321,-7.28559 -5.36173,-8.22794 -4.20871,-1.24778 0.47052,2.84842 0.86209,14.5639 0.87016,26.0344 l 0.0147,20.85546 3.33333,0.83661 c 1.83333,0.46014 3.33333,1.72518 3.33333,2.81121 0,1.57814 -2.12587,1.9746 -10.58797,1.9746 -5.82339,0 -10.94301,-0.57445 -11.37693,-1.27655 z m 133.9649,-0.6336 c 0,-1.05058 1.35,-2.33145 3,-2.84638 1.65,-0.51492 3.44082,-1.60535 3.97959,-2.42318 0.53877,-0.81783 0.98877,-12.42155 1,-25.78605 l 0.0204,-24.29909 -4,-2.06848 c -6.94438,-3.59108 -4.63956,-4.66667 10,-4.66667 14.63957,0 16.94439,1.07559 10,4.66667 l -4,2.06848 v 25.36271 25.36272 l 8.24994,-0.39696 8.24993,-0.39695 2.75007,-5.64391 c 2.01484,-4.13501 3.46299,-5.56066 5.41673,-5.33252 2.79188,0.32601 3.08653,3.51801 1.29015,13.97643 l -0.74432,4.33333 h -22.60625 c -18.73295,0 -22.60625,-0.32728 -22.60625,-1.91015 z m 56,0.61106 c 0,-0.71451 1.77593,-2.21747 3.94651,-3.33991 l 3.94651,-2.04082 0.38682,-26.49192 c 0.28967,-19.83758 -0.006,-26.34091 -1.17565,-25.89075 -1.94079,0.74672 -7.10419,-1.90692 -7.10419,-3.65109 0,-0.77869 9.47236,-1.28642 24,-1.28642 h 24 v 8 c 0,7.55617 -0.17758,8 -3.20088,8 -2.60057,0 -3.42171,-0.93772 -4.37837,-5 l -1.17749,-5 -8.58705,-0.40471 c -4.72288,-0.22259 -8.90261,-0.91722 -9.2883,-1.54362 C 402.31556,460.75859 402,465.8156 402,472.62278 v 12.3767 l 9,-0.2768 c 8.61819,-0.26506 9,-0.14484 9,2.83359 0,2.93928 -0.47677,3.11038 -8.66667,3.11038 h -8.66666 v 12 12 h 8.40098 8.40097 l 2.95842,-6.08932 c 2.36902,-4.87613 3.55092,-6.00511 5.93236,-5.66666 1.63566,0.23246 2.88206,0.8794 2.76978,1.43764 -0.11229,0.55825 -0.6212,4.60825 -1.13092,9 l -0.92676,7.98501 h -23.86908 c -14.60442,0 -23.86909,-0.50424 -23.86909,-1.29909 z m 61.33334,-0.57048 c 0,-1.02826 1.8,-2.49705 4,-3.26397 l 4,-1.39441 v -25.36845 -25.36845 l -4,-2.06848 c -2.2,-1.13767 -4,-2.65308 -4,-3.36758 0,-1.72813 36.5239,-1.69427 42.76567,0.0396 9.02774,2.50784 13.29692,11.19222 10.53829,21.43698 -1.24172,4.61141 -5.57222,9.49342 -9.70421,10.9401 -2.60272,0.91125 9.04503,23.36096 13.07267,25.19608 6.29547,2.8684 4.02961,5.0881 -5.19392,5.0881 h -8.5215 l -5.65605,-13 c -3.11083,-7.15 -6.24962,-13.75 -6.9751,-14.66667 -0.72547,-0.91666 -3.34557,-1.66666 -5.82245,-1.66666 h -4.5034 v 11.36191 c 0,10.82549 0.15737,11.43363 3.33333,12.88069 1.83333,0.83532 3.33333,2.32246 3.33333,3.30475 0,1.37335 -3.08049,1.78598 -13.33333,1.78598 -10.54953,0 -13.33333,-0.39034 -13.33333,-1.86957 z m 34.66666,-28.7971 c 0,-0.73333 -0.26459,-1.33333 -0.58797,-1.33333 -0.32339,0 -0.9588,0.6 -1.41203,1.33333 -0.45322,0.73334 -0.18863,1.33334 0.58798,1.33334 0.77661,0 1.41202,-0.6 1.41202,-1.33334 z m 2.05682,-5.71066 c 2.57607,-2.21584 3.72861,-4.7275 4.23633,-9.23196 0.60595,-5.37594 0.24675,-6.63869 -2.73723,-9.62267 -2.86489,-2.86489 -4.66136,-3.43471 -10.82864,-3.43471 h -7.39394 v 12.66667 12.66667 h 6.59231 c 4.94242,0 7.478,-0.76184 10.13117,-3.044 z M 182.11342,416.12855 c 2.40313,-2.18909 21.67458,-9.21085 32.78834,-11.94679 26.06166,-6.41575 48.28785,-6.68583 74.43157,-0.90445 13.31141,2.94366 36.82239,11.0114 35.6132,12.22059 -0.31222,0.31222 -6.20291,-0.33259 -13.09043,-1.43291 -21.40919,-3.42025 -50.0202,-5.11127 -70.52277,-4.16818 -19.74879,0.90842 -47.71321,3.98079 -55.88657,6.14009 -2.50429,0.6616 -4.00429,0.70284 -3.33334,0.0917 z m 83.48562,-47.0718 c 17.77103,-31.25773 76.58072,-161.94902 94.17336,-209.27906 9.41169,-25.32057 12.29466,-35.23844 13.11307,-45.11103 0.87729,-10.58293 -1.17244,-14.19034 -14.2188,-25.024302 -19.32371,-16.04679 -17.66672,-13.798698 -16.62199,-22.551546 1.06977,-8.962701 1.9612,-10.358496 5.83111,-9.130237 4.33551,1.376037 22.29955,15.238872 33.93033,26.184013 9.56583,9.001919 10.53137,10.385288 11.1492,15.974022 1.38312,12.51126 -5.50739,32.48638 -31.05142,90.01588 -22.94272,51.67092 -55.0727,113.00827 -84.0906,160.53217 -2.91051,4.76666 -7.52378,12.69028 -10.25171,17.60804 -2.72793,4.91776 -5.52929,9.2933 -6.22525,9.72343 -0.69595,0.43012 1.22226,-3.5935 4.2627,-8.94138 z m -9.49378,6.16546 c 0.064,-1.55326 0.37992,-1.8692 0.80556,-0.80555 0.38516,0.9625 0.33779,2.1125 -0.10526,2.55555 -0.44306,0.44306 -0.75819,-0.34444 -0.7003,-1.75 z m -14.92323,-6.88889 C 238.79118,364.11666 230.26237,349.56666 222.22912,335.99999 192.57707,285.9232 166.77246,235.608 142.9069,181.33333 122.39797,134.69225 115.99736,116.466 115.64348,103.69866 l -0.21374,-7.711728 7.9518,-8.114846 c 13.95575,-14.241908 35.03402,-30.538754 39.4987,-30.538754 1.74001,0 2.4717,1.684742 3.17443,7.30916 1.30521,10.446547 0.22551,13.138591 -7.1738,17.88672 -3.56129,2.285273 -10.24883,8.085022 -14.86121,12.888331 l -8.38614,8.733287 0.72051,10.92458 c 0.47181,7.15385 2.19157,15.29662 4.9825,23.59125 4.78036,14.20724 19.49442,52.10685 25.36486,65.33333 2.11563,4.76667 11.00107,24.86667 19.74542,44.66667 25.26934,57.2179 31.9298,71.62211 46.39379,100.33333 13.60653,27.00914 16.51233,33.74407 8.34143,19.33333 z m -28.27121,-55.25 c -0.42564,-1.06364 -0.74158,-0.7477 -0.80556,0.80556 -0.0579,1.40556 0.25724,2.19306 0.7003,1.75 0.44305,-0.44306 0.49042,-1.59306 0.10526,-2.55556 z m 37.96637,58.91667 c 0,-1.83333 0.30263,-2.58333 0.67252,-1.66667 0.36988,0.91667 0.36988,2.41667 0,3.33334 -0.36989,0.91666 -0.67252,0.16666 -0.67252,-1.66667 z m 7.14774,-5.33333 c 0.66616,-4.33107 6.02182,-34.39942 15.318,-86 2.11384,-11.73333 7.18011,-38.73333 11.25837,-60 16.43402,-85.69731 25.76646,-141.410018 23.98586,-143.19061 -0.31674,-0.316742 -2.17964,0.154822 -4.13977,1.04792 -4.5131,2.056304 -24.24458,6.818604 -27.78072,6.70503 C 275.2,85.181893 277.6,84.096865 282,82.817827 c 12.1341,-3.527268 18.08615,-7.275529 24.34482,-15.330974 4.19699,-5.401897 3.81689,-10.450595 -1.21858,-16.185679 C 299.97021,45.428781 293.08313,41.77161 280,37.95867 l -10,-2.914395 v -7.855471 -7.855471 l 4.59018,-0.436968 c 15.01671,-1.429534 45.07001,14.9158 50.25899,27.334771 2.83536,6.78598 2.24759,14.499494 -4.09952,53.799014 -6.75903,41.85 -15.84859,85.36698 -27.28657,130.63651 -36.26181,143.51804 -37.07373,146.63389 -35.43815,136 z m -11.12377,-11.00141 c -1.5837,-6.78256 -8.88698,-35.73193 -16.22952,-64.33192 -26.88523,-104.72091 -34.72779,-140.07664 -43.32856,-195.333333 -7.42465,-47.700599 -6.82087,-51.571431 9.93163,-63.671308 10.96676,-7.920996 28.04831,-14.14205 36.85223,-13.421481 l 5.20639,0.426125 0.3982,7.610563 0.3982,7.610563 -7.73153,2.162772 c -19.08561,5.338891 -28.60482,10.927159 -31.852,18.698771 -1.63786,3.919941 -1.64926,5.220758 -0.0787,8.979585 3.46313,8.288428 16.80179,16.679781 31.30494,19.693938 3.90815,0.812223 6.83179,1.75072 6.49696,2.085547 -0.90842,0.90842 -27.29414,-4.67703 -32.63375,-6.908061 -2.54537,-1.063524 -4.93753,-1.93368 -5.31591,-1.93368 -1.89286,0 6.40226,52.825919 16.33084,103.999999 7.55518,38.94103 12.2818,64.12895 19.89137,106 11.4187,62.83057 14.29613,79.60638 13.74827,80.15425 -0.28028,0.28027 -1.80534,-5.03978 -3.38903,-11.82233 z M 270.41667,85.755846 c 0.9625,-0.385161 2.1125,-0.337793 2.55555,0.105263 0.44306,0.443055 -0.34444,0.758187 -1.75,0.700292 -1.55326,-0.06398 -1.8692,-0.37992 -0.80555,-0.805555 z"
         id="path2" />
    </g>
  </g>
</svg>
